<?xml version="1.0" standalone="no"?>
<!DOCTYPE svg PUBLIC "-//W3C//DTD SVG 20010904//EN"
 "http://www.w3.org/TR/2001/REC-SVG-20010904/DTD/svg10.dtd">
<svg version="1.0" xmlns="http://www.w3.org/2000/svg"
 width="563.000000pt" height="614.000000pt" viewBox="0 0 563.000000 614.000000"
 preserveAspectRatio="xMidYMid meet">

<g transform="translate(0.000000,614.000000) scale(0.100000,-0.100000)"
fill="#000000" stroke="none">
<path d="M0 3070 l0 -3070 2815 0 2815 0 0 3070 0 3070 -2815 0 -2815 0 0
-3070z m2558 3008 c7 -7 12 -21 12 -33 0 -32 -20 -45 -67 -45 -37 0 -45 4 -53
26 -13 32 -13 30 6 48 18 19 85 21 102 4z m330 0 c16 -16 15 -53 0 -66 -7 -5
-40 -10 -73 -10 -66 0 -85 10 -85 42 0 35 20 46 85 46 34 0 66 -5 73 -12z
m290 3 c8 -5 12 -22 10 -42 -3 -32 -5 -34 -46 -37 -24 -2 -50 2 -58 9 -17 14
-18 51 -2 67 14 14 76 16 96 3z m297 -45 c36 -15 43 -33 25 -67 -13 -23 -47
-25 -78 -3 -26 18 -28 32 -6 62 18 26 16 26 59 8z m-1261 -12 c17 -44 -14 -80
-65 -72 -19 2 -25 10 -27 36 -3 26 1 34 20 41 36 15 65 13 72 -5z m-240 -60
c14 -36 6 -55 -29 -70 -64 -26 -105 -14 -105 32 0 37 121 72 134 38z m1787 -5
c19 -10 24 -34 13 -63 -8 -20 -53 -21 -99 -2 -36 16 -43 33 -24 68 9 17 17 19
51 14 22 -4 49 -11 59 -17z m-1250 -5 c17 -15 19 -15 34 0 18 18 145 24 145 6
0 -5 -14 -25 -31 -45 -37 -41 -80 -47 -114 -15 -20 18 -23 19 -35 5 -19 -23
-39 -18 -50 11 -17 45 16 70 51 38z m577 4 c32 -32 0 -78 -55 -78 -28 0 -43 8
-69 36 -19 20 -32 40 -29 45 9 14 139 11 153 -3z m88 -3 c11 -27 -5 -65 -26
-65 -16 0 -20 7 -20 33 0 19 3 37 7 40 11 12 33 7 39 -8z m-271 -41 c25 -25
45 -53 45 -62 0 -8 6 -23 13 -31 8 -9 22 -43 31 -76 10 -33 22 -70 27 -83 5
-13 9 -32 9 -43 0 -17 -4 -16 -31 12 -24 24 -36 30 -58 26 -29 -6 -60 6 -43
17 6 4 5 19 -4 43 -7 21 -13 46 -14 56 0 29 -44 77 -70 77 -19 0 -70 -63 -70
-87 0 -7 -5 -13 -11 -13 -6 0 -9 -18 -8 -47 l3 -48 -42 -1 c-32 0 -46 -6 -58
-22 -8 -12 -19 -22 -25 -22 -11 0 -1 50 12 65 5 5 9 23 9 40 0 17 7 40 15 51
8 10 15 28 15 39 1 28 61 113 96 136 17 11 47 19 72 19 38 0 48 -5 87 -46z
m525 5 c9 -16 17 -19 40 -14 28 6 112 -13 178 -41 64 -27 26 -89 -46 -73 -105
23 -135 34 -149 56 -12 18 -19 21 -29 12 -33 -27 -57 17 -34 62 14 25 27 24
40 -2z m-1192 -33 c3 -37 3 -38 -24 -32 -20 5 -31 2 -45 -13 -10 -10 -37 -22
-61 -26 -24 -4 -48 -11 -54 -16 -7 -5 -29 -10 -49 -11 -49 -2 -72 25 -51 56
17 26 158 68 202 60 23 -4 33 -1 38 11 12 31 41 13 44 -29z m1790 -31 c5 -40
-19 -57 -61 -43 -45 15 -49 21 -37 54 15 39 28 45 64 30 23 -9 32 -20 34 -41z
m-2338 26 c18 -34 11 -52 -24 -66 -41 -17 -62 -12 -70 18 -10 37 -7 45 22 55
42 16 60 14 72 -7z m917 -37 c3 -9 -1 -28 -10 -43 -14 -23 -22 -26 -69 -26
-48 0 -53 2 -62 27 -15 42 5 58 76 58 45 0 60 -4 65 -16z m553 1 c8 -10 9 -23
3 -42 -9 -25 -15 -28 -54 -29 -51 -1 -74 9 -89 37 -18 33 4 49 70 49 38 0 62
-5 70 -15z m733 -46 c23 -10 27 -18 25 -43 -3 -30 -5 -31 -47 -29 -51 2 -150
31 -169 48 -11 10 -12 17 -1 36 6 13 16 27 21 30 11 7 127 -22 171 -42z
m-1973 21 c14 -26 4 -60 -18 -60 -9 0 -35 -6 -57 -14 -22 -8 -59 -17 -82 -21
-39 -6 -44 -5 -55 20 -15 34 -2 47 77 69 33 10 65 19 70 21 28 9 55 3 65 -15z
m338 -36 c4 -41 -13 -52 -78 -56 -55 -3 -55 -3 -58 28 -3 27 1 33 35 47 21 8
52 15 68 14 26 -2 30 -6 33 -33z m1212 18 c37 -18 53 -58 28 -74 -16 -10 -108
0 -125 14 -14 11 -18 60 -6 71 12 12 67 6 103 -11z m-2070 -69 c0 -15 -8 -27
-22 -33 -13 -6 -31 -16 -40 -22 -24 -17 -52 0 -56 34 -3 21 5 30 40 51 39 23
44 24 61 10 9 -9 17 -27 17 -40z m1440 31 c6 -14 10 -61 10 -105 0 -43 4 -79
9 -79 4 0 20 9 34 20 26 21 44 24 71 14 23 -9 19 -29 -9 -48 -14 -9 -36 -38
-48 -64 -30 -64 -79 -90 -131 -68 -24 10 -40 26 -50 49 -8 19 -31 54 -52 77
-30 33 -35 43 -23 51 24 15 54 10 89 -16 19 -14 34 -25 34 -25 1 0 1 42 1 93
1 50 4 100 8 110 10 26 46 21 57 -9z m1473 1 c39 -27 43 -35 27 -64 -16 -30
-39 -32 -81 -8 -42 24 -50 49 -22 79 21 24 31 23 76 -7z m-2625 -39 c-5 -33
-46 -34 -54 -2 -3 14 -4 33 0 41 9 24 58 -11 54 -39z m408 20 c9 -35 0 -43
-64 -62 -31 -9 -73 -22 -93 -29 -52 -18 -81 -4 -77 37 2 26 9 33 33 40 17 5
53 15 80 23 80 22 113 20 121 -9z m1576 -2 c22 -8 49 -14 60 -14 19 0 39 -35
31 -55 -9 -26 -41 -34 -80 -21 -21 8 -64 21 -96 31 -63 18 -75 32 -57 65 10
19 17 21 57 15 24 -3 63 -13 85 -21z m324 15 c10 -17 -17 -59 -38 -59 -13 0
-18 8 -18 28 0 16 3 32 7 35 10 11 41 8 49 -4z m-886 -34 c0 -19 -25 -36 -44
-29 -21 8 -21 30 1 42 20 12 43 5 43 -13z m-542 -8 c2 -9 -4 -20 -13 -23 -20
-8 -50 19 -40 36 10 17 49 8 53 -13z m-738 -37 c14 -26 -2 -56 -32 -65 -13 -3
-40 -11 -62 -17 -34 -11 -40 -10 -52 7 -24 32 -18 64 14 71 15 3 36 9 47 14
36 16 74 11 85 -10z m420 7 c0 -31 -27 -43 -200 -93 -30 -9 -73 -22 -95 -29
-113 -38 -166 -48 -190 -37 -32 15 -34 52 -3 52 12 0 44 7 72 15 28 8 77 21
108 30 32 8 82 22 110 30 29 7 73 20 98 28 60 19 100 21 100 4z m1253 -11 c31
-9 83 -23 115 -32 31 -8 82 -22 112 -31 30 -8 76 -20 103 -26 34 -8 47 -16 47
-29 0 -31 -59 -49 -98 -29 -9 5 -51 19 -92 31 -41 11 -95 27 -120 34 -25 8
-73 22 -108 32 -57 16 -92 41 -92 67 0 11 58 4 133 -17z m398 8 c47 -16 50
-19 47 -47 -4 -38 -30 -57 -58 -39 -11 6 -26 12 -34 12 -24 0 -64 21 -70 37
-9 22 16 53 42 53 13 0 46 -7 73 -16z m347 -17 c20 -12 49 -29 65 -36 31 -16
34 -36 10 -63 -19 -21 -46 -23 -62 -5 -6 8 -29 22 -51 32 -32 14 -40 23 -40
45 0 25 16 50 32 50 5 0 25 -10 46 -23z m-2798 -6 c16 -31 13 -36 -46 -75 -64
-41 -84 -44 -108 -17 -25 28 -18 39 49 77 69 39 90 42 105 15z m1078 -27 c4
-28 -22 -48 -53 -40 -54 14 -37 70 19 64 23 -2 32 -9 34 -24z m636 20 c27 -10
20 -53 -9 -60 -29 -7 -55 10 -55 36 0 29 26 39 64 24z m-1995 -30 c14 -31 10
-38 -41 -70 -38 -24 -41 -25 -59 -8 -29 26 -24 59 14 82 45 28 71 27 86 -4z
m3376 4 c40 -26 42 -37 16 -69 l-20 -24 -45 24 c-47 24 -54 38 -36 72 14 25
42 24 85 -3z m-1193 -5 c25 -23 22 -41 -8 -49 -36 -9 -60 15 -45 45 14 25 28
27 53 4z m-1024 -20 c2 -14 -4 -26 -19 -33 -18 -10 -25 -9 -42 8 -17 18 -18
23 -7 37 19 23 64 16 68 -12z m1131 -17 l23 -24 -22 -12 c-46 -25 -92 14 -58
48 18 18 32 15 57 -12z m-1224 -10 c0 -26 -26 -40 -58 -32 -49 12 -24 59 28
54 22 -2 30 -8 30 -22z m-739 -3 c20 -26 17 -51 -7 -63 -15 -9 -24 -8 -35 0
-11 10 -15 9 -18 -1 -2 -8 -6 -21 -9 -29 -7 -21 -145 -93 -168 -87 -15 4 -19
0 -19 -18 0 -22 -17 -35 -45 -35 -20 0 -37 37 -30 61 6 17 13 20 41 17 28 -3
33 -1 29 12 -4 12 15 29 71 63 42 26 87 47 100 47 13 0 24 4 24 9 0 13 29 41
42 41 6 0 17 -8 24 -17z m2683 8 c9 -6 11 -18 6 -40 -6 -26 -11 -31 -36 -31
-36 0 -47 22 -29 56 14 25 35 30 59 15z m284 -43 c62 -42 68 -57 37 -88 -22
-22 -36 -25 -45 -10 -4 6 -31 26 -61 45 -35 23 -54 42 -54 54 0 23 38 53 54
44 6 -4 37 -24 69 -45z m-3189 23 c14 -15 15 -24 6 -40 -6 -12 -14 -21 -18
-21 -4 0 -32 -16 -61 -35 -51 -34 -55 -35 -72 -19 -24 22 -25 62 -1 71 9 4 35
19 57 35 48 33 66 35 89 9z m851 3 c22 -23 14 -37 -30 -52 -61 -20 -92 22 -37
52 35 20 47 20 67 0z m1445 1 c56 -29 31 -63 -36 -51 -39 8 -53 28 -34 51 16
19 33 19 70 0z m-1072 -27 c2 -9 -11 -31 -29 -48 -29 -27 -39 -31 -83 -28 -43
3 -53 7 -66 30 -19 35 -6 49 52 59 71 12 122 6 126 -13z m169 -37 c12 -14 22
-33 23 -42 0 -9 10 -23 21 -31 19 -12 20 -17 10 -37 -15 -27 -7 -84 14 -101
21 -18 19 -25 -19 -62 -36 -34 -39 -43 -37 -90 1 -36 37 -57 59 -35 13 14 18
14 41 -4 28 -20 71 -16 71 7 0 19 26 18 34 -1 8 -21 30 -19 51 5 26 29 14 85
-25 118 -33 27 -38 53 -15 72 19 15 21 96 3 103 -9 3 -4 13 15 30 15 14 27 34
27 45 0 18 38 52 73 65 14 5 17 0 19 -31 3 -72 -4 -177 -13 -186 -5 -6 -9 -29
-9 -51 0 -49 -26 -144 -46 -166 -8 -8 -14 -22 -14 -30 0 -22 -67 -89 -88 -89
-10 0 -23 -5 -29 -11 -26 -26 -153 53 -153 96 0 8 -4 17 -10 20 -35 21 -80
219 -80 350 0 51 3 95 6 98 10 9 46 -12 71 -42z m441 37 c9 -9 15 -9 24 0 13
13 106 15 148 3 33 -9 37 -37 10 -66 -18 -19 -29 -22 -63 -18 -23 3 -52 15
-65 26 -19 18 -26 19 -42 9 -11 -7 -22 -12 -25 -12 -10 0 -24 40 -19 54 7 19
16 20 32 4z m595 -10 c31 -12 34 -28 9 -51 -17 -15 -21 -15 -52 1 -37 18 -51
49 -28 63 7 5 20 6 28 3 8 -3 27 -11 43 -16z m-1695 -10 c5 -25 -71 -62 -98
-48 -30 16 -24 39 13 55 41 19 81 15 85 -7z m2312 -24 c64 -42 69 -48 63 -72
-6 -26 -5 -27 14 -9 27 24 48 21 61 -7 8 -18 7 -29 -5 -45 -19 -28 -54 -24
-68 7 -5 12 -18 22 -29 22 -10 0 -52 19 -92 43 -62 35 -74 46 -74 68 0 55 40
53 130 -7z m-2043 9 c13 -14 23 -37 23 -50 0 -15 9 -27 25 -35 37 -17 35 -65
-2 -74 -16 -3 -38 -10 -51 -15 -34 -14 -64 6 -60 39 2 22 10 29 41 36 43 11
46 19 13 34 -24 11 -44 62 -31 82 10 15 17 12 42 -17z m273 7 c0 -11 -7 -20
-15 -20 -15 0 -21 21 -8 33 12 13 23 7 23 -13z m840 -20 c0 -19 -9 -35 -25
-48 -33 -26 -32 -32 9 -32 34 0 46 -13 46 -48 0 -34 -32 -42 -91 -23 -67 22
-76 48 -30 82 21 16 31 31 31 50 0 16 8 32 23 42 28 19 37 13 37 -23z m-1521
-31 c-6 -12 -21 -19 -39 -19 -25 0 -30 4 -30 23 0 33 38 50 62 30 13 -12 15
-20 7 -34z m1956 5 c0 -26 -41 -31 -66 -8 -24 22 -24 29 4 41 27 13 62 -5 62
-33z m-1613 11 c8 -19 8 -28 -2 -40 -12 -14 -16 -13 -41 11 -31 30 -28 54 7
54 16 0 28 -8 36 -25z m1268 13 c-1 -19 -36 -58 -52 -58 -25 0 -28 11 -12 41
10 20 22 29 39 29 14 0 25 -6 25 -12z m-1702 -35 c4 -24 -30 -48 -54 -39 -17
7 -19 52 -1 60 26 10 52 1 55 -21z m2132 12 c19 -23 4 -47 -27 -43 -22 2 -29
9 -31 31 -3 23 0 27 21 27 14 0 30 -7 37 -15z m-2404 -31 c-6 -18 -107 -94
-125 -94 -5 0 -14 -7 -21 -15 -12 -15 -81 -21 -93 -8 -9 8 32 53 48 53 6 0 41
20 78 44 38 25 76 46 85 49 23 5 35 -7 28 -29z m635 -2 c30 -34 61 -126 63
-187 1 -34 -2 -40 -21 -43 -25 -4 -34 11 -52 83 -29 113 -52 140 -97 110 -30
-20 -31 -54 -4 -147 12 -37 18 -73 15 -78 -12 -19 -55 -11 -64 13 -51 136 -51
200 1 256 29 31 34 33 81 28 41 -3 56 -11 78 -35z m1506 1 c33 -34 34 -39 30
-92 -11 -134 -46 -209 -85 -184 -20 13 -20 15 7 116 22 84 16 121 -20 132 -43
14 -77 -43 -96 -163 -7 -42 -40 -63 -60 -36 -25 34 17 177 67 232 25 27 36 32
76 32 41 0 51 -5 81 -37z m565 -5 c38 -24 86 -53 106 -64 53 -31 54 -54 3 -54
-22 0 -43 5 -46 11 -4 5 -17 15 -28 20 -90 41 -148 93 -132 119 10 16 23 12
97 -32z m-1677 8 c21 -32 5 -69 -28 -64 -28 4 -33 32 -13 63 20 31 22 31 41 1z
m611 -7 c39 -36 3 -73 -50 -53 -21 8 -20 50 2 63 23 14 23 14 48 -10z m-699 0
c18 -18 -6 -61 -30 -57 -25 4 -42 30 -34 52 7 18 47 22 64 5z m797 -12 c9 -15
7 -21 -8 -33 -27 -20 -44 -18 -51 6 -14 43 36 65 59 27z m-1326 -30 c3 -35 2
-37 -27 -37 -27 0 -31 3 -31 28 0 61 53 70 58 9z m1846 12 c11 -26 14 -28 26
-15 23 29 40 19 40 -24 0 -61 -43 -65 -63 -6 -3 7 -9 6 -21 -3 -21 -18 -32 -7
-41 42 -7 35 -6 37 19 37 21 0 30 -7 40 -31z m-2165 7 c18 -21 -3 -56 -33 -56
-34 0 -43 30 -16 52 27 22 34 22 49 4z m2485 -7 c20 -29 10 -51 -22 -47 -29 4
-48 28 -39 52 9 23 43 20 61 -5z m-1236 -5 c27 -19 28 -51 3 -78 -17 -19 -18
-27 -8 -74 10 -48 13 -53 34 -47 19 4 23 1 23 -16 0 -18 -4 -20 -25 -15 -18 5
-27 1 -35 -14 -14 -25 -47 -26 -55 -1 -4 14 -14 19 -33 18 -18 -1 -27 3 -27
13 0 9 10 15 25 15 22 0 26 6 33 48 6 41 5 52 -13 74 -26 33 -25 57 3 76 28
20 47 21 75 1z m-1010 -33 c4 -41 -11 -60 -33 -41 -15 13 -21 61 -8 74 17 16
38 -1 41 -33z m-84 6 c14 -10 15 -18 7 -39 -11 -30 -22 -38 -70 -55 -39 -13
-64 -5 -82 28 -14 27 -6 34 62 59 65 23 61 23 83 7z m2203 -13 c69 -21 79 -38
43 -74 -24 -24 -36 -25 -86 -4 -45 19 -54 29 -54 65 0 29 9 41 24 36 6 -2 39
-12 73 -23z m-2437 -3 c14 -27 14 -27 -26 -50 -48 -29 -74 -28 -74 3 0 17 10
30 38 44 47 26 49 26 62 3z m2654 -2 c22 -12 36 -29 36 -40 0 -15 5 -18 23
-14 33 9 76 -27 61 -51 -17 -29 -33 -28 -63 5 -18 19 -39 31 -55 31 -15 0 -29
6 -32 14 -3 8 -14 16 -25 19 -10 3 -19 14 -19 24 0 39 22 43 74 12z m-1624
-29 c17 -32 3 -58 -35 -66 -45 -8 -75 10 -75 45 0 37 6 41 56 41 33 0 46 -5
54 -20z m635 -19 c0 -42 -20 -56 -69 -47 -41 8 -51 23 -42 62 6 23 10 25 59
22 52 -3 52 -3 52 -37z m-774 2 c13 -36 2 -55 -40 -67 -25 -7 -36 -6 -48 7
-15 14 -17 14 -34 -6 -14 -18 -21 -20 -36 -11 -10 6 -18 22 -18 35 0 21 4 24
33 21 17 -1 32 2 32 8 0 11 56 38 83 39 10 1 22 -10 28 -26z m876 15 c15 -7
31 -17 35 -23 4 -5 20 -10 35 -10 31 0 43 -26 23 -50 -18 -21 -41 -18 -47 6
l-6 20 -22 -21 c-43 -40 -101 -1 -89 60 7 33 25 38 71 18z m-1362 -39 c10 -31
-12 -59 -46 -59 -17 0 -39 -4 -49 -10 -13 -7 -24 -5 -40 8 -21 17 -21 18 -3
40 18 23 98 52 120 44 7 -2 15 -12 18 -23z m1851 15 c27 -9 55 -24 62 -32 8
-11 25 -15 52 -13 42 3 48 -5 30 -40 -14 -25 -46 -24 -62 1 -11 18 -14 18 -30
3 -15 -13 -23 -14 -41 -5 -12 6 -35 13 -51 14 -36 4 -51 36 -30 67 18 25 10
24 70 5z m314 -11 c0 -23 -40 -63 -62 -63 -27 0 -22 28 12 61 30 31 50 31 50
2z m-2500 -3 c25 -25 27 -60 3 -60 -25 0 -53 30 -53 57 0 29 23 30 50 3z
m-185 1 c9 -16 -40 -65 -58 -58 -20 7 -23 53 -4 60 21 9 56 7 62 -2z m2751
-26 c19 -15 18 -16 -9 -40 -50 -44 -83 -26 -46 25 26 35 28 35 55 15z m-2634
-12 c18 -16 26 -63 10 -63 -4 0 -24 11 -44 25 -24 16 -35 30 -32 40 8 20 43
19 66 -2z m226 5 c17 -17 15 -47 -3 -55 -17 -6 -55 23 -55 43 0 22 39 31 58
12z m814 -30 c12 -10 14 -19 7 -35 -7 -19 -16 -23 -50 -23 -44 0 -195 -23
-269 -42 -25 -6 -63 -14 -85 -19 -82 -16 -158 -38 -168 -48 -6 -6 -21 -11 -34
-11 -13 0 -31 -4 -41 -9 -9 -5 -44 -19 -77 -31 -98 -37 -250 -107 -310 -144
-22 -14 -50 -25 -63 -26 -27 0 -39 24 -22 44 16 20 335 176 359 176 6 0 19 4
29 10 57 32 356 118 490 141 183 32 212 34 234 17z m672 -9 c16 -5 41 -9 55
-9 35 0 303 -69 315 -81 6 -5 16 -9 23 -9 15 0 169 -59 253 -96 111 -50 127
-57 210 -98 94 -46 114 -66 88 -92 -17 -18 -25 -16 -100 26 -38 21 -56 30
-128 65 -41 20 -88 43 -103 51 -16 8 -36 14 -46 14 -9 0 -21 4 -27 9 -17 17
-201 78 -361 120 -73 20 -257 51 -298 51 -23 0 -46 5 -53 12 -16 16 -15 45 1
51 17 7 136 -3 171 -14z m-1560 -2 c34 -25 5 -62 -83 -104 -13 -6 -51 29 -51
47 0 12 82 68 101 69 8 1 23 -5 33 -12z m2365 -14 c42 -27 53 -57 29 -81 -18
-18 -33 -15 -82 19 -59 39 -64 49 -36 71 30 24 41 23 89 -9z m-2552 -39 c23
-25 56 -70 74 -101 31 -54 31 -56 13 -70 -29 -21 -41 -13 -82 57 -24 41 -52
74 -80 93 -45 30 -52 50 -24 66 27 16 53 4 99 -45z m2766 37 c14 -13 -2 -36
-40 -56 -25 -13 -49 -40 -73 -81 -57 -100 -78 -115 -100 -73 -9 16 -8 24 4 38
9 10 16 21 16 24 0 10 62 109 80 129 31 33 87 43 113 19z m-2303 -10 c19 -36
-10 -67 -37 -40 -7 7 -15 3 -26 -14 -23 -36 -67 -44 -89 -17 -10 12 -18 28
-18 35 0 17 56 36 84 29 14 -3 28 1 35 10 18 22 38 20 51 -3z m1770 5 c8 -10
18 -12 33 -7 28 10 97 -17 97 -38 0 -9 -9 -27 -19 -40 l-19 -25 -41 19 c-33
14 -41 23 -41 44 -1 22 -2 24 -11 9 -11 -19 -44 -24 -54 -9 -8 13 16 61 30 61
7 0 18 -6 25 -14z m1464 -60 c-6 -30 7 -66 23 -66 9 0 13 6 9 15 -3 8 -1 15 4
15 6 0 10 -20 10 -45 0 -32 4 -45 14 -45 11 0 14 -24 15 -112 1 -62 -2 -118
-7 -125 -5 -8 -21 -10 -45 -6 -33 5 -37 9 -37 34 0 16 -5 29 -11 29 -5 0 -7 5
-4 10 3 6 1 10 -4 10 -6 0 -11 11 -11 25 0 14 -7 28 -16 32 -8 3 -13 12 -10
19 3 7 1 16 -3 19 -5 2 -22 -22 -39 -55 -16 -32 -32 -56 -36 -53 -6 6 -10 -12
-7 -34 1 -7 -5 -13 -14 -13 -9 0 -14 -4 -10 -9 3 -5 0 -13 -6 -16 -5 -4 -8
-14 -5 -22 3 -8 2 -11 -3 -8 -13 8 -20 -6 -23 -48 -1 -22 -7 -37 -15 -37 -8 0
-13 -12 -13 -29 0 -17 -4 -33 -10 -36 -5 -3 -10 -12 -10 -18 0 -7 4 -6 10 3 7
10 10 -34 10 -132 0 -125 -2 -148 -15 -148 -8 0 -15 -7 -15 -15 0 -8 7 -15 16
-15 9 0 14 -8 13 -17 -3 -33 1 -43 16 -43 8 0 15 -9 15 -20 0 -11 -5 -19 -11
-17 -6 1 -14 -4 -16 -10 -3 -7 2 -13 11 -13 9 0 16 -6 16 -14 0 -7 7 -19 15
-26 9 -7 15 -28 14 -49 -1 -33 -2 -34 -9 -11 -9 30 -10 29 -14 -32 -2 -27 0
-48 5 -48 5 0 10 8 10 18 1 16 2 16 6 -1 4 -14 9 -10 29 19 14 20 23 43 20 50
-3 8 0 13 6 11 7 -1 12 5 13 13 0 8 6 16 13 16 6 1 17 2 22 3 6 0 10 8 10 16
0 11 12 15 45 15 35 0 43 -3 39 -15 -4 -11 1 -15 17 -15 17 0 20 -3 10 -9 -17
-11 -5 -51 15 -51 9 0 12 5 8 12 -4 6 -3 8 3 5 15 -9 17 -166 2 -183 -7 -8
-13 -27 -14 -42 -1 -15 -3 -38 -3 -50 -1 -15 -10 -26 -24 -30 -21 -5 -21 -6
-2 -13 15 -6 13 -8 -12 -8 -17 -1 -36 5 -42 12 -5 6 -10 52 -11 101 -2 96 -5
106 -26 106 -17 0 -32 -26 -37 -61 -2 -14 -13 -35 -25 -48 -12 -13 -25 -37
-28 -52 -4 -16 -12 -29 -20 -29 -11 0 -29 -34 -26 -52 1 -5 -2 -7 -7 -7 -4 1
-14 1 -22 0 -12 -1 -12 -4 3 -12 12 -7 17 -23 17 -57 0 -26 3 -78 8 -117 l7
-70 6 65 c4 48 6 27 7 -76 2 -170 -3 -208 -29 -201 -11 3 -17 1 -13 -4 3 -5
-2 -9 -10 -9 -23 0 -19 -18 5 -25 20 -7 21 -12 15 -62 -5 -42 -3 -54 6 -50 7
2 12 14 11 26 -2 15 3 21 17 21 10 0 22 5 26 12 5 7 3 8 -7 3 -12 -8 -12 -6 0
8 7 9 20 17 27 17 8 0 14 8 14 17 0 9 2 14 6 11 3 -3 21 -2 40 2 21 5 48 4 65
-2 28 -10 29 -12 29 -74 0 -45 -4 -66 -13 -70 -15 -5 -15 -7 -18 -71 -1 -24
-5 -41 -9 -38 -11 7 -20 -20 -20 -56 0 -19 -5 -29 -15 -29 -8 0 -15 -4 -15
-10 0 -17 -39 -11 -60 10 -12 12 -20 33 -20 55 0 41 -3 42 -31 14 -13 -13 -27
-18 -39 -14 -11 3 -28 2 -37 -4 -17 -10 -16 -11 4 -17 31 -9 41 -38 11 -31
-22 6 -21 4 5 -18 l27 -24 0 -176 c0 -152 2 -176 16 -182 19 -7 34 13 34 48 0
17 9 33 25 43 14 9 23 21 20 26 -7 11 31 51 40 42 3 -3 8 4 12 16 4 18 13 22
45 22 21 0 37 -4 34 -8 -3 -5 4 -16 15 -25 11 -10 19 -29 19 -50 0 -18 7 -42
15 -55 12 -16 15 -43 13 -109 l-3 -88 -38 0 c-27 -1 -36 3 -33 12 3 7 1 13 -4
13 -6 0 -9 3 -9 7 3 20 -2 34 -11 28 -6 -3 -7 1 -4 9 4 11 0 16 -10 16 -9 0
-16 7 -16 15 0 8 -7 15 -15 15 -8 0 -15 -7 -15 -16 0 -8 -4 -12 -10 -9 -5 3
-10 -3 -10 -14 0 -12 -4 -21 -10 -21 -5 0 -10 -6 -10 -13 0 -7 -9 -20 -20 -30
-11 -9 -17 -23 -14 -32 4 -10 0 -15 -10 -15 -14 0 -20 -13 -19 -47 0 -6 -6 -9
-13 -6 -11 4 -14 -6 -14 -42 0 -38 -3 -46 -15 -41 -15 5 -16 3 -19 -47 -1 -16
-8 -33 -16 -38 -13 -8 -12 -11 3 -23 15 -12 17 -35 17 -225 0 -181 -2 -211
-15 -211 -20 0 -19 -20 3 -36 14 -10 15 -15 4 -26 -9 -9 -44 -13 -115 -13
l-102 0 -5 35 c-3 22 -10 35 -20 35 -8 0 -14 -5 -13 -12 2 -7 -4 -10 -12 -7
-11 4 -15 -1 -15 -17 0 -19 -2 -21 -10 -9 -9 14 -14 7 -11 -13 1 -5 -3 -6 -8
-3 -5 4 -20 2 -33 -2 -12 -5 -29 -7 -35 -5 -18 6 -16 84 2 109 8 12 11 24 8
28 -3 3 -2 6 4 6 7 0 8 12 2 38 -11 50 -11 52 5 46 9 -3 15 5 20 26 3 19 10
29 17 25 6 -4 13 2 16 14 7 28 72 31 69 4 -1 -12 5 -17 18 -15 15 3 17 -1 12
-21 -4 -18 2 -31 24 -52 17 -16 30 -35 30 -42 0 -7 5 -13 10 -13 16 0 12 30
-5 36 -8 4 -15 13 -15 20 0 8 -6 17 -14 20 -16 6 -22 120 -6 139 6 7 13 50 17
95 5 69 9 84 24 87 11 3 16 9 13 14 -3 5 2 9 10 9 9 0 16 5 16 11 0 6 -7 9
-15 5 -19 -7 -19 -1 1 19 12 12 14 19 6 27 -8 8 -13 7 -18 -5 -3 -9 -12 -17
-20 -17 -16 0 -20 76 -5 82 14 5 19 278 4 278 -6 0 -9 8 -6 19 3 10 0 22 -6
25 -6 4 -11 2 -11 -5 0 -7 -6 -5 -13 6 -8 10 -19 15 -25 11 -8 -5 -10 -2 -6 8
4 11 0 16 -10 16 -9 0 -16 -4 -16 -8 0 -5 -10 -19 -22 -32 -13 -14 -22 -28
-20 -32 1 -5 -5 -8 -13 -8 -8 0 -15 -9 -15 -20 0 -11 -6 -20 -14 -20 -8 0 -18
-5 -22 -12 -5 -7 -3 -8 6 -3 9 5 11 4 6 -3 -4 -7 -19 -12 -34 -12 l-28 0 4
123 c2 67 9 125 14 128 6 4 11 18 11 33 0 15 5 26 13 26 8 0 14 7 14 15 0 8
14 22 32 31 31 16 34 16 75 -7 24 -13 43 -31 43 -40 0 -23 23 -40 40 -29 12 7
11 10 -4 16 -11 4 -14 9 -7 13 6 4 16 34 22 67 6 32 15 67 20 77 6 11 6 24 0
36 -6 10 -11 80 -12 155 0 75 -5 136 -10 136 -5 0 -15 12 -22 28 -6 15 -14 29
-17 32 -3 3 -13 21 -22 40 l-17 35 0 -29 c-1 -16 -8 -34 -17 -41 -9 -6 -16
-24 -16 -38 0 -16 -6 -27 -14 -27 -8 0 -14 -11 -14 -25 0 -14 -7 -28 -15 -31
-8 -4 -15 -16 -15 -29 0 -19 -6 -24 -36 -27 -26 -3 -38 0 -43 11 -3 9 -6 68
-6 131 1 94 4 120 19 142 10 16 16 35 12 43 -4 11 -2 14 6 9 8 -5 9 -2 5 9 -3
10 -2 17 3 17 6 0 10 7 10 15 0 8 6 15 14 15 8 0 16 7 20 15 3 8 13 15 22 15
10 0 14 5 10 15 -3 9 0 15 10 15 8 0 12 -4 9 -10 -4 -6 3 -6 21 0 22 9 25 8
20 -5 -5 -14 11 -21 38 -16 5 1 6 -5 3 -14 -4 -8 -2 -15 3 -15 6 0 10 32 10
70 0 40 4 70 10 70 6 0 10 6 10 14 0 7 7 19 15 26 10 8 12 16 6 20 -6 3 -11
85 -11 214 -1 175 -4 207 -16 202 -9 -3 -14 1 -14 14 0 10 -6 25 -13 32 -7 7
-14 16 -14 21 -8 59 -23 28 -30 -63 -7 -89 -22 -118 -61 -115 -29 2 -32 6 -34
49 -1 20 -7 40 -15 45 -11 5 -14 38 -16 130 -2 112 0 124 18 138 17 13 17 15
2 9 -17 -5 -16 -3 2 22 44 58 50 64 60 57 6 -3 11 1 11 10 0 12 8 16 28 14 35
-4 52 -17 45 -35 -3 -8 0 -14 6 -14 13 0 14 5 11 98 -1 60 1 72 14 72 9 0 16
7 16 15 0 8 5 15 10 15 6 0 10 5 10 10 0 15 -47 12 -53 -2 -3 -7 -6 -3 -6 10
-1 13 -5 21 -9 18 -4 -2 -9 7 -10 22 -1 15 -7 29 -13 31 -7 2 -7 6 2 12 11 7
10 9 -3 9 -11 0 -18 8 -18 18 0 10 -7 27 -15 38 -13 17 -14 18 -15 1 0 -10 -7
-20 -15 -23 -8 -4 -12 -10 -10 -15 3 -4 -3 -17 -15 -29 -11 -11 -20 -22 -20
-25 0 -13 -42 -45 -60 -45 -19 0 -20 7 -20 136 0 87 4 133 10 129 6 -4 10 8
10 30 0 25 5 38 18 43 9 4 17 14 17 22 0 19 61 39 100 33 22 -3 35 -13 44 -34
7 -15 16 -28 19 -28 25 4 32 -2 23 -19 -11 -20 -4 -62 10 -62 5 0 9 24 9 53 1
71 15 87 77 87 53 0 59 -6 86 -80 4 -12 6 -11 6 3 1 10 6 15 11 12 8 -5 15 8
8 18 -5 8 25 47 33 42 5 -4 9 1 9 10 0 9 12 28 28 42 15 14 26 29 25 34 -2 5
3 9 11 9 8 0 17 7 20 15 4 11 17 15 40 13 28 -2 33 -5 30 -22z m-3432 -3 c27
-25 22 -48 -17 -69 -27 -14 -37 -16 -47 -6 -17 17 -28 15 -28 -7 0 -27 -15
-34 -40 -21 -30 16 -23 56 8 53 16 -2 25 4 32 21 16 44 60 58 92 29z m721 -23
c9 -34 -22 -57 -85 -63 -45 -4 -59 -2 -72 12 -29 32 -19 49 37 64 98 28 109
27 120 -13z m133 15 c13 -20 14 -28 4 -40 -25 -30 -110 -12 -110 23 0 47 78
60 106 17z m488 9 c19 -18 19 -20 6 -45 -11 -19 -43 -25 -74 -13 -34 13 -6 74
34 74 10 0 26 -7 34 -16z m861 -16 c17 -18 40 -33 51 -33 27 0 29 -30 4 -55
-17 -17 -24 -19 -36 -9 -8 6 -14 21 -15 33 0 11 -3 15 -6 9 -7 -20 -61 -15
-83 7 -24 24 -25 30 -2 58 24 30 49 27 87 -10z m-736 12 c20 -5 48 -12 64 -15
28 -6 37 -35 18 -63 -7 -12 -67 -11 -138 4 -43 8 -39 84 5 84 8 0 31 -4 51
-10z m-949 -49 c16 -39 9 -48 -52 -66 -68 -20 -91 -19 -105 4 -23 37 -6 59 53
67 30 3 57 10 60 15 11 18 32 8 44 -20z m-1480 5 c0 -7 8 -20 17 -27 10 -8 14
-9 10 -2 -4 6 -3 14 3 18 6 4 10 -8 10 -29 0 -27 -3 -34 -15 -30 -9 4 -15 0
-15 -10 0 -9 7 -16 16 -16 26 0 40 -23 47 -75 4 -28 12 -51 17 -53 6 -2 10
-25 10 -50 l0 -47 23 32 c12 18 27 33 33 33 7 0 14 7 18 15 3 8 16 15 29 15
14 0 30 7 37 15 10 12 16 13 26 4 10 -8 14 -8 14 0 0 6 5 11 10 11 14 0 13
-97 -1 -102 -6 -2 -12 -16 -11 -31 0 -15 -6 -27 -13 -27 -6 0 -12 -6 -12 -12
-1 -7 -2 -43 -3 -80 -2 -37 -6 -65 -10 -63 -12 7 -20 -22 -20 -71 0 -32 -3
-42 -13 -38 -8 3 -14 -2 -15 -11 -1 -8 -3 -22 -4 -30 -1 -8 -5 -12 -10 -9 -5
4 -12 -3 -15 -15 -4 -16 -13 -21 -38 -21 -23 0 -35 -6 -41 -21 l-10 -21 -29
24 c-47 38 -63 41 -87 13 -23 -27 -47 -32 -65 -14 -5 5 -27 11 -46 12 -20 1
-36 7 -36 12 4 32 -2 65 -10 60 -6 -3 -10 3 -11 12 -3 69 -11 127 -19 137 -5
6 -11 52 -13 103 -2 50 -9 97 -15 105 -6 7 -13 34 -17 59 -5 36 -4 48 8 52 11
4 13 0 10 -18 -3 -17 2 -27 16 -35 25 -14 41 -5 33 18 -4 9 10 -1 30 -23 20
-21 39 -37 42 -34 3 4 7 25 8 48 2 23 8 45 14 49 7 4 13 24 15 44 1 20 5 35
10 32 4 -3 12 14 18 36 6 22 15 40 20 40 6 0 10 7 10 15 0 8 9 15 20 15 11 0
20 -6 20 -14z m2670 -3 c39 -7 50 -17 50 -50 0 -38 -29 -44 -103 -22 -62 19
-67 22 -67 49 0 33 13 41 55 34 17 -3 46 -8 65 -11z m-1391 -47 c20 -21 21
-27 10 -45 -8 -11 -27 -23 -44 -27 -16 -3 -45 -11 -63 -17 -26 -9 -35 -8 -48
4 -24 25 -9 66 28 74 16 4 41 13 56 21 35 18 35 18 61 -10z m582 1 c18 -13 39
-50 39 -66 0 -17 -47 -13 -64 5 -23 22 -20 75 3 74 3 0 13 -6 22 -13z m953 6
c4 -5 28 -15 54 -23 39 -13 48 -20 50 -42 5 -40 -33 -56 -76 -34 -17 9 -39 16
-49 16 -30 0 -45 16 -45 45 0 36 43 61 66 38z m-1024 -18 c10 -12 10 -22 2
-39 -9 -19 -20 -24 -73 -29 -69 -6 -99 4 -99 32 0 33 30 46 121 50 22 0 42 -5
49 -14z m573 4 c29 -8 37 -15 37 -33 0 -38 -20 -46 -94 -39 -72 6 -94 24 -81
63 5 16 15 20 53 20 26 0 64 -5 85 -11z m-163 -18 c0 -23 -28 -54 -44 -48 -13
5 -9 36 6 55 16 18 38 14 38 -7z m-606 -23 c12 -34 -6 -58 -45 -58 -15 0 -39
-5 -53 -11 -33 -15 -56 2 -56 42 0 25 5 30 43 39 23 6 47 13 52 15 25 10 50
-2 59 -27z m944 12 c24 -5 48 -12 53 -15 15 -10 10 -41 -11 -60 -16 -14 -24
-15 -51 -6 -18 6 -45 11 -61 11 -36 0 -56 36 -38 70 9 17 17 21 38 16 15 -4
46 -11 70 -16z m-1444 -26 c19 -19 20 -25 4 -46 -17 -22 -114 -62 -132 -55 -8
3 -20 15 -25 26 -9 16 -7 24 10 40 12 11 35 23 50 26 16 4 31 11 34 16 9 14
42 11 59 -7z m1974 -28 c35 -17 42 -25 40 -45 -5 -43 -30 -48 -100 -19 -47 19
-64 31 -66 47 -8 54 37 61 126 17z m-1663 8 c21 -21 15 -35 -21 -56 -46 -27
-107 -33 -127 -13 -34 34 -16 54 68 75 47 12 62 11 80 -6z m1348 -11 c22 -11
28 -20 25 -41 -2 -21 -9 -28 -30 -30 -33 -4 -97 13 -123 32 -18 13 -18 15 -1
41 16 24 21 26 59 20 23 -4 55 -14 70 -22z m-383 -19 c94 -16 231 -47 280 -64
14 -5 58 -18 99 -30 40 -13 85 -29 100 -36 14 -8 32 -14 39 -14 7 0 20 -4 30
-10 9 -5 35 -17 57 -26 104 -43 288 -140 296 -157 14 -25 -7 -50 -36 -43 -12
3 -60 28 -108 56 -205 117 -453 201 -762 256 -155 28 -556 25 -722 -4 -304
-55 -508 -126 -776 -270 -65 -35 -90 -33 -85 7 3 22 18 34 106 78 309 155 641
256 897 272 165 11 481 3 585 -15z m-1144 -41 c8 -30 2 -36 -57 -58 -65 -24
-94 -18 -94 19 0 26 6 31 60 51 67 25 83 23 91 -12z m-318 11 c12 -8 22 -21
22 -29 0 -18 -48 -55 -70 -55 -10 0 -23 -7 -30 -15 -19 -23 -48 -18 -66 11
-20 29 -18 32 56 72 66 37 60 36 88 16z m2025 -8 c28 -12 37 -22 37 -40 0 -33
-33 -60 -57 -47 -10 5 -39 19 -65 30 -50 21 -55 29 -37 63 9 17 18 19 47 15
21 -3 54 -12 75 -21z m295 -17 c71 -35 87 -63 53 -90 -22 -18 -24 -17 -87 14
-71 36 -92 69 -59 94 25 17 23 18 93 -18z m-2182 -45 c20 -29 17 -33 -50 -68
-58 -31 -82 -33 -96 -7 -16 30 -1 51 54 76 66 30 72 30 92 -1z m2029 2 c74
-33 97 -73 55 -96 -15 -8 -33 -5 -80 16 -70 32 -85 58 -49 85 13 10 26 17 29
16 3 -2 23 -11 45 -21z m-2201 -85 c11 -21 12 -31 3 -40 -19 -19 -57 -13 -66
12 -13 35 -3 49 41 56 4 0 14 -12 22 -28z m2357 -2 c18 -18 19 -23 6 -42 -17
-26 -43 -33 -62 -17 -20 16 -19 39 2 62 21 23 28 23 54 -3z m-1739 -345 c4 -3
0 -21 -8 -39 -17 -43 -19 -223 -2 -260 14 -31 -1 -47 -42 -43 l-25 3 3 141 c3
97 0 149 -8 164 -10 18 -9 24 1 31 16 10 73 12 81 3z m2285 -151 c-2 -16 -4
-5 -4 22 0 28 2 40 4 28 2 -13 2 -35 0 -50z m-1181 -68 c40 -38 45 -71 12 -77
-13 -2 -63 -3 -113 -3 -87 0 -90 1 -93 24 -5 29 41 79 83 89 44 12 72 3 111
-33z m-1739 18 c118 -30 165 -138 103 -238 -29 -47 -74 -68 -157 -73 -89 -6
-98 -16 -90 -106 6 -61 13 -72 63 -102 38 -22 4 -34 -101 -34 -107 0 -136 11
-99 36 55 38 54 34 54 244 0 161 -3 199 -16 218 -8 12 -22 22 -30 22 -16 0
-20 36 -4 42 23 7 238 0 277 -9z m2631 -5 c2 -10 -8 -21 -25 -30 -15 -7 -32
-22 -38 -34 -6 -12 -9 -96 -7 -218 l3 -197 35 -21 c65 -38 42 -43 -197 -43
-191 0 -224 2 -226 15 -2 8 10 23 27 32 l30 17 0 210 c0 177 -2 212 -16 225
-8 9 -22 16 -30 16 -8 0 -14 9 -14 20 0 18 8 20 98 22 53 2 155 3 227 3 113 0
130 -2 133 -17z m-1736 -64 c13 -29 2 -57 -25 -62 -19 -4 -30 28 -21 62 8 33
31 33 46 0z m238 -17 c0 -37 -15 -58 -36 -50 -9 3 -14 20 -14 44 0 35 3 39 25
39 22 0 25 -4 25 -33z m234 17 c17 -43 -4 -80 -36 -63 -30 16 -21 79 12 79 10
0 21 -7 24 -16z m392 -62 c15 -9 24 -95 12 -116 -7 -13 -27 -16 -113 -16 -93
0 -105 2 -115 19 -14 28 -13 108 3 114 19 8 201 7 213 -1z m-2586 -42 c0 -5 8
-10 18 -10 10 0 27 -6 37 -14 17 -12 19 -26 17 -127 -2 -62 -6 -117 -9 -123
-3 -6 7 2 24 17 17 15 36 27 44 25 8 -2 13 4 12 12 -3 14 6 17 77 23 23 2 25
-2 26 -40 1 -30 -2 -40 -11 -37 -14 6 -26 -27 -20 -56 2 -10 -3 -21 -11 -24
-11 -4 -14 -28 -14 -105 0 -74 -3 -100 -14 -104 -7 -3 -16 -20 -20 -38 -3 -18
-9 -29 -13 -26 -3 4 -13 -2 -21 -14 l-14 -20 -19 20 c-15 16 -27 19 -50 14
-31 -6 -79 -45 -79 -63 0 -15 -26 -12 -40 5 -9 11 -10 15 -1 15 8 0 6 6 -4 16
-14 14 -35 19 -112 26 -7 1 -13 7 -13 15 0 7 -7 13 -15 13 -8 0 -14 3 -14 8 5
31 -3 61 -15 56 -10 -4 -15 9 -18 52 -3 32 -10 60 -16 62 -7 2 -12 22 -12 44
0 26 -6 45 -17 53 -9 7 -16 25 -15 44 0 17 -4 29 -9 26 -5 -4 -9 3 -9 15 0 16
4 19 18 12 9 -5 36 -8 60 -7 30 2 42 -1 42 -11 0 -8 7 -14 15 -14 8 0 15 -9
15 -20 0 -11 7 -20 15 -20 13 0 14 4 4 23 l-11 22 22 -23 c27 -29 38 -20 41
35 2 23 8 41 13 40 6 -1 12 13 14 31 3 24 8 32 23 32 17 0 18 3 9 20 -6 11
-15 18 -21 15 -12 -8 -7 24 10 53 8 16 18 21 31 17 15 -5 21 0 26 19 6 25 24
37 24 16z m2308 0 c7 0 18 -11 24 -25 9 -21 8 -28 -7 -45 -17 -19 -31 -20
-392 -20 l-373 0 0 23 c0 28 42 55 102 66 24 4 176 6 338 4 162 -2 301 -3 308
-3z m-1010 -25 c4 -18 -13 -35 -35 -35 -7 0 -13 11 -13 24 0 37 42 47 48 11z
m245 5 c4 -3 -2 -19 -15 -35 -15 -19 -23 -46 -26 -84 -3 -48 0 -62 22 -94 14
-21 26 -46 26 -57 0 -10 5 -22 11 -26 7 -4 69 -7 138 -6 122 1 125 0 86 -14
-32 -12 -44 -12 -63 -2 -18 9 -33 9 -68 0 -54 -15 -104 -16 -104 -2 0 6 -7 10
-15 10 -9 0 -12 6 -9 15 5 13 -13 15 -128 15 -91 0 -138 4 -146 12 -7 7 -12
43 -12 93 0 85 8 105 45 105 28 0 45 19 45 50 0 15 3 29 6 32 8 8 197 -3 207
-12z m1168 -100 c21 -12 26 -54 8 -66 -6 -3 -57 -6 -114 -5 -92 2 -105 0 -114
-17 -5 -10 -8 -27 -5 -38 9 -37 -7 -42 -146 -45 l-134 -3 -39 49 c-46 58 -82
85 -115 85 -17 0 -23 5 -20 18 3 16 29 17 328 22 179 3 326 6 328 8 2 1 12 -3
23 -8z m1584 0 c-3 -5 -12 -10 -18 -10 -7 0 -6 4 3 10 19 12 23 12 15 0z
m-2397 -21 c2 -11 -6 -18 -26 -22 -28 -6 -58 -31 -125 -106 -26 -28 -32 -30
-70 -25 -65 10 -100 31 -124 74 -25 42 -29 70 -13 86 5 5 86 9 182 9 151 0
173 -2 176 -16z m155 -41 c56 -39 87 -71 87 -90 0 -17 -12 -18 -147 -18 -82 0
-158 -3 -170 -6 -39 -11 -40 23 -2 62 72 74 168 96 232 52z m2384 -30 c-2 -13
-4 -5 -4 17 -1 22 1 32 4 23 2 -10 2 -28 0 -40z m-1712 -43 l0 -30 -105 0
c-93 0 -105 2 -108 18 -8 39 15 48 117 45 l96 -3 0 -30z m-10 -77 c0 -10 -55
-12 -285 -10 -365 3 -350 3 -449 -4 -54 -4 -87 -2 -94 5 -6 6 -22 12 -37 13
-57 5 382 13 615 11 199 -1 250 -4 250 -15z m-1470 2 c7 -11 -39 -25 -55 -15
-5 3 -8 11 -5 16 8 12 52 12 60 -1z m1559 -26 c9 -24 7 -52 -4 -59 -13 -8 -34
39 -27 59 8 20 23 20 31 0z m-1439 -38 c23 -25 17 -46 -11 -46 -8 0 -12 -11
-11 -27 2 -25 -2 -28 -30 -31 -29 -3 -33 0 -33 22 0 15 8 30 20 36 11 6 20 21
20 34 0 21 7 36 18 36 3 0 15 -11 27 -24z m55 9 c0 -8 -4 -15 -10 -15 -5 0
-10 7 -10 15 0 8 5 15 10 15 6 0 10 -7 10 -15z m90 -5 c0 -12 10 -34 21 -50
28 -37 19 -63 -18 -58 -23 2 -28 7 -26 30 1 20 -4 28 -23 32 -30 8 -31 22 -1
47 29 24 47 24 47 -1z m360 -9 c0 -20 6 -30 20 -34 11 -3 22 -12 26 -20 7 -19
-35 -117 -50 -117 -20 1 -77 60 -74 78 2 9 14 22 26 28 13 6 29 17 35 24 10
10 5 11 -23 5 -60 -12 -65 -11 -68 13 -5 34 13 49 63 50 43 2 45 1 45 -27z
m300 9 c17 -31 3 -63 -23 -55 -55 17 -70 18 -65 4 3 -8 14 -15 26 -17 12 -2
27 -13 33 -25 10 -18 7 -25 -25 -54 -19 -18 -41 -33 -48 -33 -17 0 -50 82 -46
112 2 15 11 24 26 26 20 3 22 8 17 33 l-7 29 51 0 c40 0 52 -4 61 -20z m284
-2 c17 -24 6 -48 -21 -48 -11 0 -11 -4 -2 -21 13 -25 3 -37 -31 -41 -21 -3
-26 2 -28 25 -2 18 2 29 12 33 9 4 16 18 16 33 0 46 28 56 54 19z m59 16 c8
-8 -3 -34 -14 -34 -5 0 -9 9 -9 20 0 19 11 26 23 14z m85 -29 c2 -16 11 -34
19 -40 8 -6 13 -22 11 -36 -2 -19 -8 -23 -28 -21 -34 4 -44 16 -31 41 9 17 9
21 -2 21 -27 0 -38 25 -21 49 21 30 48 23 52 -14z m-600 -90 c2 -11 11 -28 19
-37 8 -9 13 -27 11 -40 -3 -20 -9 -23 -53 -26 -71 -5 -82 13 -48 79 19 40 29
50 46 47 12 -2 23 -12 25 -23z m-623 -24 c9 -15 -17 -62 -33 -59 -25 5 -38 34
-23 52 15 18 47 21 56 7z m136 -10 c9 -8 -8 -51 -20 -51 -5 0 -13 5 -16 10
-11 17 -23 11 -29 -15 -5 -18 -13 -25 -31 -25 -22 0 -25 4 -25 35 0 30 3 35
24 35 13 0 29 7 36 15 12 15 45 12 61 -4z m949 -1 c8 -16 15 -18 29 -10 10 5
22 6 26 2 3 -4 13 1 20 12 10 13 21 17 40 12 21 -5 26 -12 23 -34 -3 -23 -7
-27 -35 -26 -23 1 -33 -3 -36 -17 -7 -26 -47 -25 -54 1 -4 15 -13 19 -36 17
-23 -1 -32 3 -35 16 -9 45 37 67 58 27z m-1060 -740 l0 -520 -485 0 -485 0 0
520 0 520 485 0 485 0 0 -520z m2162 13 c2 -280 1 -511 -3 -516 -3 -4 -222 -8
-487 -10 l-482 -2 0 518 0 517 485 0 485 0 2 -507z m-1534 378 c25 -22 27 -38
10 -76 -9 -20 -18 -25 -48 -25 -31 0 -39 4 -44 23 -10 37 -7 60 11 79 20 23
42 22 71 -1z m-2092 -146 c20 -19 54 -19 82 1 19 13 26 13 38 3 12 -10 15 -32
12 -110 l-3 -97 21 22 c11 11 18 27 16 34 -2 6 1 12 8 12 7 0 30 14 51 31 49
38 102 38 107 0 2 -13 -2 -27 -9 -32 -9 -5 -13 -34 -12 -91 0 -46 -2 -75 -4
-65 -8 33 -23 6 -23 -42 0 -31 -5 -53 -15 -61 -8 -7 -15 -28 -15 -46 0 -19 -4
-34 -10 -34 -5 0 -12 -11 -16 -24 -3 -14 -12 -27 -20 -30 -8 -3 -14 -12 -14
-21 0 -8 -7 -15 -15 -15 -8 0 -15 -5 -15 -12 0 -9 -3 -9 -12 0 -7 7 -18 12
-25 12 -15 0 -84 -46 -95 -63 -13 -21 -43 7 -46 43 -4 39 -50 90 -81 90 -16 0
-23 8 -27 30 -4 17 -12 30 -18 30 -16 0 -19 46 -5 73 10 17 8 24 -10 39 -14
10 -24 32 -27 55 -3 20 -9 40 -14 43 -6 3 -11 19 -12 34 -2 16 -8 31 -15 33
-21 8 -15 29 13 41 21 10 31 8 67 -13 23 -14 50 -28 60 -31 16 -6 21 -17 18
-37 -1 -5 3 -6 8 -3 5 4 12 0 14 -6 3 -7 6 -3 6 8 1 12 8 27 16 34 8 7 15 16
15 21 0 16 -29 9 -39 -8 -11 -19 -11 -19 -15 32 0 11 5 26 12 33 6 7 12 30 12
51 0 52 10 62 36 36z m2289 -89 c159 -30 205 -46 205 -72 0 -17 -42 -19 -69
-2 -10 6 -26 8 -37 3 -17 -6 -15 -9 11 -19 48 -17 97 -76 65 -76 -13 0 -32
-46 -34 -80 -1 -21 -7 -26 -39 -31 -21 -3 -43 -13 -50 -23 -17 -24 -110 -36
-276 -36 -146 0 -186 6 -253 41 -20 10 -55 19 -77 19 -48 0 -58 26 -13 36 15
4 31 9 36 12 13 7 -16 22 -43 22 -20 0 -22 3 -13 12 17 17 15 38 -3 38 -8 0
-15 -9 -15 -20 0 -24 -28 -27 -37 -4 -4 10 0 22 10 29 10 7 14 20 10 33 -5 19
-2 21 30 15 21 -3 37 -1 42 7 9 14 6 17 -26 25 -18 4 -31 1 -42 -9 -20 -21
-49 -10 -45 17 2 17 15 24 68 34 36 8 106 22 155 33 107 22 312 21 440 -4z
m-490 -471 c26 -22 28 -27 17 -45 -6 -11 -12 -27 -12 -35 0 -14 -12 -16 -77
-15 -5 0 -8 8 -9 18 -1 9 -5 25 -9 34 -5 12 0 26 16 43 30 30 36 30 74 0z
m591 0 c19 -17 24 -29 19 -42 -5 -10 -7 -26 -6 -35 2 -15 -6 -17 -46 -15 -35
1 -48 6 -49 17 0 8 -4 23 -9 33 -6 15 -1 25 21 43 36 29 37 29 70 -1z m1226
-340 c-4 -68 -20 -157 -30 -167 -5 -5 -25 -2 -45 7 -47 19 -159 19 -234 0
-109 -29 -198 -30 -298 -4 -78 20 -110 23 -240 20 -82 -1 -225 3 -316 10 -157
12 -170 11 -255 -9 -49 -11 -105 -24 -124 -27 -19 -4 -54 -13 -78 -21 -66 -22
-123 -18 -182 13 -49 25 -54 26 -114 15 -79 -15 -127 -15 -163 -1 -51 20 -162
49 -188 49 -15 0 -67 -12 -118 -27 -78 -22 -112 -26 -222 -27 -90 -1 -142 3
-170 13 -22 8 -74 15 -115 15 -64 1 -82 -3 -124 -26 -27 -16 -52 -28 -56 -28
-14 0 -56 223 -45 239 2 3 704 6 1562 6 l1558 0 -3 -50z m-3489 -28 c3 -7 6
-78 7 -158 1 -79 3 -155 5 -169 2 -14 4 -34 4 -45 1 -14 4 -16 9 -7 5 7 9 -24
10 -72 l1 -85 -28 -6 c-15 -3 -60 -5 -99 -3 l-72 2 -1 256 c0 140 -2 263 -4
272 -4 21 29 16 56 -8 23 -21 65 -12 74 16 7 23 30 27 38 7z m1377 -191 c86
-30 118 -32 184 -12 49 15 94 9 130 -17 31 -22 9 -37 -53 -37 -62 0 -117 -14
-140 -36 -20 -19 -2 -36 54 -53 51 -15 107 -5 165 30 26 16 31 24 26 44 -6 22
-3 25 23 25 16 0 81 13 144 29 63 16 159 37 214 46 90 16 109 16 233 3 89 -10
187 -14 288 -10 142 4 157 3 220 -19 85 -30 191 -30 315 0 123 29 227 27 227
-5 0 -10 -15 -14 -59 -14 -154 0 -148 -74 7 -95 90 -12 80 -56 -16 -75 -62
-11 -92 -26 -92 -44 0 -14 30 -26 67 -26 28 0 45 -29 32 -53 -13 -22 -31 -22
-76 3 -47 25 -66 25 -189 -1 -87 -18 -109 -19 -184 -9 -136 17 -151 29 -62 49
26 5 60 15 75 20 42 16 21 45 -46 61 -49 11 -60 11 -113 -7 -69 -23 -82 -48
-34 -64 17 -6 29 -16 27 -22 -2 -6 -35 -19 -73 -29 -59 -16 -94 -18 -244 -12
-193 6 -220 1 -273 -52 -43 -42 -44 -54 -21 -227 5 -33 1 -76 -11 -128 -18
-76 -17 -81 0 -146 13 -49 18 -99 17 -182 -1 -62 -4 -116 -6 -119 -3 -2 -12
-2 -21 1 -12 5 -15 24 -16 84 -1 132 -35 185 -78 124 -19 -27 -26 -54 -47
-188 -3 -23 -10 -33 -23 -33 -15 0 -19 15 -28 100 -11 107 -22 132 -51 114
-20 -13 -51 -104 -51 -155 -1 -20 -8 -42 -16 -49 -26 -22 -43 -4 -50 54 -6 45
-2 70 20 141 26 79 27 93 19 168 -5 45 -9 156 -9 247 0 91 -4 171 -8 178 -16
24 -66 42 -145 51 -50 5 -101 18 -135 35 -31 14 -65 26 -76 26 -11 0 -23 5
-26 10 -3 6 1 10 10 10 21 0 95 38 95 49 0 17 -29 32 -97 51 -93 27 -176 27
-204 -1 -20 -20 -20 -21 -2 -41 27 -30 62 -45 127 -53 32 -4 54 -10 50 -14
-15 -14 -267 -71 -309 -71 -48 0 -242 34 -252 43 -11 11 0 16 75 32 71 15 122
38 122 57 0 5 -14 14 -31 20 l-32 11 24 13 c13 7 33 13 43 14 10 0 37 9 60 20
23 10 58 26 79 34 28 11 38 21 35 33 -3 16 -15 18 -128 15 -130 -4 -182 -18
-204 -54 -9 -14 -6 -21 12 -33 34 -25 26 -35 -28 -35 -72 0 -199 -54 -177 -76
3 -3 21 -9 39 -13 52 -11 41 -33 -25 -47 -31 -8 -71 -21 -87 -29 -40 -21 -60
-9 -84 49 -23 59 -17 67 92 118 45 21 82 42 82 47 0 24 -38 36 -134 39 -108 4
-132 13 -116 42 26 49 172 76 269 50 124 -33 237 -31 396 9 102 25 186 21 285
-13z m2049 -71 c-3 -2 -23 -1 -45 2 l-39 7 35 6 c32 6 60 -3 49 -15z m-2384
-25 c-3 -5 -26 -10 -51 -10 -28 0 -43 4 -39 10 3 6 26 10 51 10 28 0 43 -4 39
-10z m-490 -37 c-11 -8 -32 -21 -47 -29 -25 -13 -28 -12 -38 6 -16 29 -8 35
51 37 50 1 52 0 34 -14z m779 -69 c24 -11 25 -13 6 -8 -14 3 -37 8 -53 11 -15
3 -30 10 -34 16 -7 12 36 2 81 -19z m131 -165 c22 -11 87 -29 144 -39 57 -10
107 -24 112 -31 4 -7 5 -68 2 -136 -4 -80 -2 -153 7 -207 13 -87 7 -141 -27
-231 -11 -29 -13 -57 -8 -102 5 -53 4 -63 -9 -63 -8 0 -17 4 -20 9 -3 5 -31
12 -62 16 -32 4 -66 11 -78 15 -12 5 -46 16 -76 25 -80 25 -154 58 -298 136
-87 47 -252 181 -346 280 -95 101 -221 272 -212 288 3 4 35 16 71 26 71 19
107 18 265 -10 110 -20 207 -15 315 14 130 36 168 38 220 10z m1390 -14 c90
-19 166 -19 238 0 80 21 149 19 177 -3 l22 -18 -52 -77 c-135 -199 -353 -404
-535 -503 -105 -57 -141 -74 -215 -101 -104 -39 -215 -71 -255 -75 l-30 -3 0
125 c0 84 -5 133 -14 148 -16 30 -17 123 -1 162 8 20 10 53 5 102 -3 40 -7 99
-8 132 -2 53 1 61 24 79 25 18 43 19 225 19 135 0 213 4 244 12 62 18 94 18
175 1z m-3109 -114 c17 -10 36 -33 44 -50 11 -28 10 -36 -6 -66 -18 -33 -18
-35 1 -56 31 -34 27 -100 -8 -137 -98 -102 -262 25 -178 139 21 28 21 32 7 48
-26 29 -20 69 18 107 39 39 75 44 122 15z m284 -15 c0 -7 -11 -23 -25 -36 -32
-30 -32 -48 0 -56 41 -10 75 -59 75 -107 0 -87 -75 -151 -150 -128 -86 26
-113 111 -65 203 42 81 85 138 108 147 25 10 57 -3 57 -23z m290 -82 c0 -71 4
-103 16 -124 16 -26 16 -30 -5 -74 -18 -36 -28 -46 -47 -46 -17 0 -27 8 -34
25 -8 21 -16 24 -72 27 l-63 3 1 40 c0 32 14 63 65 144 64 104 89 126 122 109
14 -7 17 -23 17 -104z m-852 94 c17 -17 17 -309 0 -326 -19 -19 -56 -14 -68 9
-7 12 -11 65 -10 127 2 140 4 131 -25 142 -24 9 -34 38 -18 53 11 12 108 8
121 -5z m4500 -13 c38 -32 48 -74 28 -113 -14 -28 -14 -32 4 -55 40 -50 16
-131 -47 -161 -44 -21 -58 -20 -104 6 -25 14 -43 34 -53 59 -17 41 -14 58 16
100 16 25 17 30 3 55 -22 43 -19 62 19 100 43 43 90 46 134 9z m277 -1 c15
-10 34 -33 42 -51 12 -29 11 -41 -2 -87 -15 -52 -85 -173 -109 -188 -6 -4 -23
-8 -38 -8 -34 0 -37 25 -8 63 26 33 25 45 -4 53 -46 11 -71 50 -71 109 0 112
99 169 190 109z m269 0 c34 -26 44 -51 52 -138 9 -100 -10 -153 -65 -184 -21
-12 -50 -22 -63 -22 -32 0 -89 38 -105 70 -16 32 -16 184 0 229 23 66 119 90
181 45z m-830 0 c9 -24 7 -307 -3 -322 -5 -8 -21 -12 -37 -10 l-29 3 -3 133
c-3 131 -3 133 -28 142 -27 11 -39 32 -30 55 8 22 121 21 130 -1z m346 -398
c0 -8 7 -19 15 -26 20 -17 22 -220 3 -220 -35 1 -60 16 -80 49 -21 34 -41 59
-98 119 -14 15 -32 36 -40 47 -14 18 -14 19 2 7 15 -12 17 -10 20 15 3 27 5
28 73 33 74 5 105 -2 105 -24z m-4026 8 c26 -10 18 -49 -19 -89 -19 -21 -31
-43 -28 -49 3 -6 3 -8 -1 -4 -10 9 -57 -42 -50 -53 3 -5 -2 -6 -10 -3 -10 4
-16 1 -16 -7 0 -8 -3 -9 -9 -4 -5 6 -6 50 -2 99 l6 89 35 13 c40 14 71 17 94
8z m2057 -224 c3 -46 1 -55 -13 -58 -15 -3 -18 4 -18 45 0 107 25 117 31 13z
m-167 -26 c8 -20 -1 -34 -20 -34 -8 0 -14 8 -14 18 0 33 23 44 34 16z m1726
-220 c0 -28 -55 -88 -71 -78 -18 10 -9 48 18 76 34 35 53 36 53 2z m-1358 -96
c48 -14 103 -73 117 -125 19 -70 -20 -157 -85 -188 -136 -64 -280 78 -220 218
17 39 61 81 101 95 40 14 42 14 87 0z m-1856 -29 c26 -25 32 -67 12 -99 -10
-15 -9 -22 4 -37 25 -29 30 -59 14 -97 -19 -46 -62 -68 -129 -64 l-52 3 -5
143 c-6 186 -6 186 71 179 44 -4 67 -11 85 -28z m220 23 c12 -8 114 -273 114
-297 0 -37 -66 -29 -76 10 -7 27 -21 33 -73 31 -27 -1 -38 -7 -51 -31 -13 -23
-24 -30 -46 -30 -25 0 -29 4 -28 25 2 29 89 267 105 287 12 14 38 17 55 5z
m309 -6 c36 -16 65 -59 65 -100 0 -14 -13 -41 -30 -59 -16 -19 -30 -38 -30
-41 0 -4 12 -24 26 -46 33 -49 27 -72 -18 -68 -28 2 -36 10 -52 45 -27 60 -46
64 -46 8 0 -49 -10 -60 -46 -51 l-24 6 0 154 c0 114 3 156 13 159 26 11 109 6
142 -7z m268 0 c71 -29 87 -102 36 -161 l-32 -36 27 -49 c29 -54 27 -70 -7
-70 -31 0 -41 9 -66 58 -12 24 -25 41 -29 38 -3 -4 -8 -25 -11 -49 -6 -45 -29
-60 -56 -37 -20 16 -22 289 -3 308 16 16 101 15 141 -2z m256 0 c17 -20 103
-256 105 -286 1 -20 -4 -26 -25 -28 -21 -2 -31 4 -47 32 -19 31 -26 36 -59 36
-44 0 -52 -5 -76 -43 -13 -19 -25 -27 -40 -25 -33 5 -32 37 3 125 18 43 41
101 52 128 11 28 25 56 30 63 14 16 43 15 57 -2z m481 -4 c46 -23 80 -83 80
-145 0 -55 -16 -90 -60 -132 -28 -26 -39 -30 -106 -33 -49 -3 -79 0 -89 8 -20
16 -22 289 -3 308 19 19 137 15 178 -6z m790 3 c37 -19 50 -43 50 -91 0 -42
-40 -94 -71 -94 -40 0 -49 -11 -49 -59 0 -26 -5 -52 -12 -59 -18 -18 -46 -14
-58 7 -15 28 -13 284 2 299 17 17 103 15 138 -3z m168 3 c8 -8 12 -56 12 -148
0 -153 -8 -178 -53 -166 l-27 6 0 148 c0 151 5 172 40 172 9 0 21 -5 28 -12z
m263 -26 c40 -45 39 -90 -3 -138 -26 -30 -30 -39 -20 -52 32 -45 46 -82 34
-94 -22 -22 -64 3 -90 55 -14 26 -29 47 -33 47 -5 0 -9 -22 -9 -49 0 -41 -3
-51 -20 -56 -44 -14 -50 7 -50 165 0 80 3 150 8 154 4 4 40 6 81 4 68 -3 75
-6 102 -36z m223 16 c8 -13 27 -57 41 -98 15 -41 34 -89 41 -107 22 -48 28
-90 14 -98 -21 -13 -57 4 -70 35 -11 27 -17 30 -56 30 -37 0 -46 -4 -61 -27
-10 -16 -22 -31 -28 -35 -17 -13 -45 -9 -51 7 -6 15 88 278 108 303 16 19 46
14 62 -10z m214 -140 c2 -152 2 -157 -19 -163 -39 -13 -47 11 -52 156 -2 76 0
144 5 153 6 11 19 16 36 14 l27 -3 3 -157z"/>
<path d="M2780 5915 c0 -9 9 -15 25 -15 17 0 39 -14 65 -42 40 -43 40 -43 40
-15 0 15 -4 27 -10 27 -5 0 -10 7 -10 15 0 8 -9 15 -19 15 -10 0 -21 7 -25 15
-3 9 -18 15 -36 15 -20 0 -30 -5 -30 -15z"/>
<path d="M2740 5885 c0 -8 9 -15 20 -15 13 0 18 5 14 15 -4 8 -12 15 -20 15
-8 0 -14 -7 -14 -15z"/>
<path d="M2710 5855 c0 -15 26 -32 36 -23 2 3 2 13 -2 22 -8 20 -34 21 -34 1z"/>
<path d="M2686 5811 c-8 -12 3 -41 15 -41 12 0 12 37 0 45 -5 3 -12 1 -15 -4z"/>
<path d="M2915 5790 c-8 -13 3 -50 15 -50 9 0 20 25 20 46 0 16 -26 19 -35 4z"/>
<path d="M2660 5721 c0 -16 5 -33 10 -36 6 -4 10 6 10 24 0 16 -4 33 -10 36
-6 4 -10 -6 -10 -24z"/>
<path d="M2953 5695 c0 -8 4 -12 9 -9 5 3 6 10 3 15 -9 13 -12 11 -12 -6z"/>
<path d="M2797 5553 c-14 -13 -6 -33 12 -33 19 0 35 23 24 34 -8 8 -28 8 -36
-1z"/>
<path d="M2630 5425 c0 -30 4 -55 9 -55 10 0 23 88 15 101 -14 23 -24 4 -24
-46z"/>
<path d="M2975 5470 c-3 -5 -1 -10 4 -10 6 0 11 5 11 10 0 6 -2 10 -4 10 -3 0
-8 -4 -11 -10z"/>
<path d="M2662 5414 c3 -17 21 -21 26 -6 1 5 -4 12 -13 16 -11 4 -15 1 -13
-10z"/>
<path d="M2953 5347 c1 -48 -1 -87 -5 -87 -14 0 -8 -28 7 -34 12 -4 15 4 14
47 -1 29 -5 77 -9 107 -8 50 -8 48 -7 -33z"/>
<path d="M2660 5270 c0 -22 4 -40 9 -40 4 0 8 18 8 40 0 22 -4 40 -8 40 -5 0
-9 -18 -9 -40z"/>
<path d="M2916 5283 c-11 -11 -6 -23 9 -23 8 0 15 4 15 9 0 13 -16 22 -24 14z"/>
<path d="M2734 5054 c3 -9 6 -18 6 -20 0 -2 12 -4 26 -4 33 0 27 22 -10 31
-22 6 -27 5 -22 -7z"/>
<path d="M2840 5045 c0 -8 6 -15 14 -15 7 0 19 7 26 15 11 13 8 15 -14 15 -16
0 -26 -5 -26 -15z"/>
<path d="M4959 4918 c-17 -13 -34 -78 -21 -78 11 0 45 66 41 79 -3 8 -9 8 -20
-1z"/>
<path d="M4810 4846 c0 -9 5 -16 10 -16 6 0 10 4 10 9 0 6 -4 13 -10 16 -5 3
-10 -1 -10 -9z"/>
<path d="M4870 4780 c0 -5 5 -10 11 -10 5 0 7 5 4 10 -3 6 -8 10 -11 10 -2 0
-4 -4 -4 -10z"/>
<path d="M4833 4704 c-8 -20 8 -36 26 -25 15 10 8 41 -9 41 -6 0 -13 -7 -17
-16z"/>
<path d="M4840 4316 c0 -9 5 -16 10 -16 6 0 10 4 10 9 0 6 -4 13 -10 16 -5 3
-10 -1 -10 -9z"/>
<path d="M4965 3910 c-3 -5 -3 -15 1 -21 6 -11 23 6 24 24 0 10 -18 9 -25 -3z"/>
<path d="M4886 3741 c-4 -7 -5 -15 -2 -18 9 -9 19 4 14 18 -4 11 -6 11 -12 0z"/>
<path d="M4806 3395 c4 -8 8 -15 10 -15 2 0 4 7 4 15 0 8 -4 15 -10 15 -5 0
-7 -7 -4 -15z"/>
<path d="M4977 3321 c-4 -29 -6 -56 -2 -59 11 -12 16 8 13 59 l-3 54 -8 -54z"/>
<path d="M4860 3296 c0 -8 5 -18 11 -22 6 -3 17 -20 25 -38 10 -24 13 -27 14
-10 0 26 -28 84 -41 84 -5 0 -9 -6 -9 -14z"/>
<path d="M4898 3006 c-16 -12 -26 -56 -13 -56 13 0 45 37 45 52 0 21 -9 22
-32 4z"/>
<path d="M4857 2933 c-4 -3 -7 -11 -7 -17 0 -6 5 -5 12 2 6 6 9 14 7 17 -3 3
-9 2 -12 -2z"/>
<path d="M4863 2878 c2 -7 10 -13 17 -13 7 0 15 6 18 13 2 7 -5 12 -18 12 -13
0 -20 -5 -17 -12z"/>
<path d="M4810 2630 c0 -5 5 -10 11 -10 5 0 7 5 4 10 -3 6 -8 10 -11 10 -2 0
-4 -4 -4 -10z"/>
<path d="M4844 2598 c3 -7 9 -21 12 -30 7 -19 44 -25 44 -8 0 11 -40 50 -53
50 -5 0 -6 -6 -3 -12z"/>
<path d="M4805 2531 c-6 -11 9 -23 19 -14 9 9 7 23 -3 23 -6 0 -12 -4 -16 -9z"/>
<path d="M4907 2333 c-11 -10 -8 -41 4 -48 13 -9 16 -6 24 28 5 20 3 27 -7 27
-8 0 -18 -3 -21 -7z"/>
<path d="M4880 2219 c0 -11 5 -17 10 -14 6 3 10 13 10 21 0 8 -4 14 -10 14 -5
0 -10 -9 -10 -21z"/>
<path d="M4850 2080 c0 -5 5 -10 11 -10 5 0 7 5 4 10 -3 6 -8 10 -11 10 -2 0
-4 -4 -4 -10z"/>
<path d="M4840 1616 c0 -9 5 -16 10 -16 6 0 10 4 10 9 0 6 -4 13 -10 16 -5 3
-10 -1 -10 -9z"/>
<path d="M884 4485 c-4 -8 -3 -23 0 -32 6 -15 8 -15 23 -1 16 17 12 48 -7 48
-6 0 -13 -7 -16 -15z"/>
<path d="M1516 4142 c-4 -6 -10 -183 -7 -219 1 -19 88 -16 122 4 69 41 68 172
-2 208 -30 16 -105 20 -113 7z"/>
<path d="M4025 4153 c-53 -13 -55 -21 -55 -238 0 -198 0 -202 23 -223 30 -28
80 -29 107 -2 19 19 20 33 20 220 0 200 0 201 -25 225 -24 25 -32 27 -70 18z"/>
<path d="M856 3705 c-3 -8 -1 -15 4 -15 6 0 10 7 10 15 0 8 -2 15 -4 15 -2 0
-6 -7 -10 -15z"/>
<path d="M863 3604 c-6 -16 15 -37 29 -28 4 3 8 14 8 25 0 23 -28 26 -37 3z"/>
<path d="M1300 3146 c0 -57 1 -59 17 -43 13 13 15 20 5 29 -7 7 -12 20 -12 30
0 23 30 24 31 1 0 -15 2 -15 9 2 13 31 12 32 -20 37 l-30 5 0 -61z"/>
<path d="M1370 3200 c0 -5 5 -10 10 -10 6 0 10 5 10 10 0 6 -4 10 -10 10 -5 0
-10 -4 -10 -10z"/>
<path d="M1445 3203 c-11 -2 -41 -35 -67 -74 -39 -57 -48 -79 -48 -114 0 -26
6 -47 15 -55 8 -7 15 -18 15 -26 0 -7 6 -17 13 -21 6 -4 18 -16 26 -26 12 -15
9 -22 -25 -58 -22 -23 -47 -50 -57 -61 -25 -27 -42 -77 -30 -89 9 -9 127 -14
168 -7 13 2 21 -4 23 -16 2 -10 8 -24 13 -30 5 -6 23 -27 39 -46 26 -31 30
-43 30 -99 0 -59 3 -68 36 -108 65 -80 84 -93 133 -93 42 0 111 32 111 52 0 4
14 23 30 41 26 31 30 42 30 97 0 55 4 67 32 104 18 22 36 43 39 46 4 3 11 17
14 33 7 27 17 29 73 11 8 -2 38 -1 68 2 49 6 54 9 54 32 0 25 -66 122 -105
154 l-20 16 23 24 c12 13 22 29 22 35 0 6 7 16 15 23 17 14 22 140 6 140 -6 0
-25 25 -43 55 -18 30 -39 55 -48 55 -8 0 -26 3 -40 5 -14 3 -19 3 -12 -1 15
-7 17 -174 2 -174 -5 0 -10 -8 -10 -18 0 -19 -20 -39 -63 -62 -22 -11 -32 -12
-47 -2 -24 15 -236 17 -245 2 -12 -19 -50 -10 -86 20 -27 22 -38 40 -44 72
-11 58 -11 129 -1 151 8 18 4 19 -39 10z m-10 -165 c15 -61 37 -93 83 -121 35
-22 46 -23 218 -21 170 1 184 3 213 23 45 32 77 80 84 125 8 49 15 56 33 32
29 -41 11 -114 -45 -175 -35 -39 -39 -59 -13 -68 28 -10 102 -86 102 -105 0
-25 -39 -23 -101 3 -27 12 -53 19 -56 15 -4 -3 -8 -23 -10 -43 -2 -36 -6 -43
-58 -108 -24 -30 -30 -49 -33 -101 -4 -53 -8 -66 -28 -79 -13 -8 -24 -24 -24
-35 0 -27 -29 -40 -78 -35 -51 4 -62 11 -62 34 0 10 -9 26 -20 36 -12 11 -20
31 -20 49 0 50 -19 104 -48 139 -35 40 -52 80 -52 117 0 36 -12 37 -71 10 -57
-25 -89 -26 -89 -2 0 24 69 99 95 104 33 5 28 31 -15 78 -51 57 -65 98 -50
146 15 45 30 40 45 -18z"/>
<path d="M1577 2703 c-9 -9 12 -33 29 -33 17 0 18 12 2 28 -14 14 -22 15 -31
5z"/>
<path d="M1853 2695 c-3 -9 -3 -18 0 -22 10 -10 37 6 37 22 0 20 -29 20 -37 0z"/>
<path d="M2090 3190 c11 -11 20 -24 20 -30 0 -5 5 -10 10 -10 6 0 10 11 10 24
0 16 -7 26 -22 30 -37 9 -39 7 -18 -14z"/>
<path d="M1520 3190 c0 -6 78 -10 215 -10 137 0 215 4 215 10 0 6 -78 10 -215
10 -137 0 -215 -4 -215 -10z"/>
<path d="M2135 3120 c3 -5 10 -10 16 -10 5 0 9 5 9 10 0 6 -7 10 -16 10 -8 0
-12 -4 -9 -10z"/>
<path d="M1292 3040 c0 -19 2 -27 5 -17 2 9 2 25 0 35 -3 9 -5 1 -5 -18z"/>
<path d="M1531 3039 c-1 -25 4 -39 15 -43 25 -10 34 -7 34 9 0 8 -6 15 -14 15
-8 0 -19 12 -24 28 -10 27 -10 27 -11 -9z"/>
<path d="M2161 3054 c0 -11 3 -14 6 -6 3 7 2 16 -1 19 -3 4 -6 -2 -5 -13z"/>
<path d="M1907 3030 c-9 -11 -17 -25 -17 -30 0 -18 29 -11 40 9 22 41 7 55
-23 21z"/>
<path d="M1625 3010 c-13 -5 27 -8 105 -8 77 0 115 3 100 8 -34 11 -180 11
-205 0z"/>
<path d="M2162 2980 c0 -19 2 -27 5 -17 2 9 2 25 0 35 -3 9 -5 1 -5 -18z"/>
<path d="M1296 2940 c4 -25 13 -50 20 -56 18 -15 18 -24 -1 -24 -8 0 -15 -9
-15 -20 0 -23 18 -27 26 -5 4 8 12 15 20 15 18 0 18 36 1 47 -8 4 -17 15 -21
23 -4 8 -13 26 -22 40 -14 24 -14 23 -8 -20z"/>
<path d="M2133 2913 c-4 -10 -13 -23 -21 -29 -12 -8 -11 -12 2 -23 13 -11 16
-11 16 2 0 8 7 17 15 21 17 6 21 46 5 46 -6 0 -14 -8 -17 -17z"/>
<path d="M2140 2840 c0 -11 5 -20 10 -20 6 0 10 -7 10 -15 0 -8 5 -15 11 -15
7 0 8 7 4 18 -4 9 -10 25 -12 35 -7 23 -23 22 -23 -3z"/>
<path d="M1298 2464 c-2 -99 -2 -181 -2 -184 3 -9 274 1 274 11 0 5 -53 9
-124 9 l-124 0 -6 26 c-4 14 -6 89 -5 166 0 76 -1 142 -4 145 -3 3 -7 -75 -9
-173z"/>
<path d="M1430 2630 c0 -5 5 -10 10 -10 6 0 10 -10 10 -22 0 -16 3 -19 11 -11
8 8 7 17 -3 32 -14 22 -28 28 -28 11z"/>
<path d="M2020 2624 c0 -8 5 -12 10 -9 6 3 10 10 10 16 0 5 -4 9 -10 9 -5 0
-10 -7 -10 -16z"/>
<path d="M2145 2630 c-3 -5 -1 -10 4 -10 6 0 11 5 11 10 0 6 -2 10 -4 10 -3 0
-8 -4 -11 -10z"/>
<path d="M1978 2579 c-19 -21 -24 -59 -8 -59 6 0 10 9 10 20 0 11 7 20 15 20
8 0 15 9 15 20 0 25 -10 24 -32 -1z"/>
<path d="M1486 2571 c-4 -7 -5 -15 -2 -18 9 -9 19 4 14 18 -4 11 -6 11 -12 0z"/>
<path d="M1510 2471 c0 -34 4 -61 10 -61 6 0 10 24 10 54 0 30 -4 58 -10 61
-6 4 -10 -17 -10 -54z"/>
<path d="M1942 2410 c0 -19 2 -27 5 -17 2 9 2 25 0 35 -3 9 -5 1 -5 -18z"/>
<path d="M1540 2365 c0 -8 5 -15 10 -15 6 0 10 7 10 15 0 8 -4 15 -10 15 -5 0
-10 -7 -10 -15z"/>
<path d="M1900 2360 c0 -5 5 -10 10 -10 6 0 10 5 10 10 0 6 -4 10 -10 10 -5 0
-10 -4 -10 -10z"/>
<path d="M1570 2330 c0 -5 5 -10 10 -10 6 0 10 5 10 10 0 6 -4 10 -10 10 -5 0
-10 -4 -10 -10z"/>
<path d="M1585 2299 c-9 -13 -6 -15 34 -24 l33 -7 -21 21 c-23 23 -37 26 -46
10z"/>
<path d="M1834 2286 c-15 -18 -15 -19 1 -13 9 4 88 7 176 7 211 0 210 18 -1
22 -147 3 -161 1 -176 -16z"/>
<path d="M3763 3203 c15 -2 27 -9 27 -14 0 -14 20 -11 36 6 14 13 10 15 -38
14 -29 -1 -41 -4 -25 -6z"/>
<path d="M3975 3193 c11 -11 19 -13 23 -6 4 6 21 13 37 16 19 2 11 5 -23 6
-50 1 -52 0 -37 -16z"/>
<path d="M3450 3181 c0 -45 70 -151 99 -151 17 0 13 -30 -4 -36 -8 -4 -15 -12
-15 -19 0 -7 -7 -18 -15 -25 -17 -14 -22 -150 -5 -150 5 0 12 -11 16 -24 3
-13 19 -36 35 -50 19 -18 29 -36 29 -55 0 -25 7 -33 45 -51 l45 -22 -20 -33
c-25 -41 -25 -62 -1 -70 23 -7 35 -35 21 -49 -5 -5 -10 -15 -10 -21 0 -13 69
-85 82 -85 4 0 22 15 38 33 l29 32 1 -31 c0 -20 9 -41 26 -58 44 -44 85 -32
121 36 l20 37 23 -24 c22 -24 24 -24 53 -7 36 21 48 49 40 96 -4 29 -2 36 11
36 12 0 16 10 16 39 0 22 -4 43 -10 46 -16 10 -12 35 5 35 29 0 65 31 65 57 0
14 16 40 40 65 22 23 40 50 40 59 0 9 7 22 15 29 8 7 15 29 15 50 0 21 -7 43
-15 50 -8 7 -15 20 -15 29 0 10 -11 28 -25 41 -27 25 -25 40 6 40 10 0 19 5
19 11 0 6 14 28 31 50 34 43 51 109 28 109 -8 -1 -25 -7 -39 -15 -18 -10 -61
-14 -151 -15 -103 0 -128 -3 -133 -15 -9 -25 -33 -17 -48 15 -11 26 -18 30
-54 30 -33 0 -44 -5 -62 -30 -24 -32 -49 -39 -58 -15 -5 12 -29 15 -130 15
-88 0 -135 4 -161 15 -44 19 -43 19 -43 -4z m478 -43 c19 -19 14 -51 -14 -81
-14 -16 -23 -31 -19 -35 3 -3 9 -2 13 3 23 32 102 80 151 91 67 16 187 18 196
4 4 -6 -9 -26 -28 -44 -34 -32 -39 -33 -136 -39 -85 -4 -105 -9 -133 -30 -54
-40 -66 -40 -121 -5 -45 29 -59 32 -141 36 -106 5 -156 27 -156 68 0 22 4 24
53 24 85 0 168 -18 208 -45 51 -33 63 -32 56 5 -5 23 -2 33 16 45 26 18 39 19
55 3z m-268 -154 c0 -9 -13 -29 -30 -44 -40 -37 -42 -95 -5 -138 29 -35 32
-62 7 -62 -27 0 -60 39 -78 93 -15 46 -15 49 8 95 29 58 98 98 98 56z m526 1
c46 -31 69 -128 43 -178 -19 -36 -51 -67 -70 -67 -30 0 -30 16 1 55 52 66 49
103 -13 156 -46 39 -11 70 39 34z m-393 -13 c22 -3 27 -9 25 -26 -3 -22 -20
-25 -69 -12 -21 6 -33 1 -63 -27 -20 -19 -36 -39 -36 -46 0 -6 -4 -11 -10 -11
-22 0 -8 34 27 66 20 19 40 34 44 34 4 0 11 9 14 21 5 14 12 18 23 13 10 -4
30 -9 45 -12z m306 -35 c54 -51 59 -67 35 -107 -14 -25 -14 -25 -8 11 5 32 2
39 -31 67 -41 36 -51 38 -84 16 -19 -14 -25 -14 -32 -3 -14 22 -11 39 9 45 9
3 24 9 32 14 21 12 22 11 79 -43z m-170 -22 c28 -48 64 -64 91 -40 36 33 74
-5 49 -51 -18 -35 -2 -75 38 -93 55 -24 52 -56 -7 -81 -35 -15 -48 -51 -30
-84 26 -49 -7 -82 -56 -55 -31 16 -67 0 -86 -38 -18 -37 -59 -39 -68 -3 -3 13
-20 33 -38 43 -30 18 -34 18 -51 3 -22 -20 -60 -21 -67 -1 -3 8 1 28 10 46 14
28 14 34 0 60 -8 16 -20 29 -28 29 -20 0 -49 37 -42 55 3 9 19 21 35 26 40 14
57 56 37 94 -11 20 -12 34 -5 47 12 22 23 23 54 2 33 -22 61 -10 91 37 13 21
30 39 38 39 8 0 23 -16 35 -35z m-254 -95 c3 -5 1 -10 -4 -10 -6 0 -11 5 -11
10 0 6 2 10 4 10 3 0 8 -4 11 -10z m123 -332 c17 -17 15 -22 -13 -57 -25 -28
-55 -33 -55 -8 0 12 42 77 51 77 3 0 10 -5 17 -12z m239 -20 c28 -26 31 -58 5
-58 -22 0 -47 25 -56 58 -10 30 19 30 51 0z m-113 -66 c10 -16 -7 -52 -24 -52
-23 0 -44 26 -36 45 6 16 51 21 60 7z"/>
<path d="M3833 2814 c-100 -51 -94 -196 9 -247 32 -16 42 -17 79 -6 76 23 119
89 104 158 -3 16 -21 46 -38 66 -26 30 -40 38 -77 41 -30 3 -56 -1 -77 -12z
m91 -46 c12 -62 -45 -102 -60 -42 -10 41 3 74 30 74 18 0 25 -7 30 -32z m-92
-75 c23 -21 23 -43 0 -43 -25 0 -68 46 -50 53 22 9 31 8 50 -10z m166 -5 c-2
-14 -15 -29 -33 -37 -16 -8 -31 -18 -33 -22 -2 -5 -19 -16 -38 -25 -28 -13
-38 -14 -47 -5 -12 12 5 32 59 69 67 45 97 52 92 20z"/>
<path d="M4330 3077 c0 -8 -11 -24 -25 -37 -28 -26 -33 -45 -10 -37 11 5 13 0
9 -22 -4 -18 0 -32 10 -40 17 -14 23 -125 8 -135 -5 -3 -6 -118 -4 -256 l5
-251 -165 2 c-113 1 -171 -2 -187 -10 -12 -7 -21 -13 -19 -14 1 -1 87 -1 191
1 l187 3 2 262 c3 356 3 547 1 547 -2 0 -3 -6 -3 -13z"/>
<path d="M3466 3027 c8 -47 12 -57 23 -57 5 0 11 10 14 22 4 15 -1 28 -18 44
l-24 22 5 -31z"/>
<path d="M3457 2923 c-11 -10 -8 -123 3 -123 6 0 10 28 10 65 0 65 -1 71 -13
58z"/>
<path d="M3470 2755 c0 -8 5 -15 10 -15 6 0 10 7 10 15 0 8 -4 15 -10 15 -5 0
-10 -7 -10 -15z"/>
<path d="M4262 2713 c-17 -19 -20 -29 -12 -37 8 -8 12 -4 16 12 4 12 13 22 20
22 8 0 14 7 14 15 0 22 -12 18 -38 -12z"/>
<path d="M3500 2721 c0 -6 5 -13 10 -16 6 -3 10 1 10 9 0 9 -4 16 -10 16 -5 0
-10 -4 -10 -9z"/>
<path d="M3530 2680 c0 -11 5 -20 10 -20 6 0 10 9 10 20 0 11 -4 20 -10 20 -5
0 -10 -9 -10 -20z"/>
<path d="M4191 2594 c0 -11 3 -14 6 -6 3 7 2 16 -1 19 -3 4 -6 -2 -5 -13z"/>
<path d="M4160 2575 c0 -8 5 -15 10 -15 6 0 10 7 10 15 0 8 -4 15 -10 15 -5 0
-10 -7 -10 -15z"/>
<path d="M3590 2531 c0 -17 5 -33 10 -36 6 -4 10 8 10 29 0 20 -4 36 -10 36
-5 0 -10 -13 -10 -29z"/>
<path d="M3620 2475 c0 -8 5 -15 10 -15 6 0 10 7 10 15 0 8 -4 15 -10 15 -5 0
-10 -7 -10 -15z"/>
<path d="M4155 2480 c-3 -5 1 -10 9 -10 9 0 16 5 16 10 0 6 -4 10 -9 10 -6 0
-13 -4 -16 -10z"/>
<path d="M3620 2425 c0 -8 5 -15 10 -15 6 0 10 7 10 15 0 8 -4 15 -10 15 -5 0
-10 -7 -10 -15z"/>
<path d="M3593 2302 c-201 -4 -167 -22 41 -22 96 0 182 -3 191 -6 15 -6 15 -4
5 13 -10 15 -23 19 -59 19 -25 -1 -106 -2 -178 -4z"/>
<path d="M2996 2852 c-3 -6 9 -19 27 -29 25 -15 38 -17 55 -10 27 12 29 37 3
37 -10 0 -32 3 -49 6 -16 3 -32 2 -36 -4z"/>
<path d="M2538 2839 c-21 -12 -24 -39 -4 -39 7 0 16 9 19 21 4 16 11 19 26 14
11 -3 29 -2 38 4 15 8 10 10 -22 10 -22 0 -48 -4 -57 -10z"/>
<path d="M2796 2781 c-7 -11 18 -33 27 -24 4 3 7 12 7 20 0 15 -26 18 -34 4z"/>
<path d="M2574 2706 c-18 -14 -18 -15 -1 -21 23 -9 47 1 47 20 0 19 -20 19
-46 1z"/>
<path d="M2975 2705 c-33 -15 -29 -17 45 -19 55 -1 65 9 24 24 -31 12 -31 12
-69 -5z"/>
<path d="M2642 2699 c5 -16 128 -25 128 -9 0 6 -15 10 -34 10 -18 0 -48 3 -66
7 -25 5 -32 3 -28 -8z"/>
<path d="M3098 2663 c6 -2 18 -2 25 0 6 3 1 5 -13 5 -14 0 -19 -2 -12 -5z"/>
<path d="M2585 2641 c-14 -6 -5 -9 33 -14 54 -6 82 -2 82 14 0 11 -87 11 -115
0z"/>
<path d="M2940 2640 c8 -5 31 -9 50 -9 l35 1 -30 8 c-16 4 -39 8 -50 9 -16 1
-17 -1 -5 -9z"/>
<path d="M3485 1821 c-6 -5 -26 -13 -45 -18 -45 -12 -52 -39 -13 -54 30 -11
174 -13 233 -3 70 12 102 51 61 74 -24 12 -223 13 -236 1z"/>
<path d="M3068 1764 c-40 -12 -31 -54 17 -84 46 -28 122 -36 206 -20 135 26
104 80 -51 91 -47 4 -101 9 -120 12 -19 3 -42 3 -52 1z m202 -54 c0 -6 -32
-10 -75 -10 -43 0 -75 4 -75 10 0 6 32 10 75 10 43 0 75 -4 75 -10z"/>
<path d="M3830 1752 c-28 -6 -35 -11 -35 -31 0 -18 10 -29 37 -43 52 -27 175
-27 220 -1 40 23 44 37 16 55 -27 18 -182 30 -238 20z m133 -44 c-23 -8 -43
-8 -65 0 -30 9 -27 10 32 10 59 0 62 -1 33 -10z"/>
<path d="M2745 1683 c-11 -3 -24 -9 -29 -14 -6 -5 -23 -9 -38 -9 -67 0 -28
-73 48 -90 83 -20 288 -5 322 22 22 19 13 37 -25 48 -40 11 -243 51 -252 49
-3 -1 -15 -3 -26 -6z m154 -53 c22 -1 23 -2 9 -11 -22 -12 -185 0 -166 13 7 5
40 7 72 4 32 -4 71 -6 85 -6z"/>
<path d="M2746 1428 c-21 -51 -36 -124 -43 -207 -5 -66 -3 -79 14 -100 23 -28
35 -24 67 27 18 30 24 57 29 137 8 124 0 169 -31 173 -17 3 -25 -4 -36 -30z
m34 -148 c0 -47 -4 -80 -10 -80 -5 0 -10 19 -10 43 0 45 10 117 16 117 2 0 4
-36 4 -80z"/>
<path d="M2903 1362 c-43 -27 -81 -265 -51 -322 23 -42 44 -37 72 17 47 93 52
227 11 289 -17 27 -16 26 -32 16z m21 -150 c-5 -77 -9 -92 -24 -92 -6 0 -8 12
-6 28 3 15 8 53 11 84 10 79 25 63 19 -20z"/>
<path d="M554 1306 c-7 -19 3 -36 22 -36 10 0 14 8 12 22 -4 26 -26 36 -34 14z"/>
<path d="M552 1171 c-22 -13 -11 -65 14 -69 31 -4 50 23 36 53 -12 26 -27 31
-50 16z"/>
<path d="M806 1179 c-16 -24 -9 -57 17 -73 24 -15 51 4 55 38 6 52 -43 76 -72
35z"/>
<path d="M1092 1204 c-19 -30 -21 -38 -10 -45 27 -18 43 -5 46 39 2 23 0 42
-5 42 -4 0 -19 -17 -31 -36z"/>
<path d="M4764 1289 c-3 -6 0 -17 8 -25 13 -13 16 -13 27 0 7 8 10 20 6 26 -8
13 -32 13 -41 -1z"/>
<path d="M4760 1155 c-26 -31 13 -82 44 -56 19 16 21 42 4 59 -16 16 -33 15
-48 -3z"/>
<path d="M5020 1280 c-28 -53 23 -102 63 -61 17 17 19 25 11 48 -12 37 -57 44
-74 13z"/>
<path d="M5292 1288 c-7 -7 -12 -43 -12 -93 0 -50 5 -86 12 -93 18 -18 46 -14
58 7 11 21 14 149 4 175 -7 19 -45 21 -62 4z"/>
<path d="M3046 299 c-36 -28 -37 -89 -1 -124 63 -64 163 4 134 92 -18 56 -83
72 -133 32z"/>
<path d="M1197 306 c-9 -22 18 -40 33 -22 6 9 9 20 5 26 -9 15 -32 12 -38 -4z"/>
<path d="M1207 203 c-10 -10 -8 -51 2 -57 15 -10 41 5 41 23 0 28 -28 50 -43
34z"/>
<path d="M1467 253 c-15 -15 -7 -43 13 -43 21 0 24 8 14 34 -7 17 -16 20 -27
9z"/>
<path d="M1737 323 c-12 -11 -8 -60 6 -71 17 -15 57 11 57 37 0 31 -43 55 -63
34z"/>
<path d="M2005 311 c-10 -33 4 -63 27 -59 29 4 46 33 32 56 -16 26 -51 27 -59
3z"/>
<path d="M2295 247 c-8 -32 -2 -42 20 -34 19 8 19 18 1 43 -14 18 -15 18 -21
-9z"/>
<path d="M2714 317 c-3 -8 -4 -49 -2 -93 3 -76 4 -79 29 -82 14 -2 37 6 52 18
22 17 27 30 27 65 0 57 -7 73 -41 90 -35 19 -58 19 -65 2z"/>
<path d="M3539 309 c-9 -17 -8 -25 5 -37 12 -13 18 -13 30 -2 22 17 20 37 -4
50 -16 8 -21 6 -31 -11z"/>
<path d="M3925 310 c-17 -54 31 -80 62 -34 12 19 12 24 -2 38 -22 22 -52 20
-60 -4z"/>
<path d="M4217 253 c-13 -12 -7 -43 7 -43 19 0 28 14 20 34 -7 17 -16 20 -27
9z"/>
</g>
</svg>
