<?xml version="1.0" standalone="no"?>
<!DOCTYPE svg PUBLIC "-//W3C//DTD SVG 20010904//EN"
 "http://www.w3.org/TR/2001/REC-SVG-20010904/DTD/svg10.dtd">
<svg version="1.0" xmlns="http://www.w3.org/2000/svg"
 width="564.000000pt" height="618.000000pt" viewBox="0 0 564.000000 618.000000"
 preserveAspectRatio="xMidYMid meet">

<g transform="translate(0.000000,618.000000) scale(0.100000,-0.100000)"
fill="#000000" stroke="none">
<path d="M0 3090 l0 -3090 2820 0 2820 0 0 3090 0 3090 -2820 0 -2820 0 0
-3090z m2898 3007 c12 -18 22 -38 22 -45 0 -6 7 -28 16 -49 9 -21 20 -47 24
-58 4 -11 16 -39 25 -62 l18 -43 136 -2 c75 -1 155 -1 179 0 23 1 42 -2 42 -6
0 -13 -40 -47 -85 -74 -95 -55 -195 -124 -195 -133 0 -5 6 -22 14 -37 8 -15
17 -40 21 -57 4 -17 11 -33 16 -36 5 -4 9 -15 9 -25 0 -17 18 -66 41 -112 17
-34 -13 -29 -84 14 -40 23 -76 45 -82 47 -5 2 -23 14 -40 26 -16 11 -46 29
-66 40 l-37 18 -66 -41 c-36 -23 -70 -42 -76 -42 -5 0 -10 -3 -10 -8 0 -4 -17
-16 -37 -27 -21 -11 -40 -22 -43 -25 -13 -13 -61 -33 -67 -27 -3 4 2 26 12 49
28 68 33 82 38 103 5 17 30 85 52 138 5 12 2 17 -9 17 -9 0 -16 5 -16 10 0 6
-5 10 -11 10 -6 0 -25 11 -43 25 -18 14 -38 25 -44 25 -6 0 -12 3 -14 8 -4 10
-85 62 -97 62 -8 0 -41 43 -41 55 0 2 19 4 43 3 23 -1 104 -1 180 0 111 2 137
5 137 16 0 8 6 27 14 43 8 15 22 48 32 73 9 25 23 59 30 77 8 17 14 40 14 50
0 20 8 33 19 33 3 0 16 -15 29 -33z m-1018 -409 c-1 -19 -66 -97 -200 -238
-90 -95 -102 -110 -88 -110 8 0 18 4 24 9 17 16 104 61 118 61 8 0 19 7 26 15
7 8 23 15 35 15 18 0 22 -4 18 -20 -3 -11 -12 -20 -19 -20 -8 0 -17 -7 -20
-15 -4 -8 -12 -15 -20 -15 -8 0 -14 -4 -14 -8 0 -4 -15 -16 -32 -27 -18 -10
-35 -21 -38 -24 -6 -7 -161 -123 -255 -191 -54 -40 -84 -66 -165 -142 -14 -13
-54 -59 -90 -103 -36 -44 -68 -81 -72 -83 -5 -2 -8 -8 -8 -14 0 -5 -6 -15 -12
-22 -7 -8 -20 -24 -28 -36 -8 -12 -34 -48 -57 -81 -53 -73 -55 -95 -5 -47 78
75 268 228 283 228 23 0 129 -78 129 -96 0 -8 -7 -17 -15 -20 -8 -4 -15 -10
-15 -15 0 -6 -5 -15 -11 -22 -5 -7 -50 -68 -99 -137 -49 -69 -100 -138 -112
-154 -13 -16 -25 -34 -27 -40 -2 -6 -17 -27 -32 -47 -16 -20 -29 -41 -29 -45
0 -14 -47 -32 -60 -24 -11 7 10 60 76 195 13 28 24 55 24 61 0 5 9 27 20 49
18 35 19 65 2 39 -4 -5 -23 -18 -42 -28 -19 -9 -57 -30 -85 -46 -27 -16 -66
-37 -85 -46 -45 -23 -53 -33 -96 -124 -19 -41 -46 -98 -60 -125 -13 -28 -24
-57 -24 -66 0 -8 -5 -20 -11 -26 -6 -6 -14 -26 -19 -44 -5 -19 -17 -59 -28
-89 -10 -30 -27 -82 -36 -115 -10 -33 -24 -81 -33 -107 -19 -62 -13 -79 12
-31 33 64 79 138 87 141 4 2 8 10 8 17 0 8 6 20 12 27 17 18 36 48 47 73 22
50 45 53 139 18 39 -14 42 -19 42 -52 0 -19 -6 -53 -14 -76 -8 -22 -19 -60
-26 -85 -6 -25 -16 -58 -22 -75 -5 -16 -14 -48 -18 -70 -4 -22 -12 -53 -18
-70 -23 -66 -41 -131 -44 -155 -2 -19 -9 -25 -28 -25 -21 0 -25 4 -24 30 1 17
4 100 8 185 7 142 6 153 -9 135 -8 -11 -55 -62 -103 -113 -97 -104 -106 -124
-117 -282 -4 -47 -11 -121 -16 -165 -15 -132 -9 -345 10 -345 6 0 22 51 40
130 4 19 13 45 19 57 7 12 12 33 12 47 0 13 7 37 14 53 8 15 17 36 20 46 6 20
38 22 119 6 l57 -12 0 -303 c0 -200 -4 -305 -10 -309 -31 -19 -48 30 -101 293
-7 34 -16 62 -19 62 -3 0 -20 -31 -38 -68 -48 -98 -86 -166 -96 -173 -17 -13
20 -251 60 -380 8 -26 14 -54 14 -62 0 -18 57 -204 71 -229 5 -10 9 -27 9 -38
0 -11 3 -20 8 -20 4 0 5 85 3 190 l-3 189 23 5 c59 12 133 14 150 5 11 -5 19
-19 19 -29 0 -11 4 -28 9 -38 5 -9 16 -44 25 -77 10 -33 22 -73 28 -90 5 -16
13 -46 18 -65 4 -19 12 -46 18 -60 5 -14 18 -52 27 -85 10 -33 21 -68 26 -77
13 -25 11 -66 -3 -74 -16 -10 -42 26 -109 153 -74 138 -93 172 -97 168 -5 -5
-21 -69 -32 -130 -5 -27 -14 -72 -20 -98 -12 -47 -11 -49 40 -150 28 -56 55
-109 60 -117 5 -8 35 -58 66 -110 32 -52 60 -97 63 -100 4 -3 17 -22 31 -42
14 -21 28 -38 33 -38 4 0 7 -5 7 -11 0 -6 19 -34 42 -62 24 -29 44 -54 45 -56
2 -2 6 -1 9 2 4 4 2 13 -5 20 -6 8 -23 48 -36 88 -14 41 -29 83 -34 94 -45
111 -49 148 -20 169 13 9 33 16 46 16 12 0 25 5 28 10 17 27 93 -7 95 -43 0
-4 5 -13 10 -20 23 -27 100 -137 100 -142 0 -3 18 -30 40 -60 22 -30 40 -57
40 -61 0 -3 14 -23 30 -44 17 -21 30 -41 30 -44 0 -4 5 -12 10 -19 32 -37 50
-60 50 -63 0 -13 -14 -34 -24 -34 -6 0 -69 59 -140 131 -70 71 -130 129 -131
127 -1 -2 1 -28 6 -58 4 -30 8 -81 8 -113 1 -32 7 -70 15 -86 8 -15 51 -61 95
-102 65 -59 81 -80 81 -102 0 -68 -91 -89 -150 -36 -19 18 -60 55 -91 83 -46
42 -158 107 -259 150 -8 4 -35 18 -60 31 -25 14 -47 20 -48 14 -4 -11 21 -68
55 -121 12 -21 23 -44 23 -52 0 -7 7 -19 15 -26 8 -7 15 -20 15 -30 0 -10 7
-23 15 -30 8 -7 15 -23 15 -36 0 -42 -32 -27 -85 39 -27 34 -52 64 -55 67 -3
3 -24 28 -45 55 -22 28 -43 52 -47 53 -5 2 -8 8 -8 13 0 5 -8 17 -17 27 -10
10 -40 47 -68 81 -27 34 -60 74 -73 88 -13 14 -22 32 -20 41 4 20 97 92 119
92 8 0 42 -21 75 -48 59 -47 185 -140 214 -157 13 -8 -26 50 -55 81 -5 6 -17
22 -25 34 -8 12 -27 40 -42 61 -16 21 -28 43 -28 48 0 5 -4 11 -8 13 -10 4
-102 155 -102 167 0 5 -7 14 -15 21 -8 7 -15 21 -15 31 0 11 -4 19 -8 19 -5 0
-18 23 -31 52 -21 47 -90 123 -256 278 l-37 35 6 -40 c4 -22 11 -83 17 -135 5
-52 12 -114 15 -136 4 -27 2 -44 -6 -49 -15 -9 -60 33 -60 57 0 11 -5 29 -12
41 -6 12 -15 35 -19 52 -4 16 -21 66 -37 110 -16 44 -31 87 -34 95 -3 8 -11
31 -17 50 -7 19 -15 46 -18 60 -3 14 -12 34 -19 45 -20 28 -18 74 3 81 10 3
27 9 38 14 81 33 85 33 105 15 10 -9 36 -43 57 -74 21 -31 40 -58 43 -61 10
-10 31 -45 36 -63 4 -9 10 -17 14 -17 4 0 15 -16 26 -35 10 -19 22 -35 26 -35
11 0 10 4 -6 42 -24 57 -43 111 -61 173 -9 33 -22 76 -28 95 -6 19 -15 55 -19
80 -28 143 -40 210 -45 252 -3 26 -11 52 -19 59 -8 6 -14 20 -14 30 0 10 -5
21 -11 24 -5 4 -15 17 -20 28 -5 12 -23 45 -39 72 -16 28 -40 70 -52 93 l-22
44 -14 -49 c-7 -26 -17 -73 -22 -103 -36 -205 -33 -195 -62 -198 l-28 -3 0
275 c0 152 4 276 9 276 15 0 21 -72 21 -284 0 -126 4 -206 9 -200 5 5 11 29
14 54 8 74 27 184 37 205 4 11 11 28 14 38 8 25 40 17 44 -11 2 -12 8 -22 13
-22 5 0 9 -6 9 -14 0 -8 6 -21 14 -28 7 -8 17 -24 20 -36 4 -12 12 -22 17 -22
5 0 9 -9 9 -19 0 -11 4 -22 9 -25 8 -5 25 -34 64 -111 25 -50 37 -99 37 -156
1 -30 7 -65 15 -79 8 -14 14 -43 15 -66 0 -22 7 -49 15 -60 8 -10 15 -32 15
-48 0 -28 24 -113 41 -148 5 -10 9 -28 9 -41 0 -13 7 -32 15 -43 8 -10 15 -29
15 -40 0 -12 7 -27 15 -34 8 -7 15 -23 15 -36 0 -12 5 -26 10 -29 6 -4 8 -10
5 -15 -10 -16 -49 10 -73 48 -37 61 -45 74 -83 127 -19 27 -38 58 -42 68 -3 9
-11 17 -17 17 -5 0 -10 5 -10 11 0 6 -12 26 -26 45 -19 24 -34 34 -55 34 -15
0 -31 -4 -34 -10 -3 -5 -17 -10 -31 -10 -31 0 -40 -23 -20 -52 9 -12 16 -35
16 -50 0 -15 5 -30 10 -33 6 -3 10 -14 10 -23 0 -9 7 -30 15 -46 8 -15 15 -38
15 -51 0 -12 7 -28 15 -35 8 -7 15 -25 15 -40 0 -15 7 -33 15 -40 8 -7 15 -23
15 -36 0 -13 4 -33 9 -46 5 -13 12 -36 16 -52 3 -15 9 -25 13 -22 11 11 1 145
-14 195 -8 25 -14 65 -14 89 0 37 3 43 18 40 22 -4 290 -254 303 -283 5 -11
13 -27 18 -35 5 -8 12 -22 15 -30 3 -8 10 -23 16 -32 21 -37 30 -54 50 -93 11
-22 29 -53 40 -70 11 -16 23 -37 27 -45 3 -8 9 -17 12 -20 11 -9 71 -101 71
-108 0 -4 14 -20 30 -36 17 -16 30 -33 30 -37 0 -7 37 -52 83 -101 15 -16 27
-33 27 -38 0 -20 -38 -9 -76 23 -48 40 -151 118 -173 132 -9 6 -18 12 -21 15
-3 3 -30 24 -60 46 l-56 41 -48 -42 c-41 -35 -46 -43 -34 -56 7 -8 29 -34 48
-59 19 -25 38 -48 43 -51 4 -3 18 -19 30 -36 12 -17 60 -78 107 -135 47 -58
96 -119 109 -137 35 -46 36 -31 2 32 -17 31 -36 66 -42 79 -7 13 -16 30 -21
38 -4 8 -12 25 -17 37 -6 11 -15 24 -20 28 -6 3 -11 13 -11 22 0 9 -7 24 -16
34 -37 41 15 52 74 16 34 -21 66 -37 102 -51 8 -4 29 -15 45 -25 17 -11 38
-20 47 -20 9 -1 18 -4 20 -8 2 -5 21 -17 43 -28 22 -11 67 -46 100 -79 33 -32
77 -70 98 -84 l38 -25 27 20 c48 36 41 52 -63 147 l-95 88 0 65 c0 36 -7 89
-16 119 -17 58 -16 115 2 121 6 2 72 -58 147 -134 75 -76 138 -135 141 -132 3
3 -5 16 -17 29 -12 14 -40 52 -62 85 -22 33 -43 62 -47 63 -5 2 -8 8 -8 14 0
6 -13 27 -30 48 -16 21 -30 42 -30 48 0 6 -3 12 -7 14 -7 3 -61 80 -73 103 -3
6 -18 29 -34 53 -26 39 -30 41 -46 27 -9 -8 -27 -15 -41 -15 -49 -1 -76 -44
-44 -70 8 -7 15 -24 15 -39 0 -14 7 -35 15 -45 8 -11 15 -30 15 -42 0 -13 5
-26 10 -29 6 -3 10 -19 10 -34 0 -16 7 -34 15 -41 8 -7 15 -26 15 -42 0 -16 6
-31 15 -34 18 -7 20 -40 3 -50 -6 -4 -23 7 -41 27 -16 19 -40 46 -53 61 -13
14 -24 31 -24 36 0 6 -4 12 -8 14 -8 3 -102 124 -102 131 0 3 -17 31 -39 63
-43 66 -79 127 -113 194 -13 25 -26 47 -30 48 -5 2 -8 11 -8 20 0 8 -8 24 -18
35 -14 15 -17 35 -15 98 1 44 7 88 13 100 6 11 14 41 16 67 7 64 31 114 52
110 9 -2 18 -12 20 -22 2 -11 8 -24 14 -30 10 -11 30 -48 95 -176 33 -64 38
-71 41 -48 2 15 -4 40 -12 57 -9 16 -16 41 -16 54 0 14 -7 30 -15 37 -8 7 -15
27 -15 46 0 18 -4 35 -9 39 -6 3 -13 26 -17 50 -3 25 -10 48 -15 51 -5 3 -9
18 -9 33 0 15 -7 36 -15 47 -8 10 -15 34 -15 52 l0 33 -72 -3 -73 -3 0 -55 c0
-30 3 -124 5 -209 5 -165 1 -182 -39 -142 -12 12 -21 34 -21 50 0 17 -4 33
-10 36 -5 3 -10 16 -10 29 0 12 -7 31 -15 42 -8 10 -15 31 -15 45 0 14 -7 34
-15 45 -8 10 -15 35 -15 54 0 20 -5 41 -12 48 -6 6 -15 33 -19 59 -5 27 -16
84 -25 128 -24 116 -29 232 -11 253 7 10 21 33 31 52 16 33 21 44 46 88 5 9
21 40 35 69 15 30 31 50 38 47 21 -8 47 -74 47 -119 0 -24 4 -46 9 -50 5 -3
13 -31 17 -63 3 -31 10 -61 14 -67 4 -5 10 -19 13 -30 3 -11 4 106 3 260 l-1
280 -65 5 c-70 6 -80 1 -80 -42 0 -15 -5 -30 -10 -33 -6 -3 -10 -21 -10 -38 0
-18 -7 -41 -15 -51 -8 -11 -15 -34 -15 -50 0 -17 -7 -40 -15 -50 -8 -11 -15
-34 -15 -52 0 -40 -30 -95 -50 -92 -23 5 -27 486 -5 574 8 33 15 90 15 127 l0
66 58 62 c31 35 68 74 82 89 14 14 41 44 60 67 36 42 74 61 85 44 3 -6 2 -19
-4 -28 -13 -26 -26 -328 -13 -319 5 3 12 23 15 43 11 75 24 128 35 150 7 12
12 34 12 50 0 15 7 37 15 47 8 11 15 34 15 50 1 17 7 42 15 56 8 14 14 37 15
51 0 15 7 39 14 55 17 31 13 44 -13 44 -10 0 -32 7 -48 15 -42 21 -57 12 -95
-54 -18 -31 -39 -65 -45 -76 -7 -11 -16 -28 -19 -37 -3 -10 -10 -18 -13 -18
-4 0 -18 -20 -30 -45 -12 -24 -26 -47 -32 -50 -5 -4 -9 -14 -9 -24 0 -18 -39
-51 -60 -51 -13 0 -13 37 0 45 5 3 10 21 10 38 1 18 7 43 15 57 8 14 14 39 15
56 0 16 7 39 15 50 8 10 15 33 15 49 0 17 7 39 15 49 8 11 15 30 15 42 0 13 4
25 9 28 5 3 12 22 15 41 4 19 11 35 16 35 6 0 10 13 10 29 0 16 7 34 15 41 8
7 15 20 15 29 0 9 7 25 15 35 8 11 15 28 15 38 0 10 4 18 8 18 5 0 18 23 31
51 23 53 35 70 61 82 8 4 31 17 50 28 19 12 69 40 110 62 41 22 77 44 80 48 3
4 18 11 33 14 24 6 27 5 27 -19 0 -14 -4 -26 -9 -26 -5 0 -12 -13 -16 -30 -4
-16 -11 -32 -16 -35 -5 -4 -9 -17 -9 -29 0 -13 -7 -29 -15 -36 -8 -7 -15 -18
-15 -24 0 -7 -13 -39 -30 -71 -32 -63 -35 -75 -20 -75 6 0 10 4 10 10 0 11 62
103 73 108 4 2 7 8 7 13 0 5 32 51 70 103 39 52 70 98 70 101 0 4 6 12 13 19
6 8 19 24 27 36 8 12 20 28 26 34 6 6 16 22 23 35 14 25 12 27 -60 74 l-27 18
-59 -47 c-32 -26 -60 -50 -63 -54 -3 -3 -14 -13 -26 -21 -25 -17 -114 -92
-162 -136 -30 -28 -72 -44 -72 -28 0 6 51 86 60 95 8 8 29 43 39 65 5 11 17
29 28 40 10 11 29 37 43 57 14 21 28 38 33 38 4 0 7 5 7 10 0 6 13 24 30 40
17 16 30 32 30 36 0 18 187 204 206 204 7 0 14 3 16 8 2 4 30 27 63 52 33 24
66 50 75 56 35 29 195 144 204 147 6 3 8 7 5 11 -7 7 -131 -53 -137 -66 -2 -5
-12 -8 -23 -8 -27 0 -24 27 9 59 15 16 45 48 66 72 21 24 66 72 99 106 108
111 59 84 -103 -57 -93 -81 -154 -130 -162 -130 -14 0 -7 34 13 65 10 17 24
42 30 58 6 15 15 27 20 27 5 0 9 7 9 15 0 25 -13 17 -40 -22 -14 -20 -42 -58
-63 -83 -21 -25 -46 -55 -56 -67 -10 -12 -33 -41 -52 -65 -18 -23 -39 -47 -46
-51 -7 -4 -13 -13 -13 -19 0 -6 -11 -21 -25 -34 -14 -13 -25 -26 -25 -30 0 -3
-45 -54 -100 -114 -55 -59 -100 -112 -100 -119 0 -6 -3 -11 -7 -11 -5 0 -26
-25 -47 -55 -22 -30 -43 -55 -48 -55 -4 0 -8 -5 -8 -11 0 -6 -10 -25 -23 -42
-31 -45 -46 -69 -57 -94 -5 -13 -14 -23 -19 -23 -5 0 -11 -9 -14 -20 -8 -33
-37 -25 -37 10 0 17 4 30 10 30 5 0 13 18 16 40 4 22 11 43 15 46 5 3 9 18 9
33 0 15 7 36 15 47 8 10 15 30 15 44 0 14 6 35 14 46 32 46 18 114 -25 114
-10 0 -21 5 -24 10 -10 17 -52 11 -59 -7 -9 -25 -32 -64 -43 -72 -11 -8 -32
-42 -39 -63 -4 -10 -10 -18 -13 -18 -4 0 -18 -20 -30 -45 -12 -25 -26 -45 -31
-45 -4 0 -10 -8 -14 -17 -7 -23 -20 -43 -74 -116 -67 -92 -55 -107 21 -24 104
113 190 197 202 197 22 0 24 -25 9 -97 -8 -37 -14 -114 -14 -169 0 -78 -3
-104 -15 -114 -8 -7 -15 -20 -15 -30 0 -10 -7 -23 -15 -30 -8 -7 -15 -20 -15
-30 0 -10 -7 -23 -15 -30 -8 -7 -15 -21 -15 -31 0 -10 -4 -21 -10 -24 -5 -3
-10 -17 -10 -29 0 -13 -7 -29 -15 -36 -8 -7 -15 -25 -15 -40 0 -15 -7 -33 -15
-40 -8 -7 -15 -22 -15 -34 0 -11 -7 -30 -15 -40 -8 -11 -15 -32 -15 -47 0 -15
-4 -30 -9 -33 -5 -3 -12 -26 -15 -51 -4 -24 -11 -47 -17 -50 -5 -4 -9 -26 -9
-49 0 -27 -6 -48 -15 -56 -8 -7 -15 -27 -15 -46 0 -18 -5 -36 -11 -40 -27 -16
-32 19 -30 220 l2 206 -27 0 c-15 0 -42 5 -60 12 -44 16 -60 1 -69 -62 -4 -28
-11 -52 -16 -56 -5 -3 -9 -20 -9 -37 -1 -18 -7 -43 -15 -57 -8 -14 -15 -41
-15 -60 0 -19 -7 -44 -15 -54 -8 -11 -15 -32 -15 -46 0 -15 -7 -41 -16 -58 -8
-18 -14 -44 -12 -59 3 -26 6 -24 28 25 13 28 27 52 32 52 4 0 8 8 8 19 0 10 7
24 15 31 8 7 15 17 15 23 0 17 40 94 55 107 26 22 45 4 45 -42 0 -24 7 -52 15
-62 8 -11 15 -39 15 -62 0 -24 5 -46 10 -49 6 -3 10 -19 10 -35 0 -16 8 -48
17 -71 14 -36 15 -49 4 -88 -7 -25 -14 -79 -17 -121 -2 -41 -9 -125 -16 -186
-6 -67 -8 -148 -3 -205 11 -140 11 -199 0 -200 -5 -1 -14 7 -20 17 -5 11 -16
23 -22 27 -7 4 -13 28 -13 52 0 25 -4 45 -10 45 -5 0 -13 18 -16 40 -4 22 -11
43 -15 46 -5 3 -9 20 -9 37 0 18 -6 42 -14 53 -8 11 -16 33 -18 49 -3 30 -3
30 -83 35 l-80 5 53 13 c29 6 64 12 77 12 30 0 55 -25 55 -55 0 -13 5 -27 10
-30 6 -3 10 -15 10 -27 0 -11 6 -34 14 -51 7 -18 18 -52 25 -77 22 -82 29
-105 30 -100 1 3 3 102 5 220 1 118 8 247 15 285 17 101 17 214 -2 271 -21 67
-46 164 -49 194 -2 14 -7 24 -12 23 -12 -1 -76 -121 -76 -140 0 -7 -7 -16 -15
-19 -8 -4 -15 -12 -15 -19 0 -7 -13 -36 -29 -66 -34 -64 -71 -80 -71 -31 0 16
7 43 15 58 8 16 15 38 15 48 0 11 4 33 10 50 5 17 16 58 25 91 25 96 45 167
61 215 8 25 14 54 14 66 0 30 19 44 59 44 46 0 114 -19 123 -34 4 -6 8 -83 8
-171 1 -125 3 -156 12 -140 6 11 15 35 19 55 15 65 53 189 70 222 5 10 9 23 9
29 0 6 7 27 16 47 8 21 21 51 28 67 16 37 35 81 74 165 17 37 35 97 41 140 14
100 20 260 11 260 -5 0 -10 -4 -12 -10 -5 -15 -240 -250 -250 -250 -15 0 -22
32 -10 49 7 9 15 23 19 31 3 8 19 31 35 51 15 20 28 40 28 43 0 4 17 30 38 59
21 29 42 59 46 67 12 26 85 139 96 150 9 9 30 44 40 68 7 17 18 22 44 22 19 0
37 -4 41 -9 3 -5 18 -12 34 -16 16 -3 37 -15 47 -26 15 -17 16 -24 6 -39 -7
-11 -12 -27 -12 -36 0 -9 -6 -30 -14 -47 -8 -18 -16 -43 -19 -57 -7 -31 -34
-107 -49 -137 -6 -13 -9 -25 -6 -28 3 -3 27 29 54 72 45 73 53 85 79 116 6 7
26 32 44 55 47 60 70 88 111 132 76 82 107 117 140 160 19 24 42 52 50 61 23
25 53 62 91 111 51 65 53 68 64 81 6 7 26 32 45 57 53 70 102 120 112 114 10
-6 11 -44 1 -44 -5 0 -17 -19 -28 -43 -11 -23 -30 -59 -42 -79 -26 -43 -28
-52 -9 -41 11 7 88 71 130 108 6 6 40 35 76 65 36 30 74 64 86 75 40 39 74 54
74 33z m2384 -40 c24 -24 46 -50 49 -58 4 -8 11 -22 16 -30 5 -8 14 -39 21
-67 13 -57 0 -142 -27 -174 -19 -23 -16 -29 17 -29 21 0 36 -8 52 -30 24 -33
38 -38 38 -15 0 8 16 22 36 31 34 16 37 16 80 -4 41 -20 44 -24 44 -63 0 -46
-27 -77 -70 -80 -24 -1 -24 -1 -3 -7 40 -12 73 -50 73 -82 0 -20 6 -33 18 -36
41 -14 87 -42 124 -76 22 -21 42 -38 44 -38 2 0 10 15 18 34 23 55 94 126 125
126 27 0 39 -16 70 -93 14 -35 15 -144 1 -152 -5 -3 -10 -17 -10 -29 0 -13 -7
-29 -15 -36 -8 -7 -15 -16 -15 -21 0 -11 -28 -39 -60 -62 -14 -9 -19 -17 -12
-17 29 0 72 -44 72 -72 l0 -29 33 25 c41 31 56 32 101 5 32 -19 36 -25 36 -64
0 -50 -27 -75 -82 -75 l-33 -1 28 -20 c20 -15 27 -29 27 -54 0 -19 -5 -37 -10
-40 -6 -4 5 -19 26 -36 50 -40 84 -79 96 -111 5 -16 13 -28 17 -28 4 0 26 18
49 39 65 62 140 92 166 66 20 -20 22 -123 3 -175 -24 -68 -90 -146 -149 -176
-27 -14 -38 -34 -18 -34 17 0 43 -61 31 -73 -19 -19 -12 -31 7 -14 45 41 145
1 145 -58 0 -50 -96 -111 -118 -75 -3 6 -11 10 -16 10 -6 0 -1 -12 10 -26 25
-32 26 -52 5 -82 -15 -22 -15 -25 5 -46 31 -32 61 -96 61 -126 0 -39 9 -42 44
-16 45 33 94 53 149 61 39 6 47 5 47 -9 0 -12 -10 -16 -45 -16 -25 0 -55 -5
-68 -12 -12 -6 -27 -14 -34 -17 -7 -3 -30 -19 -52 -34 -22 -16 -45 -26 -50
-22 -6 3 -11 24 -11 45 0 21 -4 41 -9 44 -5 3 -12 17 -15 32 -4 14 -18 38 -31
52 -28 30 -32 60 -10 68 23 9 18 42 -10 76 -33 39 -24 52 31 43 48 -7 78 4 94
35 9 17 6 25 -22 50 -40 37 -48 37 -87 4 -17 -14 -36 -24 -42 -22 -7 2 -12 27
-13 59 -1 48 -3 54 -24 57 -35 5 -23 31 28 59 46 25 110 84 110 101 0 5 6 15
14 21 25 21 40 181 19 202 -15 15 -85 -25 -143 -82 -58 -57 -80 -62 -80 -20 0
16 -7 34 -15 41 -8 7 -15 18 -15 25 0 13 -44 56 -90 88 -22 15 -22 17 -7 49
15 31 15 34 -5 55 -12 13 -28 23 -35 23 -8 0 -13 8 -11 18 2 12 13 17 34 17
52 0 84 23 84 62 0 27 -5 35 -27 44 -39 14 -90 3 -96 -21 -3 -12 -14 -20 -26
-20 -18 0 -21 6 -21 38 0 38 -19 60 -64 72 -29 8 -31 29 -4 39 27 11 56 43 83
95 26 52 28 195 2 249 -10 20 -20 37 -24 37 -3 0 -29 -25 -58 -55 -39 -40 -55
-64 -57 -88 -2 -24 -8 -33 -25 -35 -11 -2 -27 4 -35 13 -53 64 -127 115 -168
115 -26 0 -33 15 -19 42 10 19 8 25 -20 50 -17 15 -40 28 -51 28 -30 0 -24 29
8 36 53 11 72 26 72 55 0 39 -38 63 -85 55 -29 -6 -35 -11 -35 -31 0 -27 -30
-48 -54 -39 -10 4 -16 18 -16 35 0 36 -37 63 -73 54 -22 -6 -24 -4 -20 19 3
14 11 31 19 37 21 17 20 202 -1 219 -8 7 -15 18 -15 24 0 6 -18 31 -39 56
l-39 45 -21 -22 c-12 -12 -21 -30 -21 -40 0 -10 -7 -27 -15 -37 -9 -11 -15
-41 -15 -68 0 -26 -3 -48 -7 -48 -5 0 -35 13 -68 29 -61 30 -136 51 -180 51
-18 0 -25 -5 -25 -20 0 -20 32 -88 47 -99 4 -3 13 -15 19 -25 6 -11 19 -24 29
-30 60 -35 68 -66 15 -66 -30 0 -122 -43 -155 -73 -20 -18 -20 -18 5 -37 31
-23 76 -32 170 -33 105 0 151 13 218 62 l32 24 11 -32 c8 -23 19 -34 40 -38
54 -10 66 -63 15 -63 -31 0 -56 -24 -56 -55 0 -33 26 -55 62 -55 36 0 68 24
68 52 0 33 38 22 54 -16 12 -30 20 -35 53 -38 37 -3 38 -4 45 -52 4 -27 12
-54 17 -59 6 -6 11 -20 11 -30 0 -11 14 -37 32 -59 20 -26 27 -42 20 -47 -6
-4 -48 -8 -94 -9 -45 -1 -87 -7 -92 -12 -6 -6 -18 -10 -27 -10 -69 0 9 -78
113 -115 49 -17 223 -21 233 -5 3 6 20 10 36 10 27 0 30 -3 29 -27 -4 -53 0
-64 25 -73 15 -6 25 -17 25 -30 0 -17 -6 -20 -47 -20 -76 0 -105 -41 -61 -87
29 -31 71 -30 96 2 12 15 30 25 46 25 24 0 26 -3 24 -34 -2 -41 16 -66 48 -66
27 0 41 -17 25 -33 -17 -17 -14 -172 3 -187 8 -6 12 -18 9 -26 -7 -18 -41 -17
-73 1 -25 14 -144 21 -174 9 -23 -9 -2 -52 50 -101 66 -63 147 -95 257 -101
71 -3 92 -12 67 -27 -16 -10 -12 -62 5 -69 23 -8 19 -56 -4 -56 -11 0 -23 5
-26 10 -11 17 -48 11 -72 -12 -26 -24 -29 -45 -9 -70 18 -24 94 -25 111 -1 7
9 19 14 28 10 13 -5 16 -15 11 -50 -6 -41 -4 -46 27 -70 28 -22 31 -27 16 -33
-9 -3 -17 -14 -17 -23 0 -9 -7 -25 -15 -35 -10 -13 -15 -43 -15 -83 0 -61 -1
-63 -25 -63 -14 0 -25 4 -25 10 0 5 -12 13 -27 16 -16 4 -33 10 -38 15 -6 4
-37 9 -69 10 -67 3 -78 -7 -52 -46 9 -13 16 -31 16 -39 0 -19 97 -107 141
-127 48 -24 101 -39 132 -39 28 0 49 -21 28 -28 -24 -8 -32 -52 -16 -84 8 -17
12 -34 9 -39 -8 -13 -36 -10 -57 5 -20 15 -61 13 -82 -4 -18 -15 -20 -61 -3
-78 14 -14 88 -16 88 -2 0 6 11 10 25 10 29 0 31 -10 9 -56 -16 -33 -16 -36 5
-58 28 -30 27 -34 -14 -81 -20 -22 -38 -51 -41 -65 -11 -46 -38 -100 -50 -100
-7 0 -17 6 -21 14 -12 20 -90 66 -112 66 -11 0 -23 5 -26 10 -3 6 -18 10 -32
10 -19 0 -24 -4 -19 -16 3 -9 6 -35 6 -59 0 -25 6 -50 15 -59 8 -8 15 -19 15
-24 0 -16 52 -72 96 -103 23 -15 60 -31 83 -35 35 -6 42 -10 39 -28 -2 -11
-13 -25 -26 -31 -19 -8 -23 -17 -20 -47 3 -48 -14 -68 -39 -46 -29 26 -59 30
-98 14 -30 -13 -36 -20 -33 -42 2 -18 15 -33 40 -47 35 -21 37 -21 57 -3 39
35 59 -16 20 -55 -14 -14 -19 -28 -15 -42 18 -64 18 -65 -1 -71 -23 -8 -103
-80 -103 -93 0 -6 -7 -16 -15 -23 -8 -7 -15 -21 -15 -31 0 -29 -25 -22 -50 14
-35 49 -111 107 -142 107 l-28 0 0 -82 c1 -72 5 -89 28 -129 41 -70 54 -84
100 -113 50 -31 54 -54 12 -62 -27 -6 -30 -10 -30 -45 0 -21 -5 -41 -11 -44
-18 -12 -54 3 -64 26 -16 36 -41 46 -72 29 -14 -8 -32 -24 -40 -36 -12 -19
-11 -24 6 -45 15 -18 28 -23 59 -22 33 2 42 -2 47 -17 8 -25 -1 -40 -24 -40
-26 0 -41 -20 -41 -56 0 -30 -5 -35 -67 -66 -36 -18 -80 -48 -97 -66 -38 -41
-70 -40 -74 2 -8 66 -122 190 -122 132 0 -7 -7 -19 -15 -26 -8 -7 -15 -24 -15
-39 0 -15 -5 -32 -11 -38 -18 -18 5 -171 27 -180 8 -3 14 -10 14 -16 0 -6 12
-23 26 -38 30 -31 25 -49 -14 -49 -25 -1 -40 -13 -76 -64 -15 -22 -36 -14 -36
15 0 32 -25 49 -69 49 -47 0 -66 -24 -56 -71 5 -23 12 -29 33 -29 64 -1 73
-53 10 -58 -26 -2 -41 -10 -53 -29 -16 -24 -16 -26 11 -54 38 -40 66 -37 104
11 35 44 60 52 60 18 0 -34 29 -58 70 -58 43 0 60 14 60 51 0 31 -21 51 -53
53 -16 1 -23 8 -25 29 -3 24 0 27 25 27 44 0 58 14 57 60 -1 39 10 50 32 32
38 -34 278 -52 306 -24 7 7 18 12 25 12 19 0 103 54 103 66 0 29 -64 51 -172
61 -63 5 -72 17 -40 52 39 44 61 90 69 148 4 25 10 33 27 33 35 1 61 28 61 63
0 43 36 50 61 12 14 -22 23 -26 56 -23 30 2 43 9 55 29 14 24 14 28 -2 52 -14
22 -25 27 -61 27 -23 0 -45 4 -49 10 -3 5 12 21 35 36 40 26 54 64 29 79 -5 4
-8 12 -6 18 2 8 42 12 118 13 63 0 123 5 134 11 11 6 31 16 45 22 54 25 142
123 125 139 -4 4 -44 9 -89 10 -64 3 -91 0 -116 -13 -35 -18 -63 -8 -43 17 10
12 16 35 30 116 3 18 0 46 -7 62 -14 34 -3 56 36 71 33 12 48 44 29 63 -36 36
4 58 48 25 60 -44 128 1 99 66 -9 20 -20 24 -63 27 -55 3 -79 25 -40 35 17 4
21 13 21 44 0 25 -6 41 -16 47 -30 17 -4 32 56 32 32 0 62 5 65 10 3 6 17 10
29 10 13 0 29 7 36 15 7 8 19 15 27 15 8 0 21 7 29 15 8 8 23 20 33 27 26 19
67 88 74 127 l7 33 -43 -5 c-66 -8 -119 -22 -155 -41 -18 -9 -38 -16 -45 -13
-7 2 -12 36 -13 91 -1 64 -6 91 -18 105 -22 24 -20 31 14 65 33 32 38 54 15
62 -20 8 -19 53 1 61 9 3 19 0 23 -6 8 -13 82 -18 100 -7 14 9 14 51 1 77 -8
14 -21 19 -50 19 -22 0 -40 -4 -40 -10 0 -16 -40 -11 -47 5 -3 9 2 24 11 34
25 27 20 60 -10 71 -35 14 -26 31 27 48 24 8 51 18 59 23 8 5 25 13 36 18 61
27 112 93 131 170 5 19 14 36 21 39 9 3 12 -95 12 -422 0 -277 -3 -426 -10
-426 -5 0 -10 -11 -10 -25 0 -28 -118 -155 -145 -155 -8 0 -15 -3 -15 -8 0
-10 -65 -29 -127 -38 l-51 -6 10 -30 c11 -31 -2 -78 -22 -78 -5 0 -10 -4 -10
-9 0 -5 19 -6 43 -4 39 5 46 2 70 -27 33 -39 33 -49 4 -84 -30 -34 -87 -45
-121 -22 -33 21 -33 21 -28 -18 3 -29 -1 -37 -31 -60 -33 -26 -34 -27 -24 -70
8 -35 6 -55 -7 -94 -9 -28 -16 -52 -16 -54 0 -2 52 -3 116 -3 90 -1 117 -4
124 -15 13 -20 12 -26 -5 -44 -8 -8 -15 -18 -15 -22 0 -4 -17 -24 -38 -43 -75
-70 -217 -120 -306 -108 l-46 7 0 -32 c0 -23 -8 -39 -27 -55 l-28 -22 28 -1
c30 0 87 -50 87 -76 0 -9 -13 -29 -29 -45 -39 -39 -101 -41 -133 -4 -27 31
-37 32 -31 1 6 -29 -30 -66 -64 -66 -19 0 -23 -5 -23 -32 0 -37 -31 -105 -65
-142 l-24 -26 41 0 c46 0 158 -30 158 -42 0 -4 6 -8 14 -8 7 0 19 -6 25 -14
28 -33 -96 -111 -216 -136 -50 -10 -75 -10 -130 0 -37 8 -72 17 -77 22 -18 15
-31 8 -44 -22 -8 -17 -28 -38 -45 -47 l-32 -16 26 -9 c31 -10 52 -51 43 -82
-12 -41 -35 -56 -82 -56 -49 0 -82 21 -82 52 0 10 -4 18 -10 18 -5 0 -10 -5
-10 -10 0 -6 -11 -22 -25 -35 -33 -34 -84 -33 -125 1 -44 38 -39 80 13 114 34
21 36 25 19 31 -24 9 -52 47 -52 71 0 9 10 29 23 44 31 36 95 39 131 5 13 -13
22 -29 19 -37 -10 -26 12 -14 29 16 11 20 28 33 48 37 l31 6 -20 21 c-10 11
-31 43 -45 70 -21 40 -26 63 -26 122 0 40 4 76 10 79 6 3 10 15 10 25 0 10 6
25 13 32 6 8 17 22 23 33 16 29 26 28 67 -6 44 -37 87 -100 87 -129 0 -27 11
-25 51 10 19 16 60 42 91 57 52 25 57 31 60 63 2 25 9 38 26 45 29 13 28 25
-2 25 -13 0 -35 9 -50 21 -36 28 -37 89 -1 113 35 23 98 21 120 -4 18 -20 18
-20 34 11 8 18 23 34 33 37 20 5 25 32 5 32 -17 0 -97 86 -122 130 -26 47 -28
201 -3 226 25 25 79 2 148 -65 l60 -57 25 38 c23 35 70 82 110 112 16 11 16
14 1 28 -22 23 -20 47 6 75 l21 23 -42 0 c-90 0 -124 89 -52 137 44 29 62 29
100 -2 l30 -26 -2 42 c-1 30 4 45 17 54 21 16 13 35 -16 35 -48 0 -198 150
-198 198 0 9 -5 30 -11 47 -7 18 -9 44 -5 58 6 24 11 27 46 27 22 0 48 -4 58
-9 68 -33 90 -47 115 -69 l27 -26 0 27 c0 29 40 110 71 143 l21 22 -23 31
c-21 29 -21 31 -5 56 21 32 17 39 -16 26 -54 -21 -111 14 -111 69 0 56 60 92
116 71 30 -12 32 -9 15 19 -10 16 -9 25 5 50 18 29 17 30 0 30 -27 0 -113 32
-153 57 -81 50 -155 155 -148 211 3 27 3 27 77 24 51 -2 88 -10 121 -26 l47
-23 6 68 c3 37 13 79 22 93 16 25 16 27 -10 57 -25 31 -27 41 -10 82 4 10 3
17 -4 17 -6 0 -11 -4 -11 -9 0 -15 -57 -33 -82 -26 -37 12 -68 46 -68 77 0 45
36 73 93 71 42 -1 46 1 30 12 -12 9 -17 25 -16 51 l2 39 -67 3 c-75 2 -118 15
-183 54 -67 40 -150 143 -135 167 9 14 125 22 187 13 l56 -8 -1 103 c0 73 -4
103 -12 103 -18 0 -66 61 -60 76 8 20 -8 17 -29 -6 -28 -31 -85 -27 -118 8
-38 39 -35 75 6 106 19 15 44 26 57 26 l23 0 -27 26 c-14 15 -26 35 -26 46 0
16 -4 18 -22 12 -42 -14 -205 -7 -239 10 -18 9 -36 16 -41 16 -22 0 -117 77
-121 98 -4 20 2 27 38 42 24 10 75 22 114 26 72 7 87 18 56 44 -8 7 -15 20
-15 29 0 9 -5 22 -11 28 -6 6 -12 30 -13 54 -2 35 -6 43 -23 44 -33 2 -72 33
-79 60 -7 28 -24 34 -24 9 0 -28 -40 -54 -82 -54 -95 0 -117 125 -25 146 l31
6 -37 19 c-20 11 -37 26 -37 34 0 19 -15 19 -44 0 -51 -34 -130 -55 -204 -55
-70 0 -166 22 -178 41 -3 5 -14 9 -25 9 -10 0 -19 6 -19 14 0 36 135 126 191
126 l24 1 -25 20 c-70 56 -101 99 -125 178 -9 31 7 41 67 41 57 0 160 -35 201
-69 9 -8 17 -12 17 -10 1 2 2 27 4 54 5 70 51 155 84 155 8 0 33 -19 56 -42z
m-1185 -368 c92 -15 212 -40 239 -51 13 -5 33 -9 45 -9 13 0 27 -4 33 -9 5 -4
34 -17 64 -27 30 -10 75 -29 99 -41 24 -13 50 -23 57 -23 8 0 14 -4 14 -10 0
-5 7 -10 15 -10 24 0 252 -147 321 -206 12 -11 45 -39 73 -63 49 -41 107 -99
182 -183 39 -43 42 -47 89 -108 19 -25 37 -47 40 -50 14 -13 122 -184 156
-246 52 -96 50 -92 79 -159 15 -33 33 -72 40 -87 7 -15 16 -41 20 -58 4 -16
11 -32 16 -35 5 -4 9 -15 9 -25 0 -11 6 -34 14 -52 8 -18 22 -60 31 -93 9 -33
21 -75 26 -92 14 -44 28 -123 39 -208 5 -38 14 -95 20 -125 14 -71 8 -566 -9
-675 -22 -148 -43 -240 -76 -346 -8 -26 -15 -55 -15 -65 0 -11 -7 -28 -15 -38
-8 -11 -15 -30 -15 -42 0 -13 -4 -25 -9 -29 -5 -3 -13 -20 -17 -37 -3 -18 -10
-39 -14 -48 -11 -23 -37 -83 -44 -100 -3 -8 -10 -22 -15 -30 -10 -19 -37 -69
-70 -134 -29 -57 -142 -229 -153 -234 -5 -2 -8 -8 -8 -13 0 -5 -8 -17 -17 -27
-10 -10 -29 -33 -43 -51 -81 -109 -226 -250 -375 -364 -41 -31 -128 -87 -135
-87 -6 0 -10 -3 -10 -7 0 -5 -10 -13 -23 -19 -12 -6 -60 -30 -107 -54 -47 -23
-94 -46 -105 -50 -88 -34 -112 -43 -127 -51 -10 -5 -25 -9 -35 -9 -9 0 -30 -4
-47 -9 -159 -49 -287 -64 -476 -58 -168 6 -261 17 -355 42 -152 41 -194 55
-200 65 -4 6 -15 10 -26 10 -10 0 -27 4 -37 9 -9 5 -35 17 -57 27 -22 11 -41
22 -43 27 -2 4 -10 7 -18 7 -20 0 -255 149 -284 180 -3 3 -27 23 -55 44 -65
52 -241 228 -285 286 -19 25 -39 50 -45 57 -20 22 -60 76 -70 94 -24 41 -89
144 -94 149 -4 3 -32 59 -65 125 -32 66 -64 133 -72 148 -8 16 -14 36 -14 46
0 9 -4 21 -9 27 -16 15 -48 111 -72 209 -5 22 -13 49 -18 60 -6 11 -12 34 -14
50 -2 17 -9 50 -15 75 -63 260 -74 663 -26 945 23 132 45 238 55 257 5 9 12
35 15 58 4 22 11 43 15 46 5 3 9 18 9 33 0 15 7 36 15 47 8 10 15 28 15 40 0
11 7 29 15 40 8 10 15 28 15 39 0 11 7 29 15 39 8 11 15 28 15 38 0 10 5 18
10 18 6 0 10 7 10 15 0 17 41 99 52 103 4 2 8 10 8 17 0 8 27 58 60 112 33 54
66 107 73 118 7 11 18 24 25 28 6 4 12 13 12 18 0 6 6 16 13 24 6 7 23 28 37
46 79 105 260 289 330 335 14 10 30 22 35 28 18 21 112 86 124 86 6 0 11 3 11
8 0 15 281 162 311 162 10 0 20 4 24 9 3 5 20 13 37 17 18 3 39 10 48 14 8 5
33 13 55 18 22 6 67 18 101 26 33 9 78 16 100 17 21 1 50 5 64 9 37 12 313 12
389 0z m-284 -4630 c17 -11 46 -27 65 -36 19 -10 52 -28 72 -41 21 -13 44 -23
53 -23 8 0 15 -3 15 -7 0 -5 19 -17 43 -28 23 -11 58 -29 77 -41 68 -41 73
-40 121 28 24 34 47 70 51 80 4 10 12 18 18 18 5 0 10 7 10 15 0 8 9 19 21 25
17 9 31 7 72 -13 46 -22 94 -41 162 -67 132 -49 327 -80 500 -80 134 0 223 11
350 42 44 11 92 23 108 25 15 3 30 9 33 14 3 5 12 9 21 9 16 0 52 15 138 56
28 13 55 24 61 24 6 0 40 -41 75 -90 35 -50 90 -128 122 -173 32 -45 63 -84
69 -88 24 -15 -5 -40 -97 -84 -52 -25 -100 -45 -105 -45 -6 0 -18 -4 -28 -9
-46 -23 -95 -41 -112 -41 -10 0 -21 -4 -24 -9 -3 -5 -20 -11 -38 -14 -18 -2
-64 -12 -103 -21 -139 -33 -222 -40 -475 -40 -288 0 -347 6 -570 64 -19 5 -52
13 -74 19 -21 5 -43 14 -49 20 -6 6 -21 11 -33 11 -13 0 -26 5 -29 10 -3 6
-13 10 -21 10 -8 0 -37 11 -66 25 -28 14 -53 25 -54 25 -2 0 -24 -28 -51 -63
-56 -73 -64 -83 -80 -102 -7 -7 -13 -21 -13 -29 0 -12 -10 -16 -35 -16 -19 0
-35 4 -35 9 0 5 -37 27 -82 50 -46 23 -114 59 -153 81 -38 21 -92 50 -120 64
l-50 26 -25 -28 c-14 -15 -29 -35 -35 -44 -57 -95 -92 -137 -112 -138 -12 0
-25 4 -28 10 -3 5 -15 10 -26 10 -10 0 -19 4 -19 9 0 5 -13 12 -30 16 -16 4
-32 11 -35 16 -4 5 -15 9 -26 9 -10 0 -27 4 -37 9 -28 15 -104 38 -162 49 -30
6 -80 16 -110 23 -99 21 -322 24 -439 5 -167 -27 -310 -68 -428 -124 -78 -36
-100 -38 -117 -7 -11 19 -19 30 -43 59 -7 8 -13 18 -13 21 0 3 -5 11 -10 18
-49 57 -170 235 -170 250 0 10 8 20 18 23 9 3 49 21 87 39 39 18 90 41 115 50
25 10 54 21 65 25 77 30 193 60 315 80 30 5 75 14 100 19 61 14 494 14 561 0
30 -6 79 -15 109 -19 78 -13 140 -26 175 -38 17 -5 50 -15 75 -23 25 -7 49
-16 55 -21 5 -4 18 -8 30 -8 12 0 30 -7 41 -15 10 -8 25 -15 32 -15 7 0 32
-10 57 -21 37 -17 48 -19 60 -9 8 7 15 17 15 22 0 8 8 20 38 53 6 7 12 17 12
20 0 4 14 24 30 45 17 21 30 43 30 49 0 17 52 12 85 -9z"/>
<path d="M1550 5559 c0 -5 5 -7 10 -4 6 3 10 8 10 11 0 2 -4 4 -10 4 -5 0 -10
-5 -10 -11z"/>
<path d="M1730 5390 c0 -5 4 -10 9 -10 6 0 13 5 16 10 3 6 -1 10 -9 10 -9 0
-16 -4 -16 -10z"/>
<path d="M440 4550 c0 -5 5 -10 10 -10 6 0 10 5 10 10 0 6 -4 10 -10 10 -5 0
-10 -4 -10 -10z"/>
<path d="M105 3560 c-3 -5 -1 -10 4 -10 6 0 11 5 11 10 0 6 -2 10 -4 10 -3 0
-8 -4 -11 -10z"/>
<path d="M2775 5163 c-374 -22 -759 -206 -1056 -505 -125 -125 -274 -326 -349
-468 -18 -36 -42 -80 -52 -98 -16 -30 -17 -33 -2 -39 9 -3 258 -3 553 1 472 6
541 5 567 -9 16 -8 41 -15 57 -15 15 0 27 -4 27 -10 0 -5 11 -10 25 -10 14 0
25 -4 25 -9 0 -5 9 -13 20 -16 11 -4 46 -33 78 -65 66 -67 76 -79 85 -102 3
-10 10 -18 16 -18 5 0 11 -8 15 -17 7 -23 33 -64 62 -96 5 -7 13 -20 17 -31 6
-15 10 -16 22 -6 8 7 15 19 15 27 0 7 6 16 14 19 8 3 17 13 20 22 7 23 35 65
64 97 6 7 12 18 12 24 0 5 6 14 13 18 6 4 17 17 23 28 13 24 143 125 162 125
7 0 20 4 30 9 48 26 142 31 657 38 300 3 545 9 545 13 0 3 -5 11 -11 17 -12
12 -21 27 -64 108 -35 67 -46 85 -72 122 -13 17 -23 36 -23 42 0 7 -7 14 -15
17 -8 4 -15 12 -15 19 0 7 -19 33 -42 58 -24 25 -42 52 -40 60 3 17 -164 190
-263 272 -78 65 -228 166 -290 196 -22 11 -47 23 -55 28 -80 48 -271 109 -370
117 -47 4 -88 12 -92 18 -12 18 -170 28 -313 19z m455 -93 c0 -5 -2 -10 -4
-10 -3 0 -8 5 -11 10 -3 6 -1 10 4 10 6 0 11 -4 11 -10z m17 -172 c-2 -18 -4
-4 -4 32 0 36 2 50 4 33 2 -18 2 -48 0 -65z m-230 -45 c-3 -10 -5 -4 -5 12 0
17 2 24 5 18 2 -7 2 -21 0 -30z m-30 -145 c-3 -8 -6 -5 -6 6 -1 11 2 17 5 13
3 -3 4 -12 1 -19z m-17 -128 c0 -11 -4 -20 -10 -20 -5 0 -10 9 -10 20 0 11 5
20 10 20 6 0 10 -9 10 -20z m307 -92 c-2 -18 -4 -4 -4 32 0 36 2 50 4 33 2
-18 2 -48 0 -65z m-340 -30 c-3 -8 -6 -5 -6 6 -1 11 2 17 5 13 3 -3 4 -12 1
-19z m-64 -65 c-7 -2 -19 -2 -25 0 -7 3 -2 5 12 5 14 0 19 -2 13 -5z m-323
-23 c0 -5 -5 -10 -11 -10 -5 0 -7 5 -4 10 3 6 8 10 11 10 2 0 4 -4 4 -10z m65
0 c3 -5 1 -10 -4 -10 -6 0 -11 5 -11 10 0 6 2 10 4 10 3 0 8 -4 11 -10z m185
0 c0 -5 -5 -10 -11 -10 -5 0 -7 5 -4 10 3 6 8 10 11 10 2 0 4 -4 4 -10z m-513
-26 c-3 -3 -12 -4 -19 -1 -8 3 -5 6 6 6 11 1 17 -2 13 -5z m-67 -24 c0 -5 -4
-10 -10 -10 -5 0 -10 5 -10 10 0 6 5 10 10 10 6 0 10 -4 10 -10z m120 0 c0 -5
-4 -10 -10 -10 -5 0 -10 5 -10 10 0 6 5 10 10 10 6 0 10 -4 10 -10z m1660 0
c0 -5 -4 -10 -10 -10 -5 0 -10 5 -10 10 0 6 5 10 10 10 6 0 10 -4 10 -10z
m-693 -237 c-2 -16 -4 -3 -4 27 0 30 2 43 4 28 2 -16 2 -40 0 -55z"/>
<path d="M1246 3918 c-20 -51 -36 -97 -36 -101 0 -5 -6 -23 -14 -40 -8 -18
-16 -43 -19 -57 -3 -14 -14 -59 -24 -100 -11 -41 -21 -104 -21 -139 -1 -35 -6
-69 -10 -75 -12 -14 -34 -355 -31 -468 l2 -88 816 -2 c449 -2 821 1 826 5 6 5
4 13 -7 21 -11 8 -18 26 -18 44 0 17 -7 37 -15 46 -9 8 -16 19 -15 23 0 4 -57
9 -127 11 -151 3 -162 5 -139 30 9 10 16 23 16 28 1 5 19 27 40 49 22 22 40
46 40 54 0 13 15 13 84 -5 38 -9 33 14 -6 32 -79 36 -245 162 -247 188 -1 5
-12 24 -26 42 -14 18 -25 38 -25 44 0 6 -7 13 -15 16 -8 4 -15 17 -15 29 0 13
-5 25 -11 27 -6 2 -14 19 -18 38 l-7 35 -108 2 c-63 1 -113 6 -119 12 -6 6
-39 11 -73 11 -35 0 -66 5 -69 10 -3 6 -21 10 -40 10 -20 0 -35 6 -39 15 -3 8
-14 15 -25 15 -26 0 -151 58 -151 70 0 6 47 10 111 10 100 0 110 2 107 18 -3
15 -20 17 -163 20 l-160 2 -44 38 c-28 24 -42 43 -37 51 6 9 64 11 224 11 119
0 227 -1 240 0 13 0 22 6 22 15 0 13 -37 15 -270 15 l-269 0 -32 40 c-18 22
-35 40 -39 40 -4 0 -24 -42 -44 -92z m151 -494 c-3 -3 -12 -4 -19 -1 -8 3 -5
6 6 6 11 1 17 -2 13 -5z"/>
<path d="M4450 3995 c0 -8 -4 -15 -9 -15 -6 0 -16 -12 -23 -27 l-13 -28 -268
-2 c-147 -1 -267 -5 -267 -10 0 -4 108 -8 240 -9 213 -1 283 -7 243 -21 -7 -3
-13 -11 -13 -19 0 -8 -6 -14 -13 -14 -8 0 -24 -11 -37 -25 -22 -24 -27 -25
-183 -27 -115 -2 -161 -6 -164 -15 -3 -9 25 -13 109 -15 98 -3 113 -5 116 -20
3 -13 -3 -18 -21 -18 -14 0 -30 -7 -37 -15 -7 -8 -23 -15 -36 -15 -13 0 -24
-4 -24 -10 0 -5 -13 -10 -29 -10 -17 0 -32 -4 -35 -9 -4 -5 -29 -12 -56 -16
-28 -4 -50 -11 -50 -16 0 -5 -27 -9 -61 -9 -33 0 -70 -5 -82 -12 -14 -7 -63
-11 -132 -9 -68 1 -106 -1 -100 -7 14 -13 170 -34 240 -32 61 2 142 -16 160
-35 6 -6 15 -20 21 -30 6 -11 22 -22 35 -23 44 -7 69 -40 69 -93 l0 -48 -162
-5 c-188 -5 -292 -16 -310 -34 -6 -6 -33 -12 -59 -12 -26 0 -51 -4 -54 -10 -3
-5 -24 -10 -46 -10 -26 0 -42 -5 -45 -15 -4 -10 -20 -15 -45 -15 -21 0 -39 -4
-39 -10 0 -5 -11 -10 -23 -10 -22 0 -62 -15 -109 -41 -10 -5 -22 -9 -28 -9
-20 0 -137 -80 -171 -117 -43 -47 -79 -105 -79 -127 0 -10 -7 -24 -15 -32 -27
-28 -18 -42 31 -46 48 -3 68 8 40 24 -11 6 -16 22 -16 51 0 37 6 49 48 93 26
27 63 61 82 75 37 27 162 89 178 89 10 0 50 -43 105 -110 48 -60 40 -65 -116
-68 l-137 -3 0 -35 c0 -19 -7 -42 -15 -50 -8 -9 -15 -26 -15 -40 l0 -24 815 0
816 0 -2 203 c0 112 -6 223 -11 248 -5 24 -13 76 -17 114 -4 39 -13 83 -19 98
-7 16 -12 40 -12 54 0 14 -7 46 -15 72 -8 25 -29 92 -46 149 -17 56 -36 105
-40 108 -5 3 -9 16 -9 29 0 13 -4 27 -10 30 -5 3 -10 17 -10 31 0 13 -4 24
-10 24 -5 0 -10 -7 -10 -15z"/>
<path d="M3814 3459 c-2 -4 6 -9 18 -12 22 -6 38 -1 38 11 0 9 -51 9 -56 1z"/>
<path d="M1107 2763 c-12 -11 -8 -79 8 -140 8 -31 15 -76 15 -100 0 -23 4 -44
9 -48 6 -3 13 -27 16 -53 3 -26 13 -62 21 -80 7 -18 14 -44 14 -57 0 -13 5
-27 10 -30 6 -3 10 -15 10 -25 0 -11 6 -34 14 -52 8 -18 22 -53 31 -78 18 -47
42 -103 56 -132 5 -10 9 -24 9 -31 0 -8 18 -47 40 -87 22 -40 40 -74 40 -76 0
-2 28 -45 62 -96 206 -309 453 -529 761 -677 58 -28 112 -51 120 -51 7 0 17
-3 21 -7 7 -7 65 -25 136 -42 250 -61 491 -63 738 -5 64 15 231 72 267 91 11
6 45 23 75 39 329 166 625 470 821 842 22 40 39 79 39 87 0 7 6 26 14 42 14
28 21 45 49 118 37 98 45 124 61 180 10 33 22 74 27 90 5 17 12 52 15 78 4 26
11 50 15 53 5 3 9 28 9 56 0 27 7 77 16 110 8 33 13 67 10 74 -5 12 -114 14
-666 14 -433 0 -660 -3 -660 -10 0 -5 6 -10 14 -10 32 0 195 -101 277 -171 52
-45 164 -177 195 -231 13 -23 18 -32 36 -78 5 -14 16 -38 24 -53 8 -16 14 -38
14 -50 0 -12 7 -35 16 -52 12 -23 15 -58 13 -155 -1 -69 -6 -141 -11 -160 -5
-19 -13 -51 -18 -70 -13 -52 -35 -109 -48 -122 -7 -7 -12 -18 -12 -26 0 -19
-78 -136 -130 -195 -45 -51 -183 -165 -228 -188 -15 -8 -52 -28 -82 -44 -30
-17 -80 -38 -110 -48 -30 -10 -64 -23 -75 -27 -36 -16 -208 -39 -305 -42 -70
-3 -236 11 -275 22 -16 5 -50 14 -75 20 -25 7 -61 19 -80 27 -19 8 -46 20 -60
25 -236 98 -448 314 -525 533 -9 28 -21 59 -25 70 -5 11 -11 43 -14 70 -2 28
-9 79 -16 114 -8 45 -8 73 0 94 5 16 10 48 10 71 0 23 7 54 15 70 8 15 15 39
15 52 0 14 7 27 15 30 8 4 15 14 15 24 0 16 27 77 40 90 3 3 22 30 43 62 77
114 256 267 367 314 8 3 27 11 43 18 15 6 27 14 27 18 0 10 -1304 11 -1313 1z"/>
<path d="M2862 2668 c4 -80 21 -78 22 2 1 43 -3 60 -12 60 -10 0 -12 -16 -10
-62z"/>
<path d="M2744 2688 c3 -13 6 -39 6 -57 0 -25 3 -32 11 -24 13 13 1 103 -13
103 -6 0 -8 -10 -4 -22z"/>
<path d="M2940 2685 c0 -14 4 -25 9 -25 5 0 11 11 13 25 4 17 1 25 -8 25 -8 0
-14 -11 -14 -25z"/>
<path d="M3080 2687 c0 -13 -4 -27 -9 -32 -5 -6 -11 -23 -13 -40 -2 -23 1 -30
17 -33 17 -4 18 -2 6 11 -11 14 -10 22 3 48 18 36 21 69 6 69 -5 0 -10 -10
-10 -23z"/>
<path d="M2641 2669 c-1 -44 31 -89 62 -88 21 0 21 1 2 8 -21 9 -36 33 -53 86
l-10 30 -1 -36z"/>
<path d="M2520 2645 c7 -9 10 -26 6 -42 -6 -27 -6 -27 9 -9 18 24 19 38 3 54
-17 17 -33 15 -18 -3z"/>
<path d="M2440 2621 c0 -10 6 -24 14 -30 8 -7 17 -23 20 -36 4 -14 11 -25 16
-25 17 0 11 28 -11 49 -14 13 -19 26 -14 40 5 15 2 21 -9 21 -9 0 -16 -8 -16
-19z"/>
<path d="M2960 2630 c0 -5 -7 -10 -15 -10 -8 0 -15 -4 -15 -10 0 -16 15 -12
35 10 10 11 13 20 7 20 -7 0 -12 -4 -12 -10z"/>
<path d="M3259 2596 c-12 -24 -31 -47 -43 -51 -20 -7 -20 -7 -1 -12 12 -4 25
3 37 18 9 13 26 36 38 51 24 31 25 38 6 38 -8 0 -25 -20 -37 -44z"/>
<path d="M2327 2564 c-11 -11 13 -44 31 -44 9 0 23 -9 30 -20 7 -11 20 -20 30
-20 12 0 2 14 -31 45 -51 49 -51 48 -60 39z"/>
<path d="M2740 2561 c0 -6 -18 -11 -40 -11 -21 0 -56 -7 -77 -16 -21 -9 -49
-21 -63 -27 -42 -16 -110 -51 -135 -70 -79 -58 -127 -106 -175 -176 -33 -48
-60 -102 -60 -121 0 -9 -8 -26 -17 -40 -24 -35 -24 -271 0 -320 10 -18 17 -40
17 -49 0 -9 7 -25 15 -35 8 -11 15 -27 15 -36 0 -9 7 -25 15 -36 14 -18 15
-18 41 14 18 23 33 32 45 29 15 -4 19 0 19 21 0 38 153 184 265 252 84 52 181
102 233 122 12 4 32 12 45 17 62 25 115 41 133 41 11 0 24 4 29 9 6 5 28 11
50 14 22 3 64 11 93 18 41 10 60 11 84 1 26 -10 35 -9 48 3 19 18 56 20 66 4
3 -6 15 -8 26 -6 14 4 22 -1 28 -19 13 -34 22 -30 18 9 -3 32 -3 32 45 35 47
3 63 21 34 39 -7 4 -28 28 -47 53 -56 74 -163 166 -219 189 -17 8 -31 17 -31
22 0 5 -10 9 -23 9 -13 0 -27 3 -31 7 -10 10 -74 33 -126 45 -64 15 -320 22
-320 9z"/>
<path d="M3364 2537 c-25 -23 -33 -37 -29 -50 4 -9 11 -17 16 -17 4 0 6 7 3
15 -7 17 38 65 61 65 8 0 15 5 15 10 0 20 -31 9 -66 -23z"/>
<path d="M3470 2526 c0 -9 5 -16 10 -16 6 0 10 4 10 9 0 6 -4 13 -10 16 -5 3
-10 -1 -10 -9z"/>
<path d="M2230 2491 c0 -5 7 -14 15 -21 12 -10 18 -10 30 0 8 7 12 16 9 21 -7
12 -54 12 -54 0z"/>
<path d="M2327 2486 c-6 -15 1 -26 15 -26 11 0 10 27 -1 34 -5 3 -11 0 -14 -8z"/>
<path d="M2287 2425 c18 -25 33 -32 33 -17 0 10 -33 42 -44 42 -4 0 1 -11 11
-25z"/>
<path d="M3388 2443 c7 -3 16 -2 19 1 4 3 -2 6 -13 5 -11 0 -14 -3 -6 -6z"/>
<path d="M3555 2419 c-23 -5 -25 -7 -8 -8 12 0 26 -9 32 -18 9 -17 10 -17 17
0 9 25 -5 35 -41 26z"/>
<path d="M3450 2391 c0 -5 8 -9 18 -9 9 0 25 -3 36 -7 14 -6 18 -5 14 6 -5 16
-68 26 -68 10z"/>
<path d="M2106 2361 c-4 -7 -5 -15 -2 -18 9 -9 19 4 14 18 -4 11 -6 11 -12 0z"/>
<path d="M3548 2359 c-10 -5 -18 -22 -18 -36 l0 -27 25 34 c14 19 25 35 25 37
0 6 -15 2 -32 -8z"/>
<path d="M2146 2335 c-19 -14 -19 -15 0 -21 10 -4 26 -13 35 -21 9 -7 24 -11
33 -7 26 10 19 23 -11 21 -24 -2 -28 2 -26 21 3 25 -4 27 -31 7z"/>
<path d="M3662 2273 c-10 -4 -10 -8 -1 -19 8 -10 16 -11 30 -3 37 19 12 39
-29 22z"/>
<path d="M3590 2250 c-12 -8 -11 -10 7 -10 12 0 25 5 28 10 8 13 -15 13 -35 0z"/>
<path d="M2042 2238 c-19 -19 -14 -29 8 -16 16 10 23 9 44 -11 23 -21 28 -23
56 -11 16 7 30 16 30 21 0 12 -17 11 -25 -1 -11 -18 -54 -11 -65 10 -12 23
-30 26 -48 8z"/>
<path d="M3646 2211 c-4 -5 -2 -12 3 -15 5 -4 12 -2 15 3 4 5 2 12 -3 15 -5 4
-12 2 -15 -3z"/>
<path d="M3700 2175 c-6 -8 -27 -20 -46 -27 -19 -6 -34 -16 -34 -20 0 -12 13
-10 46 6 16 7 43 20 61 27 21 9 28 16 20 21 -18 12 -33 10 -47 -7z"/>
<path d="M2062 2165 c-19 -10 -20 -14 -8 -18 18 -7 46 1 46 13 0 15 -15 17
-38 5z"/>
<path d="M3140 2099 c0 -5 5 -7 10 -4 6 3 10 8 10 11 0 2 -4 4 -10 4 -5 0 -10
-5 -10 -11z"/>
<path d="M3040 2081 c0 -5 7 -14 15 -21 12 -10 15 -10 15 3 0 8 -7 17 -15 21
-8 3 -15 2 -15 -3z"/>
<path d="M3402 2054 c-15 -16 -65 -18 -92 -4 -15 8 -21 6 -29 -7 -6 -12 -22
-18 -53 -18 -23 0 -53 -6 -65 -13 -12 -7 -40 -12 -62 -12 -30 0 -41 -4 -41
-15 0 -8 -8 -15 -17 -15 -9 0 -31 -5 -48 -11 -40 -15 -82 -5 -90 21 -4 11 -11
17 -17 14 -5 -4 2 -18 18 -35 25 -26 26 -29 8 -35 -10 -3 -38 -15 -61 -25 -24
-10 -49 -19 -57 -19 -8 0 -19 -6 -23 -12 -9 -15 -29 -28 -100 -64 -29 -14 -65
-38 -80 -52 -15 -15 -58 -52 -95 -83 -63 -53 -148 -149 -148 -166 1 -19 189
-133 218 -133 10 0 22 -4 27 -9 6 -4 35 -16 65 -26 43 -14 89 -18 210 -18 144
-1 161 1 245 28 198 63 333 170 422 334 18 34 33 69 33 79 0 9 7 30 15 46 11
20 15 61 15 142 l0 114 -77 1 c-43 0 -85 2 -93 4 -8 1 -21 -4 -28 -11z"/>
<path d="M2860 2030 c0 -5 5 -10 11 -10 5 0 7 5 4 10 -3 6 -8 10 -11 10 -2 0
-4 -4 -4 -10z"/>
<path d="M2801 1988 c-1 -16 4 -28 9 -28 12 0 12 8 0 35 -8 18 -9 17 -9 -7z"/>
<path d="M2700 1956 c0 -2 7 -6 15 -10 8 -3 15 -1 15 4 0 6 -7 10 -15 10 -8 0
-15 -2 -15 -4z"/>
<path d="M2660 1926 c0 -8 5 -18 10 -21 6 -3 10 3 10 14 0 12 -4 21 -10 21 -5
0 -10 -6 -10 -14z"/>
<path d="M2835 1930 c3 -5 8 -10 11 -10 2 0 4 5 4 10 0 6 -5 10 -11 10 -5 0
-7 -4 -4 -10z"/>
<path d="M2725 1920 c-3 -5 1 -10 10 -10 9 0 13 5 10 10 -3 6 -8 10 -10 10 -2
0 -7 -4 -10 -10z"/>
<path d="M2690 1891 c0 -5 5 -13 10 -16 6 -3 10 -2 10 4 0 5 -4 13 -10 16 -5
3 -10 2 -10 -4z"/>
<path d="M2604 1875 c26 -19 42 -19 26 0 -7 8 -20 15 -29 15 -13 -1 -13 -3 3
-15z"/>
<path d="M2550 1860 c0 -5 5 -10 10 -10 6 0 10 5 10 10 0 6 -4 10 -10 10 -5 0
-10 -4 -10 -10z"/>
<path d="M2580 1830 c0 -5 5 -10 10 -10 6 0 10 5 10 10 0 6 -4 10 -10 10 -5 0
-10 -4 -10 -10z"/>
<path d="M2109 1790 c-3 -30 -8 -35 -31 -35 -14 0 -30 -3 -34 -7 -4 -5 -16 -8
-26 -8 -10 0 -18 -7 -18 -15 0 -12 4 -13 19 -5 11 5 35 10 53 10 46 0 54 9 47
55 l-5 40 -5 -35z"/>
<path d="M3645 1809 c-10 -16 4 -24 17 -11 17 17 49 15 76 -4 28 -19 39 -13
17 10 -19 18 -100 22 -110 5z"/>
<path d="M2470 1795 c0 -8 5 -15 10 -15 6 0 10 7 10 15 0 8 -4 15 -10 15 -5 0
-10 -7 -10 -15z"/>
<path d="M2520 1780 c0 -5 7 -10 15 -10 8 0 15 5 15 10 0 6 -7 10 -15 10 -8 0
-15 -4 -15 -10z"/>
<path d="M2501 1734 c0 -11 3 -14 6 -6 3 7 2 16 -1 19 -3 4 -6 -2 -5 -13z"/>
<path d="M3650 1725 c7 -8 16 -15 21 -15 5 0 9 7 9 15 0 9 -9 15 -21 15 -18 0
-19 -2 -9 -15z"/>
<path d="M3750 1719 c0 -5 5 -7 10 -4 6 3 10 8 10 11 0 2 -4 4 -10 4 -5 0 -10
-5 -10 -11z"/>
<path d="M2390 1695 c1 -17 29 -49 37 -41 4 3 -3 16 -15 29 -12 12 -22 17 -22
12z"/>
<path d="M3585 1662 c-11 -11 -4 -22 14 -22 11 0 26 -7 35 -15 8 -8 22 -15 32
-15 9 0 23 -8 30 -17 12 -16 13 -16 14 -2 0 17 -114 82 -125 71z"/>
<path d="M2130 1629 c-19 -10 -42 -18 -51 -19 -17 0 -32 -24 -22 -34 3 -3 17
3 31 12 14 9 39 22 56 27 16 6 31 16 34 23 5 16 -5 14 -48 -9z"/>
<path d="M3556 1615 c-3 -8 -1 -15 4 -15 6 0 10 7 10 15 0 8 -2 15 -4 15 -2 0
-6 -7 -10 -15z"/>
<path d="M3610 1570 c0 -5 5 -10 10 -10 6 0 10 5 10 10 0 6 -4 10 -10 10 -5 0
-10 -4 -10 -10z"/>
<path d="M3670 1550 c0 -5 5 -10 10 -10 6 0 10 5 10 10 0 6 -4 10 -10 10 -5 0
-10 -4 -10 -10z"/>
<path d="M2230 1540 c20 -13 33 -13 25 0 -3 6 -14 10 -23 10 -15 0 -15 -2 -2
-10z"/>
<path d="M3500 1526 c0 -9 47 -56 55 -56 5 0 17 -7 27 -17 15 -13 18 -14 18
-1 0 8 -20 29 -45 46 -45 31 -55 37 -55 28z"/>
<path d="M2270 1494 c0 -32 -25 -53 -62 -54 -16 0 -28 -4 -28 -10 0 -18 57
-11 84 11 26 21 35 62 16 74 -6 4 -10 -5 -10 -21z"/>
<path d="M2136 1482 c-3 -5 1 -15 9 -22 16 -14 20 -3 6 19 -5 8 -11 9 -15 3z"/>
<path d="M3495 1433 c9 -38 45 -58 60 -33 3 6 -3 10 -14 10 -14 0 -23 9 -27
25 -3 14 -11 25 -16 25 -6 0 -7 -11 -3 -27z"/>
<path d="M2365 1420 c3 -5 8 -10 11 -10 2 0 4 5 4 10 0 6 -5 10 -11 10 -5 0
-7 -4 -4 -10z"/>
<path d="M3345 1400 c-3 -5 3 -10 14 -10 12 0 21 -7 21 -15 0 -8 9 -20 20 -27
11 -7 20 -21 20 -30 0 -19 15 -24 24 -9 6 9 -70 101 -84 101 -5 0 -12 -4 -15
-10z"/>
<path d="M2407 1381 c4 -16 1 -21 -16 -21 -14 0 -25 -9 -31 -24 -5 -13 -17
-26 -27 -29 -17 -4 -17 -4 1 -12 16 -7 27 0 58 36 37 43 42 59 21 66 -7 3 -9
-4 -6 -16z"/>
<path d="M2500 1336 c0 -9 5 -16 10 -16 6 0 10 4 10 9 0 6 -4 13 -10 16 -5 3
-10 -1 -10 -9z"/>
<path d="M3360 1329 c0 -5 5 -7 10 -4 6 3 10 8 10 11 0 2 -4 4 -10 4 -5 0 -10
-5 -10 -11z"/>
<path d="M3216 1303 c4 -16 13 -35 20 -44 8 -8 14 -23 14 -32 0 -9 5 -17 10
-17 14 0 12 28 -4 58 -8 15 -17 35 -20 45 -9 29 -27 20 -20 -10z"/>
<path d="M2577 1287 c-8 -13 -16 -32 -18 -42 -3 -11 -15 -25 -29 -32 l-25 -13
27 0 c27 0 33 8 76 103 9 18 -17 5 -31 -16z"/>
<path d="M2486 1275 c-24 -22 -26 -28 -14 -42 12 -15 13 -14 16 10 2 17 10 27
23 29 11 2 20 7 20 13 1 19 -18 15 -45 -10z"/>
<path d="M3148 1278 c18 -9 22 -17 17 -39 -3 -15 -1 -30 4 -34 6 -3 11 2 11
12 0 11 5 24 11 30 12 12 -25 43 -51 42 -9 0 -7 -4 8 -11z"/>
<path d="M3385 1280 c-3 -5 -1 -10 4 -10 6 0 11 5 11 10 0 6 -2 10 -4 10 -3 0
-8 -4 -11 -10z"/>
<path d="M3025 1250 c6 -26 4 -30 -14 -30 -11 0 -23 -4 -26 -10 -4 -6 6 -10
24 -10 16 0 33 5 36 10 9 14 -4 70 -17 70 -5 0 -7 -12 -3 -30z"/>
<path d="M3033 1173 c-7 -2 -13 -9 -13 -15 0 -14 43 -6 48 10 4 12 -12 15 -35
5z"/>
</g>
</svg>
