<?xml version="1.0" standalone="no"?>
<!DOCTYPE svg PUBLIC "-//W3C//DTD SVG 20010904//EN"
 "http://www.w3.org/TR/2001/REC-SVG-20010904/DTD/svg10.dtd">
<svg version="1.0" xmlns="http://www.w3.org/2000/svg"
 width="552.000000pt" height="623.000000pt" viewBox="0 0 552.000000 623.000000"
 preserveAspectRatio="xMidYMid meet">

<g transform="translate(0.000000,623.000000) scale(0.100000,-0.100000)"
fill="#000000" stroke="none">
<path d="M0 3115 l0 -3115 2760 0 2760 0 0 3115 0 3115 -2760 0 -2760 0 0
-3115z m2728 2998 c-56 -4 -57 -5 -61 -36 -4 -31 -4 -31 -5 6 l-2 37 63 -2 62
-2 -57 -3z m130 -39 c2 -16 9 -32 15 -36 8 -5 6 -8 -5 -8 -14 0 -18 8 -18 34
0 19 -5 37 -10 39 -6 3 -5 4 2 3 7 -1 15 -16 16 -32z m82 -4 c0 -32 -4 -40
-17 -39 -11 0 -13 3 -5 6 6 2 12 20 12 39 0 19 2 34 5 34 3 0 5 -18 5 -40z
m63 33 c-7 -2 -19 -2 -25 0 -7 3 -2 5 12 5 14 0 19 -2 13 -5z m82 -180 c-6
-169 -9 -189 -26 -202 -32 -23 -22 -31 41 -31 33 0 60 -4 60 -10 0 -6 -28 -10
-65 -10 -73 0 -80 9 -46 58 17 23 21 52 26 199 l7 171 -23 5 c-21 4 -21 4 5 6
l28 1 -7 -187z m-264 161 c4 -2 6 -14 5 -26 -1 -21 -6 -23 -68 -26 l-68 -3 0
29 c0 16 3 32 8 36 6 7 109 -1 123 -10z m-597 -16 c3 -13 6 -33 6 -45 0 -13 5
-23 10 -23 6 0 10 -16 10 -36 0 -56 -18 -30 -26 37 -4 33 -12 62 -18 64 -6 3
-36 1 -66 -3 l-55 -7 2 -60 1 -60 -7 55 c-10 72 -6 80 40 80 21 0 39 5 39 10
0 6 13 10 29 10 21 0 30 -6 35 -22z m344 10 c15 -15 16 -45 1 -54 -6 -4 -33
-8 -60 -10 l-49 -3 0 33 c0 18 3 36 7 39 11 12 88 8 101 -5z m485 -6 c10 -11
14 -26 10 -40 -10 -39 -113 -24 -113 17 0 15 41 41 66 41 11 0 28 -8 37 -18z
m-418 -40 c24 3 31 0 28 -9 -7 -19 -60 -16 -67 3 -3 9 -5 21 -5 27 1 7 3 4 6
-6 4 -15 12 -18 38 -15z m803 11 c19 -4 22 -12 22 -54 0 -27 -5 -49 -10 -49
-6 0 -8 15 -4 39 8 47 1 52 -86 68 l-65 12 60 -5 c33 -3 70 -8 83 -11z m-1428
-48 c7 -25 10 -48 8 -51 -3 -2 -11 16 -17 41 -8 34 -16 45 -30 45 -11 0 -21
-3 -23 -8 -1 -4 -39 -18 -83 -32 -44 -13 -83 -28 -86 -33 -4 -5 -10 -4 -13 2
-4 6 -1 13 6 15 7 3 40 12 73 22 33 10 62 21 65 25 6 9 73 27 81 23 3 -2 12
-24 19 -49z m195 15 c0 -27 -4 -35 -20 -38 -11 -2 -30 -8 -43 -15 -28 -14 -42
2 -42 50 0 34 15 42 75 39 27 -1 30 -4 30 -36z m1165 10 c0 -5 14 -10 30 -10
27 0 30 -3 30 -30 0 -26 -4 -30 -28 -30 -41 0 -95 29 -88 47 3 8 6 19 6 24 0
5 11 9 25 9 14 0 25 -4 25 -10z m-1384 -45 c8 -32 -1 -55 -21 -55 -9 0 -26 -6
-38 -14 -33 -22 -117 -32 -117 -15 0 8 -3 24 -6 35 -4 15 0 23 13 27 10 3 43
15 73 26 74 26 88 26 96 -4z m754 -24 l0 -51 -72 -1 c-40 -1 -86 -2 -103 -4
-36 -2 -45 9 -45 57 0 43 -3 42 128 46 l92 4 0 -51z m213 43 c37 -7 37 -7 37
-55 l0 -49 -38 0 c-22 0 -73 3 -115 6 l-77 7 0 48 0 49 78 0 c42 0 94 -3 115
-6z m671 -10 c68 -19 92 -33 52 -31 -14 1 -26 5 -26 8 0 4 -17 10 -37 14 -21
3 -47 9 -59 11 -17 5 -22 0 -27 -25 -4 -17 -12 -31 -19 -31 -9 0 -9 3 0 12 7
7 12 22 12 35 0 28 20 30 104 7z m-1133 -11 c1 -10 3 -30 5 -45 2 -19 -2 -28
-12 -28 -10 0 -14 12 -14 45 0 42 19 66 21 28z m567 -35 c3 -46 2 -48 -22 -48
-24 0 -26 3 -26 51 0 47 2 50 23 47 19 -3 22 -10 25 -50z m238 9 c-3 -18 -10
-77 -15 -130 -8 -79 -7 -105 5 -132 8 -19 10 -35 5 -35 -28 0 -31 178 -5 303
8 39 17 34 10 -6z m344 0 c51 -13 55 -16 55 -43 0 -26 -3 -29 -31 -27 -17 2
-52 12 -77 23 -38 17 -47 26 -47 47 0 21 4 24 23 20 12 -3 47 -12 77 -20z
m-1176 -88 c4 -54 13 -101 21 -113 28 -40 20 -56 -30 -56 l-45 0 0 -71 0 -70
-37 3 c-36 3 -38 5 -40 38 l-2 35 10 -32 c7 -23 16 -33 29 -33 22 0 22 1 20
83 l-1 57 50 0 c55 0 57 2 36 40 -8 14 -14 42 -15 63 0 20 -4 37 -10 37 -6 0
-10 27 -10 61 0 91 16 63 24 -42z m-240 47 c4 -18 4 -41 0 -50 -10 -27 -32
-18 -36 17 -3 17 -8 39 -12 49 -5 11 -2 17 11 20 26 6 30 2 37 -36z m1502 1
c-6 -38 -4 -44 21 -60 16 -10 20 -16 10 -13 -10 3 -25 6 -33 6 -12 0 -14 12
-12 55 2 30 7 55 12 55 4 0 5 -19 2 -43z m-1935 -7 c5 0 9 -9 9 -20 0 -11 -7
-20 -15 -20 -8 0 -15 -4 -15 -10 0 -5 -13 -10 -28 -10 -25 0 -30 5 -41 42 -7
23 -16 37 -19 32 -4 -6 -29 -19 -57 -31 -44 -18 -50 -23 -48 -48 2 -20 -1 -25
-8 -18 -22 22 -5 55 36 71 22 9 46 22 53 29 15 15 15 15 36 7 9 -3 16 -14 16
-23 0 -31 23 -50 47 -41 17 7 21 16 19 42 -2 18 -1 25 1 16 2 -10 9 -18 14
-18z m369 -26 c0 -41 -2 -44 -26 -44 -14 0 -64 -9 -110 -21 -47 -11 -87 -19
-89 -17 -1 1 -6 22 -10 44 l-6 42 53 12 c29 7 58 15 63 19 24 15 101 27 113
18 6 -5 12 -29 12 -53z m1176 20 c2 -46 -7 -66 -24 -55 -8 5 -10 22 -6 54 8
57 28 58 30 1z m144 19 c8 -3 35 -13 58 -22 24 -9 43 -20 43 -24 -1 -4 -1 -25
-1 -47 0 -47 -12 -50 -89 -25 -25 9 -65 20 -88 26 l-43 10 0 48 c0 26 2 50 5
53 6 6 91 -8 115 -19z m330 -3 c0 -5 7 -10 15 -10 18 0 97 -40 107 -54 4 -6 7
-20 7 -31 -1 -19 -2 -19 -6 -1 -3 11 -10 25 -17 31 -15 15 -108 50 -123 47
-14 -3 -17 10 -6 21 10 10 23 8 23 -3z m-2116 -46 c10 -27 7 -31 -40 -49 -39
-15 -48 -15 -55 -4 -15 25 -5 43 31 58 37 14 57 13 64 -5z m924 -37 l3 -47
-60 0 c-34 0 -64 -1 -68 -2 -5 -2 -9 18 -11 44 -3 52 -1 53 88 53 l45 -1 3
-47z m256 47 c11 -4 16 -19 16 -50 l0 -44 -125 0 -125 0 0 43 c0 24 3 47 7 50
8 9 206 9 227 1z m-979 -14 c4 -6 10 -24 15 -40 8 -27 6 -32 -18 -44 -15 -7
-45 -17 -66 -20 -22 -4 -49 -14 -60 -22 -32 -22 -66 -18 -66 9 0 12 -3 32 -6
43 -5 19 1 23 65 39 39 9 71 21 71 25 0 5 10 11 23 13 12 2 25 5 29 6 4 0 10
-4 13 -9z m362 -27 c-3 -10 -5 -4 -5 12 0 17 2 24 5 18 2 -7 2 -21 0 -30z
m788 21 c10 -10 14 -25 11 -38 -3 -12 -6 -27 -6 -33 0 -9 -20 -13 -65 -13
l-65 0 0 50 0 50 54 0 c37 0 60 -5 71 -16z m615 -4 c3 -4 37 -18 75 -31 l70
-24 -3 -40 c-2 -22 -7 -44 -11 -48 -8 -9 -112 21 -121 34 -3 4 -21 11 -40 16
-33 9 -35 12 -33 49 2 21 5 44 7 51 5 12 46 6 56 -7z m200 -1 c3 -4 17 -12 32
-18 20 -7 25 -15 21 -31 -7 -28 -21 -34 -41 -18 -9 8 -29 20 -44 28 -26 13
-36 38 -21 53 8 8 45 -2 53 -14z m-1612 -62 c5 -39 -17 -55 -87 -63 l-62 -7 3
44 c3 42 5 44 38 50 19 4 51 6 70 5 30 -1 35 -5 38 -29z m15 -48 c-5 -5 -6 11
-3 34 4 41 5 41 8 8 2 -18 0 -37 -5 -42z m1141 52 c26 -10 28 -14 21 -49 -4
-20 -8 -38 -9 -40 -2 -1 -24 1 -49 4 -66 9 -78 21 -70 68 6 37 7 38 42 33 20
-3 49 -10 65 -16z m-1803 -33 c6 -24 13 -46 16 -50 2 -5 0 -8 -4 -8 -5 0 -16
23 -24 50 -9 28 -12 50 -8 50 5 0 13 -19 20 -42z m480 -6 c8 -37 0 -43 -76
-56 -22 -5 -44 -11 -50 -16 -21 -16 -128 -41 -137 -32 -5 5 -8 25 -6 43 2 24
9 35 23 38 11 2 22 6 25 10 3 4 41 15 85 25 44 10 85 19 90 21 24 9 40 -3 46
-33z m-702 -2 c6 -18 6 -30 0 -30 -5 0 -9 8 -9 18 0 10 -3 21 -6 25 -7 7 -54
-13 -54 -23 0 -4 -11 -12 -25 -18 -24 -11 -25 -15 -19 -60 l6 -49 -41 -16
c-23 -9 -41 -20 -41 -25 0 -4 -13 -16 -30 -25 -16 -10 -36 -24 -44 -32 -13
-13 -16 -11 -26 21 -7 19 -10 37 -8 38 1 2 22 15 45 29 l42 27 16 -22 c8 -13
15 -17 15 -10 0 7 4 10 10 7 5 -3 19 -1 30 5 18 10 20 17 14 59 -6 44 -4 50
15 56 11 3 21 10 21 15 0 10 48 39 67 40 6 0 16 -13 22 -30z m295 14 c3 -9 6
-27 6 -40 0 -19 -5 -24 -24 -24 -24 0 -36 16 -36 50 0 29 44 41 54 14z m1869
-4 c31 -7 57 -16 57 -20 0 -4 20 -13 45 -20 48 -13 55 -28 34 -73 -10 -23 -13
-23 -47 -11 -21 7 -65 18 -100 25 -34 7 -62 17 -62 21 0 4 -7 8 -15 8 -10 0
-15 10 -15 33 0 34 17 60 35 53 5 -2 36 -9 68 -16z m330 -2 c13 -11 15 -20 8
-51 -11 -47 -12 -48 -39 -40 -18 4 -22 12 -22 47 0 57 16 71 53 44z m-853 -18
c5 -9 0 -20 -15 -32 -22 -17 -32 -17 -142 -7 -80 7 -149 8 -213 1 -103 -10
-130 -2 -130 41 0 19 6 20 246 15 189 -4 248 -8 254 -18z m1170 0 c13 -11 21
-22 19 -24 -8 -7 -49 13 -49 24 0 6 -4 8 -10 5 -5 -3 -10 -1 -10 4 0 17 25 13
50 -9z m-275 -34 c-4 -20 -11 -36 -15 -36 -5 0 -10 -6 -13 -12 -2 -7 -2 1 1
17 2 17 8 32 13 33 5 2 9 13 9 25 0 11 3 18 6 15 3 -3 2 -22 -1 -42z m-2551 8
c12 -31 6 -43 -30 -60 -30 -15 -37 -15 -45 -3 -16 25 -9 48 19 63 35 20 48 20
56 0z m2778 4 c-7 -7 -12 -20 -12 -30 0 -10 -4 -18 -9 -18 -4 0 -16 -21 -25
-47 -10 -27 -27 -68 -38 -92 -12 -25 -27 -63 -34 -85 -11 -34 -13 -37 -13 -14
-1 14 6 39 14 55 22 43 76 172 80 194 4 21 26 48 40 49 5 0 4 -5 -3 -12z
m-1882 -7 c0 -5 -9 -19 -20 -32 -15 -19 -19 -21 -20 -7 0 9 7 24 16 32 18 18
24 20 24 7z m-482 -49 c2 -28 -1 -43 -10 -46 -7 -2 -32 -9 -56 -16 -23 -7 -44
-11 -46 -9 -2 2 -7 19 -11 37 -5 26 -3 33 12 39 10 3 20 10 23 13 7 10 63 29
75 26 6 -1 11 -21 13 -44z m432 32 c0 -26 -20 -54 -38 -54 -25 0 -276 -63
-282 -70 -5 -7 -127 -50 -141 -50 -12 0 -39 30 -39 44 0 7 26 20 58 30 31 10
71 24 87 31 40 17 303 82 338 84 9 1 17 -6 17 -15z m1980 6 c15 0 31 -40 25
-60 -6 -18 -7 -18 -40 2 -19 11 -35 24 -35 28 0 22 14 41 27 36 8 -3 19 -6 23
-6z m54 4 c17 -7 20 -37 6 -69 -7 -14 -8 -9 -4 18 5 30 3 37 -10 37 -9 0 -16
5 -16 10 0 12 3 12 24 4z m-2603 -78 c6 -22 24 -52 40 -67 37 -35 37 -46 0
-20 -24 18 -71 115 -71 147 0 17 20 -21 31 -60z m1725 55 c5 -5 48 -16 96 -24
48 -9 100 -23 116 -31 15 -8 56 -22 91 -31 35 -9 70 -23 78 -31 8 -8 23 -14
34 -14 23 0 25 -16 5 -36 -16 -15 -46 -19 -46 -5 0 8 -67 31 -132 47 -16 3
-28 10 -28 14 0 4 -55 18 -122 30 -124 22 -148 34 -148 72 0 19 38 26 56 9z
m384 1 c0 -4 25 -16 55 -27 30 -10 55 -24 55 -31 0 -39 -41 -83 -52 -56 -1 4
-25 15 -53 24 -52 16 -62 30 -51 74 4 15 14 24 26 24 11 0 20 -4 20 -8z
m-1002 -51 c4 -52 -3 -61 -53 -67 -46 -6 -55 5 -55 63 0 46 9 52 70 50 34 -2
35 -3 38 -46z m-1550 15 c4 -19 3 -19 -13 -2 -17 16 -30 13 -55 -14 -17 -19
-72 -51 -82 -48 -6 2 5 14 25 26 21 12 37 26 37 32 0 5 9 10 19 10 11 0 23 5
26 11 10 16 39 6 43 -15z m227 -31 c5 -27 4 -27 -14 9 -25 47 -26 56 -7 36 8
-8 17 -28 21 -45z m912 30 c2 -17 1 -18 -3 -2 -4 13 -12 17 -25 14 -11 -3 -16
-1 -13 4 10 17 39 5 41 -16z m185 -5 c-6 -52 -25 -78 -59 -82 l-33 -4 0 59 0
58 48 -3 c44 -3 47 -5 44 -28z m89 18 c0 -7 2 -24 4 -38 6 -47 -3 -60 -46 -60
-24 0 -39 5 -39 13 0 33 22 86 38 90 31 8 42 7 43 -5z m269 -44 l0 -56 -42 3
c-57 3 -68 14 -68 65 l0 44 55 0 55 0 0 -56z m100 39 c10 -9 29 -88 22 -95 -4
-4 -26 -4 -49 -1 l-43 6 0 53 0 54 33 -7 c17 -3 34 -8 37 -10z m144 -46 c0
-58 -12 -71 -54 -62 -32 7 -45 27 -57 88 l-6 28 59 -3 59 -3 -1 -48z m-1734
13 c0 -10 5 -22 10 -25 21 -13 8 -31 -40 -53 -27 -13 -50 -27 -50 -32 0 -22
-19 -8 -29 21 -17 49 -13 66 17 78 15 7 38 18 51 26 29 16 41 12 41 -15z m926
-15 c14 -76 -31 -92 -65 -22 -12 24 -21 46 -21 50 0 4 18 7 40 7 37 0 39 -2
46 -35z m954 19 c17 -9 28 -19 22 -23 -5 -3 -17 -23 -26 -44 -11 -28 -21 -38
-33 -35 -15 3 -17 12 -14 53 3 46 7 65 15 65 2 0 18 -7 36 -16z m880 1 c7 -8
18 -15 25 -15 18 0 46 -35 41 -51 -2 -8 -7 -26 -10 -41 -7 -33 -18 -35 -43
-10 -10 10 -30 26 -45 35 -15 9 -25 23 -23 30 26 74 32 80 55 52z m227 -15
c26 -17 50 -36 54 -43 4 -6 -11 -52 -32 -102 -21 -49 -38 -85 -39 -78 0 13 12
46 42 110 11 24 17 51 14 60 -7 21 -70 64 -96 66 -10 1 -16 5 -14 9 8 13 21 9
71 -22z m-1224 -23 c-4 -36 -2 -45 13 -51 10 -4 21 -1 26 6 5 9 8 10 8 1 0
-17 -13 -23 -38 -16 -18 4 -22 13 -22 47 0 36 6 56 15 56 2 0 0 -20 -2 -43z
m730 28 c-3 -9 -8 -14 -10 -11 -3 3 -2 9 2 15 9 16 15 13 8 -4z m-1665 -30 c9
-17 20 -31 25 -33 19 -9 3 -21 -38 -28 -25 -3 -45 -11 -46 -18 -2 -21 -17 39
-18 71 -1 25 3 32 22 36 33 6 37 4 55 -28z m-110 -20 c2 -17 9 -36 14 -43 6
-7 8 -15 5 -18 -10 -10 -117 -33 -121 -26 -2 4 -7 28 -11 53 l-7 46 44 10 c62
15 73 12 76 -22z m1264 -15 c-4 -57 -12 -64 -56 -56 -39 7 -43 20 -23 57 24
46 29 50 55 47 25 -3 27 -6 24 -48z m914 32 c-10 -2 -22 0 -28 6 -6 6 0 7 19
4 21 -5 23 -7 9 -10z m84 -8 c23 -20 29 -31 24 -48 -9 -28 -11 -30 -26 -17 -7
6 -24 19 -37 29 -18 14 -22 24 -17 40 9 28 18 28 56 -4z m-892 -6 c2 -4 12 -8
23 -8 15 0 19 -7 19 -33 0 -41 -15 -57 -55 -57 -65 0 -75 8 -75 60 0 30 5 50
13 53 17 6 71 -4 75 -15z m388 -13 c-4 -14 -12 -25 -19 -25 -7 0 -20 -12 -29
-27 -10 -16 -18 -22 -18 -15 0 8 14 27 30 42 17 15 30 36 30 46 0 9 3 15 6 11
4 -3 4 -18 0 -32z m-2788 -22 c6 -16 13 -39 16 -53 5 -18 1 -15 -11 10 -10 19
-21 37 -25 38 -11 5 -10 32 1 32 5 0 13 -12 19 -27z m176 11 c13 -33 6 -66
-14 -71 -11 -3 -20 -9 -20 -13 0 -7 -61 -40 -73 -40 -3 0 -12 13 -20 29 -11
21 -11 30 -2 37 7 5 31 24 55 42 48 36 65 40 74 16z m719 -29 c7 -34 5 -42
-15 -57 -20 -16 -89 -41 -94 -35 -1 1 -4 25 -8 54 l-7 52 48 14 c27 8 52 14
58 13 5 -2 13 -20 18 -41z m1647 15 c22 -6 24 -10 21 -56 -1 -27 -6 -53 -11
-57 -4 -5 -29 1 -55 12 -47 21 -48 22 -41 59 3 20 6 43 6 50 0 12 6 12 80 -8z
m668 4 c18 -8 32 -19 32 -23 0 -4 11 -13 25 -19 30 -14 32 -37 5 -77 -11 -16
-20 -25 -20 -19 0 6 -12 17 -27 23 -42 18 -83 58 -83 81 0 11 5 20 10 20 6 0
10 7 10 15 0 19 9 19 48 -1z m-2854 -47 c10 -53 7 -62 -22 -52 -21 6 -40 74
-27 95 16 25 40 4 49 -43z m1116 -7 c0 -59 0 -60 -28 -60 -39 0 -41 4 -29 53
11 48 24 67 43 67 10 0 14 -16 14 -60z m90 50 c0 -5 -4 -10 -9 -10 -5 0 -17
-20 -26 -45 -10 -24 -21 -43 -24 -40 -6 3 -7 91 -2 103 3 7 61 0 61 -8z m197
-34 l38 -37 1 -150 c0 -82 -3 -152 -7 -154 -4 -3 -14 -2 -23 1 -13 5 -16 26
-16 135 0 142 -9 176 -49 185 -14 3 -32 7 -39 10 -21 6 -58 -16 -76 -47 -15
-26 -17 -46 -10 -153 6 -121 6 -123 -15 -129 -13 -3 -24 0 -27 6 -2 7 -3 75
-1 152 2 133 3 142 27 172 35 43 58 53 112 49 38 -2 54 -10 85 -40z m104 12
c1 -39 -2 -82 -6 -86 -9 -10 -45 12 -45 26 0 10 -6 26 -13 37 -32 47 -29 55
18 55 44 0 45 -1 46 -32z m-1473 -17 c7 -21 12 -52 12 -70 0 -21 5 -31 15 -31
8 0 15 5 15 10 0 6 6 10 14 10 7 0 24 -25 37 -55 22 -51 40 -67 53 -47 3 5 -4
37 -15 72 -15 47 -17 66 -8 76 13 16 39 19 39 4 0 -5 -7 -10 -15 -10 -19 0
-19 -18 1 -76 18 -53 12 -94 -14 -94 -19 0 -45 39 -56 82 -5 24 -9 26 -41 21
l-35 -6 0 45 c0 24 -7 53 -15 64 -16 21 -20 44 -7 44 5 0 14 -17 20 -39z m902
25 c0 -7 3 -34 6 -60 6 -43 5 -46 -15 -46 -16 0 -27 11 -41 46 -24 56 -25 61
-2 67 34 9 52 7 52 -7z m106 -23 c-13 -70 -15 -73 -52 -73 l-34 0 0 48 c0 27
3 52 7 55 3 4 24 7 46 7 l39 0 -6 -37z m553 15 c5 -13 12 -38 16 -56 l7 -33
-39 3 -38 3 -3 53 c-3 50 -2 52 23 52 17 0 28 -7 34 -22z m1074 -21 c-4 -56
-14 -71 -38 -53 -17 13 -18 17 -5 55 18 55 46 53 43 -2z m-982 23 c14 -8 19
-21 19 -55 0 -41 -2 -45 -25 -45 -18 0 -28 8 -36 28 -6 15 -15 35 -20 44 -5
10 -9 22 -9 28 0 13 46 13 71 0z m-1752 -47 c16 -57 14 -70 -18 -83 -16 -6
-38 -20 -48 -30 -11 -9 -29 -21 -41 -24 -18 -6 -23 -1 -36 45 -16 54 -12 68
21 69 7 0 16 6 20 13 10 15 63 46 80 47 7 0 17 -17 22 -37z m455 21 c3 -9 6
-24 6 -34 0 -10 6 -20 12 -22 19 -7 -11 -33 -57 -52 l-37 -16 7 58 c4 31 12
63 17 70 15 17 45 15 52 -4z m454 -2 c18 -18 48 -80 41 -86 -7 -4 -86 -26 -97
-26 -11 0 -27 105 -17 120 10 16 53 12 73 -8z m939 1 c2 -6 -4 -29 -14 -52
-34 -79 -65 -32 -38 56 5 15 47 11 52 -4z m497 4 c11 -8 19 -32 23 -70 3 -31
4 -57 2 -57 -2 0 -22 7 -44 14 l-40 14 4 49 c1 26 5 51 8 56 7 11 27 9 47 -6z
m-2044 -1 c0 -3 -4 -8 -10 -11 -5 -3 -10 -1 -10 4 0 6 5 11 10 11 6 0 10 -2
10 -4z m508 -23 c15 -33 16 -103 1 -103 -5 0 -17 16 -24 35 -8 19 -24 39 -36
45 -32 18 -15 39 41 49 3 0 11 -11 18 -26z m1104 -41 c-2 -26 -6 -48 -7 -50
-1 -1 -16 1 -33 4 -34 7 -45 40 -18 50 8 3 19 19 25 36 9 24 14 28 25 19 9 -8
12 -26 8 -59z m908 38 c0 -4 16 -15 36 -25 32 -15 35 -19 28 -48 -12 -59 -37
-86 -50 -54 -2 7 -25 24 -49 37 -49 27 -53 40 -29 88 14 28 17 30 40 20 13 -6
24 -14 24 -18z m-2454 -17 c-14 -85 -25 -111 -56 -122 -34 -11 -32 -13 -50 53
-12 45 -12 50 5 62 10 8 27 14 37 14 10 0 18 4 18 9 0 8 18 16 44 20 5 0 6
-16 2 -36z m2132 25 c16 -16 15 -29 -2 -22 -16 6 -30 34 -18 34 5 0 13 -5 20
-12z m-492 -13 c14 -13 12 -19 -16 -55 -47 -60 -64 -52 -54 24 6 40 10 46 31
46 13 0 31 -7 39 -15z m442 -6 l44 -22 -7 -51 c-3 -28 -8 -52 -10 -55 -2 -2
-19 -1 -38 3 -30 6 -35 11 -41 44 -8 50 -8 102 1 102 4 0 27 -10 51 -21z
m-2697 -21 c22 -25 28 -69 6 -46 -15 16 -39 68 -30 68 3 0 14 -10 24 -22z
m985 -8 c27 -17 41 -51 55 -135 6 -38 16 -73 21 -76 5 -3 12 -31 15 -62 5 -52
4 -57 -14 -57 -18 0 -22 12 -37 107 -9 59 -20 110 -25 113 -6 3 -14 18 -20 33
-18 48 -88 61 -131 25 -23 -19 -25 -27 -25 -107 1 -47 6 -95 12 -107 7 -11 15
-44 19 -72 6 -44 4 -52 -10 -52 -9 0 -18 11 -22 28 -3 15 -12 49 -20 76 -8 27
-14 62 -14 77 0 15 -4 31 -10 34 -17 11 -10 78 13 125 19 37 31 47 72 61 49
17 81 14 121 -11z m1411 9 c39 -13 76 -60 85 -108 7 -41 -21 -291 -34 -291 -4
0 -8 -7 -8 -15 0 -19 -19 -20 -26 0 -3 8 2 63 11 122 21 129 21 163 -1 208
-15 32 -20 35 -59 35 -36 0 -47 -5 -72 -35 -26 -30 -31 -47 -42 -132 -15 -124
-20 -143 -39 -143 -16 0 -14 59 9 207 20 129 85 184 176 152z m465 -17 c7 -11
20 -21 28 -25 12 -4 11 -6 -3 -6 -10 -1 -20 6 -23 14 -9 21 -44 19 -44 -2 0
-10 -5 -25 -10 -33 -8 -11 -9 -7 -4 15 10 49 13 55 28 55 8 0 21 -8 28 -18z
m-2546 -47 c-4 -16 -22 -33 -49 -46 -23 -12 -44 -25 -47 -28 -11 -15 -55 -41
-70 -41 -8 0 -21 4 -29 9 -12 8 -12 11 0 24 8 8 31 22 49 32 19 10 37 21 40
24 3 4 26 18 53 31 26 14 47 29 48 35 0 5 3 4 6 -3 3 -7 2 -24 -1 -37z m2672
5 c23 -12 42 -25 42 -29 0 -3 16 -15 35 -25 19 -11 35 -23 35 -27 0 -4 9 -11
20 -14 26 -8 26 -22 -1 -30 -13 -4 -27 -1 -38 9 -10 9 -23 16 -29 16 -6 0 -15
6 -19 14 -4 7 -23 21 -40 30 -31 16 -63 61 -63 88 0 9 2 10 8 2 4 -7 26 -22
50 -34z m-2909 8 c17 -48 21 -78 10 -78 -14 0 -32 20 -46 52 -11 23 -10 29 5
37 23 14 21 14 31 -11z m673 -58 c-5 -49 -11 -66 -24 -68 -12 -2 -20 7 -27 35
-17 60 -14 72 22 87 17 7 33 12 34 12 1 -1 -1 -31 -5 -66z m716 18 l-3 -53
-72 -3 c-67 -3 -73 -1 -73 17 0 11 4 22 9 26 5 3 12 19 16 35 6 29 8 30 66 30
l60 0 -3 -52z m466 43 c16 -6 45 -73 46 -105 0 -10 -171 3 -185 14 -6 5 -9 29
-7 54 l4 46 62 -1 c33 0 70 -4 80 -8z m1250 3 c20 -8 20 -46 0 -86 -15 -30
-16 -30 -34 -10 -16 17 -17 25 -8 61 11 42 15 45 42 35z m-1870 -31 c-9 -37
-13 -43 -29 -43 -10 0 -35 47 -35 66 0 2 16 4 35 4 34 0 35 -1 29 -27z m725
11 c8 -7 -22 -64 -34 -64 -13 0 -25 30 -25 63 0 14 5 16 28 11 15 -4 29 -8 31
-10z m507 -43 c-3 -20 -6 -44 -6 -54 0 -34 -25 -11 -31 29 -3 21 -9 49 -13 61
-7 21 -6 22 25 11 29 -10 31 -13 25 -47z m342 31 l33 -27 -27 -33 c-46 -55
-88 -38 -72 30 15 68 18 70 66 30z m-2461 -37 c6 -27 10 -51 8 -53 -12 -12
-57 12 -70 38 -20 39 -19 49 8 60 34 13 40 8 54 -45z m813 23 c30 -49 26 -65
-17 -72 -21 -4 -60 -12 -86 -18 -56 -14 -67 -6 -67 49 0 37 17 49 83 63 65 12
66 12 87 -22z m2000 18 c0 -7 -6 -19 -14 -25 -11 -9 -12 -6 -8 14 5 26 22 35
22 11z m-1087 -12 c45 -15 47 -18 46 -52 0 -34 -17 -91 -18 -66 -1 6 -35 17
-76 23 -84 14 -88 20 -52 76 25 39 35 41 100 19z m-2083 -71 c0 -6 15 -16 33
-22 42 -14 65 -46 94 -129 13 -37 24 -68 24 -69 0 -2 6 -18 14 -36 7 -18 16
-46 19 -63 4 -16 3 -22 0 -14 -4 8 -17 38 -29 65 -13 28 -26 66 -30 85 -9 41
-46 120 -56 120 -4 0 -14 6 -21 13 -7 6 -25 18 -39 26 -16 8 -33 30 -43 55
l-16 41 25 -30 c13 -16 24 -35 25 -42z m595 53 c19 -18 31 -86 15 -86 -6 0
-18 -7 -26 -15 -25 -24 -54 -19 -54 10 0 14 5 25 10 25 6 0 10 13 10 28 0 15
5 33 12 40 15 15 16 15 33 -2z m1969 -60 c5 -31 6 -59 2 -63 -3 -4 -22 1 -42
10 -33 16 -35 19 -29 55 12 68 14 72 38 63 17 -6 24 -20 31 -65z m-2275 7 c17
-38 13 -48 -25 -65 -45 -21 -60 -15 -68 24 -10 49 -7 57 21 72 32 16 55 6 72
-31z m226 -20 c-8 -67 -5 -60 -29 -65 -15 -2 -22 6 -32 38 -10 36 -10 43 6 56
17 16 38 26 54 27 4 1 5 -25 1 -56z m2109 42 c8 -8 19 -15 25 -15 14 0 14 -15
2 -38 -6 -9 -12 -29 -16 -45 -5 -23 -8 -26 -24 -17 -13 6 -21 26 -26 59 -9 68
5 89 39 56z m288 -7 c14 -22 10 -79 -6 -95 -7 -7 -64 16 -82 35 -13 12 -11 17
11 39 14 14 25 30 25 34 0 18 38 8 52 -13z m-182 2 c0 -5 -9 -10 -19 -10 -11
0 -23 5 -26 10 -4 6 5 10 19 10 14 0 26 -4 26 -10z m389 -44 c-6 -13 -21 -26
-33 -29 -11 -2 -30 -8 -41 -11 l-20 -8 20 13 c11 7 22 15 25 18 5 6 52 39 57
40 2 1 -2 -10 -8 -23z m-2940 -23 c9 -32 8 -40 -6 -50 -31 -24 -52 -16 -59 23
-5 28 -3 38 12 49 30 23 42 18 53 -22z m1161 -17 l0 -54 -41 -4 c-47 -4 -59 9
-59 65 0 43 4 47 57 47 l43 0 0 -54z m60 4 c0 -36 -4 -52 -15 -57 -22 -8 -24
-4 -31 55 -6 51 -6 52 20 52 25 0 26 -3 26 -50z m388 -13 l3 -59 -43 7 c-24 4
-44 9 -46 10 -2 2 2 22 8 44 6 23 8 46 4 52 -4 7 8 9 32 7 l39 -3 3 -58z m953
53 c15 -8 17 -15 10 -28 -20 -35 -59 -72 -76 -72 -14 0 -16 6 -11 38 4 20 9
45 12 55 6 19 35 22 65 7z m-2308 -38 c21 -48 21 -52 1 -52 -17 0 -74 52 -74
68 0 10 18 18 46 21 5 0 18 -16 27 -37z m791 1 c12 -76 16 -73 -104 -86 -19
-3 -32 82 -15 99 12 13 42 20 86 23 23 1 27 -4 33 -36z m694 -25 c3 -64 4 -64
-70 -52 l-38 7 0 54 0 54 53 -3 52 -3 3 -57z m1076 46 c17 -16 20 -33 10 -58
-15 -40 -69 5 -58 48 7 29 25 33 48 10z m-998 -3 c5 -5 20 -11 34 -13 14 -1
24 -6 23 -10 -2 -5 -3 -31 -3 -59 l0 -52 -46 6 c-50 5 -67 20 -59 52 2 11 5
35 5 53 0 24 4 32 18 32 10 0 22 -4 28 -9z m-1300 -48 c5 -25 3 -38 -5 -41 -6
-2 -17 -9 -24 -16 -7 -7 -39 -23 -72 -35 -33 -12 -66 -28 -73 -34 -11 -9 -13
-2 -7 39 11 79 13 81 73 103 87 30 100 28 108 -16z m-334 2 c6 -14 15 -25 20
-25 4 0 8 -7 8 -15 0 -8 -7 -15 -15 -15 -8 0 -15 -4 -15 -10 0 -21 -20 -9 -26
15 -3 14 -10 25 -14 25 -10 0 -20 37 -12 44 14 14 43 4 54 -19z m714 -21 c5
-34 3 -48 -7 -55 -22 -14 -33 -5 -42 34 -11 46 -4 67 22 67 16 0 21 -9 27 -46z
m1036 -9 c-4 -71 -8 -78 -32 -65 -17 9 -19 17 -14 53 8 61 12 69 31 65 15 -3
17 -13 15 -53z m426 28 c34 -17 37 -22 40 -67 3 -43 1 -48 -14 -42 -10 4 -40
14 -66 23 -26 8 -48 19 -48 24 0 5 -7 9 -15 9 -17 0 -18 4 -9 50 7 30 9 32 41
27 19 -3 51 -14 71 -24z m316 -3 c9 -9 -51 -90 -66 -90 -11 0 -10 12 4 65 10
38 15 44 33 39 11 -3 24 -10 29 -14z m-2556 -43 l11 -38 -30 32 c-23 25 -27
34 -18 46 15 18 25 8 37 -40z m2482 43 c0 -9 -22 -49 -38 -70 -1 -2 -7 2 -11
9 -10 16 18 71 37 71 6 0 12 -5 12 -10z m-2524 -66 c19 -20 34 -42 34 -49 0
-6 8 -20 18 -31 10 -10 29 -50 42 -89 14 -38 29 -73 34 -76 5 -4 -2 -10 -14
-14 -24 -8 -40 7 -40 36 0 8 -9 34 -20 57 -11 22 -20 47 -20 55 0 7 -14 32
-31 55 -27 37 -36 42 -69 42 -45 0 -61 17 -35 37 32 23 64 15 101 -23z m244
17 c0 -11 -3 -27 -6 -36 -6 -14 -8 -14 -25 1 -22 20 -25 40 -6 47 25 11 37 7
37 -12z m2143 5 c9 -7 17 -17 17 -21 0 -9 -31 -34 -42 -35 -5 0 -8 11 -8 25 0
14 -5 25 -11 25 -5 0 -7 5 -4 10 8 14 26 12 48 -4z m325 -11 c3 -16 1 -18 -9
-7 -7 6 -20 12 -29 12 -20 0 -75 -57 -85 -87 -3 -13 -10 -23 -14 -23 -4 0 -16
-28 -26 -62 -33 -118 -36 -128 -46 -133 -22 -14 -26 8 -13 63 8 31 19 66 23
77 5 11 17 40 27 65 20 50 58 101 83 112 9 4 32 6 51 5 26 -1 36 -7 38 -22z
m-1224 -5 c6 -6 24 -10 42 -10 45 0 277 -40 289 -50 6 -5 39 -14 75 -20 36 -6
83 -20 105 -30 22 -10 64 -25 94 -34 30 -9 57 -20 60 -24 3 -5 26 -16 51 -25
60 -20 194 -80 200 -89 3 -4 22 -14 42 -22 20 -9 42 -22 50 -30 8 -7 33 -23
56 -35 45 -23 60 -58 20 -46 -13 4 -28 13 -34 21 -6 8 -14 14 -18 14 -13 0
-86 35 -86 41 0 4 -27 17 -60 29 -33 12 -60 26 -60 30 0 4 -11 11 -25 14 -14
4 -54 19 -88 35 -34 15 -83 34 -109 42 -27 7 -48 16 -48 20 0 4 -24 13 -52 19
-29 7 -87 23 -128 35 -41 12 -120 28 -175 35 -55 8 -103 19 -107 24 -11 16
-511 15 -563 -1 -22 -6 -89 -19 -150 -28 -60 -10 -114 -21 -120 -25 -5 -4 -30
-12 -55 -18 -82 -19 -135 -35 -140 -42 -3 -4 -35 -17 -72 -29 -38 -13 -68 -26
-68 -30 0 -3 -20 -13 -46 -20 -25 -7 -50 -19 -57 -25 -7 -6 -32 -20 -57 -31
-25 -10 -52 -24 -60 -31 -8 -6 -35 -22 -59 -35 -24 -13 -55 -30 -68 -37 -32
-18 -73 -8 -73 18 0 11 5 20 10 20 5 0 18 8 28 18 9 9 41 28 70 42 28 14 52
28 52 31 0 3 21 14 48 24 26 10 54 23 62 29 8 7 40 20 70 31 30 10 64 24 74
31 11 7 44 21 75 30 31 10 58 20 61 24 7 8 134 40 159 40 12 0 21 4 21 8 0 10
89 28 215 43 55 7 102 16 105 20 12 18 426 17 444 -1z m1265 -10 c-11 -31 -29
-41 -29 -15 0 8 5 15 10 15 6 0 10 7 10 15 0 8 4 15 9 15 6 0 6 -12 0 -30z
m-2578 -13 c9 -7 21 -23 28 -36 14 -25 3 -40 -27 -41 -7 0 -20 -7 -28 -15 -25
-25 -49 -18 -62 18 -16 45 -17 44 26 66 44 24 43 24 63 8z m292 -4 c21 -76 16
-88 -40 -99 -35 -7 -39 -3 -48 48 -7 35 -5 38 26 52 46 19 57 19 62 -1z m1731
-6 c14 -10 16 -21 10 -65 -5 -39 -11 -52 -23 -52 -36 0 -44 15 -37 74 8 58 18
67 50 43z m290 -8 c33 -19 49 -49 26 -49 -5 0 -10 -9 -10 -20 0 -27 -19 -25
-77 6 -52 27 -54 36 -20 65 28 24 38 23 81 -2z m-224 -18 c0 -5 14 -11 31 -15
l31 -6 -7 -57 c-4 -32 -9 -60 -11 -62 -2 -2 -22 2 -44 9 -27 9 -40 19 -40 31
0 30 23 109 32 109 4 0 8 -4 8 -9z m-1900 -42 c6 -23 10 -42 8 -43 -2 -2 -22
-12 -46 -24 l-43 -22 -10 27 c-18 47 -8 75 31 89 49 18 48 18 60 -27z m780 0
c0 -16 -8 -19 -45 -21 -25 -1 -53 -2 -62 -2 -12 -1 -18 6 -18 19 0 17 8 21 50
25 62 7 75 3 75 -21z m150 16 c0 -8 -6 -15 -12 -16 -7 0 -34 -2 -60 -5 -43 -3
-48 -2 -48 16 0 18 7 20 60 20 47 0 60 -3 60 -15z m180 -11 c0 -24 -2 -25 -37
-20 -21 4 -56 8 -78 10 -22 2 -39 6 -37 10 1 3 2 11 2 16 0 6 32 10 75 10 74
0 75 0 75 -26z m133 10 c31 -6 37 -11 37 -31 0 -24 -2 -25 -47 -19 -92 13
-103 17 -103 37 0 15 7 19 38 19 20 0 54 -3 75 -6z m1095 -54 c-12 -33 -24
-60 -29 -60 -4 0 1 27 13 60 11 33 23 60 28 60 4 0 -1 -27 -12 -60z m-1708 31
c0 -23 -12 -28 -89 -37 -63 -7 -72 -2 -48 28 12 16 40 24 105 27 25 1 32 -3
32 -18z m758 0 c9 -5 25 -12 35 -15 21 -7 24 -56 3 -56 -8 0 -17 4 -20 9 -4 5
-29 12 -56 16 -44 6 -50 10 -50 31 0 21 5 24 35 24 19 0 43 -4 53 -9z m644
-11 c21 -19 21 -23 9 -68 -16 -62 -23 -67 -53 -40 -21 19 -25 30 -21 61 3 20
9 37 14 37 5 0 9 7 9 15 0 21 17 19 42 -5z m-2142 -50 c7 -24 4 -29 -16 -39
-26 -11 -35 -2 -47 50 -5 21 -2 28 16 36 24 11 33 3 47 -47z m570 28 c0 -24
-15 -34 -65 -46 -27 -6 -60 -14 -71 -18 -16 -4 -23 0 -27 15 -6 26 7 37 63 49
65 14 100 14 100 0z m398 0 c7 -7 12 -31 12 -55 0 -49 -14 -57 -91 -51 l-44 3
0 50 0 50 40 6 c64 10 70 10 83 -3z m160 -42 c2 -27 -1 -52 -6 -55 -6 -3 -35
-4 -66 -3 l-56 4 0 54 0 55 63 -3 62 -3 3 -49z m-1208 -6 c12 -36 12 -43 -1
-51 -22 -14 -27 -11 -34 21 -4 16 -11 32 -16 35 -15 10 -10 33 9 38 24 5 27 3
42 -43z m1358 44 c19 -6 22 -13 22 -55 l0 -49 -69 0 c-78 0 -89 10 -76 76 6
33 7 34 53 34 26 0 57 -3 70 -6z m377 -5 c29 -7 46 -18 51 -31 11 -35 -9 -41
-75 -22 -65 18 -76 26 -67 49 6 18 32 19 91 4z m557 0 c16 -9 19 -17 13 -47
-11 -66 -15 -73 -38 -70 -18 2 -22 9 -21 39 1 41 12 89 20 89 3 0 14 -5 26
-11z m-1384 -51 l3 -46 -38 -6 c-21 -3 -54 -7 -73 -8 l-35 -3 -3 52 c-3 50 -2
52 25 56 15 2 48 4 73 3 l45 -1 3 -47z m577 32 c3 -5 15 -10 26 -10 15 0 19
-7 19 -32 0 -54 -11 -61 -69 -53 -58 8 -66 18 -57 70 6 32 10 35 41 35 19 0
37 -4 40 -10z m-1015 -29 c0 -25 -16 -36 -72 -50 -64 -15 -68 -14 -68 12 0 18
9 25 53 38 72 23 87 23 87 0z m270 -24 c0 -36 -4 -44 -27 -54 -16 -7 -47 -15
-69 -19 l-42 -6 -7 42 c-4 23 -4 44 -1 47 6 7 103 31 129 32 14 1 17 -7 17
-42z m910 11 c13 -5 28 -14 32 -21 6 -9 0 -66 -7 -75 -2 -2 -30 2 -64 9 -66
13 -78 26 -66 80 6 28 9 29 43 23 21 -4 48 -11 62 -16z m235 10 c42 -11 45
-15 45 -44 0 -32 0 -32 -32 -23 -18 6 -44 14 -58 18 -17 5 -26 16 -28 34 -4
31 5 33 73 15z m-2087 -51 c15 -43 15 -58 -1 -31 -6 12 -18 31 -25 43 -10 17
-10 21 1 21 7 0 18 -15 25 -33z m778 9 c12 -49 2 -70 -41 -80 -22 -5 -42 -12
-45 -16 -8 -12 -48 -21 -53 -13 -3 4 -8 26 -11 49 l-7 40 63 21 c83 27 87 27
94 -1z m-268 -26 c-2 -16 -16 -27 -52 -41 -27 -10 -53 -24 -57 -30 -10 -17
-39 13 -39 39 0 15 16 25 68 44 71 27 86 25 80 -12z m2157 -29 c-14 -38 -22
-76 -19 -85 10 -27 -5 -66 -29 -75 -15 -6 -28 -23 -35 -50 -7 -22 -17 -43 -22
-46 -5 -3 0 21 12 54 16 44 27 61 42 63 18 3 21 9 18 51 -2 29 3 58 12 75 9
15 20 39 26 55 5 15 12 27 15 27 2 0 -7 -31 -20 -69z m-676 43 l52 -15 -3 -42
c-4 -52 -18 -56 -87 -26 -52 23 -61 41 -45 83 8 20 17 20 83 0z m258 -7 c37
-12 45 -26 37 -66 -5 -22 -10 -28 -23 -23 -9 3 -18 9 -21 13 -3 4 -22 14 -42
22 -29 12 -38 22 -38 40 0 41 6 42 87 14z m-672 -17 c6 -5 35 -11 65 -14 80
-10 214 -37 220 -45 3 -4 36 -15 73 -25 38 -11 85 -27 105 -36 21 -10 57 -24
82 -31 25 -7 47 -16 50 -20 3 -3 28 -17 55 -29 28 -12 52 -26 55 -29 3 -4 20
-13 39 -21 18 -7 47 -23 65 -34 17 -12 46 -28 65 -36 19 -7 45 -24 59 -37 14
-13 29 -23 33 -23 5 0 9 -7 9 -15 0 -8 -4 -15 -10 -15 -5 0 -10 5 -10 11 0 5
-17 17 -37 26 -21 8 -45 21 -53 28 -21 18 -214 116 -283 144 -31 13 -57 27
-57 32 0 5 -6 9 -13 9 -7 0 -46 12 -87 26 -41 14 -113 35 -160 47 -47 12 -90
25 -96 29 -29 19 -251 42 -404 42 -157 0 -407 -25 -420 -43 -3 -4 -41 -15 -85
-25 -44 -10 -89 -23 -100 -30 -11 -7 -49 -21 -85 -31 -36 -11 -67 -22 -70 -26
-3 -3 -30 -17 -60 -30 -30 -12 -57 -26 -60 -29 -3 -3 -25 -14 -50 -25 -25 -10
-52 -24 -60 -31 -8 -6 -31 -20 -50 -29 -19 -10 -37 -21 -40 -25 -10 -16 -101
-52 -115 -46 -21 8 -19 32 6 55 23 21 257 141 276 141 6 0 18 6 25 13 15 14
142 60 243 88 39 10 78 23 87 29 9 5 70 19 135 31 65 11 127 25 138 30 40 18
497 17 520 -1z m-968 -53 c4 -29 2 -37 -9 -37 -9 0 -26 -8 -39 -19 -13 -10
-38 -21 -55 -25 -30 -7 -31 -6 -38 35 -4 23 -5 43 -4 44 12 12 125 51 131 45
4 -4 10 -23 14 -43z m-255 -6 c2 -16 -4 -27 -17 -35 -11 -6 -31 -19 -44 -28
-35 -26 -58 -23 -64 10 -7 33 9 51 66 73 46 19 54 16 59 -20z m1787 21 c43
-21 56 -42 47 -75 -8 -33 -12 -33 -76 -5 -45 19 -50 25 -50 53 0 50 19 57 79
27z m234 -4 c15 -5 27 -14 27 -18 0 -4 11 -11 25 -14 19 -5 25 -13 25 -34 0
-53 -13 -59 -65 -32 -26 14 -55 29 -66 35 -12 6 -19 20 -19 41 0 36 8 47 29
38 9 -3 28 -11 44 -16z m809 -5 c7 -16 17 -35 23 -43 7 -8 20 -41 29 -72 10
-32 21 -58 26 -58 4 0 10 -13 12 -29 7 -50 -17 -25 -36 37 -10 31 -33 87 -51
125 -19 37 -30 67 -24 67 5 0 15 -12 21 -27z m-22 -3 c0 -6 -9 -20 -20 -32
-22 -24 -24 -21 -10 16 9 26 30 36 30 16z m-2710 -49 c0 -11 3 -26 6 -35 5
-14 -35 -41 -101 -66 -22 -8 -25 -6 -34 27 -9 33 -8 38 16 57 34 27 52 34 86
35 20 1 27 -4 27 -18z m1836 -16 c8 -7 23 -17 35 -20 17 -6 19 -12 14 -33 -11
-44 -21 -46 -77 -14 -52 29 -57 38 -42 81 5 16 49 7 70 -14z m-2068 -13 c2
-13 -2 -30 -9 -38 -18 -22 -88 -56 -99 -49 -14 9 -12 -8 6 -46 9 -20 13 -25
10 -11 -3 17 4 29 28 47 18 14 38 25 44 25 7 0 21 9 32 20 11 11 30 22 43 25
21 6 25 2 31 -26 5 -25 2 -36 -16 -50 -11 -11 -25 -19 -29 -19 -5 0 -25 -11
-45 -25 -20 -14 -47 -25 -60 -25 -17 0 -24 -7 -29 -30 -4 -16 -11 -30 -16 -30
-5 0 -5 10 1 25 9 23 -4 83 -20 95 -4 3 -12 21 -19 42 -8 25 -19 38 -38 43
-14 3 -23 8 -21 11 11 10 57 -16 63 -35 9 -30 27 -26 19 4 -5 21 -1 27 30 42
20 9 36 21 36 26 0 4 12 7 28 5 19 -2 28 -9 30 -26z m2306 2 c48 -27 50 -31
40 -83 -7 -36 -25 -40 -54 -11 -11 11 -26 20 -34 20 -21 0 -26 24 -14 64 6 20
12 36 13 36 2 0 23 -12 49 -26z m595 -28 c-9 -8 -10 -7 -5 7 3 10 7 24 7 30 1
7 3 4 6 -7 3 -10 -1 -23 -8 -30z m-212 -16 c21 -11 43 -20 50 -20 7 0 13 -7
13 -16 0 -9 -6 -14 -12 -11 -7 3 -33 13 -58 23 -25 10 -48 22 -52 28 -13 19
-21 -2 -14 -38 4 -19 18 -55 31 -80 22 -42 21 -63 -2 -33 -16 19 -43 108 -43
139 0 23 4 28 25 28 14 0 42 -9 62 -20z m-527 2 c0 -4 20 -18 45 -30 25 -12
45 -25 45 -29 0 -5 14 -14 30 -21 30 -14 37 -35 21 -60 -9 -15 -39 -4 -116 42
-63 38 -65 42 -54 76 10 27 29 42 29 22z m738 -32 c-7 -10 -14 -18 -15 -16 -6
6 9 36 18 36 5 0 4 -9 -3 -20z m-38 -87 c0 -20 24 -10 32 12 5 17 6 16 7 -6 1
-15 -5 -32 -13 -38 -11 -9 -19 -6 -38 16 -26 31 -53 50 -80 59 -20 7 -25 24
-7 24 5 0 7 5 4 10 -4 6 16 -7 44 -27 28 -21 51 -44 51 -50z m-3542 54 c6 -7
12 -32 14 -55 l3 -43 33 31 c36 32 88 41 98 16 3 -8 16 -17 30 -20 45 -12 27
-106 -21 -106 -13 0 -25 6 -28 13 -5 14 -47 -29 -47 -49 0 -7 16 -21 35 -30
19 -9 35 -22 35 -29 0 -7 4 -15 10 -17 5 -1 11 -16 13 -33 3 -16 2 -22 0 -12
-2 9 -8 17 -13 17 -4 0 -11 11 -14 25 -4 16 -20 32 -41 42 -21 10 -35 24 -35
35 0 10 -8 18 -17 19 -14 0 -15 2 -3 6 8 3 23 15 32 26 13 17 26 21 56 18 22
-1 43 2 46 7 11 18 -13 65 -29 58 -8 -3 -17 -1 -20 3 -9 16 -56 19 -62 5 -3
-8 -11 -14 -19 -14 -7 0 -18 -8 -23 -17 -9 -16 -12 -16 -21 -3 -5 8 -10 29
-10 46 0 37 -21 58 -49 49 -11 -3 -44 -28 -73 -56 -28 -27 -54 -49 -57 -49
-10 -1 -61 -77 -55 -82 2 -3 27 -1 55 4 28 5 53 8 55 6 7 -7 -17 -78 -26 -78
-5 0 -2 17 6 37 12 29 13 35 2 27 -11 -8 -43 -10 -102 -5 -14 2 4 54 25 69 10
7 19 19 19 27 0 7 9 17 20 20 11 3 20 10 20 15 0 16 104 89 126 89 12 1 26 -5
32 -12z m3034 -136 c15 -21 22 -23 91 -20 58 3 78 0 91 -13 15 -15 16 -125 16
-1350 l0 -1333 -30 -30 c-17 -16 -41 -41 -55 -55 -14 -14 -25 -30 -25 -37 0
-7 -4 -13 -9 -13 -9 0 -52 -38 -131 -115 -14 -14 -28 -25 -31 -25 -3 0 -29
-22 -58 -50 -29 -27 -58 -50 -66 -50 -7 0 -15 -7 -18 -15 -4 -8 -29 -26 -57
-40 -27 -14 -50 -29 -50 -34 0 -4 -18 -16 -40 -26 -23 -10 -50 -27 -62 -37
-12 -10 -25 -18 -30 -18 -16 0 27 36 67 55 22 11 44 25 48 32 4 7 23 20 42 29
19 9 35 20 35 25 0 5 5 9 10 9 23 0 192 144 337 287 l103 102 0 1338 c0 785
-4 1344 -9 1352 -7 11 -13 12 -23 4 -7 -5 -41 -11 -75 -12 -59 -2 -64 -1 -72
22 -6 14 -15 28 -20 32 -6 3 -11 14 -10 23 0 15 1 15 7 2 4 -9 14 -26 24 -39z
m708 34 c0 -8 -2 -15 -4 -15 -2 0 -6 7 -10 15 -3 8 -1 15 4 15 6 0 10 -7 10
-15z m-342 -81 c28 -21 3 -34 -61 -32 l-62 1 65 7 c36 4 59 7 52 8 -15 2 -52
61 -52 82 0 8 10 -1 21 -20 12 -19 28 -40 37 -46z m542 55 c0 -3 -9 -9 -20
-12 -19 -5 -27 3 -15 15 8 7 35 6 35 -3z m-202 -130 c-3 -74 -2 -77 24 -92 18
-10 26 -21 22 -31 -4 -12 -12 -8 -36 16 -17 17 -27 36 -24 45 3 8 7 56 7 106
1 51 4 79 6 62 3 -16 3 -64 1 -106z m-3168 98 c0 -10 -22 -13 -87 -13 l-88 1
-5 -45 c-3 -25 -3 -625 0 -1334 4 -1019 8 -1290 18 -1294 6 -2 12 -10 12 -18
0 -8 10 -18 23 -23 18 -8 70 -50 110 -90 71 -71 74 -74 137 -117 30 -20 57
-41 60 -45 7 -11 79 -59 88 -59 4 0 13 -9 20 -20 7 -11 10 -20 7 -20 -12 0
-51 26 -63 43 -7 9 -18 17 -25 17 -6 0 -20 9 -32 20 -11 12 -45 39 -75 60
-101 72 -270 232 -287 272 -10 21 -12 342 -10 1345 l2 1318 95 6 c52 3 96 6
98 7 1 1 2 -4 2 -11z m3409 -57 c0 -8 -6 0 -14 19 -8 18 -15 38 -14 45 1 15
28 -46 28 -64z m-72 18 c-3 -8 -6 -5 -6 6 -1 11 2 17 5 13 3 -3 4 -12 1 -19z
m-2483 -6 c2 -4 83 -5 180 -2 185 5 196 5 196 -12 0 -6 -7 -8 -15 -4 -8 3 -15
1 -15 -3 0 -5 5 -11 11 -13 5 -2 12 -16 13 -31 3 -23 -1 -27 -20 -27 -13 0
-24 -6 -25 -12 0 -10 -2 -10 -6 0 -7 17 -38 15 -53 -4 -8 -8 -9 -14 -4 -13 5
1 16 1 24 0 11 -1 11 -4 2 -13 -14 -14 -16 -118 -2 -118 6 0 10 -13 10 -30 0
-16 -4 -30 -10 -30 -12 0 -9 -22 4 -31 11 -9 -3 -31 -15 -24 -5 4 -9 17 -9 30
0 13 -6 28 -13 32 -8 4 -16 15 -19 24 -7 18 -55 29 -93 21 -33 -6 -85 -59 -85
-87 0 -18 -20 -21 -21 -2 0 9 -2 9 -6 -1 -2 -6 -10 -10 -16 -6 -7 3 -4 -1 5
-9 18 -15 42 -67 34 -75 -6 -6 -26 15 -49 50 -14 23 -22 26 -47 21 -29 -5 -37
5 -31 40 1 4 -7 3 -18 -3 -15 -7 -23 -6 -35 5 -20 21 -119 20 -140 -1 -9 -8
-16 -20 -16 -25 0 -6 -4 -7 -10 -4 -5 3 -7 0 -4 -9 3 -9 -3 -20 -15 -28 -12
-7 -21 -18 -21 -24 0 -18 -31 -74 -41 -74 -5 0 -9 -7 -9 -16 0 -9 -9 -29 -21
-45 -11 -16 -18 -29 -15 -29 3 0 -3 -9 -14 -20 -11 -11 -20 -24 -20 -29 0 -5
-9 -13 -20 -16 -15 -5 -28 2 -49 24 -16 17 -25 31 -20 31 5 0 9 7 9 15 0 8 -6
15 -13 15 -18 0 -79 89 -73 106 3 8 -1 14 -9 14 -8 0 -14 6 -13 13 2 6 -5 11
-14 9 -9 -1 -19 5 -22 15 -4 13 -18 19 -54 21 -42 2 -52 -1 -77 -25 -15 -15
-35 -39 -44 -53 -8 -14 -21 -29 -28 -33 -7 -4 -13 -13 -13 -18 0 -6 -15 -34
-34 -62 -18 -29 -37 -62 -41 -74 -3 -13 -11 -23 -16 -23 -5 0 -9 -7 -9 -15 0
-8 -4 -15 -9 -15 -5 0 -9 155 -10 355 l0 355 504 -1 c278 0 507 -3 509 -7z
m1924 -31 c-75 -6 -102 -15 -83 -29 6 -4 17 -20 25 -37 24 -47 86 -103 127
-114 55 -16 137 -13 194 5 27 9 52 14 56 11 3 -3 -8 -9 -23 -12 -16 -3 -37
-10 -46 -16 -24 -12 -144 -11 -193 2 -36 10 -120 81 -120 102 0 4 -6 11 -13
16 -18 11 -33 69 -19 74 7 2 48 4 92 4 l80 0 -77 -6z m557 -61 c-4 -28 -9 -49
-12 -46 -3 2 -2 28 2 56 4 28 9 49 12 46 3 -2 2 -28 -2 -56z m123 -125 l-1
-60 -7 70 c-4 39 -10 88 -13 110 -5 34 -4 32 7 -10 8 -27 14 -77 14 -110z
m-4184 121 c-3 -9 -10 -16 -15 -16 -5 0 -15 -13 -24 -29 -8 -16 -21 -35 -28
-43 -8 -7 -20 -25 -28 -39 -26 -47 -84 -118 -94 -115 -5 1 -12 18 -15 37 -9
60 -21 70 -88 76 -57 5 -64 4 -85 -19 -13 -14 -30 -29 -38 -34 -14 -9 -89
-116 -89 -128 0 -3 -9 -15 -20 -26 -17 -17 -28 -60 -15 -60 12 0 55 24 55 32
0 4 9 8 19 8 11 0 22 4 25 8 2 4 18 9 34 10 26 2 30 -2 36 -29 3 -17 6 -58 6
-90 0 -33 4 -59 10 -59 6 0 10 -30 10 -70 0 -38 -4 -70 -9 -70 -5 0 -12 -8
-14 -17 -4 -14 -5 -13 -6 4 0 12 3 24 8 27 4 3 7 16 5 28 -3 13 -8 76 -13 141
-5 65 -12 121 -15 124 -3 4 -35 -8 -71 -25 -35 -18 -71 -32 -80 -32 -24 0 -18
42 15 93 17 26 30 51 30 56 0 4 9 16 20 26 11 10 20 23 20 30 0 7 16 20 35 31
19 10 35 24 35 30 0 23 55 30 130 18 39 -6 60 -37 60 -87 0 -25 2 -27 15 -13
8 8 15 18 15 23 0 4 14 24 30 43 17 19 33 44 36 55 4 11 19 32 33 46 14 15 35
38 46 52 21 28 29 29 19 3z m1953 -38 c-3 -8 -6 -5 -6 6 -1 11 2 17 5 13 3 -3
4 -12 1 -19z m2066 1 c12 -11 15 -19 8 -24 -6 -3 -11 -2 -11 3 0 6 -15 9 -34
8 -31 -1 -33 0 -20 15 18 20 35 20 57 -2z m-1303 -190 l0 -169 150 0 150 0 0
-95 0 -95 -150 0 -150 0 0 -325 0 -326 -82 3 -83 3 -3 323 -2 322 -150 0 -150
0 0 95 0 95 150 0 150 0 0 170 0 169 68 3 c111 5 102 20 102 -173z m-2413 134
c-3 -10 -5 -4 -5 12 0 17 2 24 5 18 2 -7 2 -21 0 -30z m-19 -117 c-23 -77 -38
-97 -38 -51 0 14 4 25 10 25 5 0 14 19 20 43 19 71 23 82 27 70 2 -6 -6 -46
-19 -87z m-64 42 c3 -24 7 -59 10 -78 2 -19 7 -45 11 -57 4 -14 3 -23 -3 -23
-12 0 -22 48 -22 107 0 49 -15 72 -42 65 -10 -2 -18 0 -18 6 0 10 19 18 47 21
7 1 14 -17 17 -41z m3611 2 c3 -5 1 -10 -4 -10 -6 0 -11 5 -11 10 0 6 2 10 4
10 3 0 8 -4 11 -10z m-3755 -17 c0 -10 -28 -31 -45 -34 -10 -2 -23 -13 -29
-24 -6 -11 -16 -23 -23 -28 -16 -10 -64 -99 -58 -106 4 -3 9 -1 13 4 10 15 74
35 109 35 67 0 99 -95 73 -215 -6 -29 -7 -17 -3 43 5 78 4 84 -22 122 -21 31
-34 40 -56 40 -15 0 -32 -6 -36 -14 -10 -17 -93 -32 -93 -17 0 23 64 127 100
162 29 29 70 48 70 32z m3763 -46 c-4 -27 -11 -37 -24 -37 -11 0 -19 4 -19 9
0 9 -91 22 -164 24 -23 1 -32 5 -29 14 5 14 25 17 36 7 3 -4 30 -8 59 -9 29
-2 70 -6 90 -10 34 -6 38 -4 44 20 9 38 14 25 7 -18z m342 -7 c-4 -23 -9 -39
-11 -37 -3 2 -2 23 2 46 4 23 9 40 11 37 3 -3 2 -23 -2 -46z m-586 -30 c0 -10
-3 -8 -9 5 -12 27 -12 43 0 25 5 -8 9 -22 9 -30z m-2099 5 c0 -8 -4 -15 -10
-15 -5 0 -10 7 -10 15 0 8 5 15 10 15 6 0 10 -7 10 -15z m273 -19 c15 -15 31
-91 22 -105 -10 -18 -45 -19 -54 -3 -17 33 -23 93 -10 108 15 18 24 18 42 0z
m115 -43 c-1 -34 -18 -47 -18 -14 0 11 -2 26 -5 34 -4 8 0 14 9 14 11 0 15
-10 14 -34z m2282 12 c0 -14 -2 -25 -4 -25 -2 0 -13 -3 -23 -6 -15 -6 -16 -4
-5 7 6 7 12 21 12 31 0 10 5 18 10 18 6 0 10 -11 10 -25z m164 -54 c-2 -2 2
-14 9 -25 15 -24 38 -86 32 -86 -3 0 -19 32 -37 70 -18 39 -36 70 -39 70 -8 0
-18 -70 -21 -142 l-2 -48 -38 0 c-25 0 -41 -5 -44 -15 -8 -19 -24 -19 -24 0 0
8 -11 17 -25 21 -14 3 -25 13 -25 23 0 9 -3 27 -5 41 -4 17 -1 14 7 -8 16 -40
52 -60 101 -54 40 5 40 4 51 121 3 29 11 60 18 68 10 13 14 11 29 -9 10 -12
16 -25 13 -27z m-681 -1 c3 -11 2 -18 -3 -15 -4 3 -10 14 -13 25 -3 11 -2 18
3 15 4 -3 10 -14 13 -25z m481 -26 c-9 -13 -19 -23 -21 -21 -7 8 20 56 28 51
5 -3 1 -16 -7 -30z m-414 -47 c12 -4 12 -6 -1 -6 -9 -1 -24 11 -33 27 -17 26
-17 27 1 6 10 -11 25 -23 33 -27z m65 -34 c23 -13 52 -17 117 -16 66 1 88 -2
92 -13 3 -8 1 -14 -4 -14 -6 0 -10 4 -10 8 0 5 -41 9 -90 8 -52 -1 -94 3 -98
9 -4 6 -18 16 -32 22 -14 6 -20 12 -15 12 6 1 24 -7 40 -16z m623 -178 c-5
-137 -17 -184 -75 -277 l-23 -38 25 0 c24 0 53 -34 37 -44 -10 -6 -43 19 -35
27 3 4 -1 7 -11 7 -9 0 -14 -4 -11 -10 3 -5 -1 -10 -9 -10 -21 0 -22 -1 24 89
22 43 40 85 40 93 0 8 6 20 13 26 8 9 13 55 16 133 3 114 2 121 -18 135 -12 9
-19 20 -15 25 4 6 14 3 26 -8 19 -17 20 -28 16 -148z m-338 115 c0 -5 -4 -10
-9 -10 -6 0 -13 5 -16 10 -3 6 1 10 9 10 9 0 16 -4 16 -10z m-4096 -89 c3 -22
10 -41 16 -43 5 -1 11 -16 13 -33 3 -16 2 -23 0 -15 -3 8 -11 19 -19 23 -8 4
-17 26 -20 47 -8 46 -22 50 -91 22 -54 -22 -93 -57 -93 -82 0 -11 -4 -20 -9
-20 -5 0 -12 -12 -16 -27 -4 -16 -10 -22 -12 -15 -3 6 5 32 16 55 12 24 21 49
21 55 0 7 7 12 15 12 8 0 15 5 15 10 0 6 9 10 19 10 11 0 23 5 26 10 3 6 17
10 31 10 13 0 24 5 24 10 0 6 13 10 29 10 25 0 29 -4 35 -39z m4093 -3 c-3 -8
-6 -5 -6 6 -1 11 2 17 5 13 3 -3 4 -12 1 -19z m-3964 -87 c-5 -3 -15 -26 -22
-49 -19 -65 -22 -47 -5 28 19 78 28 94 32 56 2 -16 0 -32 -5 -35z m3954 7 c-3
-8 -6 -5 -6 6 -1 11 2 17 5 13 3 -3 4 -12 1 -19z m-4430 -10 c-3 -8 -6 -5 -6
6 -1 11 2 17 5 13 3 -3 4 -12 1 -19z m4289 -9 c3 -6 15 -9 25 -6 10 3 22 0 26
-5 4 -8 -6 -9 -33 -5 -21 4 -55 7 -74 7 -26 0 -31 3 -20 10 20 13 67 13 76 -1z
m-4480 -6 c-34 -5 -86 -56 -86 -84 0 -21 -21 -71 -33 -80 -4 -3 -12 -19 -17
-35 -7 -24 -8 -25 -9 -7 -1 26 19 73 30 73 5 0 11 17 15 38 3 20 17 52 31 70
20 27 30 32 61 31 33 -2 34 -2 8 -6z m49 -3 c3 -5 1 -10 -4 -10 -6 0 -11 5
-11 10 0 6 2 10 4 10 3 0 8 -4 11 -10z m4343 -32 c10 -24 25 -58 32 -77 8 -19
24 -45 37 -59 13 -14 23 -29 23 -33 0 -5 3 -8 8 -7 4 2 27 -6 52 -16 25 -11
64 -18 88 -17 31 2 42 -1 42 -12 0 -11 -10 -13 -47 -9 -27 3 -50 8 -53 12 -3
4 -21 11 -40 15 -48 10 -70 23 -70 40 0 8 -5 15 -10 15 -11 0 -73 121 -84 164
-10 39 1 31 22 -16z m-4300 -8 c11 -23 14 -36 7 -30 -12 10 -38 70 -31 70 2 0
13 -18 24 -40z m87 -9 c-4 -23 -11 -41 -16 -41 -5 0 -9 -16 -9 -35 0 -21 -5
-35 -13 -35 -6 0 -17 16 -23 35 -6 19 -7 35 -3 35 5 0 13 -15 18 -32 l9 -33 1
35 c1 19 8 48 16 64 8 15 15 35 15 44 0 8 3 13 6 9 3 -3 3 -24 -1 -46z m4425
39 c9 -6 17 -5 22 3 5 7 8 3 8 -11 0 -19 -5 -23 -22 -20 -13 2 -22 8 -21 14 1
7 -9 9 -25 7 -21 -4 -24 -2 -12 6 18 13 31 13 50 1z m-3978 -74 c6 4 9 1 6 -7
-10 -31 -35 -19 -51 23 l-17 43 26 -33 c14 -18 30 -29 36 -26z m-198 35 c3 -4
-6 -6 -20 -3 -20 3 -33 -4 -58 -32 -19 -20 -39 -36 -47 -36 -7 0 -9 3 -6 7 4
3 1 13 -6 22 -11 14 -10 14 6 2 14 -11 21 -11 29 -3 7 7 8 12 3 12 -6 0 4 9
20 20 31 21 70 26 79 11z m41 -21 c3 -6 -1 -7 -9 -4 -18 7 -21 14 -7 14 6 0
13 -4 16 -10z m24 -63 c1 -5 -3 -5 -9 -2 -5 3 -10 16 -9 28 0 21 1 21 9 2 5
-11 9 -24 9 -28z m-652 -59 c-2 -13 -4 -3 -4 22 0 25 2 35 4 23 2 -13 2 -33 0
-45z m658 24 c-3 -3 -11 0 -18 7 -9 10 -8 11 6 5 10 -3 15 -9 12 -12z m4671 1
c16 -22 19 -208 4 -218 -5 -3 -10 -21 -10 -38 0 -18 -4 -38 -9 -46 -5 -8 -7 5
-4 35 3 27 9 53 14 59 12 12 12 195 0 195 -5 0 -11 7 -15 15 -7 20 4 19 20 -2z
m-41 -53 c-9 -16 -17 -30 -19 -30 -3 0 1 14 7 30 6 17 15 30 19 30 5 0 2 -13
-7 -30z m-4600 -82 l4 -53 -9 45 c-5 25 -12 56 -15 70 -4 21 -4 22 5 8 6 -10
13 -42 15 -70z m-678 50 c-3 -8 -6 -5 -6 6 -1 11 2 17 5 13 3 -3 4 -12 1 -19z
m4880 -8 c-2 -11 -7 -23 -12 -27 -4 -5 -5 -2 -1 5 4 7 1 12 -8 12 -17 0 -21
12 -9 23 14 14 33 6 30 -13z m-4712 -76 c11 -21 28 -45 37 -52 41 -30 44 -63
38 -424 0 -10 -4 -18 -10 -18 -5 0 -10 6 -10 13 0 23 -64 86 -90 88 -57 5 -71
-1 -81 -31 -6 -16 -15 -30 -19 -30 -5 0 -12 -19 -16 -42 -4 -24 -9 -54 -11
-68 -3 -14 -8 -95 -12 -180 -6 -117 -8 -54 -8 260 0 228 3 395 7 370 4 -25 8
-37 8 -28 1 9 11 23 21 30 10 8 29 31 42 53 13 22 26 42 29 45 3 3 11 18 18
33 16 36 32 31 57 -19z m5055 1 c-7 -14 -18 -25 -23 -25 -6 0 -3 8 6 18 10 10
17 25 17 32 0 7 3 10 7 7 3 -4 0 -18 -7 -32z m-113 3 c-3 -8 -6 -5 -6 6 -1 11
2 17 5 13 3 -3 4 -12 1 -19z m-4556 -23 c12 -19 25 -35 29 -35 8 0 40 -55 40
-68 0 -2 -7 1 -15 8 -8 7 -15 16 -15 20 0 4 -16 24 -35 44 -19 21 -35 42 -35
47 0 19 -20 8 -59 -31 -22 -22 -44 -40 -50 -40 -6 0 -11 -9 -11 -20 0 -11 -4
-20 -10 -20 -18 0 4 35 53 83 27 26 58 47 68 47 12 0 28 -14 40 -35z m4332 5
c3 -11 -2 -24 -12 -32 -13 -10 -14 -10 -4 2 8 9 9 19 2 32 -6 10 -6 18 -1 18
6 0 12 -9 15 -20z m-131 -8 c2 -4 20 -18 41 -31 20 -12 37 -27 37 -32 0 -16
18 -9 22 9 3 9 6 0 9 -20 3 -21 2 -38 -1 -38 -4 0 -21 15 -38 34 -17 19 -41
38 -54 41 -12 4 -29 14 -36 22 -12 12 -16 12 -23 2 -4 -8 -11 -10 -14 -7 -4 4
-4 11 0 17 7 13 52 15 57 3z m341 -19 c-13 -5 -5 -82 10 -100 7 -9 5 -13 -6
-13 -11 0 -16 14 -19 53 -4 52 10 108 20 77 3 -7 0 -16 -5 -17z m-4406 -45
c-2 -13 -4 -3 -4 22 0 25 2 35 4 23 2 -13 2 -33 0 -45z m4489 15 c-8 -15 -15
-25 -16 -21 0 12 23 58 27 54 3 -2 -2 -17 -11 -33z m-466 -56 c0 -40 6 -96 14
-125 7 -29 9 -52 5 -52 -5 0 -9 8 -9 18 0 9 -7 30 -15 46 -17 33 -21 186 -5
186 6 0 10 -31 10 -73z m-4323 -29 c-3 -7 -5 -2 -5 12 0 14 2 19 5 13 2 -7 2
-19 0 -25z m290 0 c-3 -7 -5 -2 -5 12 0 14 2 19 5 13 2 -7 2 -19 0 -25z m-41
7 c8 -8 22 -19 31 -24 11 -6 14 -15 9 -27 -7 -18 -8 -18 -18 1 -6 11 -14 22
-17 25 -3 3 -12 13 -20 23 -16 21 -5 23 15 2z m4486 -27 c-7 -7 -12 -8 -12 -2
0 14 12 26 19 19 2 -3 -1 -11 -7 -17z m-4745 -155 c-2 -32 -3 -8 -3 52 0 61 1
87 3 58 2 -29 2 -78 0 -110z m4898 68 c-3 -12 -10 -21 -15 -21 -4 0 -3 11 3
24 14 29 22 27 12 -3z m-4674 -86 c21 -38 38 -78 38 -87 1 -10 5 -18 9 -18 16
0 42 -119 42 -190 0 -38 -3 -70 -7 -70 -5 0 -8 39 -8 88 0 90 -14 133 -76 242
-11 19 -27 50 -35 68 -13 28 -19 32 -54 32 -31 0 -43 -5 -56 -25 -9 -14 -22
-25 -29 -25 -6 0 -17 -10 -23 -22 -6 -13 -11 -17 -11 -9 -1 7 16 31 37 53 34
36 41 38 86 36 l50 -3 37 -70z m4628 4 c-22 -35 -21 -25 3 23 7 15 14 23 16
19 2 -5 -7 -24 -19 -42z m-414 -64 c24 -26 55 -47 78 -53 20 -6 37 -8 37 -5 0
2 7 -3 16 -11 8 -9 22 -16 30 -16 8 0 14 -10 14 -25 0 -27 -25 -95 -35 -95 -3
0 -1 9 5 20 6 11 8 25 5 30 -3 5 -1 11 5 15 5 3 10 14 10 24 0 13 -10 21 -35
25 -19 4 -35 11 -35 16 0 6 -11 10 -25 10 -14 0 -34 9 -45 20 -11 11 -23 20
-27 21 -10 0 -73 86 -80 108 -3 9 5 3 18 -13 13 -15 42 -47 64 -71z m370 -1
c-7 -15 -27 -39 -44 -55 -38 -35 -39 -47 -3 -41 32 4 62 -21 41 -34 -8 -4 -9
-3 -5 4 8 13 -3 16 -46 13 -39 -2 -36 24 7 63 19 18 35 37 35 42 0 9 20 34 26
34 2 0 -3 -12 -11 -26z m-3475 -28 c0 -2 -7 -7 -16 -10 -8 -3 -12 -2 -9 4 6
10 25 14 25 6z m2348 -513 l2 -512 -112 -115 c-62 -63 -133 -131 -158 -151
-75 -60 -99 -79 -119 -95 -28 -24 -54 -40 -73 -46 -10 -4 -18 -10 -18 -15 0
-5 -19 -18 -42 -30 -24 -12 -45 -25 -48 -29 -7 -10 -165 -90 -178 -90 -6 0
-17 -6 -24 -13 -13 -12 -142 -57 -165 -57 -6 0 -13 -4 -15 -10 -9 -26 -375
-63 -403 -40 -13 11 -15 116 -15 866 l0 854 683 -2 682 -3 3 -512z m-1501 501
c-3 -3 -12 -4 -19 -1 -8 3 -5 6 6 6 11 1 17 -2 13 -5z m-1177 -29 c0 -8 -9
-15 -20 -15 -25 0 -26 17 -2 23 9 3 18 5 20 6 1 0 2 -6 2 -14z m4000 -27 c-1
-119 -37 -328 -60 -348 -4 -3 -12 -20 -19 -37 -8 -18 -18 -33 -23 -33 -5 0 -7
3 -5 8 26 43 67 148 75 192 20 100 26 222 12 230 -7 4 -9 13 -6 19 15 23 26 9
26 -31z m-45 -35 c-14 -21 -29 -47 -34 -58 -5 -11 -20 -31 -33 -45 -14 -14
-33 -43 -44 -65 -21 -45 -32 -58 -56 -68 -14 -5 -18 -1 -18 16 0 15 3 18 8 9
10 -15 37 15 67 74 11 21 30 47 41 56 12 10 25 29 28 43 4 14 11 25 16 25 6 0
10 6 10 13 0 14 20 37 32 37 5 0 -3 -17 -17 -37z m-2865 7 c0 -5 -4 -10 -10
-10 -5 0 -10 5 -10 10 0 6 5 10 10 10 6 0 10 -4 10 -10z m-1922 -29 c12 -11
22 -24 22 -30 0 -6 6 -11 14 -11 8 0 16 -4 18 -8 2 -4 18 -18 36 -31 17 -12
32 -27 32 -32 0 -12 -36 13 -95 65 -22 19 -46 40 -52 46 -15 12 -48 -5 -58
-30 -15 -41 -60 -100 -53 -70 2 8 5 17 8 20 3 3 13 21 24 40 33 62 63 74 104
41z m4660 -12 c-3 -8 -7 -3 -11 10 -4 17 -3 21 5 13 5 -5 8 -16 6 -23z m-3484
-67 c-6 -58 -3 -72 16 -107 44 -76 50 -90 50 -114 0 -24 53 -120 74 -133 6 -4
26 -8 44 -8 25 0 43 10 76 43 24 23 60 50 80 60 20 9 36 22 36 28 0 7 17 32
37 57 52 64 69 102 77 173 3 34 9 65 12 68 7 8 42 -36 60 -76 11 -26 12 -47 4
-101 -5 -38 -13 -78 -17 -88 -7 -20 -38 -52 -69 -70 -25 -15 -15 -24 33 -31
38 -5 113 -57 100 -69 -3 -3 -28 -1 -55 6 -31 8 -58 10 -75 4 -35 -12 -39 -28
-7 -32 14 -2 30 -7 35 -12 6 -4 22 -10 37 -14 28 -6 58 -31 58 -47 0 -15 -59
-10 -96 7 -19 9 -41 14 -49 10 -16 -6 -21 -46 -6 -46 5 0 17 -8 27 -17 13 -13
35 -17 91 -18 69 0 75 2 96 28 18 23 29 28 57 25 30 -3 35 -7 38 -30 2 -19 -1
-28 -11 -28 -8 0 -19 -13 -25 -28 -12 -36 -70 -98 -99 -107 -13 -3 -23 -11
-23 -16 0 -5 -20 -9 -45 -9 -32 0 -51 6 -65 20 -26 26 -48 25 -59 -3 -5 -13
-16 -29 -25 -36 -9 -7 -16 -19 -16 -25 0 -7 -8 -21 -19 -32 -10 -11 -25 -38
-32 -60 -12 -33 -62 -129 -75 -143 -2 -2 -12 3 -22 12 -18 16 -40 18 -188 14
-73 -2 -76 5 -70 182 6 158 6 194 5 279 -1 26 2 81 6 123 7 75 7 76 -23 107
-36 36 -52 86 -52 157 0 79 11 123 36 151 35 37 45 23 38 -54z m-422 28 c2
-22 0 -40 -4 -40 -5 0 -8 18 -8 40 0 22 2 40 4 40 2 0 6 -18 8 -40z m1025 34
c-3 -3 -12 -4 -19 -1 -8 3 -5 6 6 6 11 1 17 -2 13 -5z m2471 -29 c17 -9 41
-31 52 -50 20 -33 39 -49 25 -22 -4 6 7 -4 23 -23 l30 -34 7 49 c4 28 9 55 11
60 5 11 -3 -80 -10 -110 -3 -11 -5 -23 -5 -27 -2 -14 -21 -9 -21 5 0 7 -25 37
-55 67 -30 29 -51 58 -48 63 3 6 1 7 -6 3 -6 -4 -14 0 -17 8 -9 24 -37 20 -29
-4 5 -14 2 -20 -10 -20 -9 0 -14 3 -12 8 2 4 7 15 10 25 8 21 15 21 55 2z
m-2298 -5 c0 -5 -2 -10 -4 -10 -3 0 -8 5 -11 10 -3 6 -1 10 4 10 6 0 11 -4 11
-10z m2710 -5 c0 -8 -4 -15 -10 -15 -5 0 -7 7 -4 15 4 8 8 15 10 15 2 0 4 -7
4 -15z m-3736 -4 c3 -5 -1 -11 -9 -14 -9 -4 -12 -1 -8 9 6 16 10 17 17 5z
m336 -5 c0 -2 -7 -6 -15 -10 -8 -3 -15 -1 -15 4 0 6 7 10 15 10 8 0 15 -2 15
-4z m-10 -36 c0 -5 -4 -10 -10 -10 -5 0 -10 5 -10 10 0 6 5 10 10 10 6 0 10
-4 10 -10z m807 4 c-3 -3 -12 -4 -19 -1 -8 3 -5 6 6 6 11 1 17 -2 13 -5z
m2135 -51 c-5 -101 -9 -111 -11 -25 0 45 2 82 7 82 4 0 6 -26 4 -57z m440 45
c-6 -7 -12 -26 -15 -43 -4 -28 -4 -27 -6 7 -1 31 6 43 28 47 2 1 -1 -5 -7 -11z
m-5018 -46 c5 -9 33 -40 62 -70 48 -50 73 -96 59 -110 -3 -3 -5 2 -5 11 0 9
-16 33 -35 54 -19 21 -35 41 -35 46 0 4 -6 7 -12 7 -7 0 -21 14 -30 31 -10 17
-22 28 -27 24 -6 -3 -14 2 -19 11 -8 15 -11 12 -17 -14 -3 -18 -10 -32 -15
-32 -4 0 -11 -17 -15 -37 -8 -43 -32 -92 -55 -110 -23 -19 -35 -15 -17 5 10
10 17 23 17 29 0 6 6 13 13 16 7 3 19 24 26 48 7 24 17 51 22 59 5 8 14 25 19
38 8 18 15 22 33 16 12 -3 26 -14 31 -22z m1156 8 c0 -11 -4 -20 -9 -20 -5 0
-12 -10 -14 -22 -2 -13 -5 -4 -6 20 -1 31 3 42 14 42 8 0 15 -9 15 -20z m510
5 c7 -8 19 -15 26 -15 8 0 11 6 8 15 -4 8 -1 15 6 15 6 0 9 -4 6 -9 -4 -5 0
-11 6 -13 8 -3 5 -9 -8 -16 -17 -9 -25 -7 -44 10 -16 15 -24 18 -30 9 -5 -10
-9 -9 -13 3 -8 21 26 22 43 1z m-440 -5 c0 -5 -5 -10 -11 -10 -5 0 -7 5 -4 10
3 6 8 10 11 10 2 0 4 -4 4 -10z m957 -22 c-3 -7 -5 -2 -5 12 0 14 2 19 5 13 2
-7 2 -19 0 -25z m208 22 c-3 -5 -10 -10 -16 -10 -5 0 -9 5 -9 10 0 6 7 10 16
10 8 0 12 -4 9 -10z m-441 -35 c-4 -8 -16 -14 -28 -14 -16 1 -17 2 -3 6 9 2
17 9 17 14 0 5 4 9 10 9 5 0 7 -7 4 -15z m-277 -1 c-3 -3 -12 -4 -19 -1 -8 3
-5 6 6 6 11 1 17 -2 13 -5z m-266 -29 c-39 -17 -51 -19 -51 -6 0 10 27 17 65
19 13 1 8 -4 -14 -13z m789 -16 c0 -5 -4 -9 -10 -9 -5 0 -10 7 -10 16 0 8 5
12 10 9 6 -3 10 -10 10 -16z m-1049 -39 c5 0 9 -4 9 -10 0 -5 -7 -10 -15 -10
-11 0 -15 10 -14 38 2 30 3 32 6 10 2 -16 9 -28 14 -28z m179 46 c0 -2 -7 -6
-15 -10 -8 -3 -15 -1 -15 4 0 6 7 10 15 10 8 0 15 -2 15 -4z m-90 -16 c0 -5
-2 -10 -4 -10 -3 0 -8 5 -11 10 -3 6 -1 10 4 10 6 0 11 -4 11 -10z m-990 -51
c0 -21 5 -39 10 -39 6 0 10 -26 11 -57 l1 -58 16 35 c8 19 16 38 16 42 1 3 15
23 33 42 26 30 38 36 70 36 41 0 63 -14 62 -39 0 -12 -4 -10 -16 7 -19 27 -64
30 -88 5 -25 -25 -65 -91 -65 -107 0 -8 -5 -18 -10 -21 -22 -14 -37 17 -44 87
-3 39 -9 82 -13 96 -4 17 -2 23 6 18 6 -4 11 -25 11 -47z m1143 26 c-6 -17
-25 -15 -31 3 -2 7 5 12 17 12 14 0 19 -5 14 -15z m964 -7 c-3 -8 -6 -5 -6 6
-1 11 2 17 5 13 3 -3 4 -12 1 -19z m2258 -85 c16 -46 36 -82 58 -104 32 -31
89 -70 102 -69 20 1 25 -2 25 -15 0 -20 -4 -19 -50 10 -22 14 -43 25 -47 25
-19 1 -72 70 -89 115 -10 28 -21 52 -25 55 -4 3 -9 20 -12 39 -9 53 12 23 38
-56z m-3167 49 c9 -27 8 -29 -14 -24 -23 4 -34 22 -14 22 6 0 10 7 10 15 0 23
7 18 18 -13z m-55 -2 c3 -10 -2 -16 -14 -16 -11 0 -19 7 -19 16 0 9 6 17 14
17 8 0 16 -8 19 -17z m-197 -18 c-17 -16 -18 -16 -5 5 7 12 15 20 18 17 3 -2
-3 -12 -13 -22z m1274 2 c0 -8 -4 -14 -10 -14 -5 0 -10 9 -10 21 0 11 5 17 10
14 6 -3 10 -13 10 -21z m-1173 -10 c-3 -3 -12 -4 -19 -1 -8 3 -5 6 6 6 11 1
17 -2 13 -5z m913 -14 c0 -5 -4 -10 -10 -10 -5 0 -10 5 -10 10 0 6 5 10 10 10
6 0 10 -4 10 -10z m-1699 -35 c12 -19 26 -35 32 -35 7 0 5 -5 -3 -10 -13 -8
-13 -10 1 -10 9 0 20 -7 23 -16 10 -27 7 -28 -17 -3 -34 36 -79 109 -67 109 6
0 20 -16 31 -35z m626 -37 c-2 -13 -4 -5 -4 17 -1 22 1 32 4 23 2 -10 2 -28 0
-40z m3973 22 c-6 -11 -15 -20 -20 -20 -6 0 -10 -6 -10 -14 0 -8 -11 -23 -25
-34 -14 -11 -25 -25 -25 -31 0 -6 -4 -11 -8 -11 -5 0 -25 -16 -45 -35 -20 -19
-42 -35 -49 -35 -9 0 -9 -3 2 -10 12 -7 12 -12 2 -22 -9 -9 -15 -9 -24 1 -11
10 -8 17 15 35 15 12 27 26 27 32 0 6 16 18 36 27 19 10 33 21 29 26 -3 5 8
19 25 31 16 12 30 28 30 35 0 8 10 21 22 29 29 21 31 20 18 -4z m-3723 -6 c-3
-3 -12 -4 -19 -1 -8 3 -5 6 6 6 11 1 17 -2 13 -5z m133 -29 c7 -34 -3 -92 -18
-107 -5 -5 -27 -12 -48 -15 -30 -4 -43 -1 -57 15 -20 22 -15 44 23 89 51 60
91 67 100 18z m-265 5 c-3 -5 -1 -10 4 -10 23 0 10 -25 -14 -26 -14 -1 -25 2
-25 6 0 20 13 40 27 40 8 0 11 -4 8 -10z m-1115 -45 c0 -20 6 -35 15 -39 20
-7 20 -46 0 -46 -9 0 -26 11 -38 23 -12 13 -29 26 -37 29 -10 3 -8 6 8 10 12
4 20 3 17 -1 -6 -11 43 -56 52 -48 3 4 -1 13 -9 20 -16 12 -31 100 -16 91 5
-3 8 -20 8 -39z m1024 -9 c-4 -11 -12 -24 -18 -28 -7 -5 -3 -8 9 -9 16 -1 17
-2 3 -6 -9 -2 -19 -14 -21 -26 -2 -12 -5 -3 -6 21 0 23 4 42 9 42 7 0 7 6 1
19 -9 16 -8 18 9 14 16 -4 19 -11 14 -27z m-564 -65 c-1 -13 -30 34 -30 48 0
9 7 3 15 -13 8 -15 15 -31 15 -35z m633 48 c8 6 17 4 25 -5 12 -13 10 -14 -14
-11 -15 2 -29 9 -30 16 -2 7 0 7 3 1 3 -7 9 -7 16 -1z m-1197 -6 c-20 -3 -31
-13 -39 -34 -6 -16 -15 -29 -19 -29 -7 0 5 41 18 61 3 5 20 8 37 8 32 -2 32
-2 3 -6z m2397 -25 c4 -12 5 -23 4 -25 -6 -5 -47 10 -47 18 0 5 8 5 17 2 12
-5 15 -2 10 10 -3 9 -3 17 2 17 5 0 11 -10 14 -22z m-1223 -3 c0 -8 -4 -15
-10 -15 -5 0 -10 7 -10 15 0 8 5 15 10 15 6 0 10 -7 10 -15z m97 -17 c-3 -8
-6 -5 -6 6 -1 11 2 17 5 13 3 -3 4 -12 1 -19z m3310 16 c-3 -4 3 -18 13 -32
21 -27 25 -42 11 -42 -5 0 -12 11 -15 25 -6 24 -26 36 -26 15 0 -5 -7 -10 -15
-10 -14 0 -13 3 2 25 10 13 22 25 27 25 5 0 6 -3 3 -6z m-4167 -34 c0 -5 9
-10 20 -10 10 0 23 -6 27 -13 8 -14 51 -40 86 -53 9 -3 17 -10 17 -15 0 -5 7
-6 15 -3 14 6 21 -7 9 -18 -7 -8 -64 21 -64 33 0 5 -6 9 -14 9 -7 0 -25 11
-40 25 -15 14 -33 25 -41 25 -8 0 -17 5 -20 10 -11 19 -25 10 -39 -25 -8 -19
-17 -35 -20 -35 -3 0 -2 10 3 23 5 12 12 30 15 40 6 18 46 24 46 7z m760 -5
c0 -9 6 -12 15 -9 11 5 13 2 9 -10 -9 -22 -40 -20 -65 5 l-21 21 21 -7 c12 -4
21 -2 21 4 0 6 5 11 10 11 6 0 10 -7 10 -15z m3573 -27 c-3 -16 -9 -28 -14
-28 -4 0 -3 14 3 31 12 36 18 35 11 -3z m-4811 -20 c-6 -6 -7 0 -4 19 5 21 7
23 10 9 2 -10 0 -22 -6 -28z m1188 16 c0 -8 -4 -14 -10 -14 -5 0 -10 2 -10 4
0 2 -3 12 -6 20 -5 12 -2 15 10 10 9 -3 16 -12 16 -20z m3418 9 c-2 -5 -10
-21 -18 -38 -8 -16 -20 -34 -26 -40 -6 -5 -17 -37 -24 -70 -18 -85 -31 -122
-24 -65 11 85 40 180 54 180 5 0 12 9 15 20 3 11 11 20 17 20 5 0 8 -3 6 -7z
m394 -17 c6 4 8 2 4 -4 -3 -5 -1 -12 4 -14 6 -2 13 -21 15 -43 l5 -40 -9 35
c-5 19 -18 41 -28 50 -11 8 -17 22 -14 30 4 12 6 12 9 -3 2 -9 8 -14 14 -11z
m-2532 0 c0 -8 -4 -18 -10 -21 -5 -3 -10 3 -10 14 0 12 5 21 10 21 6 0 10 -6
10 -14z m-1235 -28 c-8 -27 -10 -48 -4 -67 2 -7 -1 -15 -7 -18 -7 -2 -10 15
-8 49 2 62 1 58 15 58 7 0 9 -8 4 -22z m160 12 c13 -6 15 -9 5 -9 -8 0 -22 4
-30 9 -18 12 -2 12 25 0z m145 -12 c0 -16 -3 -19 -11 -11 -6 6 -8 16 -5 22 11
17 16 13 16 -11z m3155 -10 c11 -51 25 -74 36 -57 4 7 10 11 13 9 2 -3 -5 -16
-17 -30 -12 -16 -18 -18 -14 -7 4 9 3 17 -1 17 -4 0 -14 15 -21 33 -8 17 -18
40 -22 50 -6 12 -4 17 6 17 7 0 17 -15 20 -32z m-4677 -291 c6 -21 13 -41 15
-44 11 -11 27 9 27 35 0 15 7 35 15 45 7 11 17 36 20 58 4 21 10 39 15 39 11
0 -8 -80 -26 -107 -8 -12 -14 -33 -14 -46 0 -34 -26 -55 -45 -36 -21 22 -28
72 -30 224 l-2 140 7 -135 c4 -74 12 -152 18 -173z m372 254 c-11 -34 -10 -46
8 -102 11 -35 30 -102 42 -149 12 -47 26 -89 31 -95 5 -5 9 -18 10 -30 1 -17
2 -16 9 5 l8 25 1 -27 c3 -70 -47 2 -64 92 -7 37 -23 92 -36 125 -25 65 -32
125 -19 165 7 22 15 38 18 35 3 -3 -1 -22 -8 -44z m4372 22 c-3 -16 -7 -22
-10 -15 -4 13 4 42 11 42 2 0 2 -12 -1 -27z m-3332 7 c0 -5 -9 -10 -20 -10
-11 0 -20 5 -20 10 0 6 9 10 20 10 11 0 20 -4 20 -10z m-240 -20 c0 -5 -4 -10
-9 -10 -5 0 -12 -12 -14 -27 -3 -23 -4 -21 -6 10 -1 27 3 37 14 37 8 0 15 -4
15 -10z m90 -24 c0 -3 -4 -8 -10 -11 -5 -3 -10 -1 -10 4 0 6 5 11 10 11 6 0
10 -2 10 -4z m3730 -30 c0 -2 -8 -10 -17 -17 -16 -13 -17 -12 -4 4 13 16 21
21 21 13z m-3740 -16 c0 -5 8 -10 17 -10 9 0 13 -3 9 -7 -4 -5 -11 -8 -14 -7
-12 1 -28 -21 -40 -55 -10 -28 -10 -31 2 -22 11 9 16 9 22 0 4 -6 0 -16 -10
-21 -21 -12 -21 -28 2 -29 10 0 12 -3 5 -6 -25 -9 -13 -22 24 -25 27 -2 39 -8
41 -20 2 -10 -2 -18 -8 -18 -6 0 -8 5 -5 10 6 10 -3 10 -55 1 -2 -1 6 -8 18
-17 22 -15 31 -39 11 -32 -6 2 -10 6 -9 8 3 6 -62 75 -75 80 -24 10 -45 36
-45 56 0 19 4 22 32 17 28 -4 30 -3 19 11 -11 13 -10 17 5 23 27 10 42 33 36
55 -2 10 1 18 7 18 6 0 11 -4 11 -10z m270 -39 c0 -44 -2 -49 -20 -44 -17 5
-20 0 -20 -31 0 -43 -16 -48 -22 -7 -2 17 -1 28 4 25 4 -3 8 2 8 10 0 9 9 16
20 16 11 0 20 5 20 11 0 6 -6 9 -14 6 -9 -4 -16 3 -19 19 -4 24 -3 24 14 8 18
-16 19 -16 19 9 0 15 2 27 5 27 3 0 5 -22 5 -49z m3696 25 c8 -20 -33 -110
-62 -137 -13 -12 -24 -26 -24 -30 0 -17 -62 -99 -75 -99 -8 0 -16 -9 -20 -20
-3 -11 -19 -27 -36 -37 -16 -9 -29 -20 -29 -24 0 -4 -6 -9 -12 -12 -7 -3 -30
-12 -50 -21 -22 -9 -38 -12 -38 -6 0 5 8 10 18 10 9 0 31 11 47 25 17 13 35
28 40 33 6 4 18 11 28 15 9 3 17 13 17 21 0 8 9 17 19 21 11 3 37 33 58 65 21
33 41 60 46 60 4 0 7 6 7 13 0 7 9 20 19 29 11 9 23 33 27 53 6 36 -1 58 -14
40 -4 -6 -23 -19 -42 -29 -37 -20 -33 -13 14 22 33 25 54 28 62 8z m-5078 -16
c7 -11 18 -20 25 -20 12 -1 77 -55 77 -65 0 -10 -36 10 -55 32 -11 13 -24 23
-29 23 -4 0 -14 7 -23 15 -12 12 -18 13 -29 4 -15 -13 -17 -9 -8 15 8 22 27
20 42 -4z m1082 16 c0 -3 -4 -8 -10 -11 -5 -3 -10 -1 -10 4 0 6 5 11 10 11 6
0 10 -2 10 -4z m1290 -5 c0 -6 -4 -13 -10 -16 -5 -3 -10 1 -10 9 0 9 5 16 10
16 6 0 10 -4 10 -9z m2423 -34 c-3 -20 -9 -37 -13 -37 -4 0 -3 18 2 40 13 50
20 48 11 -3z m-3623 23 c0 -5 -5 -10 -11 -10 -5 0 -7 5 -4 10 3 6 8 10 11 10
2 0 4 -4 4 -10z m-163 -32 c-3 -7 -5 -2 -5 12 0 14 2 19 5 13 2 -7 2 -19 0
-25z m1194 15 c-6 -10 -15 -25 -21 -33 -9 -12 -10 -10 -4 10 4 14 12 28 18 32
17 11 18 10 7 -9z m46 11 c-3 -3 -12 -4 -19 -1 -8 3 -5 6 6 6 11 1 17 -2 13
-5z m2710 -29 c0 -8 -4 -12 -9 -9 -4 3 -8 1 -8 -4 0 -6 -20 -18 -44 -28 -24
-10 -42 -23 -39 -28 3 -5 0 -7 -8 -4 -8 3 -20 -1 -27 -9 -16 -15 -32 -17 -32
-3 0 6 7 10 15 10 8 0 15 3 15 8 0 4 24 18 53 32 28 13 58 30 65 37 17 16 19
16 19 -2z m-2737 -4 c0 -6 -4 -13 -10 -16 -5 -3 -10 1 -10 9 0 9 5 16 10 16 6
0 10 -4 10 -9z m30 -12 c0 -6 -4 -7 -10 -4 -5 3 -10 11 -10 16 0 6 5 7 10 4 6
-3 10 -11 10 -16z m77 2 c10 -16 9 -20 -8 -24 -15 -4 -19 0 -19 19 0 29 11 31
27 5z m-117 -36 c7 -8 8 -15 2 -15 -5 0 -15 7 -22 15 -7 8 -8 15 -2 15 5 0 15
-7 22 -15z m2557 -7 c-3 -8 -6 -5 -6 6 -1 11 2 17 5 13 3 -3 4 -12 1 -19z
m-2440 -10 c-3 -8 -6 -5 -6 6 -1 11 2 17 5 13 3 -3 4 -12 1 -19z m2067 -87 c4
-6 3 -11 -3 -11 -11 0 -31 64 -30 95 0 11 7 -1 14 -26 7 -26 15 -52 19 -58z
m-4267 -1 c4 -8 8 -28 9 -45 3 -23 -1 -18 -16 20 -10 28 -18 61 -18 75 0 23 0
23 10 -5 5 -16 12 -37 15 -45z m1204 60 c5 0 9 -4 9 -8 0 -5 -16 -8 -35 -8
-35 1 -46 10 -22 19 6 3 18 4 25 1 8 -2 18 -4 23 -4z m972 3 c-7 -2 -21 -2
-30 0 -10 3 -4 5 12 5 17 0 24 -2 18 -5z m-1113 -7 c0 -11 -19 -15 -25 -6 -3
5 1 10 9 10 9 0 16 -2 16 -4z m1180 -20 c0 -27 -27 -41 -59 -31 -10 3 -30 1
-45 -4 -16 -7 -26 -7 -26 -1 0 5 18 13 40 16 25 4 40 12 40 21 0 8 4 12 9 8 5
-3 12 -1 16 5 11 18 25 10 25 -14z m-110 4 c-19 -13 -30 -13 -30 0 0 6 10 10
23 10 18 0 19 -2 7 -10z m-43 -6 c-3 -3 -12 -4 -19 -1 -8 3 -5 6 6 6 11 1 17
-2 13 -5z m-1832 -44 c9 -16 19 -30 23 -30 4 0 15 -17 25 -37 l17 -38 -31 35
c-17 19 -36 46 -42 60 l-10 25 -6 -24 c-10 -39 -28 -36 -23 4 5 43 26 46 47 5z
m925 20 c0 -5 -4 -10 -10 -10 -5 0 -10 5 -10 10 0 6 5 10 10 10 6 0 10 -4 10
-10z m830 -54 c-1 -20 -1 -20 -15 -2 -14 18 -15 18 -24 -7 -5 -14 -15 -28 -21
-32 -9 -6 -9 -2 -1 13 6 11 16 33 21 47 9 23 13 25 25 15 8 -7 15 -22 15 -34z
m-855 14 c-3 -5 -10 -10 -16 -10 -5 0 -9 5 -9 10 0 6 7 10 16 10 8 0 12 -4 9
-10z m942 -12 c-3 -8 -6 -5 -6 6 -1 11 2 17 5 13 3 -3 4 -12 1 -19z m-1047
-14 c0 -8 -19 -13 -24 -6 -3 5 1 9 9 9 8 0 15 -2 15 -3z m40 -19 c0 -7 8 -15
18 -17 16 -3 16 -4 0 -10 -12 -5 -19 1 -27 23 -6 18 -6 27 -1 24 6 -4 10 -12
10 -20z m1143 18 c-7 -2 -19 -2 -25 0 -7 3 -2 5 12 5 14 0 19 -2 13 -5z m2023
-30 c-8 -15 -18 -36 -22 -45 -3 -10 -10 -18 -15 -18 -5 0 -20 -17 -33 -37 -31
-49 -95 -121 -96 -108 0 6 17 29 38 51 46 52 82 100 82 112 0 5 7 16 16 23 9
7 20 24 25 37 5 14 12 22 15 19 3 -3 -1 -18 -10 -34z m-2081 7 c3 -5 1 -10 -4
-10 -6 0 -11 5 -11 10 0 6 2 10 4 10 3 0 8 -4 11 -10z m50 -52 c1 -10 -4 -18
-11 -18 -16 0 -27 17 -16 24 5 3 8 18 5 33 l-3 28 11 -25 c7 -14 13 -33 14
-42z m-2134 -168 c8 -14 18 -26 24 -25 11 0 31 -52 23 -60 -10 -11 -129 7
-143 21 -7 8 -24 14 -37 15 -13 0 -32 5 -43 10 -16 7 -13 8 13 4 68 -11 92
-17 92 -25 0 -8 99 -24 106 -17 8 8 -8 37 -20 37 -15 0 -46 67 -75 163 -33
105 -23 103 14 -3 18 -52 39 -106 46 -120z m187 190 c12 -12 22 -24 22 -29 0
-4 8 -16 18 -27 9 -11 28 -35 41 -53 13 -18 30 -41 38 -50 8 -9 46 -55 85
-103 39 -49 75 -88 79 -88 5 0 9 -5 9 -12 0 -6 16 -28 35 -47 50 -53 161 -164
176 -178 69 -63 70 -66 67 -139 l-3 -69 -26 28 c-38 39 -76 36 -124 -10 -75
-72 -97 -172 -49 -220 47 -47 104 -16 170 93 l29 49 3 -73 c3 -72 3 -73 37
-89 19 -9 35 -20 35 -24 0 -3 21 -17 48 -29 26 -12 74 -37 107 -55 72 -41 144
-75 156 -75 5 0 9 -4 9 -9 0 -5 12 -12 27 -16 51 -12 53 -19 53 -151 l0 -124
-25 0 c-14 0 -25 4 -25 8 0 5 -19 15 -42 21 -24 7 -71 26 -105 42 -34 16 -67
29 -72 29 -5 0 -16 7 -24 15 -8 8 -35 24 -59 37 -25 13 -66 34 -93 48 -27 14
-60 35 -73 48 -14 12 -28 22 -33 22 -4 0 -14 6 -21 13 -7 7 -29 24 -48 37 -19
13 -41 30 -48 37 -8 7 -23 18 -35 25 -12 6 -30 22 -40 35 -10 12 -23 23 -28
23 -11 0 -270 261 -344 346 -27 32 -62 71 -77 87 -16 16 -28 31 -28 35 0 3
-18 27 -40 53 -22 26 -40 52 -40 58 0 5 -6 14 -14 18 -8 4 -24 25 -36 46 -12
20 -25 37 -29 37 -3 0 -15 17 -26 38 -11 20 -25 41 -32 45 -7 4 -13 15 -13 23
0 17 35 13 124 -12 27 -8 60 -14 72 -14 12 0 24 -4 26 -8 2 -5 24 -12 50 -15
54 -7 52 -11 64 131 3 45 10 84 15 87 4 3 11 32 15 65 4 33 10 60 13 60 4 0
17 -9 29 -20z m1706 5 c-4 -8 -9 -15 -13 -15 -4 0 -8 7 -8 15 0 8 6 15 13 15
8 0 11 -6 8 -15z m-332 -13 c-7 -2 -10 -8 -6 -13 3 -5 0 -9 -5 -9 -13 0 -13 3
-5 24 3 9 11 13 17 9 8 -5 7 -8 -1 -11z m478 8 c0 -5 -4 -10 -10 -10 -5 0 -10
5 -10 10 0 6 5 10 10 10 6 0 10 -4 10 -10z m2182 -44 c4 -27 9 -63 12 -80 2
-17 10 -69 17 -116 6 -47 15 -89 19 -93 8 -9 153 13 161 25 8 12 127 33 136
24 7 -7 -37 -96 -47 -96 -3 0 -14 -15 -25 -32 -10 -18 -23 -37 -27 -43 -4 -5
-24 -30 -43 -54 -20 -24 -41 -53 -47 -65 -6 -11 -22 -29 -35 -39 -12 -10 -23
-23 -23 -29 0 -6 -10 -21 -22 -33 -13 -13 -45 -49 -73 -81 -27 -32 -108 -116
-180 -186 -175 -172 -182 -178 -190 -178 -3 0 -28 -18 -54 -40 -26 -22 -52
-40 -58 -40 -6 0 -13 -6 -16 -14 -3 -8 -22 -22 -41 -31 -20 -10 -36 -21 -36
-26 0 -5 -5 -9 -11 -9 -6 0 -34 -15 -62 -34 -29 -19 -65 -40 -82 -47 -16 -8
-32 -16 -35 -19 -9 -10 -153 -77 -193 -90 -22 -7 -51 -18 -65 -26 -15 -8 -35
-14 -46 -14 -15 0 -17 5 -12 31 3 17 6 75 6 129 l0 98 153 76 c160 81 230 118
260 138 55 38 52 25 50 202 l-3 166 145 147 c80 81 145 151 145 155 0 5 8 17
18 27 16 18 42 48 102 123 14 17 34 41 45 53 27 30 44 56 51 78 4 9 10 17 15
17 5 0 19 18 31 40 30 53 51 49 60 -14z m-3951 -3 c13 -21 29 -44 36 -51 17
-18 16 -23 -2 -16 -8 4 -15 10 -15 15 0 4 -13 24 -30 42 -31 36 -36 47 -21 47
5 0 20 -17 32 -37z m774 27 c3 -5 1 -10 -4 -10 -6 0 -11 5 -11 10 0 6 2 10 4
10 3 0 8 -4 11 -10z m41 -15 c-3 -8 0 -16 7 -19 8 -3 8 -5 1 -5 -16 -1 -37 26
-29 39 9 14 28 1 21 -15z m54 21 c0 -2 -7 -7 -16 -10 -8 -3 -12 -2 -9 4 6 10
25 14 25 6z m720 -10 c0 -3 -4 -8 -10 -11 -5 -3 -10 -1 -10 4 0 6 5 11 10 11
6 0 10 -2 10 -4z m-35 -26 c3 -6 -4 -10 -17 -10 -18 0 -20 2 -8 10 19 12 18
12 25 0z m275 0 c13 -8 13 -10 -2 -10 -9 0 -20 5 -23 10 -8 13 5 13 25 0z
m-587 -15 c-3 -9 -8 -14 -10 -11 -3 3 -2 9 2 15 9 16 15 13 8 -4z m2987 -21
c0 -8 -4 -12 -10 -9 -5 3 -10 -3 -10 -15 0 -23 -16 -54 -42 -82 -19 -19 -68
-25 -68 -8 0 6 13 10 29 10 36 0 48 15 57 67 4 26 13 44 23 46 9 3 17 5 19 6
1 0 2 -6 2 -15z m-3325 -24 c-3 -4 1 -10 7 -13 7 -3 4 -5 -8 -4 -15 1 -20 6
-16 19 2 10 8 15 13 12 5 -3 7 -9 4 -14z m972 -16 c-3 -3 -12 -4 -19 -1 -8 3
-5 6 6 6 11 1 17 -2 13 -5z m-1792 -31 c13 -16 24 -35 24 -43 -1 -13 -1 -13
-6 0 -4 8 -17 23 -30 33 -12 10 -23 23 -23 28 0 15 10 10 35 -18z m915 17 c0
-5 -4 -10 -10 -10 -5 0 -10 5 -10 10 0 6 5 10 10 10 6 0 10 -4 10 -10z m480 0
c0 -5 -4 -10 -10 -10 -5 0 -10 5 -10 10 0 6 5 10 10 10 6 0 10 -4 10 -10z
m335 -21 c-4 -6 -10 -8 -13 -5 -3 3 -11 1 -19 -5 -13 -11 -19 2 -6 14 11 11
45 8 38 -4z m-785 -9 c8 -5 11 -10 5 -10 -5 0 -17 5 -25 10 -8 5 -10 10 -5 10
6 0 17 -5 25 -10z m397 -6 c-3 -3 -12 -4 -19 -1 -8 3 -5 6 6 6 11 1 17 -2 13
-5z m177 -31 c-9 -7 -22 -14 -28 -16 -7 -3 -7 -9 3 -20 12 -15 10 -17 -22 -17
-28 0 -35 3 -31 15 3 8 14 17 23 20 10 3 23 17 30 31 10 22 14 24 27 13 14
-12 14 -14 -2 -26z m-477 5 c-3 -8 -6 -5 -6 6 -1 11 2 17 5 13 3 -3 4 -12 1
-19z m750 16 c-3 -3 -12 -4 -19 -1 -8 3 -5 6 6 6 11 1 17 -2 13 -5z m-1367
-14 c0 -5 6 -10 14 -10 8 0 23 -11 34 -25 11 -14 24 -25 29 -25 6 0 18 -9 28
-20 10 -11 24 -20 32 -20 7 0 13 -5 13 -11 0 -7 8 -18 18 -26 9 -7 1 -6 -20 4
-21 10 -40 26 -43 35 -4 10 -17 21 -31 24 -13 3 -24 12 -24 20 0 8 -16 20 -35
28 -32 14 -48 36 -25 36 6 0 10 -4 10 -10z m530 6 c0 -3 -4 -8 -10 -11 -5 -3
-10 -1 -10 4 0 6 5 11 10 11 6 0 10 -2 10 -4z m620 -6 c0 -5 -7 -10 -15 -10
-8 0 -15 5 -15 10 0 6 7 10 15 10 8 0 15 -4 15 -10z m1690 0 c0 -5 -4 -10 -8
-10 -5 0 -24 -14 -43 -31 -19 -17 -46 -37 -61 -45 -16 -8 -28 -18 -28 -23 0
-5 -24 -24 -52 -42 -29 -19 -54 -37 -56 -41 -2 -5 -9 -8 -16 -8 -12 0 -39 -20
-91 -67 -14 -12 -35 -24 -47 -28 -20 -5 -20 -3 7 20 53 46 71 60 106 79 19 11
42 27 52 38 10 10 24 18 32 18 8 0 28 12 44 28 64 58 97 85 119 95 12 6 22 14
22 19 0 4 5 8 10 8 6 0 10 -4 10 -10z m364 -27 c-11 -10 -27 -29 -36 -42 -21
-30 -114 -136 -150 -172 -16 -15 -28 -32 -28 -38 0 -6 -12 -16 -26 -21 -14 -6
-28 -19 -31 -30 -3 -11 -11 -20 -18 -20 -8 0 -23 -12 -34 -26 -12 -15 -21 -22
-21 -15 0 6 9 19 19 29 50 44 65 60 89 86 9 10 35 38 57 62 59 63 85 93 85
100 0 3 12 18 28 33 15 16 38 40 51 55 13 15 26 24 29 21 3 -3 -4 -13 -14 -22z
m-4234 13 c0 -2 -7 -7 -16 -10 -8 -3 -12 -2 -9 4 6 10 25 14 25 6z m680 -34
c0 -4 22 -31 50 -61 27 -29 59 -69 72 -87 13 -19 28 -34 33 -34 6 0 17 -11 25
-23 23 -36 130 -128 140 -122 6 4 11 48 12 98 l2 92 3 -85 c4 -92 -1 -130 -18
-130 -6 0 -34 22 -62 50 -28 28 -53 50 -57 50 -4 0 -12 11 -18 25 -7 14 -23
30 -37 37 -14 6 -25 17 -25 24 0 7 -8 19 -18 26 -21 15 -142 154 -142 163 0 3
9 1 20 -5 11 -6 20 -14 20 -18z m960 18 c0 -5 -2 -10 -4 -10 -3 0 -8 5 -11 10
-3 6 -1 10 4 10 6 0 11 -4 11 -10z m665 0 c-3 -5 -12 -7 -20 -3 -21 7 -19 13
6 13 11 0 18 -4 14 -10z m2322 -22 c-3 -7 -5 -2 -5 12 0 14 2 19 5 13 2 -7 2
-19 0 -25z m257 26 c9 -3 16 -14 16 -24 0 -20 -17 -36 -28 -25 -3 3 0 10 8 15
13 8 12 12 -5 24 -21 16 -17 20 9 10z m-3356 -22 c12 -10 39 -27 62 -37 22
-10 40 -21 40 -25 0 -4 14 -13 30 -20 17 -7 30 -16 30 -21 0 -10 -81 28 -90
41 -3 4 -18 14 -35 23 -36 18 -82 57 -68 57 5 0 19 -8 31 -18z m627 9 c3 -5 2
-12 -3 -15 -5 -3 -9 1 -9 9 0 17 3 19 12 6z m-2129 -79 c2 -14 0 -14 -9 2 -7
10 -20 26 -29 35 -10 8 -18 22 -18 30 0 19 53 -45 56 -67z m1758 69 c3 -5 0
-11 -8 -14 -15 -6 -26 1 -26 15 0 11 27 10 34 -1z m176 -6 c0 -9 -6 -12 -16
-8 -13 5 -13 7 -2 14 17 11 18 11 18 -6z m40 5 c0 -5 -7 -10 -16 -10 -8 0 -12
5 -9 10 3 6 10 10 16 10 5 0 9 -4 9 -10z m2765 2 c-13 -12 -124 -37 -130 -30
-3 3 12 8 35 12 22 3 40 11 40 16 0 6 14 10 32 10 18 0 28 -4 23 -8z m-3680
-36 c15 -8 33 -23 41 -35 9 -12 21 -21 28 -21 8 0 21 -11 30 -25 9 -14 23 -25
31 -25 8 0 24 -9 35 -20 10 -10 37 -28 60 -40 22 -11 40 -25 40 -30 0 -5 10
-12 23 -16 12 -3 33 -15 47 -24 43 -30 256 -137 312 -156 29 -10 60 -23 68
-30 8 -6 47 -19 85 -29 39 -10 75 -22 80 -26 6 -4 53 -15 105 -24 52 -9 123
-23 157 -31 74 -17 315 -19 394 -4 30 6 105 20 168 31 63 10 119 23 125 29 7
5 30 13 51 19 98 24 112 29 140 43 17 8 42 18 57 22 15 3 33 12 40 19 7 7 40
24 73 37 33 13 66 30 73 37 7 7 18 13 23 13 5 0 32 15 61 34 29 18 63 36 76
40 12 4 22 11 22 15 0 4 19 18 43 31 23 13 51 32 61 42 11 10 23 18 26 18 4 0
19 10 33 23 60 53 81 69 109 83 17 9 31 14 33 12 4 -3 7 -398 6 -619 l-1 -106
-41 -13 c-23 -8 -43 -19 -46 -26 -2 -6 -29 -22 -59 -34 -29 -13 -54 -26 -54
-30 0 -4 -21 -15 -47 -25 -27 -10 -59 -26 -72 -37 -13 -10 -31 -18 -39 -18 -8
0 -42 -13 -76 -29 -34 -15 -72 -32 -86 -36 -14 -4 -38 -13 -55 -20 -48 -20
-88 -33 -122 -40 -18 -4 -33 -10 -33 -14 0 -4 -6 -8 -12 -9 -47 -6 -244 -47
-248 -52 -10 -14 -251 -32 -410 -32 -172 1 -377 17 -395 32 -5 4 -46 13 -90
20 -44 6 -105 20 -135 30 -30 10 -84 26 -120 36 -36 9 -69 20 -75 24 -5 4 -39
18 -75 30 -36 13 -67 26 -70 29 -3 4 -27 15 -55 25 -27 10 -57 24 -65 31 -8 7
-36 20 -62 30 -26 10 -53 24 -59 31 -6 8 -18 14 -26 14 -13 0 -63 28 -73 41
-3 3 -25 16 -50 29 -25 12 -47 24 -50 27 -6 5 -9 684 -3 701 6 15 14 15 48 -2z
m3482 8 c-3 -3 -12 -4 -19 -1 -8 3 -5 6 6 6 11 1 17 -2 13 -5z m-3548 -56 c0
-31 -3 -37 -8 -24 -7 18 -3 66 5 66 2 0 4 -19 3 -42z m771 27 c0 -8 -4 -15 -9
-15 -5 0 -11 7 -15 15 -3 9 0 15 9 15 8 0 15 -7 15 -15z m3073 -4 c-3 -11 -12
-28 -22 -38 -9 -10 -27 -35 -40 -55 -12 -21 -27 -38 -32 -38 -5 0 -9 -6 -9
-14 0 -7 -19 -38 -42 -67 -61 -76 -77 -93 -84 -86 -3 3 8 21 25 39 39 41 125
158 146 198 9 17 19 30 24 30 4 0 13 11 19 25 14 30 22 33 15 6z m-2603 0 c0
-6 -4 -13 -10 -16 -5 -3 -10 1 -10 9 0 9 5 16 10 16 6 0 10 -4 10 -9z m-130
-21 c12 -8 11 -10 -7 -10 -13 0 -23 5 -23 10 0 13 11 13 30 0z m188 -2 c-2 -6
-10 -14 -16 -16 -7 -2 -10 2 -6 12 7 18 28 22 22 4z m-523 -8 c3 -5 1 -10 -4
-10 -6 0 -11 5 -11 10 0 6 2 10 4 10 3 0 8 -4 11 -10z m-1725 -34 c0 -7 11
-22 25 -34 31 -27 34 -48 5 -32 -11 6 -20 17 -20 24 0 8 -7 19 -16 26 -8 8
-20 22 -25 32 -9 18 -8 18 10 8 12 -6 21 -16 21 -24z m2216 -13 c-9 -9 -38 26
-31 38 5 6 13 3 22 -11 8 -12 13 -24 9 -27z m-1046 28 c0 -5 20 -20 45 -32 25
-12 45 -25 45 -29 0 -3 19 -17 43 -30 23 -13 46 -29 50 -37 4 -7 14 -13 22
-13 8 0 17 -5 20 -11 9 -14 -62 17 -81 36 -9 8 -29 22 -45 31 -17 8 -38 22
-47 30 -9 8 -30 26 -47 39 -16 13 -24 25 -17 25 6 0 12 -4 12 -9z m490 -13 c0
-13 -23 -5 -28 10 -2 7 2 10 12 6 9 -3 16 -11 16 -16z m137 0 c-3 -8 -6 -5 -6
6 -1 11 2 17 5 13 3 -3 4 -12 1 -19z m333 12 c0 -5 -10 -10 -22 -10 -19 0 -20
2 -8 10 19 13 30 13 30 0z m-350 -10 c0 -5 -4 -10 -9 -10 -6 0 -13 5 -16 10
-3 6 1 10 9 10 9 0 16 -4 16 -10z m2017 -32 c-3 -7 -5 -2 -5 12 0 14 2 19 5
13 2 -7 2 -19 0 -25z m-1797 6 c0 -2 -7 -4 -15 -4 -8 0 -15 4 -15 10 0 5 7 7
15 4 8 -4 15 -8 15 -10z m-259 -6 c22 -6 39 -15 39 -19 0 -4 33 -18 73 -31 39
-13 73 -26 75 -30 2 -4 19 -10 38 -14 19 -3 37 -11 41 -17 4 -6 0 -8 -10 -4
-9 3 -35 11 -59 17 -24 7 -45 15 -48 19 -3 3 -36 17 -75 30 -38 14 -72 28 -75
32 -3 5 -17 12 -30 18 -35 14 -15 13 31 -1z m152 6 c3 -3 3 -13 0 -21 -5 -12
-7 -12 -14 -1 -15 23 -4 40 14 22z m1170 -11 c-7 -3 -13 -11 -13 -18 0 -7 -6
-12 -12 -12 -20 2 -128 -36 -128 -44 0 -5 -18 -13 -41 -19 -22 -6 -47 -14 -55
-17 -8 -3 -14 -1 -14 5 0 6 18 13 40 17 22 4 40 10 40 15 0 5 29 18 65 30 36
12 65 26 65 31 0 5 9 9 19 9 11 0 23 5 26 11 4 6 10 7 14 3 3 -4 0 -9 -6 -11z
m-1076 -25 c-3 -8 -6 -5 -6 6 -1 11 2 17 5 13 3 -3 4 -12 1 -19z m343 -20 c0
-6 -6 -5 -15 2 -8 7 -15 14 -15 16 0 2 7 1 15 -2 8 -4 15 -11 15 -16z m1467
-90 c-2 -24 -4 -7 -4 37 0 44 2 63 4 43 2 -21 2 -57 0 -80z m-1637 98 c0 -3
-4 -8 -10 -11 -5 -3 -10 -1 -10 4 0 6 5 11 10 11 6 0 10 -2 10 -4z m-2056 -75
c-7 -8 -54 30 -54 45 0 11 8 7 29 -13 16 -15 27 -30 25 -32z m2166 33 c0 -8
-4 -13 -9 -9 -5 3 -12 1 -16 -5 -3 -5 -14 -10 -23 -9 -12 0 -11 3 6 9 12 5 22
14 22 20 0 5 5 10 10 10 6 0 10 -7 10 -16z m41 -4 c10 0 19 -7 19 -15 0 -10
-10 -15 -29 -15 -25 0 -28 3 -23 28 3 15 7 21 9 15 3 -7 13 -13 24 -13z m1033
-28 c-26 -25 -54 -34 -54 -19 0 11 14 18 69 36 3 0 -4 -7 -15 -17z m-1905 -11
c9 -16 8 -18 -9 -14 -21 5 -25 15 -13 26 9 10 11 9 22 -12z m606 9 c3 -6 -1
-7 -9 -4 -18 7 -21 14 -7 14 6 0 13 -4 16 -10z m99 -17 c16 -9 12 -10 -22 -9
-23 0 -44 6 -46 13 -6 15 39 13 68 -4z m594 5 c-3 -7 -19 -13 -37 -14 -33 -1
-31 10 4 19 34 8 37 7 33 -5z m-2522 -122 c24 -28 44 -53 44 -56 0 -3 8 -13
18 -22 9 -9 31 -33 47 -53 38 -46 200 -208 261 -260 67 -58 74 -65 74 -77 0
-11 -27 12 -90 75 -16 15 -31 27 -35 27 -10 0 -30 23 -38 43 -3 9 -12 17 -19
17 -7 0 -40 30 -73 67 -33 37 -74 80 -91 97 -17 17 -34 39 -37 49 -4 9 -13 17
-22 17 -8 0 -15 6 -15 13 0 7 -15 29 -32 49 -57 63 -93 109 -96 121 -3 12 19
-11 104 -107z m2033 98 c10 -9 -55 -3 -69 6 -10 6 -2 7 25 3 22 -3 42 -7 44
-9z m-742 -11 c21 -10 40 -21 43 -24 3 -4 33 -17 68 -29 34 -12 62 -27 62 -31
0 -11 -13 -12 -25 -1 -6 4 -37 19 -70 32 -33 13 -66 30 -73 37 -7 7 -20 13
-27 13 -8 0 -17 5 -20 10 -9 14 -1 13 42 -7z m1058 6 c-79 -9 -255 -9 -277 -1
-9 4 63 7 160 7 112 1 155 -2 117 -6z m710 1 c-3 -5 -12 -10 -20 -10 -7 0 -20
-6 -27 -13 -7 -7 -34 -21 -61 -31 -26 -10 -53 -23 -60 -30 -14 -14 -47 -17
-47 -5 0 5 12 12 28 15 30 8 84 33 92 44 4 5 72 32 98 39 2 1 0 -3 -3 -9z
m1284 -77 c-8 -10 -21 -26 -29 -37 -8 -11 -27 -32 -42 -47 -16 -15 -28 -32
-28 -37 0 -6 -11 -19 -25 -30 -14 -11 -25 -25 -25 -31 0 -6 -11 -17 -25 -23
-14 -6 -25 -15 -25 -19 0 -12 -157 -169 -169 -169 -6 0 -11 -7 -11 -15 0 -8
-5 -15 -10 -15 -6 0 -22 -12 -35 -26 -14 -15 -25 -23 -25 -18 0 14 30 54 40
54 8 0 195 186 268 265 50 55 102 123 102 133 0 11 27 31 44 32 5 0 2 -8 -5
-17z m-2849 -29 c0 -8 -4 -12 -10 -9 -5 3 -10 10 -10 16 0 5 5 9 10 9 6 0 10
-7 10 -16z m1337 0 c-3 -3 -12 -4 -19 -1 -8 3 -5 6 6 6 11 1 17 -2 13 -5z
m-1217 -35 c3 -5 53 -19 110 -31 58 -12 107 -25 110 -29 3 -4 61 -12 130 -18
69 -6 143 -13 165 -15 22 -2 -12 -2 -76 0 -120 4 -270 22 -279 34 -3 3 -49 17
-102 30 -54 12 -103 29 -110 37 -10 12 -7 13 18 7 16 -4 31 -11 34 -15z m1124
7 c-3 -9 -44 -23 -102 -37 -53 -12 -99 -25 -102 -29 -3 -4 -43 -12 -90 -19
-47 -6 -98 -14 -115 -16 -23 -4 -26 -3 -10 4 11 5 49 12 85 16 36 4 67 10 70
14 3 4 52 17 110 29 57 12 107 26 110 31 3 5 14 11 25 14 11 2 21 5 22 6 1 0
0 -5 -3 -13z m-2714 -66 c0 -5 -4 -10 -10 -10 -5 0 -10 5 -10 10 0 6 5 10 10
10 6 0 10 -4 10 -10z m640 -65 c0 -19 -4 -35 -9 -35 -5 0 -12 -8 -15 -17 -21
-57 -64 -97 -90 -87 -17 6 -23 54 -7 54 5 0 13 10 17 22 11 36 66 98 86 98 14
0 18 -8 18 -35z m1547 29 c-3 -3 -12 -4 -19 -1 -8 3 -5 6 6 6 11 1 17 -2 13
-5z m40 0 c-3 -3 -12 -4 -19 -1 -8 3 -5 6 6 6 11 1 17 -2 13 -5z m40 0 c-3 -3
-12 -4 -19 -1 -8 3 -5 6 6 6 11 1 17 -2 13 -5z m1593 -324 c0 -5 -5 -10 -11
-10 -7 0 -22 -10 -34 -22 -20 -21 -49 -45 -100 -83 -11 -8 -24 -15 -30 -15
-13 0 30 39 86 77 25 17 51 38 58 47 15 18 31 21 31 6z m-3322 -89 c15 -12 41
-30 57 -38 36 -19 90 -63 77 -63 -5 0 -15 7 -22 15 -6 8 -15 13 -18 12 -8 -2
-55 30 -87 59 -13 12 -40 32 -62 45 -38 23 -53 37 -53 52 0 8 50 -30 108 -82z
m3132 -55 c0 -7 -14 -19 -31 -26 -17 -7 -36 -18 -42 -24 -7 -6 -32 -22 -57
-35 -25 -14 -47 -28 -50 -31 -3 -4 -30 -20 -60 -36 -72 -38 -70 -37 -70 -27 0
5 24 20 53 33 28 13 57 29 64 34 35 31 43 36 58 36 8 0 15 5 15 11 0 5 15 16
33 24 17 7 43 23 56 34 28 25 31 25 31 7z m-2420 -12 c0 -11 -5 -14 -16 -10
-9 3 -20 6 -25 6 -5 0 -9 5 -9 10 0 6 11 10 25 10 16 0 25 -6 25 -16z m1808
-150 l-3 -139 -5 147 c-3 81 -1 144 3 139 4 -4 6 -70 5 -147z m-83 137 c3 -5
1 -12 -5 -16 -5 -3 -10 1 -10 9 0 18 6 21 15 7z m-2190 -71 c19 -6 35 -15 35
-20 0 -5 23 -19 50 -32 51 -23 62 -35 35 -35 -8 0 -15 3 -15 7 0 4 -25 18 -55
31 -30 13 -55 26 -55 30 0 3 -20 16 -45 29 -25 13 -45 30 -45 37 0 10 9 7 30
-10 16 -14 45 -31 65 -37z m422 23 c-3 -10 -5 -4 -5 12 0 17 2 24 5 18 2 -7 2
-21 0 -30z m183 18 c0 -5 46 -18 103 -31 56 -13 104 -26 107 -30 3 -5 14 -10
25 -13 11 -2 0 -2 -25 0 -25 3 -46 9 -48 14 -2 5 -9 9 -15 9 -35 -1 -177 45
-177 56 0 8 6 11 15 8 8 -4 15 -9 15 -13z m1528 7 c-5 -13 -92 -42 -162 -54
-22 -3 -43 -10 -46 -15 -3 -5 -60 -18 -125 -29 -128 -21 -141 -23 -134 -15 3
2 52 12 110 21 57 9 106 20 109 24 3 4 49 17 103 29 53 12 97 26 97 31 0 8 18
15 43 19 5 0 7 -4 5 -11z m-1215 -95 c-7 -2 -21 -2 -30 0 -10 3 -4 5 12 5 17
0 24 -2 18 -5z m44 -9 c-3 -3 -12 -4 -19 -1 -8 3 -5 6 6 6 11 1 17 -2 13 -5z
m48 -4 c13 -6 15 -9 5 -9 -8 0 -22 4 -30 9 -18 12 -2 12 25 0z m-588 -22 c-3
-8 -6 -5 -6 6 -1 11 2 17 5 13 3 -3 4 -12 1 -19z m758 1 c16 -7 -43 -7 -117 0
-5 1 -8 5 -8 10 0 10 96 2 125 -10z m459 6 c-5 -12 -19 -15 -55 -13 -65 4 -63
16 4 21 28 2 53 4 54 5 1 1 0 -5 -3 -13z m-1450 -24 c3 -5 22 -12 41 -15 19
-4 35 -10 35 -15 0 -12 136 -55 149 -47 6 4 11 1 11 -8 0 -10 -9 -16 -25 -16
-14 0 -25 3 -25 8 0 4 -35 18 -78 32 -42 13 -83 30 -90 37 -7 7 -20 13 -27 13
-8 0 -17 5 -20 10 -3 6 1 10 9 10 8 0 17 -4 20 -9z m2337 -7 c-18 -8 -39 -21
-47 -28 -7 -7 -42 -22 -78 -32 -36 -10 -66 -22 -66 -26 0 -5 -9 -8 -20 -8 -39
0 -19 15 47 35 36 11 71 25 77 30 12 11 95 44 111 43 6 0 -5 -6 -24 -14z"/>
<path d="M1893 4385 c-10 -11 -9 -13 7 -12 11 1 20 7 20 14 0 17 -12 16 -27
-2z"/>
<path d="M2280 4390 l-35 -7 43 -2 c27 0 41 3 37 9 -3 6 -7 9 -8 9 -1 -1 -18
-5 -37 -9z"/>
<path d="M1623 4383 c9 -2 25 -2 35 0 9 3 1 5 -18 5 -19 0 -27 -2 -17 -5z"/>
<path d="M1775 4385 c23 -8 83 -10 79 -3 -3 4 -24 8 -47 7 -23 0 -37 -2 -32
-4z"/>
<path d="M2493 4353 c9 -2 25 -2 35 0 9 3 1 5 -18 5 -19 0 -27 -2 -17 -5z"/>
<path d="M2621 4164 c0 -11 3 -14 6 -6 3 7 2 16 -1 19 -3 4 -6 -2 -5 -13z"/>
<path d="M2100 4114 c-22 -12 -22 -14 -5 -14 24 0 51 16 39 22 -5 3 -20 -1
-34 -8z"/>
<path d="M2645 4120 c3 -5 8 -10 11 -10 2 0 4 5 4 10 0 6 -5 10 -11 10 -5 0
-7 -4 -4 -10z"/>
<path d="M2398 4100 c10 -28 14 -32 23 -19 14 23 10 38 -10 36 -12 -1 -17 -6
-13 -17z"/>
<path d="M2270 4095 c0 -8 4 -15 10 -15 5 0 7 7 4 15 -4 8 -8 15 -10 15 -2 0
-4 -7 -4 -15z"/>
<path d="M1720 4020 c0 -5 5 -10 11 -10 5 0 7 5 4 10 -3 6 -8 10 -11 10 -2 0
-4 -4 -4 -10z"/>
<path d="M1755 3990 c3 -5 8 -10 11 -10 2 0 4 5 4 10 0 6 -5 10 -11 10 -5 0
-7 -4 -4 -10z"/>
<path d="M1986 3953 c-4 -11 -2 -14 9 -9 8 3 15 1 15 -3 0 -5 -6 -12 -12 -14
-8 -3 -6 -6 5 -6 10 -1 17 6 17 18 0 24 -26 35 -34 14z"/>
<path d="M1837 3953 c-7 -15 -7 -63 1 -63 4 0 8 16 9 35 3 33 -1 44 -10 28z"/>
<path d="M1801 3914 c0 -11 3 -14 6 -6 3 7 2 16 -1 19 -3 4 -6 -2 -5 -13z"/>
<path d="M1467 3890 c-3 -11 -1 -20 4 -20 5 0 9 9 9 20 0 11 -2 20 -4 20 -2 0
-6 -9 -9 -20z"/>
<path d="M1945 3880 c3 -5 10 -10 16 -10 5 0 9 5 9 10 0 6 -7 10 -16 10 -8 0
-12 -4 -9 -10z"/>
<path d="M1910 3856 c0 -8 51 -13 56 -5 3 5 -9 9 -25 9 -17 0 -31 -2 -31 -4z"/>
<path d="M1885 3780 c3 -5 11 -10 16 -10 6 0 7 5 4 10 -3 6 -11 10 -16 10 -6
0 -7 -4 -4 -10z"/>
<path d="M2558 3968 c-6 -18 2 -48 14 -48 9 0 6 45 -4 55 -3 4 -8 0 -10 -7z"/>
<path d="M3876 2695 c-11 -8 -28 -15 -38 -15 -13 0 -18 -8 -18 -26 0 -20 -4
-24 -19 -19 -12 4 -21 0 -25 -12 -5 -13 -9 -14 -15 -5 -11 19 -40 4 -47 -24
-4 -14 -14 -29 -24 -34 -11 -6 -20 -27 -24 -55 -4 -25 -11 -45 -17 -45 -5 0
-9 5 -9 10 0 20 -29 9 -32 -12 -2 -18 -11 -24 -38 -26 -19 -2 -37 -7 -40 -10
-10 -13 -50 -32 -67 -32 -10 0 -34 10 -53 21 -38 24 -155 33 -168 13 -4 -6
-21 -19 -38 -28 -25 -15 -35 -33 -54 -89 -12 -39 -29 -77 -36 -85 -8 -7 -14
-20 -14 -28 0 -9 -10 -39 -23 -67 -38 -83 -84 -199 -98 -242 -7 -22 -18 -47
-25 -55 -17 -22 -24 -60 -11 -60 19 0 82 25 89 35 10 14 277 13 286 -1 4 -6
31 -19 60 -30 30 -10 58 -27 63 -36 12 -22 38 -24 45 -3 3 8 31 24 62 35 31
12 63 27 71 33 23 20 238 16 281 -5 55 -26 90 -33 90 -17 0 20 -24 84 -36 100
-6 8 -19 40 -28 72 -10 31 -21 57 -24 57 -4 0 -18 34 -31 75 -14 41 -28 75
-32 75 -4 0 -15 25 -24 55 -10 30 -22 55 -26 55 -5 0 -9 7 -9 15 0 8 -7 30
-16 49 -20 41 -13 75 21 107 13 13 25 29 25 35 0 5 9 20 20 32 12 12 30 43 41
69 11 26 25 50 30 54 5 3 12 22 16 42 6 41 -7 48 -41 22z m-480 -315 c51 -20
52 -25 53 -317 1 -150 -2 -273 -7 -273 -4 0 -27 9 -50 20 -23 11 -62 23 -87
27 -25 3 -48 10 -51 14 -7 12 -130 12 -152 0 -9 -4 -36 -11 -59 -15 -40 -6
-43 -5 -43 18 0 13 7 29 15 36 8 7 15 19 15 26 0 8 15 47 34 87 18 40 37 89
41 108 4 19 11 37 16 40 5 3 19 32 30 65 12 32 24 61 28 64 4 3 12 23 19 46 8
29 19 43 39 51 37 14 124 16 159 3z m190 -22 c-3 -18 -10 -34 -15 -38 -4 -3
-18 -34 -31 -70 -13 -36 -27 -68 -32 -71 -15 -9 -5 -64 11 -64 15 0 19 6 56
87 26 58 105 148 129 148 20 0 42 -31 54 -75 9 -36 34 -97 99 -242 13 -28 23
-58 23 -67 0 -8 6 -21 13 -28 14 -14 37 -72 37 -93 0 -14 -88 -9 -105 6 -24
23 -237 -11 -292 -47 -53 -34 -53 -36 -53 254 0 247 2 271 18 290 19 22 55 40
81 41 10 1 12 -7 7 -31z"/>
<path d="M3054 1765 c-62 -17 -113 -59 -99 -80 8 -12 50 -15 200 -19 187 -4
243 -13 273 -43 18 -17 59 -17 69 1 14 26 93 37 286 43 187 6 187 6 187 29 0
14 -8 25 -20 29 -11 3 -20 10 -20 15 0 33 -240 48 -332 21 -27 -7 -48 -17 -48
-20 0 -4 -16 -15 -35 -24 -19 -9 -35 -23 -35 -32 0 -23 -19 -18 -50 13 -40 39
-51 47 -90 61 -55 20 -226 24 -286 6z m221 -35 c69 -14 86 -35 21 -26 -27 3
-94 6 -150 6 -69 0 -96 3 -86 10 8 5 27 10 42 10 15 0 30 5 34 11 7 12 47 9
139 -11z m520 10 c3 -5 21 -10 40 -10 19 0 37 -4 40 -10 4 -6 -31 -10 -98 -10
-57 0 -126 -3 -153 -6 -64 -9 -48 12 19 25 27 5 51 11 54 15 10 10 91 7 98 -4z"/>
<path d="M1993 2060 c-41 -51 -28 -76 29 -58 42 13 58 35 47 66 -12 31 -49 27
-76 -8z"/>
<path d="M1390 1805 c0 -8 4 -15 9 -15 5 0 17 -3 26 -6 13 -5 16 -2 14 11 -5
22 -49 31 -49 10z"/>
<path d="M764 1268 c-4 -7 -3 -13 3 -15 6 -2 19 -10 29 -18 18 -15 18 -16 -3
-34 -13 -11 -23 -22 -23 -26 0 -4 -18 -25 -40 -47 -45 -45 -45 -47 -27 -72 13
-17 16 -16 53 25 41 46 67 74 124 133 32 35 34 38 17 48 -28 15 -125 20 -133
6z"/>
<path d="M927 1143 c-8 -10 -17 -31 -19 -47 -2 -25 -9 -31 -38 -39 -44 -11
-60 -31 -60 -78 0 -59 47 -104 105 -100 26 1 69 64 62 90 -4 15 1 21 23 26 26
6 50 39 50 71 0 28 -28 70 -55 82 -35 16 -49 15 -68 -5z m68 -73 c0 -18 -6
-26 -23 -28 -24 -4 -38 18 -28 44 3 9 15 14 28 12 17 -2 23 -10 23 -28z m-69
-74 c8 -34 -12 -68 -39 -64 -24 3 -32 26 -23 64 9 34 53 34 62 0z"/>
<path d="M1055 977 c-17 -14 -28 -36 -32 -63 -5 -36 -1 -44 27 -73 l33 -32
-21 -22 c-21 -20 -22 -20 -42 -2 -11 10 -20 28 -20 41 0 23 -16 41 -28 30 -3
-4 -6 -22 -6 -42 0 -81 93 -104 158 -39 49 48 78 114 69 157 -13 65 -87 90
-138 45z m83 -29 c18 -18 14 -53 -7 -72 -44 -40 -80 9 -44 58 20 28 33 32 51
14z"/>
<path d="M4698 1276 c-29 -36 -37 -86 -18 -109 6 -7 18 -23 28 -36 26 -33 76
-32 103 3 25 31 35 32 49 6 14 -27 -4 -60 -33 -60 -29 0 -53 -35 -31 -44 42
-16 94 8 94 42 0 7 5 12 10 12 6 0 10 16 10 35 0 19 -3 35 -7 35 -5 0 -17 20
-28 45 -11 25 -22 45 -25 45 -3 0 -20 14 -39 30 -46 40 -79 39 -113 -4z m86
-52 c22 -32 17 -58 -10 -62 -29 -4 -54 23 -54 59 0 24 4 29 24 29 14 0 30 -10
40 -26z"/>
<path d="M4580 1149 c-39 -14 -63 -85 -44 -132 9 -25 44 17 44 54 0 27 3 30
27 27 34 -4 43 -36 38 -137 -2 -42 1 -86 6 -99 l9 -24 29 24 c17 13 30 28 30
33 1 6 14 19 31 30 36 24 45 44 28 62 -11 11 -19 8 -46 -17 -18 -17 -35 -30
-38 -30 -2 0 -4 38 -4 85 0 50 -4 85 -10 85 -5 0 -10 7 -10 15 0 15 -30 36
-52 34 -7 0 -24 -5 -38 -10z"/>
<path d="M4408 992 c-40 -39 -39 -105 1 -150 36 -39 70 -41 102 -7 32 33 39
31 39 -7 0 -44 -15 -67 -31 -51 -10 10 -17 9 -31 -4 -17 -15 -17 -17 -2 -35
22 -24 43 -22 77 6 35 28 46 89 26 138 -15 38 -24 50 -60 87 -61 61 -79 64
-121 23z m80 -57 c15 -32 15 -48 1 -62 -27 -27 -72 23 -61 70 6 27 47 22 60
-8z"/>
<path d="M4266 868 c-27 -96 -26 -184 2 -123 14 30 32 29 48 -3 6 -12 17 -30
25 -39 8 -10 24 -35 34 -55 21 -42 27 -45 44 -24 13 16 5 62 -13 74 -11 6 -61
88 -95 155 -15 28 -39 36 -45 15z"/>
<path d="M1662 920 c-6 -11 -12 -26 -12 -34 0 -8 -6 -21 -13 -28 -20 -20 -60
-125 -52 -137 10 -17 25 -13 25 8 0 10 7 24 15 31 8 7 15 19 15 26 0 8 4 14 8
14 20 0 40 -39 46 -90 7 -53 19 -80 37 -80 13 0 11 74 -2 87 -17 17 -3 43 23
43 22 0 51 13 48 21 -1 2 2 12 5 22 9 21 -2 67 -15 67 -5 0 -30 16 -56 35 -53
41 -55 41 -72 15z m68 -55 c38 -20 43 -65 8 -65 -13 0 -34 9 -47 19 -21 16
-22 20 -10 39 16 26 13 26 49 7z"/>
<path d="M3889 885 c-40 -26 -54 -61 -40 -98 12 -32 32 -38 84 -28 54 10 67 5
67 -24 0 -34 -24 -49 -69 -41 -58 9 -65 -22 -11 -42 76 -29 156 82 100 138
-18 18 -29 20 -79 14 -64 -7 -79 2 -61 36 8 15 21 20 55 20 51 0 57 10 20 34
-29 19 -22 20 -66 -9z"/>
<path d="M1841 780 c-12 -22 -21 -45 -21 -51 0 -6 -12 -35 -27 -65 -23 -47
-25 -57 -12 -65 21 -13 29 -11 29 6 0 9 9 35 21 58 29 60 58 144 52 151 -13
12 -22 5 -42 -34z"/>
<path d="M3740 795 c-14 -8 -40 -21 -58 -30 -37 -18 -37 -35 -4 -108 11 -23
25 -61 31 -84 9 -32 17 -43 31 -43 10 0 22 5 25 10 3 6 15 10 26 10 10 0 19 4
19 9 0 5 14 14 30 20 17 5 30 17 30 26 0 14 -3 14 -27 2 -69 -35 -113 -28
-113 17 0 15 13 29 45 46 67 37 54 58 -14 24 -40 -20 -61 -12 -61 23 0 24 7
32 42 48 42 20 62 45 36 45 -7 0 -24 -7 -38 -15z"/>
<path d="M1947 756 c-47 -20 -70 -61 -71 -127 -1 -54 1 -61 29 -83 52 -42 121
-41 140 2 5 12 13 22 17 22 12 0 30 81 23 108 -14 58 -88 100 -138 78z m66
-45 c43 -17 42 -96 -2 -140 -25 -25 -48 -27 -73 -4 -33 29 -19 136 19 146 29
8 31 7 56 -2z"/>
<path d="M3508 694 c-45 -14 -54 -23 -48 -49 12 -57 44 -174 52 -187 18 -37
30 -19 23 37 l-7 55 30 0 c16 0 35 -7 42 -15 7 -8 18 -15 25 -15 7 0 15 -7 19
-15 3 -8 12 -15 20 -15 19 0 32 20 19 29 -6 3 -26 19 -45 34 -32 26 -34 31
-24 53 6 13 14 24 19 24 14 0 7 27 -14 54 -23 29 -43 31 -111 10z m80 -51 c4
-29 -52 -61 -74 -42 -23 19 -17 46 14 57 38 15 57 10 60 -15z"/>
<path d="M2195 603 c-4 -32 -10 -62 -15 -68 -4 -5 -11 -31 -14 -58 -7 -45 -6
-48 20 -57 15 -6 50 -10 78 -8 46 3 51 6 72 43 28 48 30 102 7 144 -13 23 -31
35 -67 46 -27 8 -55 15 -62 15 -7 0 -15 -23 -19 -57z m113 -21 c17 -21 7 -100
-15 -124 -20 -22 -56 -23 -73 -3 -9 11 -9 30 0 86 l12 71 32 -6 c17 -3 37 -14
44 -24z"/>
<path d="M3305 631 c-11 -5 -29 -19 -40 -31 -38 -43 -15 -200 30 -200 8 0 15
-4 15 -10 0 -5 16 -10 35 -10 19 0 35 4 35 9 0 6 12 16 27 23 55 27 54 139 -3
196 -32 32 -60 39 -99 23z m61 -39 c16 -11 44 -72 44 -96 0 -12 -11 -34 -23
-50 -31 -38 -65 -30 -89 19 -27 55 -24 97 10 117 30 19 42 21 58 10z"/>
<path d="M2421 490 c-49 -96 -60 -130 -43 -130 13 0 28 15 35 33 4 10 17 17
34 17 51 0 70 -11 79 -43 10 -34 34 -49 34 -20 -1 10 -11 68 -23 128 -19 95
-25 110 -43 113 -18 3 -30 -14 -73 -98z m73 -12 c5 -29 4 -38 -7 -38 -27 0
-35 20 -20 51 18 36 18 35 27 -13z"/>
<path d="M3071 570 c-12 -7 -13 -17 -3 -60 7 -28 12 -66 12 -85 0 -18 3 -47 6
-65 6 -27 10 -31 30 -26 13 3 36 9 52 12 15 3 37 7 50 10 12 2 22 9 22 14 0 6
-21 8 -54 4 -65 -8 -70 -2 -81 100 -9 89 -16 108 -34 96z"/>
<path d="M2632 550 c-43 -41 -18 -99 54 -124 64 -21 53 -82 -13 -74 -20 2 -29
9 -31 26 -2 14 -10 22 -23 22 -44 0 0 -73 51 -83 42 -9 75 6 90 42 18 44 -11
91 -65 107 -30 8 -41 17 -43 34 -6 41 39 47 74 9 22 -24 34 -24 34 -1 0 26
-45 62 -78 62 -16 0 -38 -9 -50 -20z"/>
<path d="M2892 556 c-9 -15 -2 -194 9 -223 15 -40 29 -25 29 32 l0 54 38 6
c54 9 64 14 57 25 -3 5 -26 10 -50 10 -38 0 -44 3 -49 25 -9 35 -1 45 39 45
43 0 65 9 65 26 0 11 -15 14 -65 13 -36 -1 -69 -7 -73 -13z"/>
</g>
</svg>
