<?xml version="1.0" standalone="no"?>
<!DOCTYPE svg PUBLIC "-//W3C//DTD SVG 20010904//EN"
 "http://www.w3.org/TR/2001/REC-SVG-20010904/DTD/svg10.dtd">
<svg version="1.0" xmlns="http://www.w3.org/2000/svg"
 width="559.000000pt" height="616.000000pt" viewBox="0 0 559.000000 616.000000"
 preserveAspectRatio="xMidYMid meet">

<g transform="translate(0.000000,616.000000) scale(0.100000,-0.100000)"
fill="#000000" stroke="none">
<path d="M0 3080 l0 -3080 2795 0 2795 0 0 3080 0 3080 -2795 0 -2795 0 0
-3080z m2698 2978 c9 -9 15 -9 24 0 8 8 48 12 113 12 65 0 105 -4 113 -12 9
-9 15 -9 24 0 15 15 102 15 145 0 41 -15 46 -31 34 -110 -21 -133 -21 -145 -7
-157 11 -10 18 -7 31 11 14 20 16 20 13 4 -5 -30 -34 -44 -53 -25 -14 13 -14
28 -5 110 6 52 13 101 16 110 8 28 -22 46 -90 53 -45 5 -70 4 -85 -6 -16 -10
-23 -10 -33 0 -20 20 -187 16 -210 -5 -17 -15 -19 -15 -37 1 -16 15 -30 17
-73 11 -38 -4 -49 -3 -38 4 21 15 103 14 118 -1z m-156 -19 c-22 -8 -23 -12
-15 -56 4 -27 8 -84 8 -128 0 -79 0 -80 -25 -80 -28 0 -29 3 -52 155 l-13 85
-54 3 c-43 2 -61 -1 -82 -17 -15 -12 -34 -18 -43 -15 -19 7 -144 -24 -175 -43
-13 -9 -40 -16 -60 -18 -53 -2 -131 -40 -131 -62 0 -11 5 -24 12 -31 6 -6 9
-14 6 -18 -11 -11 -30 37 -24 61 3 12 14 25 23 28 10 4 41 15 68 25 28 10 56
17 63 14 7 -2 19 2 27 8 18 15 148 52 193 55 18 1 38 7 44 13 7 7 40 12 75 12
60 0 63 -1 69 -27 3 -16 9 -39 14 -53 5 -14 11 -56 13 -93 5 -75 9 -82 32 -73
17 6 17 61 -1 189 -8 59 -1 77 28 76 l23 0 -23 -10z m827 -24 c8 -8 28 -11 51
-8 22 3 40 1 44 -6 4 -6 18 -11 30 -11 27 0 92 -25 101 -39 3 -6 12 -8 21 -4
8 3 36 -2 62 -12 87 -31 92 -35 92 -76 0 -21 -4 -41 -10 -44 -5 -3 -10 -14
-10 -23 0 -9 -12 -39 -25 -67 -28 -56 -32 -95 -11 -95 11 0 56 76 56 94 0 3
14 34 30 70 37 80 47 82 158 30 140 -66 182 -95 182 -126 0 -25 -30 -89 -70
-148 -9 -14 -22 -40 -29 -57 -8 -18 -35 -57 -62 -85 -27 -29 -67 -90 -90 -135
-22 -45 -44 -85 -49 -88 -5 -3 -6 -21 -3 -41 5 -31 1 -40 -29 -72 -20 -22 -42
-60 -52 -91 l-16 -55 32 -33 c17 -18 38 -33 45 -33 16 0 16 5 -1 43 -35 81
-38 94 -26 119 30 57 49 68 123 68 l69 0 66 55 c37 31 79 61 94 68 22 9 28 19
28 43 0 23 11 42 46 76 46 46 46 46 30 76 -20 39 -20 86 -1 102 9 7 37 13 63
14 26 0 50 5 54 11 5 5 6 35 4 65 -2 30 -1 44 1 30 3 -14 9 -30 14 -37 7 -7 5
-23 -5 -47 -13 -31 -18 -35 -54 -34 -21 0 -48 -6 -60 -13 -25 -16 -29 -51 -7
-69 24 -20 18 -54 -16 -86 -37 -35 -59 -75 -59 -106 0 -17 -11 -28 -41 -42
-22 -11 -65 -41 -95 -68 -54 -47 -57 -48 -122 -48 -58 0 -69 -3 -94 -27 -35
-33 -35 -62 -3 -131 27 -59 26 -72 -9 -72 -21 0 -86 61 -86 80 0 30 39 120 62
143 29 29 31 36 28 74 0 12 10 40 24 62 14 22 26 45 26 50 0 22 55 108 95 151
23 25 55 68 70 95 15 28 43 78 62 113 19 34 33 72 31 85 -2 17 -30 36 -123 84
-66 34 -130 62 -143 62 -20 1 -29 -12 -63 -86 -58 -129 -63 -138 -86 -141 -36
-5 -34 26 8 126 52 127 51 139 -26 169 -33 13 -70 21 -82 18 -13 -3 -23 -1
-23 5 0 6 -6 12 -12 15 -148 47 -158 48 -177 31 -17 -16 -19 -15 -34 7 -12 19
-27 25 -69 29 -29 3 -58 4 -63 1 -6 -2 -17 -38 -24 -81 -16 -97 -32 -138 -24
-62 3 30 10 63 14 72 5 9 9 27 9 40 0 40 18 49 85 42 33 -3 66 -12 74 -19z
m1103 -17 c-9 -9 -15 -9 -24 0 -9 9 -7 12 12 12 19 0 21 -3 12 -12z m209 -4
c7 -9 46 -32 86 -50 99 -47 143 -86 143 -129 0 -26 -7 -39 -29 -54 -16 -12
-38 -21 -49 -21 -15 0 -28 -17 -51 -65 -34 -71 -36 -86 -20 -117 7 -12 18 -47
25 -79 16 -70 6 -108 -42 -159 -44 -46 -45 -84 -4 -105 16 -8 35 -15 43 -15 7
0 30 -17 49 -37 20 -21 50 -49 68 -62 17 -13 40 -44 51 -70 41 -92 77 -146
167 -252 39 -46 43 -56 42 -102 -1 -136 27 -434 41 -443 19 -11 7 -41 -36 -96
-42 -54 -44 -60 -38 -103 3 -25 10 -48 14 -51 5 -3 9 -16 9 -29 0 -13 5 -27
10 -30 6 -3 10 -33 10 -65 0 -55 -2 -60 -32 -82 -49 -35 -78 -48 -104 -48 -28
0 -30 -11 -8 -45 9 -13 13 -33 10 -43 -4 -13 -1 -22 10 -26 13 -5 15 -16 11
-54 -10 -94 -32 -155 -67 -187 -11 -10 -20 -24 -20 -32 0 -7 -4 -13 -8 -13 -8
0 -32 -86 -32 -112 0 -20 87 99 119 162 30 61 85 130 103 130 5 0 27 12 49 27
23 15 43 22 48 17 5 -5 12 -52 15 -104 4 -52 9 -124 12 -159 3 -36 1 -81 -4
-100 -25 -88 -36 -129 -42 -166 -4 -22 -11 -49 -15 -60 -5 -13 5 -8 31 18 46
43 67 46 90 12 9 -13 23 -26 32 -29 10 -2 27 -7 38 -11 15 -4 31 3 53 21 37
31 67 26 57 -9 -4 -12 -11 -44 -16 -72 -11 -67 -53 -138 -106 -183 -24 -20
-44 -40 -44 -45 0 -5 18 -7 40 -3 32 5 40 3 40 -9 0 -11 5 -13 25 -5 34 13 43
-9 19 -45 -11 -16 -14 -29 -8 -33 6 -4 26 -29 44 -57 19 -27 37 -51 42 -53 9
-4 11 -36 2 -45 -3 -3 -14 -2 -23 3 -25 13 -92 29 -131 32 -29 3 -36 -1 -38
-17 -3 -20 -58 -53 -69 -41 -4 3 -15 -1 -25 -10 -15 -14 -32 -16 -98 -11 -49
4 -80 3 -80 -3 0 -6 10 -10 23 -10 29 -1 108 -22 127 -35 8 -5 24 -15 35 -21
55 -30 103 -58 130 -76 39 -26 115 -108 115 -124 0 -17 -101 -22 -169 -7 -31
6 -63 12 -71 12 -8 1 23 -35 69 -80 51 -49 81 -85 77 -94 -3 -8 -26 -17 -56
-21 -39 -5 -50 -10 -50 -25 0 -10 4 -20 9 -23 13 -8 22 -83 16 -120 -4 -18
-30 -60 -61 -96 l-54 -64 0 -84 c0 -120 -27 -160 -151 -223 -106 -53 -198 -72
-331 -67 -90 3 -119 1 -122 -9 -3 -7 -12 -13 -21 -13 -22 0 -19 -6 26 -60 66
-78 32 -92 -85 -35 -39 19 -95 52 -124 75 -29 22 -55 40 -57 40 -3 0 -5 -9 -5
-21 0 -11 -5 -30 -12 -42 -6 -12 -12 -53 -12 -92 -1 -66 -2 -70 -25 -73 -14
-2 -41 1 -60 6 -20 6 -56 16 -81 22 -25 7 -53 16 -62 21 -10 5 -56 9 -104 9
-47 0 -95 5 -106 11 -17 9 -23 8 -30 -4 -7 -13 -24 -15 -94 -11 -67 3 -98 11
-148 34 -35 17 -68 30 -74 30 -6 0 -13 -12 -17 -28 -3 -15 -18 -41 -33 -57
-28 -31 -45 -41 -123 -71 -69 -27 -91 -96 -48 -155 36 -51 4 -64 -72 -28 -24
12 -78 42 -119 67 l-75 46 -260 9 -260 9 -130 -72 c-71 -40 -140 -82 -152 -93
-20 -18 -23 -18 -29 -4 -5 15 9 93 34 189 9 34 8 38 -12 43 -11 4 -30 10 -41
14 -11 5 -38 14 -60 20 -82 25 -130 57 -146 99 -8 20 -11 21 -31 10 -59 -32
-94 -37 -238 -33 -80 2 -170 7 -201 11 -37 4 -96 0 -180 -14 -207 -34 -229
-36 -229 -14 0 10 11 28 25 41 23 19 25 27 20 63 -4 23 -11 50 -16 60 -5 9 -9
27 -9 39 0 20 -1 21 -17 7 -45 -39 -147 -64 -285 -70 -94 -5 -82 17 39 76 27
13 27 15 8 40 -13 18 -17 17 -92 -20 l-78 -39 -125 1 c-114 0 -130 3 -185 28
-77 35 -102 59 -131 124 -26 56 -32 140 -14 187 5 14 10 48 11 76 2 46 -1 53
-38 92 -54 56 -73 96 -73 155 0 59 18 79 104 117 59 26 59 26 38 45 -11 11
-28 32 -38 48 -15 27 -138 112 -161 112 -6 0 -16 7 -23 15 -10 13 -7 17 23 30
20 8 45 15 55 15 11 0 25 7 32 15 10 12 6 19 -20 41 -34 29 -130 151 -130 166
0 5 29 6 65 2 42 -4 74 -3 94 6 40 16 95 17 123 1 19 -10 29 -9 52 3 25 13 26
15 9 20 -22 7 -51 44 -102 126 -50 82 -121 224 -121 243 0 9 -13 42 -30 74
-16 31 -30 61 -30 65 0 18 48 8 119 -26 19 -8 25 -8 28 2 6 17 48 15 62 -2 11
-13 15 -12 32 5 18 18 18 22 5 47 -7 15 -19 52 -26 82 -7 30 -19 63 -27 72
-11 12 -13 26 -7 50 4 18 6 48 5 67 -1 18 4 39 10 47 7 9 11 46 10 99 -2 102
9 109 71 45 l38 -41 0 29 c0 34 38 95 63 100 13 3 17 -3 17 -23 0 -19 20 -45
74 -99 41 -41 84 -77 95 -81 13 -4 35 -36 60 -88 38 -78 40 -80 40 -45 1 20
-3 39 -8 42 -4 3 -11 34 -14 68 -31 321 -35 383 -30 474 6 101 6 102 -18 109
-42 13 -59 35 -59 79 0 27 -14 69 -45 133 -25 50 -45 99 -45 108 0 8 -4 23 -9
33 -84 172 -83 168 -72 208 12 43 36 82 63 102 10 7 18 22 18 33 0 10 4 27 9
37 30 57 46 112 44 150 -1 25 7 63 18 89 10 24 19 55 19 68 0 29 61 91 110
112 24 10 51 12 88 8 29 -4 58 -2 65 3 7 5 33 17 60 27 30 11 47 24 47 34 0
24 -20 41 -50 41 -48 1 -64 24 -65 92 -1 58 -3 63 -30 79 -17 10 -37 18 -45
18 -9 1 -24 10 -33 22 -18 20 -17 22 9 56 15 20 40 43 55 52 16 9 32 25 37 36
14 30 32 112 32 143 0 51 33 123 76 161 42 39 135 81 180 81 57 0 114 -55 114
-110 0 -11 6 -20 14 -20 23 0 96 -87 96 -115 0 -16 12 -36 31 -53 31 -28 31
-29 19 -68 -7 -21 -22 -52 -33 -68 -16 -23 -19 -41 -17 -95 5 -99 2 -139 -14
-164 -7 -12 -16 -34 -20 -49 -6 -25 -3 -28 18 -28 14 0 28 -4 31 -10 10 -16
34 -12 66 11 22 15 46 21 87 22 51 0 64 -5 127 -45 39 -25 77 -58 85 -74 17
-33 89 -114 102 -114 18 0 6 25 -27 57 -26 25 -35 43 -35 66 0 31 -65 179 -82
185 -4 2 -8 11 -8 19 0 8 -24 41 -52 72 -29 31 -64 79 -78 106 -14 28 -33 59
-42 69 -10 11 -18 25 -18 32 0 6 -7 17 -15 24 -23 19 -19 67 8 84 33 21 148
84 177 97 14 5 38 17 54 25 51 25 65 12 119 -116 50 -118 54 -123 76 -97 8 10
6 24 -9 55 -11 23 -20 47 -20 55 0 7 -5 18 -11 24 -6 6 -9 17 -7 24 2 7 19
-25 38 -71 32 -80 33 -83 15 -97 -26 -18 -37 -13 -57 28 -32 62 -58 123 -58
133 0 6 -10 24 -23 39 l-23 29 -64 -31 c-36 -17 -72 -35 -80 -40 -48 -28 -97
-53 -113 -58 -30 -9 -31 -47 -2 -93 25 -40 43 -70 86 -147 11 -21 40 -58 64
-83 54 -56 135 -214 135 -263 0 -27 7 -41 29 -59 15 -14 36 -42 46 -64 9 -21
21 -47 26 -56 15 -28 11 -40 -23 -75 -21 -22 -41 -33 -60 -33 -15 0 -28 2 -28
5 0 3 16 20 35 37 64 56 64 61 -9 136 -35 37 -75 82 -88 101 -13 18 -50 49
-83 67 -72 40 -125 44 -191 13 -37 -18 -53 -20 -87 -13 -35 8 -42 13 -45 36
-2 14 6 45 18 68 12 23 21 56 20 73 -1 18 -1 49 -1 70 0 22 -4 48 -10 59 -9
17 -6 25 19 52 21 22 31 45 35 78 6 41 4 48 -17 62 -14 8 -27 30 -31 48 -10
44 -42 84 -82 103 -27 13 -33 22 -33 46 0 19 -10 39 -26 56 -23 23 -31 25 -83
20 -93 -8 -177 -62 -206 -131 -7 -17 -16 -53 -20 -81 -16 -127 -25 -147 -88
-206 -58 -55 -66 -75 -36 -89 48 -23 85 -45 91 -54 4 -6 8 -33 8 -60 0 -55 20
-86 55 -86 13 0 33 -9 46 -19 28 -23 20 -46 -27 -71 -68 -38 -106 -47 -150
-38 -37 8 -51 6 -89 -13 -25 -12 -52 -30 -61 -40 -24 -27 -73 -180 -67 -211 3
-15 -5 -55 -20 -97 -28 -77 -37 -95 -85 -166 -39 -59 -41 -95 -7 -161 14 -27
37 -83 51 -124 14 -41 41 -104 60 -140 23 -44 34 -78 34 -106 0 -34 5 -47 26
-63 15 -12 32 -21 39 -21 22 0 25 -29 19 -156 -9 -161 8 -339 57 -587 22 -112
5 -116 -36 -7 -16 44 -32 80 -36 80 -4 0 -9 11 -13 23 -9 36 -45 77 -61 70 -8
-3 -15 0 -15 7 0 7 -32 45 -70 84 -43 45 -70 81 -70 94 0 31 -12 27 -38 -13
-24 -38 -29 -84 -10 -103 9 -9 9 -12 -1 -12 -7 0 -31 20 -53 45 -58 63 -66 60
-63 -27 1 -47 -3 -83 -12 -101 -9 -18 -11 -33 -5 -44 6 -11 5 -28 -5 -51 -13
-32 -13 -36 7 -57 13 -14 24 -43 29 -76 10 -74 29 -108 78 -144 23 -16 42 -33
42 -37 2 -19 -56 -6 -82 20 -20 18 -31 23 -34 15 -6 -18 -23 -16 -45 4 -15 13
-22 14 -41 4 -19 -10 -32 -9 -75 7 -28 11 -53 17 -56 15 -3 -3 3 -22 13 -42
10 -20 26 -60 36 -90 36 -111 165 -326 212 -356 36 -22 42 -35 16 -35 -9 0
-24 -7 -34 -16 -16 -14 -20 -14 -43 1 -19 13 -37 15 -68 11 -24 -4 -78 -9
-120 -12 -43 -4 -78 -9 -78 -13 0 -4 36 -45 80 -91 80 -85 80 -85 59 -103 -12
-9 -39 -20 -60 -23 -22 -4 -42 -10 -44 -15 -3 -4 26 -24 65 -45 39 -20 84 -53
101 -73 16 -20 41 -48 55 -62 28 -30 24 -36 -45 -63 -81 -32 -101 -52 -101
-102 0 -54 38 -134 75 -158 45 -29 49 -53 30 -161 -24 -132 -13 -187 53 -255
63 -64 129 -84 273 -84 106 0 106 0 204 47 91 44 125 53 97 25 -19 -19 -14
-28 15 -28 24 0 25 -2 13 -14 -8 -7 -37 -26 -65 -41 -27 -15 -54 -31 -60 -36
-14 -14 69 -11 160 5 98 18 127 28 154 57 11 12 23 20 26 17 3 -2 14 -40 25
-82 20 -80 18 -99 -14 -126 -44 -36 1 -39 171 -10 95 16 149 19 273 15 85 -3
178 -8 205 -11 37 -4 66 0 110 16 98 35 95 34 95 13 0 -21 41 -62 80 -81 14
-6 61 -23 105 -37 44 -15 81 -28 83 -29 1 -2 -7 -40 -18 -85 -12 -44 -20 -92
-18 -105 l3 -24 55 32 c30 18 94 53 142 79 l87 47 138 -1 c76 0 197 -4 268 -8
127 -7 131 -8 186 -43 75 -49 187 -104 195 -95 4 3 -1 19 -11 33 -10 15 -18
43 -18 63 -2 56 25 86 102 116 75 28 105 54 122 105 7 19 17 38 22 41 5 4 42
-9 83 -27 62 -29 84 -34 148 -34 44 0 78 5 82 11 4 7 18 8 38 4 17 -4 72 -11
121 -15 50 -3 136 -19 193 -34 56 -15 107 -24 113 -20 6 3 8 26 4 58 -5 38 -2
63 9 90 9 21 16 47 16 57 0 33 21 32 58 -4 21 -19 55 -46 77 -59 41 -24 141
-68 156 -68 18 0 8 24 -31 70 -46 55 -48 60 -20 60 11 0 20 5 20 10 0 6 -5 10
-12 10 -7 0 -8 3 -2 9 5 5 59 4 126 -2 106 -10 124 -9 203 11 155 38 249 95
281 169 8 18 14 66 14 106 l0 74 54 68 c69 87 79 138 40 213 -19 36 -8 50 47
57 27 4 49 12 49 17 0 13 -107 119 -145 144 l-27 18 23 8 c14 6 49 5 85 -1 77
-14 154 -14 154 -1 0 6 -18 30 -40 54 -72 78 -288 186 -372 186 -31 0 -39 24
-11 34 10 4 51 4 93 0 63 -5 78 -3 89 10 7 9 25 16 40 16 33 0 47 9 55 38 9
27 40 29 112 7 80 -24 92 -18 53 26 -11 13 -28 36 -37 52 -9 15 -20 27 -24 27
-12 0 -10 34 3 47 16 16 3 32 -21 26 -11 -3 -20 0 -20 6 0 7 -21 11 -55 11
-59 0 -67 7 -33 30 79 54 140 133 151 195 17 95 18 105 6 105 -7 0 -23 -10
-35 -21 -30 -29 -83 -19 -121 21 -15 17 -30 30 -33 30 -3 0 -27 -18 -54 -40
-27 -22 -50 -39 -52 -37 -2 2 2 23 10 48 8 24 26 98 40 165 23 104 25 127 16
169 -6 27 -13 89 -15 139 -2 50 -4 92 -4 94 -1 2 -16 -8 -34 -22 -19 -15 -37
-26 -41 -26 -24 0 -68 -48 -94 -102 -17 -35 -53 -94 -81 -132 -48 -64 -51 -73
-51 -127 0 -33 -4 -59 -10 -59 -6 0 -10 39 -10 98 0 104 16 158 62 206 25 27
37 55 54 135 14 68 12 81 -13 81 -12 0 -14 7 -8 36 5 27 2 41 -11 55 -14 15
-14 21 -4 34 7 8 21 15 31 15 20 0 84 33 112 58 22 19 22 77 1 128 -9 22 -22
63 -29 92 l-13 54 50 66 50 65 -17 37 c-15 34 -29 185 -38 426 -2 51 -8 68
-32 99 -92 116 -140 188 -170 252 -24 52 -41 76 -64 87 -17 9 -38 27 -46 40
-9 13 -41 34 -71 46 -44 18 -56 28 -62 54 -11 40 -7 50 33 80 47 36 56 106 25
190 -26 67 -23 96 15 179 21 44 31 57 49 57 12 0 35 13 50 29 28 29 28 29 11
65 -15 30 -32 44 -100 77 -45 22 -93 49 -106 60 -33 28 -86 21 -180 -23 -41
-20 -85 -39 -97 -43 -14 -4 -30 -21 -38 -41 -13 -32 -13 -37 6 -62 16 -22 19
-34 12 -53 -5 -13 -8 -40 -6 -59 4 -32 3 -33 -6 -11 -6 14 -8 43 -4 66 4 31 2
44 -10 54 -40 34 3 109 75 130 23 7 54 20 68 30 54 35 67 40 117 40 36 1 56
-4 65 -15z m-1895 -10 c-3 -9 -6 -18 -6 -20 0 -2 -7 -4 -15 -4 -18 0 -19 12
-3 28 17 17 31 15 24 -4z m119 6 c3 -5 1 -10 -4 -10 -6 0 -11 5 -11 10 0 6 2
10 4 10 3 0 8 -4 11 -10z m-235 -15 c18 -21 11 -25 -51 -28 -42 -1 -54 1 -54
13 0 27 85 39 105 15z m399 9 c22 -5 31 -12 31 -26 0 -18 -5 -19 -52 -13 -61
8 -62 9 -55 30 7 16 27 19 76 9z m-649 -43 c0 -17 -33 -31 -77 -31 -24 0 -10
34 17 41 45 12 60 10 60 -10z m906 9 c8 0 14 -10 14 -23 0 -23 -1 -23 -50 -13
-47 9 -60 22 -43 40 5 4 21 5 37 2 16 -3 35 -6 42 -6z m-2121 -16 c8 -4 22
-19 31 -35 14 -28 14 -30 -11 -39 -38 -14 -65 -12 -65 5 0 8 7 15 15 15 21 0
19 16 -5 33 -30 21 -5 36 35 21z m1063 -27 c2 -11 -6 -18 -25 -22 -15 -3 -45
-11 -66 -17 -39 -12 -62 -3 -49 19 7 11 108 42 127 38 6 -1 11 -9 13 -18z
m1188 14 c16 -5 41 -12 57 -15 18 -4 27 -13 27 -26 0 -24 6 -24 -72 -4 -78 20
-82 22 -67 40 14 17 17 17 55 5z m-2372 -46 c-36 -33 -38 -37 -21 -49 21 -16
22 -30 1 -47 -24 -20 -54 -85 -54 -119 0 -39 -16 -39 -24 1 -23 117 40 245
123 248 8 1 -3 -15 -25 -34z m1648 3 c-9 -9 -15 -9 -24 0 -10 10 -10 15 2 22
20 12 38 -6 22 -22z m-94 -1 c3 -15 -2 -18 -29 -15 -36 3 -50 24 -22 31 30 8
48 3 51 -16z m436 17 c30 -12 18 -34 -19 -34 -28 0 -35 4 -35 20 0 20 22 26
54 14z m-1006 -44 c2 -11 -12 -20 -43 -29 -53 -16 -84 -9 -65 14 7 8 21 15 31
15 10 0 21 5 24 11 10 15 49 7 53 -11z m362 5 c0 -9 -7 -18 -16 -22 -18 -7
-39 11 -30 26 11 17 46 13 46 -4z m865 -5 c0 -17 -34 -24 -54 -11 -7 5 -10 14
-6 20 10 17 60 9 60 -9z m380 6 c72 -25 53 -56 -23 -36 -54 15 -67 24 -58 39
9 15 33 14 81 -3z m-1348 -22 c4 -12 -82 -45 -92 -36 -13 13 -3 31 23 41 33
12 64 10 69 -5z m1089 1 c15 -11 16 -16 6 -23 -15 -10 -60 -4 -68 9 -17 28 30
38 62 14z m-699 -31 c9 -24 -16 -34 -77 -32 -41 2 -55 7 -55 18 0 10 14 17 40
21 70 11 85 9 92 -7z m317 10 c36 -5 46 -11 46 -25 0 -16 -8 -19 -52 -19 -60
0 -84 11 -75 34 7 18 14 19 81 10z m514 -9 c21 -6 29 -25 16 -37 -7 -8 -64 8
-77 21 -13 13 2 33 21 27 10 -2 27 -7 40 -11z m-1383 -14 c0 -9 -60 -39 -82
-41 -2 0 -3 9 -3 19 0 12 11 23 28 29 34 13 57 11 57 -7z m283 -22 c3 -15 -53
-39 -92 -39 -29 0 -19 39 12 46 15 3 32 7 37 9 20 7 40 -1 43 -16z m876 1 c14
-5 26 -14 26 -20 0 -19 -29 -22 -80 -10 -40 10 -50 16 -50 32 0 18 4 20 39 14
22 -3 51 -10 65 -16z m-1496 -12 c2 -11 -12 -22 -43 -33 -25 -10 -48 -15 -51
-12 -13 12 6 37 38 51 39 17 52 15 56 -6z m2068 10 c35 -13 47 -28 35 -46 -10
-16 -91 23 -91 43 0 18 13 19 56 3z m-218 -21 c3 -14 -1 -18 -20 -15 -12 2
-24 11 -26 21 -3 14 1 18 20 15 12 -2 24 -11 26 -21z m-1650 -4 c-2 -10 -10
-18 -18 -18 -8 0 -16 8 -18 18 -2 12 3 17 18 17 15 0 20 -5 18 -17z m246 -9
c6 -16 -46 -44 -84 -44 -32 0 -26 38 8 46 15 3 32 7 37 9 22 7 33 4 39 -11z
m1200 -4 c13 -13 -3 -30 -28 -30 -31 0 -50 22 -34 38 12 12 45 7 62 -8z m-454
-41 c0 -22 -5 -29 -20 -29 -15 0 -20 7 -20 28 0 34 7 43 26 35 8 -3 14 -18 14
-34z m-335 10 c8 -25 -6 -42 -31 -37 -12 2 -20 13 -22 31 -3 23 0 27 22 27 16
0 27 -7 31 -21z m425 -9 c0 -37 30 -41 53 -7 18 27 32 17 23 -18 -5 -20 -12
-25 -39 -25 -48 0 -72 20 -63 53 9 36 26 34 26 -3z m-1430 -5 c0 -18 -65 -49
-87 -41 -14 6 -15 9 -2 21 21 20 71 45 81 39 4 -3 8 -11 8 -19z m890 -30 c-7
-8 -28 -15 -46 -15 -28 0 -34 4 -34 22 0 17 3 19 12 10 7 -7 22 -12 35 -12 18
0 23 6 24 28 0 26 1 26 11 5 8 -17 8 -26 -2 -38z m220 13 c0 -11 -21 -10 -39
1 -8 5 -11 16 -7 26 6 17 8 17 26 0 11 -10 20 -22 20 -27z m836 20 c23 -11 32
-32 16 -41 -4 -3 -31 2 -60 11 -39 12 -52 21 -52 35 0 17 5 18 36 12 20 -3 47
-11 60 -17z m419 5 c34 -16 45 -36 26 -47 -10 -7 -91 31 -91 43 0 25 19 26 65
4z m-2181 -8 c7 -18 -74 -59 -88 -44 -11 10 0 25 36 44 31 18 45 18 52 0z
m253 -2 c5 -14 -65 -46 -84 -39 -22 9 -14 34 15 45 34 12 64 10 69 -6z m1747
2 c37 -16 45 -28 25 -41 -11 -7 -89 24 -89 36 0 9 11 20 20 20 4 0 24 -7 44
-15z m-1440 -21 c8 -31 -5 -49 -28 -41 -16 6 -22 48 -9 60 14 15 31 6 37 -19z
m869 14 c5 -16 -9 -58 -20 -58 -23 1 -35 19 -29 44 7 27 40 37 49 14z m-975
-47 c3 -27 0 -32 -15 -29 -19 3 -28 30 -19 54 10 26 31 10 34 -25z m1070 0 c3
-27 0 -32 -15 -29 -19 3 -28 30 -19 54 10 26 31 10 34 -25z m1266 19 c5 -5 18
-10 28 -10 10 0 18 -7 18 -16 0 -13 -6 -15 -27 -10 -72 18 -140 24 -180 17
-24 -5 -43 -6 -43 -4 0 7 24 29 40 36 22 10 151 0 164 -13z m-234 -20 c0 -11
-4 -20 -10 -20 -5 0 -10 9 -10 20 0 11 5 20 10 20 6 0 10 -9 10 -20z m-2192
-19 c4 -23 -15 -44 -30 -35 -4 3 -8 19 -8 35 0 24 4 30 18 27 9 -2 19 -14 20
-27z m1267 -1 c0 -16 -6 -26 -19 -28 -26 -5 -35 9 -25 36 12 31 44 25 44 -8z
m-1777 3 c-2 -9 -18 -25 -37 -35 -30 -17 -36 -18 -49 -5 -13 13 -10 18 24 36
48 25 66 26 62 4z m2292 2 c31 -16 41 -45 16 -45 -8 0 -29 8 -48 18 -18 9 -35
18 -37 19 -1 1 0 6 4 12 9 15 31 14 65 -4z m-2112 -19 c3 -12 -1 -17 -10 -14
-7 3 -15 13 -16 22 -3 12 1 17 10 14 7 -3 15 -13 16 -22z m1046 18 c20 -8 21
-34 2 -34 -17 0 -38 24 -29 33 8 8 8 8 27 1z m846 -9 c0 -8 -4 -15 -10 -15 -5
0 -10 7 -10 15 0 8 5 15 10 15 6 0 10 -7 10 -15z m-2830 -16 c0 -12 -10 -39
-22 -60 -18 -32 -27 -39 -52 -39 l-30 0 30 32 c16 18 35 38 42 46 6 7 12 20
12 28 0 8 5 14 10 14 6 0 10 -10 10 -21z m1164 5 c9 -24 7 -44 -4 -44 -12 0
-30 41 -23 53 7 12 21 8 27 -9z m516 -4 c0 -13 -7 -20 -20 -20 -22 0 -28 25
-7 33 22 10 27 7 27 -13z m88 8 c-6 -18 -28 -21 -28 -4 0 9 7 16 16 16 9 0 14
-5 12 -12z m153 -17 c27 -27 29 -35 29 -100 0 -38 -4 -73 -10 -76 -6 -4 -10
21 -10 69 0 65 -3 78 -22 96 -27 25 -59 26 -88 2 -19 -15 -23 -30 -26 -88 -1
-38 -3 -73 -3 -77 -1 -5 -5 -5 -11 -2 -17 11 -12 128 7 155 41 59 88 66 134
21z m197 6 c3 -15 -2 -18 -25 -15 -17 2 -29 10 -31 21 -3 15 2 18 25 15 17 -2
29 -10 31 -21z m512 10 c0 -7 -6 -22 -14 -33 -20 -27 -43 -6 -27 25 13 23 41
29 41 8z m-2337 -17 c12 -11 38 -26 59 -32 37 -11 53 -38 22 -38 -8 0 -12 -4
-9 -10 3 -5 15 -10 26 -10 10 0 19 -4 19 -10 0 -5 -10 -10 -23 -10 -33 0 -70
-37 -63 -64 3 -11 6 -29 6 -39 0 -10 5 -15 10 -12 6 3 10 15 10 25 0 26 15 33
41 20 15 -8 19 -18 16 -33 -11 -47 -50 -143 -64 -159 -19 -21 -101 -25 -125
-5 -9 6 -23 39 -30 72 -15 59 -15 60 -53 63 -21 2 -44 9 -51 17 -21 21 -18 72
5 85 15 7 21 23 23 57 3 46 4 48 58 75 66 33 94 35 123 8z m3411 2 c27 -9 51
-23 54 -30 4 -13 -30 -11 -131 9 -36 7 -65 5 -114 -6 -36 -9 -67 -14 -69 -13
-6 7 25 38 47 47 40 16 160 13 213 -7z m-2846 -15 c5 -23 -44 -45 -61 -28 -9
9 -7 16 13 31 28 22 44 21 48 -3z m720 11 c-7 -20 -58 -23 -58 -4 0 11 10 16
31 16 20 0 29 -4 27 -12z m642 -3 c0 -16 -35 -21 -44 -6 -8 12 4 21 26 21 10
0 18 -7 18 -15z m713 3 c27 -13 35 -32 17 -43 -10 -6 -70 24 -70 35 0 9 12 20
20 20 3 0 18 -6 33 -12z m-1843 -44 c0 -15 -27 -26 -35 -14 -3 5 -1 11 4 14 5
3 7 16 4 29 -4 21 -4 22 11 3 9 -11 16 -25 16 -32z m1210 31 c0 -8 -4 -15 -10
-15 -5 0 -10 7 -10 15 0 8 5 15 10 15 6 0 10 -7 10 -15z m-840 -10 c0 -8 -8
-15 -19 -15 -10 0 -24 7 -31 15 -11 13 -8 15 19 15 21 0 31 -5 31 -15z m981
-26 c29 -31 39 -81 19 -94 -5 -3 -10 -17 -10 -30 0 -13 -4 -27 -10 -30 -5 -3
-10 -15 -10 -26 0 -10 -4 -19 -10 -19 -5 0 -10 6 -10 14 0 8 5 18 10 21 6 3
10 17 10 30 0 13 5 27 10 30 15 9 12 58 -6 83 -11 16 -25 22 -54 22 -46 0 -68
-25 -95 -108 -10 -30 -23 -52 -31 -52 -11 0 -12 5 -4 20 5 11 15 29 20 40 6
11 10 28 10 39 0 21 44 69 75 82 36 14 57 9 86 -22z m304 -9 c-24 -27 -39 -15
-18 15 11 14 22 20 27 14 6 -5 2 -16 -9 -29z m-1729 13 c19 -25 17 -33 -6 -33
-11 0 -20 4 -20 9 0 5 -3 16 -6 25 -8 22 15 20 32 -1z m372 -9 c12 -8 32 -36
44 -62 11 -26 25 -55 29 -64 11 -22 11 -38 0 -38 -4 0 -16 21 -25 48 -28 75
-39 93 -68 108 -32 17 -71 6 -87 -25 -13 -24 -14 -78 -2 -85 5 -3 11 -16 14
-28 2 -13 8 -32 12 -43 6 -17 4 -17 -14 4 -12 13 -21 34 -21 47 0 12 -4 26
-10 29 -14 9 -12 77 3 96 31 40 75 45 125 13z m1302 6 c0 -5 -5 -10 -11 -10
-5 0 -7 5 -4 10 3 6 8 10 11 10 2 0 4 -4 4 -10z m929 4 c41 -9 39 -18 -8 -32
-87 -27 -150 -5 -70 24 42 16 40 15 78 8z m-2874 -25 c0 -7 -8 -15 -17 -17
-18 -3 -25 18 -11 32 10 10 28 1 28 -15z m1283 -12 c2 -19 -1 -27 -13 -27 -19
0 -30 24 -21 46 9 23 31 11 34 -19z m500 15 c2 -7 -3 -12 -12 -12 -9 0 -16 7
-16 16 0 17 22 14 28 -4z m323 8 c22 -12 24 -29 6 -54 -12 -16 -16 -17 -35 -5
-30 19 -29 69 0 69 5 0 18 -5 29 -10z m189 -4 c0 -16 -18 -31 -27 -22 -8 8 5
36 17 36 5 0 10 -6 10 -14z m-2104 -20 c7 -30 1 -42 -26 -49 -16 -4 -23 1 -31
19 -13 35 -12 42 9 47 34 9 42 7 48 -17z m804 5 c0 -23 -15 -35 -35 -27 -20 7
-7 46 16 46 12 0 19 -7 19 -19z m414 -1 c14 -14 -4 -30 -35 -30 -21 0 -29 5
-29 18 0 10 3 22 7 25 7 8 43 -1 57 -13z m-934 1 c0 -5 -6 -14 -14 -20 -16
-13 -32 2 -21 19 8 12 35 13 35 1z m420 -11 c0 -16 -7 -20 -30 -20 -23 0 -30
4 -30 20 0 16 7 20 30 20 23 0 30 -4 30 -20z m2088 8 c15 -15 14 -75 -1 -150
-13 -60 -56 -118 -87 -118 -9 0 -27 -11 -39 -24 -13 -13 -35 -27 -49 -31 l-27
-7 24 -17 c23 -18 24 -18 60 18 66 65 104 75 113 29 4 -20 -122 -121 -136
-108 -5 5 -15 6 -23 3 -8 -3 -34 5 -59 17 -33 18 -44 29 -44 47 0 20 4 23 28
17 l27 -6 -27 24 c-34 30 -48 59 -48 100 0 18 -4 48 -10 67 -7 26 -6 39 5 55
8 11 15 31 15 43 0 24 14 31 26 12 9 -15 132 -6 166 12 12 7 30 16 38 20 22
11 34 11 48 -3z m-1490 -20 c-5 -32 -28 -35 -28 -4 0 17 5 26 16 26 10 0 14
-7 12 -22z m386 9 c15 -11 15 -15 4 -24 -16 -14 -54 9 -43 26 8 14 17 14 39
-2z m-2614 -6 c0 -14 -18 -23 -30 -16 -6 4 -8 11 -5 16 8 12 35 12 35 0z
m1517 -7 c3 -9 0 -20 -8 -24 -17 -11 -49 6 -49 25 0 21 49 19 57 -1z m1824
-27 c7 -82 -12 -106 -30 -39 -17 57 -14 82 8 82 15 0 20 -9 22 -43z m430 30
c-1 -12 -15 -9 -19 4 -3 6 1 10 8 8 6 -3 11 -8 11 -12z m-2653 -14 c-5 -25
-28 -28 -28 -4 0 12 6 21 16 21 9 0 14 -7 12 -17z m1836 1 c22 -8 20 -27 -4
-49 -19 -17 -22 -17 -36 -3 -10 10 -14 23 -9 37 6 21 21 26 49 15z m426 -10
c0 -8 -4 -12 -10 -9 -5 3 -10 10 -10 16 0 5 5 9 10 9 6 0 10 -7 10 -16z
m-2565 -14 c13 -40 -19 -54 -48 -22 -13 14 -14 21 -5 30 18 18 46 14 53 -8z
m1914 1 c14 -11 20 -21 13 -25 -15 -9 -62 14 -62 31 0 18 21 16 49 -6z m-2349
-6 c0 -8 -4 -15 -10 -15 -5 0 -10 7 -10 15 0 8 5 15 10 15 6 0 10 -7 10 -15z
m645 -5 c-3 -5 -10 -10 -16 -10 -5 0 -9 5 -9 10 0 6 7 10 16 10 8 0 12 -4 9
-10z m1021 -10 c15 0 24 -6 24 -15 0 -17 -75 -22 -85 -5 -9 15 5 32 22 26 8
-3 26 -6 39 -6z m482 -18 c3 -16 -2 -22 -17 -22 -24 0 -33 13 -25 35 9 23 38
14 42 -13z m-1314 1 c4 -9 3 -20 -2 -25 -11 -11 -36 17 -27 32 9 15 22 12 29
-7z m514 5 c-3 -7 -23 -14 -46 -16 -33 -2 -42 0 -42 12 0 12 11 16 46 16 32 0
44 -4 42 -12z m-778 -13 c0 -8 -6 -15 -14 -15 -17 0 -28 14 -19 24 12 12 33 6
33 -9z m634 6 c10 -16 -22 -32 -56 -29 -42 4 -39 21 4 29 18 4 36 7 40 8 4 0
9 -3 12 -8z m612 -2 c3 -6 2 -15 -3 -20 -12 -12 -53 1 -53 17 0 17 46 19 56 3z
m622 0 c-2 -6 -8 -10 -13 -10 -5 0 -11 4 -13 10 -2 6 4 11 13 11 9 0 15 -5 13
-11z m-1690 -35 c-4 -23 -37 -31 -49 -12 -6 9 -1 19 14 30 24 19 41 10 35 -18z
m1516 21 c16 -12 17 -17 6 -30 -16 -19 -34 -19 -54 0 -33 34 9 60 48 30z
m1113 -32 c-9 -9 -20 -13 -24 -9 -4 4 -1 11 7 16 25 16 35 11 17 -7z m-2835
-20 c23 -26 68 -109 68 -127 0 -17 -20 8 -41 52 -31 63 -48 80 -95 91 l-39 9
41 1 c32 1 45 -5 66 -26z m1817 -14 c-9 -19 -31 -23 -30 -6 1 4 1 16 1 27 0
18 3 19 20 10 17 -9 18 -14 9 -31z m161 31 c0 -5 -15 -10 -32 -10 -40 -1 -68
-23 -91 -71 -14 -31 -47 -70 -47 -57 0 3 11 26 24 52 37 73 63 96 108 96 21 0
38 -4 38 -10z m484 -43 c8 -17 27 -93 41 -167 14 -74 30 -143 36 -152 5 -10 9
-31 9 -48 0 -16 5 -50 12 -75 7 -24 8 -48 4 -52 -15 -15 -58 85 -57 130 1 15
-5 40 -13 55 l-15 27 0 -35 c0 -19 6 -52 13 -73 8 -22 10 -40 4 -43 -16 -10
-35 15 -41 54 -4 20 -11 57 -17 82 -6 25 -13 68 -16 95 -4 28 -10 58 -15 67
-5 9 -9 34 -9 55 l1 38 19 -24 20 -23 0 30 c0 53 -53 67 -66 17 -5 -22 56
-376 76 -441 6 -17 10 -41 10 -55 0 -13 7 -56 15 -94 8 -39 24 -117 35 -175
25 -127 35 -155 68 -180 29 -24 42 -25 67 -6 20 14 19 22 -26 174 -11 35 -16
68 -13 73 10 16 34 9 34 -10 0 -32 32 -146 42 -152 6 -4 18 -4 28 -2 30 8 60
-31 60 -77 0 -22 -3 -40 -7 -40 -15 0 -63 55 -63 72 0 10 -4 18 -10 18 -13 0
15 -88 37 -112 23 -25 66 -48 92 -48 50 0 24 -21 -56 -45 -49 -14 -97 -30
-108 -34 -11 -5 -31 -4 -45 1 l-25 9 22 17 c12 9 34 25 48 35 18 13 25 27 25
53 l0 34 -52 -6 c-47 -5 -55 -3 -76 18 -12 14 -33 63 -47 114 -14 49 -30 103
-35 119 -11 39 -46 214 -79 400 -6 33 -22 117 -36 186 -33 168 -33 170 16 213
48 41 68 37 93 -17z m-2364 34 c0 -5 3 -16 6 -25 4 -12 0 -16 -15 -16 -26 0
-40 28 -20 41 18 11 29 11 29 0z m1491 -13 c22 -6 39 -17 39 -25 0 -16 0 -16
-56 -2 -43 11 -51 18 -37 32 8 9 9 9 54 -5z m-1266 -8 c7 -11 -46 -40 -75 -40
-30 0 -24 18 13 34 39 17 54 19 62 6z m-1110 -8 c16 -11 35 -60 35 -92 0 -24
-5 -29 -27 -32 -25 -4 -26 -5 -8 -13 35 -14 55 -37 55 -62 0 -13 -6 -23 -14
-23 -14 0 -66 44 -66 57 -4 66 -12 118 -20 133 -6 10 -10 23 -10 29 0 12 40
15 55 3z m2530 -39 c30 -15 49 -43 28 -43 -21 0 -93 37 -93 48 0 17 23 15 65
-5z m-1565 -13 c0 -12 -60 -41 -71 -34 -17 10 -8 25 23 39 33 13 48 12 48 -5z
m725 0 c0 -9 -11 -16 -28 -18 -39 -5 -58 4 -51 23 9 22 79 17 79 -5z m133 -2
c3 -14 -3 -18 -27 -18 -31 0 -47 13 -36 31 11 16 59 6 63 -13z m-273 3 c7 -13
-27 -31 -59 -31 -27 0 -37 24 -13 33 21 9 66 7 72 -2z m413 -8 c-4 -17 -32
-21 -66 -8 -24 9 -1 25 34 25 29 0 35 -3 32 -17z m137 -23 c0 -10 -11 -15 -33
-16 -35 -1 -47 9 -39 30 7 19 72 5 72 -14z m-695 0 c0 -14 -7 -20 -24 -20 -13
0 -31 -3 -40 -6 -22 -9 -21 22 2 35 30 18 62 13 62 -9z m811 -10 c10 -6 19
-17 19 -25 0 -10 -9 -12 -37 -8 -46 7 -47 8 -40 28 7 17 30 19 58 5z m-956
-11 c9 -14 -25 -39 -50 -36 -28 3 -25 30 5 38 36 10 38 10 45 -2z m-725 -19
c17 -11 16 -12 -33 -39 -66 -37 -139 -20 -86 20 35 27 92 36 119 19z m-310
-28 c0 -22 -9 -33 -45 -55 -25 -15 -59 -27 -75 -27 -28 0 -30 3 -30 35 0 39
20 55 72 55 18 0 40 5 48 10 24 15 30 12 30 -18z m2118 22 c12 -4 22 -14 22
-24 0 -13 -6 -16 -27 -12 -33 6 -55 21 -47 33 6 10 20 11 52 3z m-1218 -19 c0
-15 -37 -35 -66 -35 -24 0 -15 26 14 37 39 16 52 15 52 -2z m-752 -11 c18 -5
14 -42 -5 -46 -21 -5 -105 11 -116 21 -4 4 -5 15 -1 24 4 13 16 15 57 11 29
-3 58 -7 65 -10z m-420 -16 c27 -27 5 -43 -86 -62 -63 -13 -61 26 2 55 48 22
68 23 84 7z m638 -4 c-4 -9 -1 -23 5 -30 9 -11 7 -15 -5 -20 -9 -3 -16 -13
-16 -20 0 -12 -4 -12 -24 1 -24 16 -24 15 -19 -6 5 -19 3 -21 -15 -17 -15 4
-22 2 -22 -8 0 -20 -17 -18 -29 4 -9 14 -11 12 -17 -15 -9 -47 -24 -30 -24 28
0 34 4 49 13 49 8 0 29 8 48 17 19 9 50 20 69 24 19 4 37 7 39 8 2 0 0 -6 -3
-15z m1906 -17 c12 -20 -1 -24 -37 -13 -33 10 -43 24 -29 39 8 8 57 -11 66
-26z m1098 21 c0 -7 -14 -29 -30 -48 -42 -49 -37 -63 5 -17 38 40 45 44 45 24
0 -19 -110 -128 -122 -121 -5 3 -7 11 -5 17 2 7 -2 18 -10 25 -27 27 -9 58 62
105 44 30 55 33 55 15z m99 -12 c17 -18 21 -30 15 -48 -9 -28 -6 -140 6 -228
13 -86 -18 -501 -42 -579 -22 -72 -53 -47 -37 30 17 77 26 175 28 276 1 54 6
150 10 213 9 132 0 225 -34 338 -10 31 24 30 54 -2z m-2702 -13 c5 -14 -62
-47 -76 -38 -18 11 -12 21 22 38 35 17 49 17 54 0z m-1198 -22 c8 -5 11 -16 8
-23 -4 -11 -30 -17 -87 -22 -98 -8 -114 -1 -74 31 22 18 41 23 84 23 30 0 61
-4 69 -9z m3585 -13 c52 -26 79 -64 56 -78 -11 -7 -11 -11 -1 -24 17 -20 5
-21 -15 -2 -8 8 -11 22 -7 32 5 13 3 16 -10 11 -9 -3 -17 -2 -17 4 0 6 -13 22
-30 36 -27 22 -39 43 -25 43 3 0 25 -10 49 -22z m-760 -8 c5 -5 6 -16 2 -25
-6 -15 -9 -15 -38 2 -46 27 -50 48 -7 39 18 -3 37 -10 43 -16z m-2569 -14 c17
-12 17 -14 2 -37 -10 -13 -17 -35 -17 -50 0 -14 -3 -29 -7 -33 -10 -9 -28 -78
-58 -218 -27 -127 -33 -255 -14 -319 14 -45 0 -72 -35 -67 -19 3 -22 13 -30
110 -9 106 3 235 33 353 6 22 13 54 16 70 6 29 10 39 32 95 50 122 47 119 78
96z m815 -12 c0 -16 -16 -19 -25 -4 -8 13 4 32 16 25 5 -4 9 -13 9 -21z m2766
-69 c-3 -8 -28 -32 -57 -55 -40 -32 -54 -38 -65 -29 -25 21 -17 63 15 82 16
10 47 34 68 55 l38 37 3 -39 c2 -21 1 -44 -2 -51z m195 7 c20 -41 46 -84 57
-95 45 -50 46 -60 45 -321 -2 -258 -11 -334 -44 -371 -11 -13 -19 -39 -21 -75
-2 -44 -7 -56 -22 -58 -17 -4 -18 5 -16 180 3 352 -4 507 -25 487 -2 -3 -6
-148 -8 -322 l-3 -316 -24 -26 c-13 -14 -32 -25 -42 -25 -16 0 -18 10 -18 109
0 77 4 117 15 137 10 20 15 59 15 122 0 52 5 146 11 210 7 81 7 164 0 271 -6
85 -8 158 -5 163 3 5 15 8 26 6 14 -2 33 -26 59 -76z m-1326 48 c3 -5 1 -10
-4 -10 -6 0 -11 5 -11 10 0 6 2 10 4 10 3 0 8 -4 11 -10z m-2830 -15 c17 0 44
3 61 7 27 6 33 4 38 -15 7 -27 -11 -48 -24 -27 -5 8 -12 11 -16 7 -4 -4 0 -13
10 -20 10 -7 16 -22 14 -33 -4 -25 -21 -21 -29 8 -6 22 -7 22 -19 -7 l-12 -30
-10 28 c-11 31 -28 27 -28 -6 -1 -22 -1 -22 -16 -2 -10 14 -17 16 -22 8 -4 -6
-20 -15 -35 -18 -34 -9 -35 2 -5 67 18 41 25 47 42 41 12 -4 35 -8 51 -8z
m1275 -4 c0 -13 -62 -61 -72 -55 -15 10 -8 22 25 42 37 23 47 26 47 13z m1615
-8 c19 -9 35 -23 35 -30 0 -7 -2 -13 -5 -13 -10 0 -75 45 -75 53 0 10 5 9 45
-10z m834 -30 c15 -16 37 -36 49 -45 24 -19 29 -54 10 -61 -9 -3 -6 -10 8 -21
15 -10 23 -31 27 -63 4 -26 9 -60 13 -75 6 -27 5 -28 -33 -28 -33 0 -42 4 -51
25 -17 36 -15 43 10 47 33 5 33 25 -2 33 -32 7 -50 30 -50 64 0 17 6 21 31 21
17 0 28 4 24 10 -3 6 -14 10 -24 10 -23 0 -46 27 -55 63 -6 26 -2 47 10 47 3
0 17 -12 33 -27z m-2915 -46 c42 -45 60 -82 51 -104 -6 -16 -10 -14 -33 17
-15 19 -43 51 -64 71 -20 21 -34 40 -31 43 15 15 48 3 77 -27z m3166 -36 c0
-32 -5 -43 -29 -60 -16 -12 -34 -21 -40 -21 -5 0 -14 -7 -19 -15 -15 -28 -42
-7 -42 34 0 33 4 39 35 51 20 8 43 22 52 32 27 30 43 22 43 -21z m-3302 -37
c18 -15 32 -36 32 -48 -1 -34 -43 -110 -67 -121 -13 -5 -23 -18 -23 -28 0 -21
-22 -19 -87 8 -29 12 -33 19 -33 50 0 29 9 45 45 84 25 26 45 53 45 59 0 11
16 20 41 21 8 1 30 -11 47 -25z m2979 -71 c31 -30 57 -66 68 -96 17 -44 17
-49 1 -65 -9 -10 -16 -23 -16 -29 0 -5 -11 -20 -26 -33 -30 -29 -40 -19 -50
50 -3 25 -9 59 -14 75 -5 17 -11 48 -15 70 -3 22 -8 48 -11 58 -9 29 10 19 63
-30z m-326 27 c10 -6 19 -16 19 -23 0 -7 15 -37 34 -66 34 -52 35 -55 29 -135
-5 -79 -4 -82 28 -130 45 -67 46 -144 5 -231 -16 -33 -35 -87 -43 -120 -18
-78 -31 -279 -27 -425 6 -202 6 -531 1 -536 -3 -3 -12 7 -20 23 -8 15 -33 45
-56 65 l-41 37 0 775 0 776 26 0 c14 0 34 -5 45 -10z m177 -18 c3 -9 -2 -13
-14 -10 -9 1 -19 9 -22 16 -3 9 2 13 14 10 9 -1 19 -9 22 -16z m470 -15 c5
-26 -55 -79 -87 -75 -20 2 -27 9 -29 30 -3 23 3 30 35 47 46 23 77 22 81 -2z
m-3125 -1044 c3 -1007 3 -1019 25 -1111 12 -51 31 -114 42 -139 24 -54 24 -53
8 -52 -21 0 -53 50 -77 119 -24 67 -70 150 -83 150 -16 0 -7 30 11 39 30 16
32 39 7 68 l-24 28 29 36 c37 46 36 66 -1 115 -30 40 -37 72 -21 102 4 9 11
34 15 54 6 34 3 42 -34 81 -37 41 -40 48 -39 98 2 86 5 90 47 83 l37 -6 -3
274 c-2 150 -7 297 -12 326 -5 29 -25 88 -44 132 -23 52 -39 107 -45 160 -9
71 -8 87 9 133 14 36 29 57 50 69 21 12 30 25 30 43 0 16 9 34 22 45 l22 17
-27 32 c-36 44 -36 85 1 105 15 8 33 15 39 16 10 0 13 -224 16 -1017z m3479
1000 c8 -10 15 -38 16 -63 0 -25 6 -132 13 -237 12 -208 10 -223 -36 -223 -29
0 -51 25 -37 43 5 6 13 66 17 132 11 171 11 221 2 298 -8 69 -2 81 25 50z
m-3859 -40 c5 -24 -1 -35 -40 -70 -50 -47 -58 -50 -67 -28 -12 31 18 89 54
107 46 23 47 22 53 -9z m3497 -31 c0 -36 -3 -40 -39 -54 -46 -19 -61 -10 -61
37 0 31 10 37 93 54 4 0 7 -16 7 -37z m-3270 -22 c14 -11 33 -20 42 -20 24 0
34 -21 14 -32 -11 -6 -14 -17 -10 -34 5 -20 3 -24 -18 -24 -20 0 -29 11 -51
57 -34 73 -26 91 23 53z m3143 -6 c3 -19 0 -27 -16 -33 -25 -9 -57 -3 -57 11
0 48 64 67 73 22z m-3823 -62 c0 -10 5 -23 11 -29 8 -8 9 -31 4 -68 -8 -68
-29 -72 -51 -10 -16 48 -18 80 -4 106 13 24 40 25 40 1z m3948 -19 c-3 -33 -7
-38 -38 -46 -28 -7 -36 -5 -47 10 -22 29 -12 57 22 64 63 14 66 12 63 -28z
m-120 5 c14 -14 16 -68 3 -68 -4 0 -22 5 -40 11 -22 8 -31 17 -31 33 0 13 3
26 7 29 11 11 48 8 61 -5z m-2534 -77 c3 -4 6 -129 6 -277 l1 -269 -30 -3 -31
-3 0 274 c0 150 3 277 7 280 9 10 41 9 47 -2z m2656 -20 c0 -11 -10 -27 -22
-35 -28 -20 -58 -4 -58 29 0 22 4 25 40 25 33 0 40 -3 40 -19z m-105 -9 c8
-22 -8 -34 -39 -26 -24 6 -34 23 -21 36 12 12 54 5 60 -10z m-3887 -54 c2 -11
-3 -18 -13 -18 -9 0 -39 -24 -67 -52 -40 -42 -49 -48 -43 -28 12 40 42 90 62
106 24 18 57 14 61 -8z m675 -60 c7 -52 1 -60 -60 -76 -26 -8 -59 -18 -73 -22
-14 -5 -47 -11 -75 -15 -27 -4 -60 -9 -72 -12 -22 -5 -23 -2 -23 46 l0 51 38
0 c51 0 148 25 197 49 56 28 62 26 68 -21z m3297 18 c0 -33 -17 -76 -30 -76
-5 0 -10 23 -10 50 0 43 3 50 20 50 15 0 20 -7 20 -24z m-3817 -9 c45 -16 70
-37 44 -37 -20 0 -22 -21 -5 -38 20 -20 -14 -47 -40 -33 -11 6 -29 11 -40 11
-14 0 -21 8 -24 31 -3 19 0 33 7 36 7 2 11 13 8 24 -6 22 -1 23 50 6z m3461
-39 c10 -6 39 -26 64 -45 39 -30 50 -33 84 -28 53 9 50 -11 -7 -36 -24 -11
-47 -23 -50 -28 -5 -10 -109 29 -128 48 -6 6 -15 11 -21 11 -21 0 -45 32 -36
49 5 9 11 24 14 34 6 18 38 16 80 -5z m-3303 -14 c18 -5 29 -31 22 -51 -6 -16
-95 -17 -110 -2 -6 6 -10 18 -7 25 2 8 6 21 9 30 5 15 27 15 86 -2z m-257 -65
c-1 -52 -54 -209 -70 -209 -7 0 -22 8 -35 19 -20 16 -21 21 -10 35 9 11 12 32
8 64 -7 60 13 105 56 126 44 21 52 16 51 -35z m3487 -30 l29 -21 -30 -54 c-16
-31 -30 -66 -30 -80 0 -40 -20 -115 -43 -162 -42 -88 -58 -64 -40 61 21 152
55 277 76 277 5 0 22 -9 38 -21z m839 -28 c0 -19 -93 -111 -111 -111 -22 0
-25 23 -5 40 8 6 16 24 18 38 3 23 9 28 43 33 22 3 43 7 48 8 4 0 7 -3 7 -8z
m-730 -27 c27 -9 54 -22 61 -30 6 -8 17 -14 25 -14 25 0 24 -19 -1 -137 -14
-65 -35 -161 -46 -213 -11 -52 -24 -113 -30 -135 -6 -22 -12 -129 -14 -238 -2
-115 -7 -203 -13 -210 -6 -7 -12 -87 -15 -177 -2 -91 -11 -212 -20 -270 -17
-112 -21 -292 -7 -325 6 -14 9 -16 10 -5 2 8 2 18 2 21 -1 4 3 21 8 38 5 17
12 93 16 168 3 76 11 149 17 163 6 14 12 97 13 190 0 91 7 194 13 230 7 36 14
119 15 185 2 66 8 147 14 180 6 33 18 103 27 155 29 170 72 358 87 377 13 16
116 46 134 39 20 -8 18 -142 -2 -203 -9 -26 -36 -81 -60 -123 -38 -67 -46 -93
-73 -235 -29 -150 -40 -218 -62 -375 -5 -36 -13 -157 -18 -270 -5 -113 -12
-214 -14 -225 -3 -11 -13 -58 -22 -105 -9 -47 -21 -107 -27 -135 -11 -55 -7
-199 7 -230 8 -19 7 -19 -11 -5 -37 31 -72 43 -101 36 -15 -4 -36 -8 -45 -9
-10 -1 -18 -5 -18 -9 0 -4 -6 -8 -14 -8 -8 0 -17 -6 -19 -12 -5 -11 -10 91
-12 210 0 17 -3 32 -6 32 -16 0 -21 169 -19 715 1 554 2 591 19 610 44 49 91
162 91 220 0 44 11 79 38 123 17 26 12 26 72 6z m-2010 -14 c0 -5 -16 -10 -35
-10 -19 0 -35 5 -35 10 0 6 16 10 35 10 19 0 35 -4 35 -10z m-6 -46 c14 -5 16
-27 15 -148 -1 -179 -4 -191 -49 -191 l-35 0 -3 164 c-3 171 0 180 40 181 9 0
23 -3 32 -6z m2488 -150 c-4 -99 -13 -144 -67 -319 -43 -138 -53 -184 -75
-340 -7 -44 -20 -117 -31 -162 -10 -45 -19 -96 -19 -113 0 -18 -9 -78 -21
-133 -11 -56 -24 -136 -29 -177 -26 -227 -33 -275 -39 -280 -3 -3 -7 -34 -8
-69 -1 -70 3 -65 -80 -96 l-33 -13 0 151 c0 83 4 164 9 181 27 87 32 135 46
486 4 80 15 188 26 240 10 52 23 131 29 175 17 135 60 307 85 337 13 15 31 49
41 75 35 96 43 113 55 113 7 0 9 -9 4 -27 -21 -83 -37 -178 -45 -268 -17 -178
-29 -262 -50 -352 -15 -61 -23 -131 -25 -228 -3 -118 -3 -130 6 -75 5 36 14
87 19 113 6 27 10 62 10 78 0 16 9 55 19 87 17 49 28 123 47 322 10 101 38
268 56 328 9 31 40 54 63 48 6 -2 9 -35 7 -82z m99 26 c-1 -30 -6 -59 -11 -65
-4 -5 -16 -36 -25 -67 -16 -56 -29 -71 -38 -45 -2 6 1 28 6 47 12 44 14 61 16
133 1 57 1 58 28 55 26 -3 27 -5 24 -58z m119 28 c6 -18 15 -40 20 -48 14 -28
22 -79 15 -100 -7 -23 -60 -54 -80 -46 -19 7 -29 64 -15 81 9 11 8 22 -5 49
-16 33 -16 36 6 65 29 40 44 39 59 -1z m-1692 -9 c2 -12 -4 -15 -28 -11 -16 2
-30 8 -30 11 0 26 53 26 58 0z m-663 -129 c0 -113 0 -115 -24 -118 -12 -2 -34
-1 -47 2 -23 6 -24 9 -24 115 0 59 3 111 7 115 4 4 25 6 48 4 l40 -3 0 -115z
m283 3 l3 -112 -26 -7 c-14 -3 -36 -3 -50 0 -25 6 -25 8 -25 115 0 59 3 111 7
115 4 4 25 6 48 4 l40 -3 3 -112z m386 80 c28 -4 43 -14 57 -36 10 -17 16 -34
13 -39 -8 -12 -192 -10 -199 2 -9 15 22 59 48 70 28 11 33 11 81 3z m-208 -28
c21 -21 25 -33 22 -73 -4 -64 -30 -66 -39 -3 -7 53 -28 71 -86 71 -32 0 -43 4
-43 15 0 12 13 15 60 15 52 0 65 -4 86 -25z m-1071 -25 c0 -11 -15 -16 -64
-18 -37 -2 -69 2 -75 8 -19 19 14 30 79 28 46 -2 60 -7 60 -18z m-9 -49 c18
-1 31 -18 47 -60 3 -5 -225 -9 -240 -3 -7 2 0 16 18 35 28 30 35 32 92 30 34
-1 71 -2 83 -2z m1422 -15 c9 -5 11 -26 6 -74 -3 -37 -6 -78 -7 -92 l-2 -25
-148 -3 -149 -3 4 98 3 98 125 5 c151 6 152 6 168 -4z m-2335 -51 c-1 -5 -18
-14 -38 -20 -42 -12 -85 -49 -85 -74 0 -19 26 -59 55 -83 17 -15 18 -19 5 -28
-27 -17 -35 -11 -60 47 -31 73 -28 100 18 141 29 26 44 32 72 30 19 -2 34 -7
33 -13z m1405 3 c-3 -9 -33 -14 -91 -16 -73 -2 -87 0 -87 13 0 12 16 15 91 15
68 0 90 -3 87 -12z m280 0 c-3 -8 -24 -13 -58 -13 -34 0 -55 5 -57 13 -4 9 12
12 57 12 45 0 61 -3 58 -12z m262 -3 c0 -11 -12 -15 -50 -15 -38 0 -50 4 -50
15 0 11 12 15 50 15 38 0 50 -4 50 -15z m1833 9 c12 -13 -56 -84 -80 -84 -33
0 -27 30 8 47 15 7 32 20 39 28 13 16 23 19 33 9z m-2773 -94 c0 -60 -4 -65
-39 -60 -7 1 -24 -1 -37 -4 -23 -6 -23 -9 -26 -139 l-3 -132 -112 -3 -113 -3
0 151 c0 93 4 150 10 150 16 0 12 46 -5 60 -8 7 -15 20 -15 29 0 14 18 16 170
13 l170 -3 0 -59z m83 48 c14 -8 78 -12 182 -13 88 -1 175 -5 193 -9 22 -6 48
-4 74 5 46 15 60 4 56 -46 l-3 -30 -275 0 -275 0 -3 39 c-6 65 7 78 51 54z
m915 -45 c-3 -48 -3 -48 -40 -51 l-38 -3 0 45 c0 47 6 52 58 55 21 1 23 -2 20
-46z m-238 26 c25 0 65 2 90 3 l45 3 0 -40 0 -40 -125 0 c-136 0 -140 2 -125
62 5 22 9 24 38 18 18 -4 52 -7 77 -6z m-1742 -32 c24 -67 6 -123 -19 -59 -7
15 -16 37 -21 49 -6 11 -7 26 -4 32 13 21 32 11 44 -22z m-70 -9 c11 -39 0
-57 -23 -38 -15 13 -21 51 -8 63 13 14 23 6 31 -25z m692 12 c0 -17 -7 -20
-50 -20 -43 0 -50 3 -50 20 0 17 7 20 50 20 43 0 50 -3 50 -20z m2008 -27 c3
-22 1 -23 -90 -23 -51 0 -117 -3 -145 -6 -43 -6 -54 -4 -59 10 -3 9 -4 23 0
31 5 13 28 15 148 13 140 -3 143 -4 146 -25z m1033 -160 c2 -475 -3 -608 -32
-823 -15 -112 -68 -351 -91 -409 -6 -14 -14 -35 -18 -46 -23 -62 -31 -75 -45
-75 -19 0 -19 8 1 56 19 44 32 88 44 154 5 25 16 79 25 120 16 77 28 148 47
280 6 41 13 248 17 460 4 268 10 393 18 413 26 57 33 28 34 -130z m-3111 95
c3 -222 2 -238 -8 -238 -22 0 -46 253 -25 273 19 20 33 5 33 -35z m70 -104 c0
-145 0 -145 -22 -142 -22 3 -23 7 -26 132 -1 72 0 136 2 143 3 7 15 13 26 13
19 0 20 -6 20 -146z m460 101 c0 -8 -6 -15 -14 -15 -8 0 -16 7 -20 15 -4 10 1
15 14 15 11 0 20 -7 20 -15z m98 3 c-7 -19 -38 -22 -38 -4 0 10 9 16 21 16 12
0 19 -5 17 -12z m92 8 c0 -2 -3 -12 -6 -20 -5 -13 -9 -14 -20 -5 -20 16 -17
29 6 29 11 0 20 -2 20 -4z m180 -5 c0 -11 -75 -51 -94 -51 -8 0 -16 8 -20 18
-3 9 -9 23 -12 30 -4 9 11 12 60 12 36 0 66 -4 66 -9z m424 -21 c-17 -28 -17
-30 1 -50 22 -24 42 -26 65 -5 15 14 18 14 30 0 15 -18 41 -20 58 -3 9 9 17 8
37 -2 19 -10 30 -11 50 -2 20 9 30 9 46 -1 16 -10 25 -9 51 6 28 16 33 16 40
3 11 -20 52 -21 68 -1 7 9 9 26 5 45 -6 28 -5 30 24 30 16 0 33 -5 37 -12 6
-9 9 -184 5 -230 -1 -5 -102 -8 -226 -8 l-225 0 -22 48 c-27 58 -111 142 -172
172 -25 12 -46 26 -46 31 0 5 43 9 96 9 l95 0 -17 -30z m96 16 c0 -21 -21 -31
-31 -15 -14 22 -11 29 11 29 11 0 20 -6 20 -14z m503 7 c-7 -2 -21 -2 -30 0
-10 3 -4 5 12 5 17 0 24 -2 18 -5z m65 0 c-10 -2 -26 -2 -35 0 -10 3 -2 5 17
5 19 0 27 -2 18 -5z m-2548 -13 c0 -5 9 -10 19 -10 10 0 22 -7 25 -15 5 -13 0
-15 -32 -9 -49 9 -55 13 -41 30 13 16 29 18 29 4z m950 -121 c0 -99 -3 -119
-15 -119 -12 0 -15 20 -15 118 0 65 3 122 6 125 18 18 24 -15 24 -124z m1115
121 c3 -5 -1 -10 -9 -10 -9 0 -16 5 -16 10 0 6 4 10 9 10 6 0 13 -4 16 -10z
m95 0 c0 -5 -7 -10 -16 -10 -8 0 -12 5 -9 10 3 6 10 10 16 10 5 0 9 -4 9 -10z
m100 -5 c0 -8 -7 -15 -15 -15 -8 0 -15 7 -15 15 0 8 7 15 15 15 8 0 15 -7 15
-15z m-1270 -4 c0 -6 -4 -13 -10 -16 -5 -3 -10 1 -10 9 0 9 5 16 10 16 6 0 10
-4 10 -9z m736 -26 c28 -12 71 -40 94 -61 40 -36 100 -118 100 -136 0 -4 -151
-8 -335 -8 -184 0 -335 4 -335 8 0 16 61 104 93 134 100 93 258 119 383 63z
m-686 0 c0 -8 -7 -15 -15 -15 -16 0 -20 12 -8 23 11 12 23 8 23 -8z m100 0 c0
-8 -6 -15 -14 -15 -17 0 -28 14 -19 24 12 12 33 6 33 -9z m90 0 c0 -8 -7 -15
-15 -15 -8 0 -15 7 -15 15 0 8 7 15 15 15 8 0 15 -7 15 -15z m90 0 c0 -8 -7
-15 -15 -15 -8 0 -15 7 -15 15 0 8 7 15 15 15 8 0 15 -7 15 -15z m610 -1 c0
-17 -22 -14 -28 4 -2 7 3 12 12 12 9 0 16 -7 16 -16z m90 1 c0 -8 -4 -15 -9
-15 -13 0 -22 16 -14 24 11 11 23 6 23 -9z m100 0 c0 -8 -7 -15 -15 -15 -8 0
-15 7 -15 15 0 8 7 15 15 15 8 0 15 -7 15 -15z m90 0 c0 -8 -7 -15 -15 -15 -8
0 -15 7 -15 15 0 8 7 15 15 15 8 0 15 -7 15 -15z m100 0 c0 -8 -7 -15 -15 -15
-8 0 -15 7 -15 15 0 8 7 15 15 15 8 0 15 -7 15 -15z m-1282 -45 c10 0 23 5 30
12 9 9 17 8 37 -2 19 -10 30 -11 50 -2 19 9 30 9 45 0 14 -9 25 -9 44 0 20 9
32 9 51 0 30 -14 31 -20 6 -42 -11 -10 -31 -42 -46 -72 l-27 -55 -121 3 -122
3 -3 98 -3 98 21 -21 c11 -11 28 -20 38 -20z m1458 29 c10 -17 -13 -36 -27
-22 -12 12 -4 33 11 33 5 0 12 -5 16 -11z m54 -9 c0 -11 -4 -20 -10 -20 -5 0
-10 9 -10 20 0 11 5 20 10 20 6 0 10 -9 10 -20z m66 9 c10 -17 -13 -36 -27
-22 -12 12 -4 33 11 33 5 0 12 -5 16 -11z m-2564 -174 c11 -210 39 -567 58
-725 5 -41 14 -118 20 -170 17 -146 31 -245 50 -365 10 -60 17 -112 14 -114
-29 -29 -94 298 -144 722 -20 172 -47 497 -55 675 l-6 123 28 -3 28 -3 7 -140z
m2596 63 l-3 -73 -89 -5 c-54 -3 -95 -1 -103 5 -10 8 -13 28 -11 70 l3 60 90
6 c50 3 96 6 103 7 10 2 12 -16 10 -70z m-2126 -60 l3 -43 1108 -3 1108 -2 -3
-23 c-3 -22 -5 -22 -153 -22 -82 0 -395 3 -695 7 -300 4 -729 5 -953 1 l-409
-6 -9 -24 c-17 -46 -34 -20 -37 57 -3 82 1 100 22 100 10 0 16 -13 18 -42z
m3069 -245 c-18 -430 -49 -671 -110 -843 -22 -61 -46 -76 -57 -35 -15 59 29
453 76 678 5 27 10 70 10 95 0 26 7 66 15 89 8 23 22 90 30 148 16 109 31 162
41 152 4 -3 1 -131 -5 -284z m-2356 87 c0 -43 -1 -45 -32 -48 -28 -3 -34 1
-52 37 -30 58 -28 62 32 59 l52 -3 0 -45z m103 4 c3 -46 -12 -66 -46 -57 -18
4 -22 12 -22 47 0 50 6 58 40 54 22 -3 25 -9 28 -44z m245 39 c4 -3 -7 -15
-23 -25 -22 -13 -50 -18 -105 -18 -74 0 -92 8 -81 35 4 12 27 15 104 15 54 0
102 -3 105 -7z m262 -18 c0 -18 -8 -20 -74 -23 -57 -2 -82 1 -113 17 -51 25
-35 30 87 28 93 -2 100 -3 100 -22z m93 -33 l3 -52 -30 0 c-30 0 -31 1 -31 49
0 49 9 62 40 58 11 -2 16 -17 18 -55z m165 35 c-19 -32 -56 -77 -65 -77 -5 0
-8 19 -6 42 3 39 6 43 33 49 36 6 48 2 38 -14z m-1413 3 c0 -6 -6 -20 -12 -33
-7 -12 -14 -24 -15 -26 -1 -2 -14 6 -28 17 -14 11 -39 24 -55 27 -53 12 -32
25 40 25 41 0 70 -4 70 -10z m95 -1 c4 -5 0 -18 -9 -28 -23 -25 -20 -38 11
-53 40 -19 42 -46 4 -59 -34 -12 -41 -40 -17 -71 16 -22 30 -23 46 -3 14 17
20 18 40 5 12 -7 11 -13 -10 -35 -21 -22 -22 -27 -9 -39 8 -8 25 -16 38 -18
20 -2 26 3 35 36 13 46 25 49 47 10 11 -19 23 -28 35 -26 32 6 39 20 24 47
-19 35 2 51 36 28 22 -14 24 -13 35 11 7 15 20 26 32 26 17 0 18 -5 12 -37 -7
-40 -13 -50 -54 -96 -44 -49 -92 -67 -174 -67 -68 0 -79 3 -123 33 -34 22 -57
49 -77 87 -25 48 -28 62 -23 112 9 94 74 181 101 137z m87 -39 c9 -25 17 -60
17 -79 1 -19 8 -43 18 -53 15 -17 15 -18 -5 -18 -29 0 -49 33 -61 100 -5 30
-13 66 -17 79 -6 19 -4 22 12 19 11 -2 25 -21 36 -48z m106 28 c-8 -13 -18
-35 -22 -50 -7 -31 -34 -37 -42 -10 -3 9 -10 25 -15 34 -20 38 -12 48 42 48
51 0 51 0 37 -22z m82 19 c0 -1 -9 -20 -20 -42 -11 -22 -20 -56 -20 -78 0 -27
-7 -45 -25 -63 -30 -29 -56 -23 -29 7 12 13 17 33 16 59 -3 40 8 71 36 103 13
14 42 24 42 14z m946 -32 c7 -41 -1 -68 -19 -63 -13 5 -22 61 -13 84 10 25 25
15 32 -21z m248 3 c17 -33 21 -105 7 -126 -11 -18 -21 7 -21 54 0 19 -7 48
-15 63 -13 27 -11 41 6 41 4 0 15 -14 23 -32z m89 25 c3 -5 2 -26 -2 -48 -5
-31 -11 -41 -29 -43 -16 -3 -22 2 -22 17 0 11 -4 23 -10 26 -5 3 -10 17 -10
31 0 21 5 24 34 24 19 0 37 -3 39 -7z m326 -6 c15 -19 12 -134 -5 -148 -23
-19 -34 0 -34 62 l0 59 -35 0 c-27 0 -34 -4 -33 -17 1 -10 0 -42 0 -70 -2 -40
-6 -53 -17 -53 -10 0 -15 10 -15 33 0 17 -12 52 -26 76 -13 25 -23 50 -20 58
7 18 169 18 185 0z m-475 -31 c25 -52 22 -56 -44 -56 -33 0 -60 4 -60 10 0 15
61 80 75 80 7 0 20 -15 29 -34z m190 -3 c-10 -75 -15 -88 -25 -72 -14 23 -10
63 9 87 9 12 18 22 19 22 1 0 -1 -17 -3 -37z m103 -41 c51 -87 25 -214 -56
-271 -25 -18 -44 -21 -142 -21 -105 0 -114 2 -146 26 -39 29 -72 89 -75 136
l-3 33 78 3 c85 3 98 -7 42 -34 -42 -20 -44 -35 -8 -69 37 -33 47 -32 72 10
28 48 45 46 38 -6 -6 -44 6 -56 46 -45 43 12 52 22 39 50 -16 35 5 52 37 30
28 -20 42 -8 44 37 2 28 -2 35 -20 37 -18 3 -23 11 -25 35 -5 85 11 128 39
105 8 -6 26 -31 40 -56z m-1368 28 c10 -30 9 -30 -25 -30 -26 0 -34 4 -34 18
0 21 18 42 36 42 7 0 17 -13 23 -30z m535 9 c45 -35 34 -49 -38 -49 -36 0 -68
4 -71 10 -9 14 40 60 63 60 11 0 31 -9 46 -21z m-134 -13 c0 -28 -16 -36 -75
-36 -62 0 -83 9 -70 30 6 9 145 15 145 6z m325 -16 c0 -12 -15 -16 -67 -18
-63 -3 -68 -1 -68 18 0 19 5 21 68 18 52 -2 67 -6 67 -18z m-468 -57 c3 -9
-37 -13 -157 -15 -89 -2 -164 0 -167 5 -14 23 18 27 164 25 111 -2 158 -7 160
-15z m350 1 c-5 -5 -193 -8 -267 -4 -42 3 -11 6 85 10 138 5 191 3 182 -6z
m468 7 c5 -1 5 -4 0 -10 -10 -10 -123 -12 -275 -6 -176 6 -180 9 -20 15 137 4
240 4 295 1z m-1241 -9 c2 -4 1 -14 -4 -22 -7 -11 -12 -12 -21 -3 -6 6 -8 16
-5 22 8 13 23 14 30 3z m1382 -7 c10 -24 -5 -36 -27 -24 -16 8 -18 13 -8 25
15 18 28 18 35 -1z m-1072 -51 c9 -22 -1 -34 -29 -34 -24 0 -36 16 -27 38 6
17 49 15 56 -4z m162 -8 c-5 -19 1 -28 34 -51 46 -32 61 -26 85 32 21 50 38
42 29 -13 -8 -52 2 -64 51 -64 48 0 58 12 50 58 -8 51 10 64 28 20 8 -18 22
-39 31 -47 15 -12 20 -12 44 6 21 16 26 28 24 52 -2 30 -1 31 43 31 31 0 47
-5 51 -15 13 -34 -82 -141 -152 -170 -25 -10 -71 -15 -148 -15 -104 0 -114 2
-162 30 -61 35 -134 121 -134 159 0 7 26 11 66 11 65 0 66 -1 60 -24z m97 18
c10 -10 -23 -66 -35 -62 -23 8 -33 36 -19 52 14 16 42 21 54 10z m111 -2 c2
-4 7 -24 11 -45 6 -33 5 -37 -13 -37 -28 0 -32 10 -25 53 5 35 16 46 27 29z
m130 -8 c9 -25 7 -44 -5 -44 -14 0 -38 30 -39 48 0 18 37 15 44 -4z m231 -4
c0 -18 -43 -26 -57 -12 -16 16 2 33 30 30 16 -2 27 -9 27 -18z m-2352 -57 c2
-16 12 -57 22 -93 14 -53 16 -86 11 -176 -6 -99 -4 -116 14 -159 21 -49 24
-113 5 -118 -5 -1 -16 23 -23 53 -8 30 -23 67 -34 83 -18 25 -20 37 -13 100 9
85 9 132 1 250 -3 48 -2 87 3 87 5 0 11 -12 14 -27z m2587 7 c-11 -21 -22 -25
-33 -13 -9 9 12 33 30 33 11 0 11 -4 3 -20z m-2913 -42 c26 -24 29 -38 10 -38
-12 0 -57 43 -57 55 0 12 26 3 47 -17z m3023 13 c0 -6 -4 -13 -10 -16 -5 -3
-10 1 -10 9 0 9 5 16 10 16 6 0 10 -4 10 -9z m1595 -61 c3 -5 -3 -10 -14 -10
-12 0 -21 5 -21 10 0 6 6 10 14 10 8 0 18 -4 21 -10z m-1254 -80 c27 -15 20
-33 -18 -45 -47 -16 -2108 -4 -2125 13 -36 36 -17 37 993 42 1080 6 1121 5
1150 -10z m164 -54 c13 -19 14 -29 6 -45 -12 -21 2 -105 20 -125 29 -32 -25
-106 -76 -106 -33 0 -37 12 -21 62 13 38 19 69 42 206 6 38 9 39 29 8z m965
-96 c0 -5 -5 -10 -11 -10 -5 0 -7 5 -4 10 3 6 8 10 11 10 2 0 4 -4 4 -10z
m-1318 -312 c-7 -7 -12 -8 -12 -2 0 14 12 26 19 19 2 -3 -1 -11 -7 -17z m-252
-26 c0 -4 -9 -8 -19 -8 -11 0 -17 4 -15 8 3 4 12 8 20 8 8 0 14 -4 14 -8z
m220 -16 c0 -8 -4 -17 -9 -20 -10 -7 -23 19 -14 28 11 11 23 6 23 -8z m-270
-12 c0 -8 -4 -12 -10 -9 -5 3 -10 10 -10 16 0 5 5 9 10 9 6 0 10 -7 10 -16z
m170 1 c7 -8 9 -15 6 -15 -4 0 -14 7 -22 15 -9 8 -11 15 -6 15 5 0 15 -7 22
-15z m-1776 -31 c4 -10 1 -14 -6 -12 -15 5 -23 28 -10 28 5 0 13 -7 16 -16z
m1573 -6 c-3 -8 -6 -5 -6 6 -1 11 2 17 5 13 3 -3 4 -12 1 -19z m273 12 c0 -5
-4 -10 -10 -10 -5 0 -10 -9 -10 -19 0 -10 -6 -21 -14 -24 -16 -7 -17 43 -1 55
15 11 35 10 35 -2z m-200 -8 c0 -4 -9 -13 -20 -20 -16 -10 -20 -10 -20 2 0 8
6 17 13 19 19 8 27 8 27 -1z m90 4 c0 -2 -7 -9 -15 -16 -12 -10 -15 -10 -15 4
0 9 7 16 15 16 8 0 15 -2 15 -4z m-50 -46 c0 -5 -7 -10 -15 -10 -8 0 -15 5
-15 10 0 6 7 10 15 10 8 0 15 -4 15 -10z m81 -6 c18 -16 18 -18 -1 -41 -27
-34 -162 -143 -177 -143 -7 0 -13 -4 -13 -10 0 -5 -14 -17 -31 -25 -22 -12
-34 -13 -44 -5 -10 8 -13 7 -11 -5 1 -12 -19 -24 -64 -42 -36 -14 -74 -29 -85
-33 -11 -5 -36 -11 -55 -14 -19 -3 -60 -10 -90 -16 -68 -13 -256 -13 -330 0
-30 5 -71 12 -90 15 -19 4 -44 10 -55 15 -11 5 -49 20 -85 34 -36 13 -79 32
-95 40 -17 9 -34 16 -40 16 -5 0 -26 14 -45 30 -25 21 -30 30 -18 30 9 0 20
-4 23 -10 14 -22 233 -99 305 -107 193 -20 311 -11 455 34 78 25 210 87 230
109 6 5 29 22 53 38 32 20 42 32 37 45 -3 10 1 24 10 31 13 11 14 10 9 -4 -3
-9 -1 -23 6 -31 7 -8 8 -15 3 -15 -5 0 -16 -11 -23 -25 -7 -14 -19 -25 -25
-25 -7 0 -20 -9 -30 -20 -10 -11 -22 -17 -26 -14 -5 3 -9 1 -9 -3 0 -14 41
-45 48 -37 4 4 1 9 -5 11 -7 3 -13 11 -13 18 0 16 35 29 50 20 6 -4 7 1 3 11
-5 13 -3 16 10 11 16 -6 45 19 34 30 -4 3 1 11 10 18 13 10 19 9 33 -4 9 -9
14 -24 12 -33 -2 -10 0 -18 4 -18 13 1 44 26 44 36 0 5 16 20 35 33 38 26 43
38 20 47 -8 4 -15 10 -15 15 0 14 22 10 41 -7z m814 -12 c56 -39 53 -58 -8
-54 -31 3 -56 -1 -71 -12 -25 -16 -76 -99 -76 -122 0 -20 -18 -17 -23 4 -21
75 -19 90 20 133 38 42 89 79 108 79 6 -1 28 -13 50 -28z m-963 1 c10 -9 18
-21 18 -27 0 -6 -6 -4 -13 5 -7 8 -21 21 -32 27 -13 7 -15 12 -6 12 8 0 23 -7
33 -17z m1206 -8 c20 -45 16 -54 -22 -48 -29 5 -39 1 -59 -22 l-24 -28 -31 23
c-18 13 -32 27 -32 31 0 19 95 67 136 68 13 1 25 -9 32 -24z m-1118 -11 c0 -8
-4 -12 -10 -9 -5 3 -10 10 -10 16 0 5 5 9 10 9 6 0 10 -7 10 -16z m-110 2 c0
-3 -4 -8 -10 -11 -5 -3 -10 -1 -10 4 0 6 5 11 10 11 6 0 10 -2 10 -4z m-1502
-55 c45 -53 62 -88 62 -127 0 -39 46 -119 90 -156 22 -19 40 -40 40 -45 0 -11
-155 18 -168 31 -3 4 0 27 6 52 11 41 10 49 -8 80 -12 18 -32 41 -44 51 -20
15 -25 29 -29 91 -2 39 -1 72 3 72 4 0 26 -22 48 -49z m1582 24 c0 -8 -7 -15
-16 -15 -14 0 -14 3 -4 15 7 8 14 15 16 15 2 0 4 -7 4 -15z m684 -87 c17 -81
16 -107 -2 -117 -22 -11 -162 -45 -166 -39 -2 1 -6 24 -9 50 -7 50 4 68 28 48
10 -9 22 -6 52 13 21 13 47 34 57 46 24 27 34 27 40 -1z m-3339 -18 c61 -5
128 -14 150 -20 87 -20 285 -72 385 -99 488 -133 558 -149 785 -181 453 -64
473 -68 497 -113 13 -25 12 -148 -1 -208 -6 -24 -11 -88 -11 -141 0 -94 -1
-97 -31 -127 -29 -29 -35 -31 -104 -31 -41 0 -123 8 -182 17 -130 21 -172 21
-184 2 -12 -20 -11 -25 9 -45 15 -15 17 -15 20 -2 3 15 26 29 66 42 10 4 26 0
35 -7 29 -25 83 -37 167 -37 46 0 84 -4 84 -8 0 -9 -48 -49 -107 -90 -30 -22
-33 -22 -102 -7 -94 19 -139 39 -178 77 -28 27 -33 39 -33 77 0 26 7 64 14 86
12 33 19 40 38 38 13 -2 93 -7 178 -12 162 -10 225 -26 233 -58 3 -15 6 -13
17 10 27 55 3 62 -317 92 -159 15 -223 28 -581 120 -133 34 -214 60 -442 144
-47 18 -137 46 -200 64 -103 28 -129 31 -250 32 -125 0 -143 -3 -237 -33 -166
-53 -200 -99 -121 -167 42 -35 98 -68 105 -62 2 2 -20 27 -48 55 -49 49 -51
53 -37 74 18 28 94 72 108 63 5 -3 7 -25 4 -49 -12 -82 39 -126 147 -126 75 0
102 17 82 50 -9 14 -7 25 13 54 21 31 29 35 52 30 32 -7 72 -31 72 -42 0 -5
-9 -18 -20 -30 -11 -12 -20 -26 -20 -32 0 -17 37 6 56 35 13 20 13 27 2 44
-23 38 -87 61 -170 61 -67 0 -78 -3 -103 -26 -20 -18 -25 -28 -17 -36 9 -9 16
-7 29 4 21 19 90 44 98 36 3 -3 1 -17 -5 -32 -5 -15 -10 -40 -10 -56 0 -37 -7
-41 -71 -33 -37 4 -60 14 -77 30 -22 22 -24 31 -19 75 4 28 12 56 18 64 14 18
158 18 274 1 77 -12 80 -13 86 -42 13 -58 9 -117 -8 -147 -39 -66 -233 -124
-384 -116 -78 5 -95 9 -144 39 -43 26 -61 45 -80 84 -22 45 -24 55 -14 105 5
30 13 81 16 112 6 64 -8 92 -79 156 -49 44 -50 76 -5 119 59 57 175 98 332
118 55 7 102 13 105 14 3 0 55 -3 115 -9z m4203 -109 c128 -32 225 -76 245
-110 25 -42 22 -60 -20 -120 -68 -95 -73 -109 -73 -197 0 -80 -1 -82 -40 -132
-26 -33 -60 -60 -93 -76 -97 -47 -299 -71 -378 -45 -39 13 -94 62 -115 101
-17 32 -17 98 0 153 11 39 13 40 66 46 68 8 285 -8 342 -24 25 -8 43 -19 43
-27 0 -16 2 -16 -153 -4 -138 11 -252 -39 -252 -110 0 -25 7 -36 31 -50 39
-23 46 -15 19 21 -12 17 -18 36 -14 46 8 23 60 47 116 54 l47 6 3 -59 3 -59
41 -3 c28 -2 60 5 100 23 75 33 94 51 94 87 0 35 19 34 37 -2 8 -15 8 -31 2
-48 -5 -14 -7 -27 -4 -30 11 -11 36 25 41 59 5 30 1 39 -32 73 -52 54 -88 66
-233 78 -228 19 -406 -1 -601 -66 -123 -41 -338 -95 -500 -126 -346 -66 -416
-76 -600 -85 -136 -6 -185 -18 -222 -53 -33 -31 -35 -47 -8 -62 27 -14 38 -6
33 23 -3 16 2 26 19 35 25 13 182 29 328 34 l95 3 43 -63 c83 -125 47 -200
-126 -257 l-53 -17 -72 59 c-40 33 -83 67 -96 76 -30 20 -26 21 95 36 177 21
226 13 208 -34 -9 -23 23 -19 36 4 16 31 13 37 -30 56 -35 16 -53 17 -142 9
-57 -5 -159 -9 -226 -9 -118 0 -125 1 -143 24 -22 27 -25 100 -8 181 9 43 8
60 -10 119 -48 159 -27 175 261 201 105 9 267 35 373 59 22 5 64 14 93 20 75
15 157 37 232 62 127 41 197 60 315 84 103 21 170 30 415 59 19 2 114 3 210 1
137 -2 193 -8 258 -24z m-1673 -163 c-12 -31 -18 -34 -87 -45 -90 -14 -156
-16 -142 -4 5 5 41 18 80 29 40 11 85 27 100 35 16 8 37 15 46 16 15 1 16 -2
3 -31z m-267 -65 c-10 -2 -28 -2 -40 0 -13 2 -5 4 17 4 22 1 32 -1 23 -4z
m-277 -13 c68 0 91 -12 45 -24 -40 -10 -60 -66 -52 -147 8 -78 9 -77 -64 -55
-34 10 -44 18 -43 32 2 11 3 57 4 104 1 94 4 104 26 96 8 -3 46 -6 84 -6z
m2161 -248 c21 -21 -33 -62 -102 -77 l-30 -7 0 50 c0 27 2 51 5 53 8 9 115 -7
127 -19z m-2134 -38 c16 -5 15 -46 -3 -70 -14 -18 -16 -17 -54 25 -23 24 -38
47 -36 51 5 8 61 4 93 -6z m-122 -155 c19 -21 18 -21 -10 -46 -35 -30 -48 -20
-39 30 6 42 21 47 49 16z m229 -206 l110 -107 -30 -7 c-39 -9 -348 -11 -409
-3 -25 4 -46 12 -45 18 1 19 223 205 244 205 12 0 64 -42 130 -106z m1540 27
c-3 -5 -10 -10 -16 -10 -5 0 -9 5 -9 10 0 6 7 10 16 10 8 0 12 -4 9 -10z
m-3165 -147 c31 -27 37 -50 21 -81 -5 -9 -13 -28 -19 -42 -5 -14 -21 -50 -36
-80 -43 -91 -37 -91 89 -5 53 36 103 65 113 65 22 -1 62 -34 62 -53 0 -14 -87
-78 -145 -107 -16 -8 -50 -28 -75 -46 -25 -17 -62 -39 -82 -48 -35 -17 -37
-17 -72 6 -44 28 -53 55 -33 100 8 18 20 49 27 68 7 19 23 58 36 87 13 28 24
59 24 67 0 8 5 18 10 21 6 3 10 13 10 22 0 14 27 53 37 53 2 0 17 -12 33 -27z
m3064 -19 c41 -16 42 -74 2 -74 -26 0 -71 -44 -61 -59 8 -14 72 -14 80 -1 3 6
31 10 62 10 51 0 59 -3 89 -35 30 -29 34 -41 34 -85 0 -48 -3 -54 -48 -99 -60
-60 -116 -76 -145 -40 -24 30 -18 50 18 63 61 22 76 36 73 64 -3 30 -1 29 -97
11 -57 -10 -68 -10 -96 5 -18 10 -42 35 -54 57 -20 34 -21 44 -11 74 12 38 94
115 122 115 9 0 24 -3 32 -6z m-2994 -134 c0 -5 -4 -10 -9 -10 -6 0 -13 5 -16
10 -3 6 1 10 9 10 9 0 16 -4 16 -10z m2700 -119 c34 -35 123 -112 178 -155 69
-54 77 -74 37 -100 -32 -21 -54 -20 -85 4 -32 25 -41 25 -92 -4 -42 -23 -43
-26 -40 -69 2 -38 -1 -47 -22 -61 -14 -9 -31 -16 -39 -16 -19 0 -38 44 -49
115 -5 33 -13 87 -19 120 -6 33 -11 84 -12 114 -2 53 -1 54 38 76 46 26 58 24
105 -24z m-2344 -6 c19 -20 20 -30 14 -81 -5 -33 -13 -106 -20 -164 -17 -154
-19 -160 -45 -160 -40 0 -74 36 -77 82 -2 34 -8 45 -33 59 -40 24 -78 23 -100
-1 -10 -11 -28 -20 -39 -20 -26 0 -66 26 -66 43 0 13 231 243 265 264 27 17
75 6 101 -22z m364 -130 c45 -23 50 -29 50 -60 0 -49 -29 -63 -64 -30 -34 31
-86 35 -86 5 0 -10 16 -32 36 -47 39 -31 74 -90 74 -125 0 -30 -31 -75 -66
-99 -53 -35 -160 -15 -208 40 -15 17 -17 27 -10 53 12 41 25 44 62 13 39 -33
93 -43 111 -21 11 13 5 23 -42 70 -31 31 -58 65 -62 77 -21 66 44 149 118 149
21 0 60 -11 87 -25z m1663 -3 c35 -36 43 -79 23 -125 -12 -29 -12 -37 -2 -37
13 0 116 -112 116 -126 0 -15 -37 -33 -68 -34 -28 0 -42 9 -79 50 -30 34 -53
50 -69 50 -24 0 -32 -14 -14 -25 6 -3 10 -17 10 -30 0 -13 5 -27 10 -30 15
-10 12 -46 -7 -67 -21 -24 -72 -24 -79 0 -3 9 -10 25 -15 34 -5 10 -9 27 -9
37 0 11 -4 23 -10 26 -5 3 -10 15 -10 25 0 11 -6 34 -14 52 -28 64 -53 157
-45 170 14 22 121 56 180 57 48 1 59 -3 82 -27z m-1309 -73 c19 -15 26 -30 26
-54 0 -19 -4 -36 -9 -40 -5 -3 -30 4 -54 16 -47 23 -77 21 -77 -5 0 -9 24 -33
53 -55 28 -22 60 -56 71 -75 16 -31 17 -39 6 -68 -17 -43 -36 -65 -73 -83 -60
-30 -149 -13 -195 38 -23 24 -23 26 -7 51 20 30 24 31 51 11 10 -8 40 -15 67
-15 40 0 47 3 47 19 0 11 -14 28 -32 39 -18 12 -46 35 -63 52 -25 26 -30 39
-30 81 0 44 4 54 33 80 28 26 40 29 96 29 49 0 69 -5 90 -21z m933 9 c4 -7 9
-35 11 -63 1 -27 7 -63 12 -79 6 -16 10 -60 10 -97 0 -65 -2 -71 -35 -108 -34
-37 -47 -43 -133 -58 -62 -10 -142 50 -156 118 -4 19 -10 62 -14 96 -4 34 -13
68 -20 75 -6 6 -12 26 -12 43 0 24 7 34 33 48 59 32 79 4 97 -133 11 -82 20
-122 33 -137 13 -17 82 -17 96 0 12 15 9 78 -8 205 -7 45 -9 87 -6 92 9 14 82
12 92 -2z m-558 -24 c88 -25 126 -66 135 -144 11 -95 0 -143 -45 -194 -51 -58
-83 -70 -172 -63 -69 4 -73 6 -108 46 -47 53 -63 129 -45 210 15 69 63 128
111 137 19 3 35 10 35 15 0 13 23 11 89 -7z m161 -35 c0 -5 -7 -9 -15 -9 -15
0 -20 12 -9 23 8 8 24 -1 24 -14z m-1440 -38 c0 -11 -31 -24 -39 -16 -3 3 1
10 9 15 19 12 30 12 30 1z m1470 -175 c0 -3 -4 -8 -10 -11 -5 -3 -10 -1 -10 4
0 6 5 11 10 11 6 0 10 -2 10 -4z"/>
<path d="M1180 5501 c0 -6 5 -11 11 -11 7 0 8 -11 4 -30 -5 -23 -3 -32 10 -36
25 -10 34 7 26 46 -5 26 -13 36 -29 38 -12 2 -22 -1 -22 -7z"/>
<path d="M1230 5285 c0 -12 7 -15 25 -13 14 2 26 8 26 13 0 6 -12 11 -26 13
-18 2 -25 -1 -25 -13z"/>
<path d="M4452 5408 c6 -18 28 -21 28 -4 0 9 -7 16 -16 16 -9 0 -14 -5 -12
-12z"/>
<path d="M4567 5404 c-10 -11 3 -24 24 -24 10 0 19 7 19 15 0 15 -31 21 -43 9z"/>
<path d="M4492 5335 c0 -16 2 -22 5 -12 2 9 2 23 0 30 -3 6 -5 -1 -5 -18z"/>
<path d="M4570 5291 c0 -6 5 -13 10 -16 6 -3 10 1 10 9 0 9 -4 16 -10 16 -5 0
-10 -4 -10 -9z"/>
<path d="M4498 5263 c6 -2 18 -2 25 0 6 3 1 5 -13 5 -14 0 -19 -2 -12 -5z"/>
<path d="M4488 5223 c7 -3 16 -2 19 1 4 3 -2 6 -13 5 -11 0 -14 -3 -6 -6z"/>
<path d="M4330 5188 c0 -13 5 -30 10 -38 7 -11 10 -5 10 23 0 20 -4 37 -10 37
-5 0 -10 -10 -10 -22z"/>
<path d="M4353 5084 c-3 -8 -1 -25 5 -37 10 -20 11 -18 11 16 1 39 -5 48 -16
21z"/>
<path d="M4049 4319 c-1 -272 -1 -619 0 -771 l1 -277 42 -43 43 -43 0 385 c0
357 5 449 30 565 9 39 33 93 46 100 5 4 7 16 3 27 -4 12 -1 24 7 28 17 11 13
95 -6 129 -8 14 -17 34 -21 44 -3 9 -10 17 -15 17 -5 0 -9 46 -9 102 0 93 -2
104 -26 135 -14 18 -32 33 -40 33 -10 0 -13 7 -8 25 4 15 2 25 -4 25 -6 0 -17
3 -26 6 -14 6 -16 -42 -17 -487z"/>
<path d="M1577 4723 c-23 -12 -26 -19 -21 -41 4 -15 10 -29 13 -32 20 -17 31
-52 21 -70 -6 -11 -15 -20 -20 -20 -5 0 -10 -14 -12 -32 -2 -23 -11 -36 -33
-48 -19 -10 -30 -25 -30 -38 0 -12 -6 -27 -13 -34 -17 -17 -15 -132 3 -191 8
-27 28 -76 44 -110 39 -83 43 -115 47 -443 l3 -281 -39 7 c-22 4 -40 7 -41 6
0 0 -3 -31 -5 -68 -4 -66 -4 -67 30 -93 34 -26 53 -59 47 -80 -2 -5 -7 -27
-11 -47 -6 -33 -5 -38 11 -38 19 0 25 -11 12 -23 -3 -4 -12 -2 -20 5 -7 6 -16
8 -20 4 -8 -7 9 -40 43 -81 l24 -30 0 898 c0 493 -1 897 -2 896 -2 -1 -15 -8
-31 -16z m13 -393 c0 -30 0 -30 -25 -14 -35 23 -32 44 7 44 13 0 18 -8 18 -30z
m0 -211 c0 -20 -15 -26 -25 -9 -9 15 3 43 15 35 5 -3 10 -15 10 -26z"/>
<path d="M4617 2944 c-3 -11 -8 -37 -12 -59 -5 -36 -4 -38 8 -20 20 28 28 68
18 84 -7 11 -10 10 -14 -5z"/>
<path d="M4543 2295 c-15 -16 -16 -25 -5 -25 4 0 13 9 20 20 14 23 3 26 -15 5z"/>
<path d="M1945 3665 c0 -30 19 -27 23 3 2 13 -2 22 -10 22 -7 0 -13 -11 -13
-25z"/>
<path d="M3380 2100 c-8 -5 -12 -12 -9 -15 8 -8 39 5 39 16 0 11 -11 11 -30
-1z"/>
<path d="M3336 2054 c-9 -24 -7 -28 9 -14 17 14 20 30 6 30 -5 0 -12 -7 -15
-16z"/>
<path d="M3190 2035 c-7 -9 -10 -18 -6 -22 3 -3 6 -1 6 5 0 7 7 12 15 12 8 0
15 5 15 10 0 15 -16 12 -30 -5z"/>
<path d="M740 1901 c0 -31 -21 -37 -40 -11 -10 13 -20 18 -24 12 -8 -14 5
-102 15 -102 5 0 9 6 9 13 0 7 6 22 14 32 14 19 15 19 27 -8 7 -15 16 -27 21
-27 14 0 5 103 -9 108 -8 2 -13 -5 -13 -17z"/>
<path d="M810 1871 c0 -39 4 -51 16 -51 12 0 14 10 12 47 -4 66 -28 70 -28 4z"/>
<path d="M932 1875 c-15 -55 -15 -65 -2 -65 6 0 10 12 10 26 0 22 2 25 15 14
8 -7 15 -18 15 -26 0 -23 21 -27 41 -5 10 11 19 25 19 31 0 6 5 8 10 5 6 -3 7
-17 4 -31 -4 -14 -2 -24 5 -24 11 0 18 22 23 70 2 19 -2 26 -19 28 -13 2 -23
-2 -23 -9 0 -11 -28 -38 -41 -39 -4 0 -7 6 -6 13 1 41 -4 57 -21 57 -13 0 -21
-13 -30 -45z"/>
<path d="M610 1861 c0 -46 9 -73 21 -65 17 10 6 104 -12 104 -5 0 -9 -18 -9
-39z"/>
<path d="M515 1854 l-15 -37 -26 28 c-24 26 -27 26 -42 11 -13 -12 -13 -18 -4
-28 7 -7 12 -25 12 -40 0 -17 5 -28 14 -28 9 0 12 8 8 25 -2 15 0 25 7 25 6 0
11 -4 11 -9 0 -16 31 -42 42 -35 5 3 7 17 4 31 -10 38 5 49 20 14 18 -43 34
-39 27 7 -7 43 -20 72 -33 72 -5 0 -17 -16 -25 -36z"/>
<path d="M1127 1822 c-44 -45 -46 -54 -10 -50 21 2 30 -3 38 -20 5 -12 14 -21
20 -19 13 5 13 119 0 124 -6 2 -27 -14 -48 -35z"/>
<path d="M1240 1791 c0 -16 -7 -34 -15 -41 -8 -7 -15 -19 -15 -27 0 -13 3 -13
15 -3 18 15 45 6 45 -15 0 -9 5 -13 10 -10 6 3 10 20 10 37 0 17 8 40 18 51
16 19 16 20 -9 14 -19 -5 -29 -2 -33 8 -9 25 -26 17 -26 -14z"/>
<path d="M1346 1763 c-18 -36 -24 -71 -11 -75 13 -4 47 90 35 97 -5 3 -16 -7
-24 -22z"/>
<path d="M1413 1758 c-9 -15 -33 -79 -33 -90 0 -5 5 -8 10 -8 6 0 10 7 10 15
0 8 7 15 15 15 8 0 15 -9 15 -19 0 -33 22 -36 47 -6 27 30 41 28 22 -4 -14
-21 -8 -37 10 -27 14 9 34 84 26 96 -9 15 -20 12 -49 -15 -33 -30 -50 -32 -41
-5 12 39 -13 77 -32 48z"/>
<path d="M1565 1675 c-20 -54 -15 -75 20 -75 27 0 34 14 10 24 -23 8 -18 26 7
26 17 0 19 3 10 12 -18 18 -15 28 8 28 27 0 25 16 -2 24 -35 9 -34 9 -53 -39z"/>
<path d="M1723 1672 c-7 -4 -16 -26 -21 -49 -11 -48 -2 -63 38 -63 31 0 44 8
59 38 10 19 10 28 -4 48 -8 13 -19 24 -24 24 -5 0 -15 2 -23 5 -7 3 -18 1 -25
-3z m51 -38 c9 -22 -12 -56 -32 -52 -16 4 -18 22 -7 56 6 17 32 15 39 -4z"/>
<path d="M1841 1628 c-23 -63 -23 -84 4 -98 31 -17 43 -7 20 16 -16 17 -16 18
0 31 15 10 16 15 5 28 -10 13 -9 15 10 15 28 0 21 24 -8 28 -15 2 -25 -4 -31
-20z"/>
<path d="M1954 1622 c-6 -4 -16 -27 -23 -51 -12 -40 -11 -46 5 -58 40 -29 69
-13 77 45 5 39 3 44 -22 56 -15 8 -32 11 -37 8z m36 -32 c0 -5 -4 -10 -10 -10
-5 0 -10 5 -10 10 0 6 5 10 10 10 6 0 10 -4 10 -10z m-10 -55 c0 -8 -7 -15
-15 -15 -8 0 -15 7 -15 15 0 8 7 15 15 15 8 0 15 -7 15 -15z"/>
<path d="M2047 1553 c-7 -27 -12 -53 -10 -60 6 -16 46 -24 58 -12 6 6 2 12
-13 15 -28 8 -28 20 1 28 17 5 19 8 8 15 -18 11 -6 45 11 35 9 -5 9 -3 -1 9
-23 29 -39 19 -54 -30z"/>
<path d="M2150 1571 c0 -6 5 -13 10 -16 7 -4 8 -24 4 -51 -5 -37 -4 -44 10
-44 11 0 16 9 16 30 0 19 7 34 20 42 27 17 25 24 -11 37 -39 13 -49 14 -49 2z"/>
<path d="M2256 1542 c-11 -19 -9 -81 3 -96 16 -19 57 -21 68 -3 4 6 13 28 20
47 15 44 -1 66 -18 24 -19 -50 -26 -59 -40 -59 -10 0 -13 12 -11 48 3 42 -8
61 -22 39z"/>
<path d="M2386 1514 c-10 -25 -7 -94 4 -94 6 0 10 7 10 15 0 23 27 18 33 -6 3
-12 10 -18 16 -14 6 3 8 17 5 31 -4 14 -1 31 6 39 11 13 10 18 -6 30 -25 19
-60 19 -68 -1z m44 -19 c0 -8 -4 -15 -10 -15 -5 0 -10 7 -10 15 0 8 5 15 10
15 6 0 10 -7 10 -15z"/>
<path d="M4750 1850 c0 -5 5 -12 11 -15 6 -4 9 -27 7 -53 -2 -30 1 -47 10 -49
7 -3 12 4 12 19 0 39 12 68 26 68 25 0 15 19 -13 26 -16 3 -34 7 -40 10 -7 2
-13 -1 -13 -6z"/>
<path d="M4513 1843 c-13 -5 -18 -69 -7 -97 7 -18 59 -22 69 -6 3 6 -3 10 -14
10 -26 0 -37 18 -16 27 16 5 16 7 1 15 -21 12 -20 34 2 47 16 10 15 10 -3 10
-11 0 -26 -3 -32 -6z"/>
<path d="M4610 1801 c0 -28 5 -53 10 -56 6 -3 10 3 10 14 0 31 16 34 34 6 27
-42 45 -32 44 25 0 53 -12 74 -23 40 -8 -25 -17 -25 -33 0 -23 38 -42 25 -42
-29z"/>
<path d="M4427 1833 c-2 -4 -7 -20 -11 -35 -8 -35 -24 -35 -52 -1 -14 18 -26
24 -38 20 -19 -7 -16 -43 7 -97 l11 -25 4 33 c4 38 15 41 30 7 17 -36 42 -32
42 7 l0 31 25 -23 c33 -31 39 -22 22 36 -13 45 -30 65 -40 47z"/>
<path d="M4856 1808 c-12 -47 -7 -74 18 -87 13 -7 33 -10 44 -7 25 8 58 84 43
99 -13 13 -14 12 -32 -38 -21 -57 -44 -53 -42 8 1 50 -19 67 -31 25z"/>
<path d="M4223 1789 c-13 -13 -1 -76 19 -95 14 -13 68 -8 68 7 0 5 -11 9 -25
9 -27 0 -32 9 -13 28 9 9 8 12 -5 12 -9 0 -17 7 -17 15 0 8 5 15 10 15 6 0 10
5 10 10 0 13 -33 13 -47 -1z"/>
<path d="M4993 1753 c-12 -26 -20 -49 -18 -52 10 -10 35 11 35 29 0 12 5 18
10 15 6 -3 10 -22 10 -41 0 -37 18 -45 40 -19 19 23 31 18 24 -10 -10 -42 14
-29 36 19 24 54 24 52 3 60 -10 4 -26 -3 -44 -20 -31 -29 -36 -26 -41 31 -5
47 -30 42 -55 -12z"/>
<path d="M4111 1757 c-11 -14 -10 -23 11 -79 13 -35 28 -36 28 -3 0 28 12 32
30 10 12 -14 40 -21 40 -10 0 3 -8 14 -17 25 -10 11 -18 30 -18 42 0 18 -7 24
-31 26 -18 2 -36 -3 -43 -11z m47 -18 c-2 -6 -8 -10 -13 -10 -5 0 -11 4 -13
10 -2 6 4 11 13 11 9 0 15 -5 13 -11z"/>
<path d="M4023 1733 c-31 -21 -30 -63 1 -92 26 -24 54 -23 77 5 11 13 9 14
-14 9 -50 -13 -79 41 -37 67 11 7 20 16 20 20 0 13 -23 8 -47 -9z"/>
<path d="M3947 1704 c-3 -4 -2 -15 3 -25 14 -26 -4 -32 -25 -9 -20 22 -55 27
-55 8 0 -26 28 -92 40 -96 9 -3 10 5 5 29 l-7 33 23 -17 c56 -41 75 -32 55 26
-14 41 -29 61 -39 51z"/>
<path d="M3820 1656 c0 -24 31 -96 41 -96 12 0 11 18 -5 65 -14 40 -36 59 -36
31z"/>
<path d="M3696 1637 c-15 -11 -16 -18 -5 -59 15 -55 28 -63 66 -43 28 15 25
19 -9 16 -10 -1 -18 3 -18 10 0 6 8 18 18 25 16 12 15 13 -5 14 -27 0 -38 16
-18 24 18 7 20 26 2 26 -7 0 -21 -6 -31 -13z"/>
<path d="M3603 1609 c-13 -18 -23 -93 -14 -108 5 -8 13 -5 25 8 13 15 26 19
47 14 38 -7 36 3 -9 56 -30 34 -40 40 -49 30z m27 -55 c0 -8 -4 -14 -10 -14
-5 0 -10 9 -10 21 0 11 5 17 10 14 6 -3 10 -13 10 -21z"/>
<path d="M3520 1567 c0 -36 21 -88 34 -84 12 4 12 12 -1 66 -10 41 -33 54 -33
18z"/>
<path d="M3438 1575 c-7 -7 12 -86 24 -101 9 -13 58 -7 58 7 0 5 -9 9 -20 9
-15 0 -22 11 -31 45 -11 42 -18 52 -31 40z"/>
<path d="M3388 1559 c-8 -23 5 -91 19 -96 22 -9 25 1 12 51 -12 47 -24 65 -31
45z"/>
<path d="M3300 1539 c-13 -23 2 -49 26 -49 8 0 14 -9 14 -20 0 -15 -7 -20 -25
-20 -18 0 -31 11 -51 45 -14 25 -31 45 -38 45 -20 0 -36 -22 -36 -49 0 -15 -5
-33 -10 -41 -13 -21 -28 -3 -32 40 -3 33 -5 35 -38 35 -33 0 -35 -2 -38 -38
-4 -45 -24 -45 -32 -1 -5 26 -9 29 -45 29 l-40 0 4 -45 c1 -25 5 -48 8 -52 8
-15 66 -8 79 10 13 16 15 16 28 0 17 -23 26 -23 26 2 0 23 25 27 34 5 7 -20
29 -19 73 5 27 15 40 17 50 8 23 -19 80 -19 104 1 28 22 20 47 -18 62 -26 10
-27 12 -10 23 22 17 22 26 -3 26 -10 0 -24 -9 -30 -21z m-184 -56 c-11 -11
-19 6 -11 24 8 17 8 17 12 0 3 -10 2 -21 -1 -24z m-106 7 c0 -5 -7 -10 -16
-10 -8 0 -12 5 -9 10 3 6 10 10 16 10 5 0 9 -4 9 -10z m230 1 c0 -6 -4 -13
-10 -16 -5 -3 -10 1 -10 9 0 9 5 16 10 16 6 0 10 -4 10 -9z m-220 -51 c0 -5
-7 -10 -15 -10 -8 0 -15 5 -15 10 0 6 7 10 15 10 8 0 15 -4 15 -10z"/>
<path d="M1262 933 c-5 -10 -30 -74 -56 -143 -26 -69 -51 -133 -57 -142 -17
-33 -10 -62 23 -85 37 -26 18 -33 173 64 44 27 101 63 127 79 52 32 59 52 27
72 -18 11 -33 4 -145 -69 -68 -45 -127 -79 -131 -76 -3 4 4 27 16 52 11 24 21
49 21 55 0 9 41 105 62 144 7 14 4 24 -13 42 -27 29 -35 30 -47 7z"/>
<path d="M4291 884 c-36 -30 -61 -73 -61 -103 0 -11 14 -37 32 -57 32 -36 32
-36 92 -30 117 13 127 12 143 -10 13 -20 12 -24 -10 -50 -14 -15 -40 -33 -58
-39 -37 -13 -44 -32 -18 -48 25 -16 69 1 110 42 67 66 62 141 -10 185 -30 17
-35 17 -102 2 -84 -19 -112 -10 -107 32 2 20 14 31 46 47 50 23 52 48 6 53
-22 2 -40 -5 -63 -24z"/>
<path d="M3983 683 c-40 -20 -46 -35 -34 -82 5 -20 19 -95 32 -168 12 -73 26
-137 29 -144 5 -8 15 -6 33 6 24 15 26 21 20 60 l-5 43 53 31 c30 17 59 31 66
31 6 0 26 -12 43 -26 28 -24 34 -25 56 -14 13 7 24 19 24 26 0 7 -28 37 -61
66 -34 29 -97 83 -139 121 -43 37 -80 67 -81 66 -2 0 -18 -7 -36 -16z m92
-118 c59 -48 61 -60 18 -85 -30 -17 -38 -19 -49 -8 -14 14 -31 128 -20 128 4
0 27 -16 51 -35z"/>
<path d="M1518 555 c-71 -68 -128 -128 -128 -133 0 -5 11 -15 25 -22 23 -13
28 -11 59 19 l34 33 62 -32 62 -32 -5 -38 c-5 -43 14 -70 49 -70 17 0 21 17
42 182 l22 183 -22 17 c-46 35 -66 24 -200 -107z m142 13 c0 -35 -15 -106 -23
-114 -6 -6 -87 33 -87 41 0 7 94 102 103 103 4 1 7 -13 7 -30z"/>
<path d="M1983 538 c-60 -16 -91 -86 -62 -141 7 -12 25 -33 41 -47 17 -13 36
-37 44 -52 13 -25 13 -29 -6 -48 -11 -11 -25 -20 -30 -20 -20 0 -75 27 -89 43
-21 26 -41 21 -41 -11 0 -46 58 -82 131 -82 73 0 118 40 119 103 0 32 -8 46
-50 91 -50 53 -60 82 -38 104 18 18 41 15 78 -13 34 -25 60 -21 60 10 0 36
-102 77 -157 63z"/>
<path d="M3588 527 c-37 -12 -69 -26 -72 -32 -2 -6 20 -82 49 -170 55 -167 66
-183 108 -153 16 12 16 16 -4 71 -11 32 -18 64 -15 72 11 31 51 15 106 -40 57
-57 87 -68 111 -39 12 14 5 24 -55 81 -63 60 -67 66 -52 82 27 30 21 93 -12
124 -34 33 -70 34 -164 4z m112 -57 c25 -25 25 -31 -1 -64 -13 -17 -30 -26
-48 -26 -24 0 -30 6 -41 41 -13 38 -12 43 5 55 27 20 62 17 85 -6z"/>
<path d="M2303 456 c-38 -17 -53 -43 -53 -89 0 -41 27 -79 80 -112 50 -31 60
-62 30 -87 -28 -23 -41 -23 -92 2 -53 25 -58 25 -58 -3 0 -39 32 -59 102 -64
80 -5 121 17 139 75 14 49 -5 92 -59 126 -57 36 -78 64 -66 84 15 23 63 27 99
8 33 -17 45 -13 45 14 0 45 -106 74 -167 46z"/>
<path d="M3308 458 c-4 -11 1 -51 21 -175 10 -59 10 -78 -1 -100 -24 -51 -102
-56 -133 -9 -9 14 -23 69 -31 123 -20 135 -20 135 -57 131 -36 -3 -36 -3 -18
-113 7 -38 15 -89 18 -112 4 -28 17 -56 38 -80 32 -37 34 -38 103 -37 59 0 75
4 104 26 57 44 64 65 49 171 -7 51 -17 113 -23 140 -9 43 -12 47 -38 47 -16 0
-30 -5 -32 -12z"/>
<path d="M2690 412 c-67 -33 -97 -111 -84 -215 11 -87 58 -131 144 -138 65 -5
116 11 148 44 41 43 52 75 52 156 0 80 -24 125 -80 153 -45 23 -134 23 -180 0z
m155 -67 c22 -21 25 -33 25 -97 -1 -82 -16 -111 -69 -129 -25 -9 -38 -7 -68 8
-32 15 -40 25 -49 63 -13 56 -1 126 28 157 31 33 100 32 133 -2z"/>
</g>
</svg>
